<?xml version="1.0" encoding="UTF-8" standalone="no"?>
<!DOCTYPE svg PUBLIC "-//W3C//DTD SVG 1.1//EN"
 "http://www.w3.org/Graphics/SVG/1.1/DTD/svg11.dtd">
<!-- Generated by graphviz version 12.2.0 (20241103.1931)
 -->
<!-- Title: G Pages: 1 -->
<svg width="991pt" height="591pt"
 viewBox="0.00 0.00 991.02 590.80" xmlns="http://www.w3.org/2000/svg" xmlns:xlink="http://www.w3.org/1999/xlink">
<g id="graph0" class="graph" transform="scale(1 1) rotate(0) translate(4 586.8)">
<title>G</title><style>.edge>path:hover{stroke-width:8}</style>
<polygon fill="white" stroke="none" points="-4,4 -4,-586.8 987.02,-586.8 987.02,4 -4,4"/>
<!-- app_application -->
<g id="node1" class="node">
<title>app_application</title><style>.edge>path:hover{stroke-width:8}</style>
<ellipse fill="#e72222" stroke="black" cx="309.83" cy="-402.97" rx="36.98" ry="18"/>
<text text-anchor="middle" x="309.83" y="-399.09" font-family="Helvetica,sans-Serif" font-size="10.00" fill="#ffffff">application</text>
</g>
<!-- app_application_dto -->
<g id="node2" class="node">
<title>app_application_dto</title><style>.edge>path:hover{stroke-width:8}</style>
<ellipse fill="#a32828" stroke="black" cx="524.83" cy="-402.97" rx="46.32" ry="21.57"/>
<text text-anchor="middle" x="524.83" y="-404.72" font-family="Helvetica,sans-Serif" font-size="10.00" fill="#ffffff">application.</text>
<text text-anchor="middle" x="524.83" y="-393.47" font-family="Helvetica,sans-Serif" font-size="10.00" fill="#ffffff">dto</text>
</g>
<!-- app_domain -->
<g id="node6" class="node">
<title>app_domain</title><style>.edge>path:hover{stroke-width:8}</style>
<ellipse fill="#f91010" stroke="black" cx="570.83" cy="-561.23" rx="28.11" ry="18"/>
<text text-anchor="middle" x="570.83" y="-557.36" font-family="Helvetica,sans-Serif" font-size="10.00" fill="#ffffff">domain</text>
</g>
<!-- app_application_dto&#45;&gt;app_domain -->
<g id="edge11" class="edge">
<title>app_application_dto&#45;&gt;app_domain</title><style>.edge>path:hover{stroke-width:8}</style>
<path fill="none" stroke="black" d="M543.83,-483.1C540.75,-500.76 547.28,-519.77 554.69,-534.51"/>
<polygon fill="#a32828" stroke="black" points="551.51,-535.98 559.39,-543.07 557.65,-532.62 551.51,-535.98"/>
</g>
<!-- app_domain_entities -->
<g id="node7" class="node">
<title>app_domain_entities</title><style>.edge>path:hover{stroke-width:8}</style>
<ellipse fill="#e50505" stroke="black" cx="168.83" cy="-561.23" rx="35.71" ry="21.57"/>
<text text-anchor="middle" x="168.83" y="-562.98" font-family="Helvetica,sans-Serif" font-size="10.00" fill="#ffffff">domain.</text>
<text text-anchor="middle" x="168.83" y="-551.73" font-family="Helvetica,sans-Serif" font-size="10.00" fill="#ffffff">entities</text>
</g>
<!-- app_application_dto&#45;&gt;app_domain_entities -->
<g id="edge19" class="edge">
<title>app_application_dto&#45;&gt;app_domain_entities</title><style>.edge>path:hover{stroke-width:8}</style>
<path fill="none" stroke="black" d="M508.19,-423.43C493.81,-439.71 472.06,-463.09 450.83,-481.1"/>
</g>
<!-- app_domain_value_objects -->
<g id="node12" class="node">
<title>app_domain_value_objects</title><style>.edge>path:hover{stroke-width:8}</style>
<ellipse fill="#db2f2f" stroke="black" cx="412.83" cy="-561.23" rx="53.74" ry="21.57"/>
<text text-anchor="middle" x="412.83" y="-562.98" font-family="Helvetica,sans-Serif" font-size="10.00" fill="#ffffff">domain.</text>
<text text-anchor="middle" x="412.83" y="-551.73" font-family="Helvetica,sans-Serif" font-size="10.00" fill="#ffffff">value_objects</text>
</g>
<!-- app_application_dto&#45;&gt;app_domain_value_objects -->
<g id="edge36" class="edge">
<title>app_application_dto&#45;&gt;app_domain_value_objects</title><style>.edge>path:hover{stroke-width:8}</style>
<path fill="none" stroke="black" d="M543.83,-483.1C537.86,-517.32 503.4,-536.74 471.32,-547.54"/>
<polygon fill="#a32828" stroke="black" points="470.53,-544.12 462.02,-550.43 472.61,-550.8 470.53,-544.12"/>
<path fill="none" stroke="black" d="M534.65,-424.43C540.9,-439.88 547.22,-461.67 543.83,-481.1"/>
</g>
<!-- app_application_exc -->
<g id="node3" class="node">
<title>app_application_exc</title><style>.edge>path:hover{stroke-width:8}</style>
<ellipse fill="#bc2f2f" stroke="black" cx="672.83" cy="-402.97" rx="46.32" ry="21.57"/>
<text text-anchor="middle" x="672.83" y="-404.72" font-family="Helvetica,sans-Serif" font-size="10.00" fill="#ffffff">application.</text>
<text text-anchor="middle" x="672.83" y="-393.47" font-family="Helvetica,sans-Serif" font-size="10.00" fill="#ffffff">exc</text>
</g>
<!-- app_application_exc&#45;&gt;app_domain -->
<g id="edge12" class="edge">
<title>app_application_exc&#45;&gt;app_domain</title><style>.edge>path:hover{stroke-width:8}</style>
<path fill="none" stroke="black" d="M648.18,-421.43C630.8,-435.35 608.89,-456.54 598.83,-481.1"/>
</g>
<!-- app_domain_exc -->
<g id="node8" class="node">
<title>app_domain_exc</title><style>.edge>path:hover{stroke-width:8}</style>
<ellipse fill="#c24747" stroke="black" cx="672.83" cy="-482.1" rx="39.2" ry="18"/>
<text text-anchor="middle" x="672.83" y="-478.23" font-family="Helvetica,sans-Serif" font-size="10.00" fill="#ffffff">domain.exc</text>
</g>
<!-- app_application_exc&#45;&gt;app_domain_exc -->
<g id="edge26" class="edge">
<title>app_application_exc&#45;&gt;app_domain_exc</title><style>.edge>path:hover{stroke-width:8}</style>
<path fill="none" stroke="black" d="M672.83,-424.64C672.83,-433.14 672.83,-443.13 672.83,-452.33"/>
<polygon fill="#bc2f2f" stroke="black" points="669.33,-452.25 672.83,-462.25 676.33,-452.25 669.33,-452.25"/>
</g>
<!-- app_application_use_cases -->
<g id="node4" class="node">
<title>app_application_use_cases</title><style>.edge>path:hover{stroke-width:8}</style>
<ellipse fill="#7a2828" stroke="black" cx="486.83" cy="-323.83" rx="46.32" ry="21.57"/>
<text text-anchor="middle" x="486.83" y="-325.58" font-family="Helvetica,sans-Serif" font-size="10.00" fill="#ffffff">application.</text>
<text text-anchor="middle" x="486.83" y="-314.33" font-family="Helvetica,sans-Serif" font-size="10.00" fill="#ffffff">use_cases</text>
</g>
<!-- app_application_use_cases&#45;&gt;app_application_dto -->
<g id="edge4" class="edge">
<title>app_application_use_cases&#45;&gt;app_application_dto</title><style>.edge>path:hover{stroke-width:8}</style>
<path fill="none" stroke="black" d="M496.81,-345.1C500.75,-353.1 505.37,-362.46 509.7,-371.25"/>
<polygon fill="#7a2828" stroke="black" points="506.55,-372.79 514.11,-380.21 512.83,-369.69 506.55,-372.79"/>
</g>
<!-- app_application_use_cases&#45;&gt;app_application_exc -->
<g id="edge6" class="edge">
<title>app_application_use_cases&#45;&gt;app_application_exc</title><style>.edge>path:hover{stroke-width:8}</style>
<path fill="none" stroke="black" d="M520.51,-338.8C550.74,-351.34 595.32,-369.82 628.45,-383.56"/>
<polygon fill="#7a2828" stroke="black" points="626.79,-386.66 637.37,-387.26 629.47,-380.2 626.79,-386.66"/>
</g>
<!-- app_application_use_cases&#45;&gt;app_domain -->
<g id="edge13" class="edge">
<title>app_application_use_cases&#45;&gt;app_domain</title><style>.edge>path:hover{stroke-width:8}</style>
<path fill="none" stroke="black" d="M524.44,-336.77C552.7,-348.23 588.28,-368.78 598.83,-401.97"/>
<path fill="none" stroke="black" d="M598.83,-403.97C609.22,-436.64 611.82,-449.38 598.83,-481.1"/>
<path fill="none" stroke="black" d="M598.83,-483.1C592.16,-499.38 585.41,-517.91 580.21,-532.73"/>
<polygon fill="#7a2828" stroke="black" points="577.03,-531.21 577.05,-541.8 583.64,-533.5 577.03,-531.21"/>
</g>
<!-- app_application_use_cases&#45;&gt;app_domain_entities -->
<g id="edge20" class="edge">
<title>app_application_use_cases&#45;&gt;app_domain_entities</title><style>.edge>path:hover{stroke-width:8}</style>
<path fill="none" stroke="black" d="M450.83,-403.97C430.05,-431.24 476.97,-458.92 450.83,-481.1"/>
<path fill="none" stroke="black" d="M450.83,-483.1C383.38,-540.32 277.08,-555.38 216.08,-559.17"/>
<polygon fill="#7a2828" stroke="black" points="216.19,-555.65 206.39,-559.68 216.56,-562.64 216.19,-555.65"/>
</g>
<!-- app_domain_repositories -->
<g id="node10" class="node">
<title>app_domain_repositories</title><style>.edge>path:hover{stroke-width:8}</style>
<ellipse fill="#c11515" stroke="black" cx="337.83" cy="-482.1" rx="46.85" ry="21.57"/>
<text text-anchor="middle" x="337.83" y="-483.85" font-family="Helvetica,sans-Serif" font-size="10.00" fill="#ffffff">domain.</text>
<text text-anchor="middle" x="337.83" y="-472.6" font-family="Helvetica,sans-Serif" font-size="10.00" fill="#ffffff">repositories</text>
</g>
<!-- app_application_use_cases&#45;&gt;app_domain_repositories -->
<g id="edge29" class="edge">
<title>app_application_use_cases&#45;&gt;app_domain_repositories</title><style>.edge>path:hover{stroke-width:8}</style>
<path fill="none" stroke="black" d="M450.83,-403.97C432.68,-428.54 404.24,-447.89 380.44,-461.07"/>
<polygon fill="#7a2828" stroke="black" points="379.07,-457.83 371.9,-465.62 382.37,-464.01 379.07,-457.83"/>
</g>
<!-- app_domain_services -->
<g id="node11" class="node">
<title>app_domain_services</title><style>.edge>path:hover{stroke-width:8}</style>
<ellipse fill="#bc2f2f" stroke="black" cx="168.83" cy="-482.1" rx="37.3" ry="21.57"/>
<text text-anchor="middle" x="168.83" y="-483.85" font-family="Helvetica,sans-Serif" font-size="10.00" fill="#ffffff">domain.</text>
<text text-anchor="middle" x="168.83" y="-472.6" font-family="Helvetica,sans-Serif" font-size="10.00" fill="#ffffff">services</text>
</g>
<!-- app_application_use_cases&#45;&gt;app_domain_services -->
<g id="edge33" class="edge">
<title>app_application_use_cases&#45;&gt;app_domain_services</title><style>.edge>path:hover{stroke-width:8}</style>
<path fill="none" stroke="black" d="M479.83,-345.37C473.69,-361.65 463.74,-384.49 450.83,-401.97"/>
<path fill="none" stroke="black" d="M450.83,-403.97C436.67,-423.14 291.44,-455.71 215.13,-471.69"/>
<polygon fill="#7a2828" stroke="black" points="214.5,-468.24 205.43,-473.71 215.93,-475.1 214.5,-468.24"/>
</g>
<!-- app_application_use_cases&#45;&gt;app_domain_value_objects -->
<g id="edge37" class="edge">
<title>app_application_use_cases&#45;&gt;app_domain_value_objects</title><style>.edge>path:hover{stroke-width:8}</style>
<path fill="none" stroke="black" d="M450.83,-403.97C435.44,-424.8 461.7,-434.83 464.83,-460.53 467.15,-479.56 471.79,-485.81 464.83,-503.67 460.51,-514.76 452.88,-524.99 444.77,-533.62"/>
<polygon fill="#7a2828" stroke="black" points="442.34,-531.1 437.69,-540.62 447.26,-536.08 442.34,-531.1"/>
</g>
<!-- app_di_container -->
<g id="node5" class="node">
<title>app_di_container</title><style>.edge>path:hover{stroke-width:8}</style>
<ellipse fill="#813737" stroke="black" cx="634.83" cy="-90" rx="40.53" ry="18"/>
<text text-anchor="middle" x="634.83" y="-86.12" font-family="Helvetica,sans-Serif" font-size="10.00" fill="#ffffff">di_container</text>
</g>
<!-- app_di_container&#45;&gt;app_domain -->
<g id="edge14" class="edge">
<title>app_di_container&#45;&gt;app_domain</title><style>.edge>path:hover{stroke-width:8}</style>
<path fill="none" stroke="black" d="M653.15,-106.48C665.06,-116.78 680.75,-130.79 693.83,-144 711.81,-162.15 714.61,-168.26 731.83,-187.13 780.77,-240.78 814.29,-250.72 822.83,-322.83"/>
<path fill="none" stroke="black" d="M822.83,-324.83C830.92,-395.85 826.36,-422.93 784.83,-481.1"/>
</g>
<!-- app_domain_factories -->
<g id="node9" class="node">
<title>app_domain_factories</title><style>.edge>path:hover{stroke-width:8}</style>
<ellipse fill="#a83838" stroke="black" cx="37.83" cy="-482.1" rx="37.83" ry="21.57"/>
<text text-anchor="middle" x="37.83" y="-483.85" font-family="Helvetica,sans-Serif" font-size="10.00" fill="#ffffff">domain.</text>
<text text-anchor="middle" x="37.83" y="-472.6" font-family="Helvetica,sans-Serif" font-size="10.00" fill="#ffffff">factories</text>
</g>
<!-- app_di_container&#45;&gt;app_domain_factories -->
<g id="edge28" class="edge">
<title>app_di_container&#45;&gt;app_domain_factories</title><style>.edge>path:hover{stroke-width:8}</style>
<path fill="none" stroke="black" d="M88.83,-166.57C69.15,-198.64 41.16,-188.77 25.83,-223.13 -7.89,-298.73 13.27,-399.45 27.69,-449.75"/>
<polygon fill="#813737" stroke="black" points="24.26,-450.51 30.47,-459.1 30.97,-448.51 24.26,-450.51"/>
<path fill="none" stroke="black" d="M594.68,-92.87C472.88,-99 114.35,-120.7 88.83,-164.57"/>
</g>
<!-- app_infrastructure -->
<g id="node13" class="node">
<title>app_infrastructure</title><style>.edge>path:hover{stroke-width:8}</style>
<ellipse fill="#db2f2f" stroke="black" cx="939.83" cy="-165.57" rx="43.19" ry="18"/>
<text text-anchor="middle" x="939.83" y="-161.69" font-family="Helvetica,sans-Serif" font-size="10.00" fill="#ffffff">infrastructure</text>
</g>
<!-- app_di_container&#45;&gt;app_infrastructure -->
<g id="edge40" class="edge">
<title>app_di_container&#45;&gt;app_infrastructure</title><style>.edge>path:hover{stroke-width:8}</style>
<path fill="none" stroke="black" d="M665.19,-102.35C671.31,-104.41 677.73,-106.4 683.83,-108 770.77,-130.8 796.03,-120.67 882.83,-144 888.02,-145.39 893.4,-147.05 898.7,-148.81"/>
<polygon fill="#813737" stroke="black" points="897.34,-152.04 907.94,-152.01 899.64,-145.43 897.34,-152.04"/>
</g>
<!-- app_infrastructure_config -->
<g id="node14" class="node">
<title>app_infrastructure_config</title><style>.edge>path:hover{stroke-width:8}</style>
<ellipse fill="#ce3b3b" stroke="black" cx="88.83" cy="-244.7" rx="53.74" ry="21.57"/>
<text text-anchor="middle" x="88.83" y="-246.45" font-family="Helvetica,sans-Serif" font-size="10.00" fill="#ffffff">infrastructure.</text>
<text text-anchor="middle" x="88.83" y="-235.2" font-family="Helvetica,sans-Serif" font-size="10.00" fill="#ffffff">config</text>
</g>
<!-- app_di_container&#45;&gt;app_infrastructure_config -->
<g id="edge43" class="edge">
<title>app_di_container&#45;&gt;app_infrastructure_config</title><style>.edge>path:hover{stroke-width:8}</style>
<path fill="none" stroke="black" d="M88.83,-166.57C80.71,-179.81 79.94,-196.88 81.54,-211.6"/>
<polygon fill="#813737" stroke="black" points="78.05,-211.92 83,-221.29 84.97,-210.88 78.05,-211.92"/>
</g>
<!-- app_infrastructure_database -->
<g id="node15" class="node">
<title>app_infrastructure_database</title><style>.edge>path:hover{stroke-width:8}</style>
<ellipse fill="#c24747" stroke="black" cx="904.83" cy="-244.7" rx="53.74" ry="21.57"/>
<text text-anchor="middle" x="904.83" y="-246.45" font-family="Helvetica,sans-Serif" font-size="10.00" fill="#ffffff">infrastructure.</text>
<text text-anchor="middle" x="904.83" y="-235.2" font-family="Helvetica,sans-Serif" font-size="10.00" fill="#ffffff">database</text>
</g>
<!-- app_di_container&#45;&gt;app_infrastructure_database -->
<g id="edge46" class="edge">
<title>app_di_container&#45;&gt;app_infrastructure_database</title><style>.edge>path:hover{stroke-width:8}</style>
<path fill="none" stroke="black" d="M665.49,-102.27C671.53,-104.31 677.85,-106.32 683.83,-108 756.51,-128.41 784.29,-106.54 849.83,-144 860.63,-150.18 860.7,-155.15 868.83,-164.57"/>
<path fill="none" stroke="black" d="M868.83,-166.57C880.33,-179.89 888.92,-197.51 894.82,-212.55"/>
<polygon fill="#813737" stroke="black" points="891.39,-213.34 898.12,-221.52 897.96,-210.92 891.39,-213.34"/>
</g>
<!-- app_infrastructure_repositories -->
<g id="node16" class="node">
<title>app_infrastructure_repositories</title><style>.edge>path:hover{stroke-width:8}</style>
<ellipse fill="#822b2b" stroke="black" cx="558.83" cy="-244.7" rx="53.74" ry="21.57"/>
<text text-anchor="middle" x="558.83" y="-246.45" font-family="Helvetica,sans-Serif" font-size="10.00" fill="#ffffff">infrastructure.</text>
<text text-anchor="middle" x="558.83" y="-235.2" font-family="Helvetica,sans-Serif" font-size="10.00" fill="#ffffff">repositories</text>
</g>
<!-- app_di_container&#45;&gt;app_infrastructure_repositories -->
<g id="edge48" class="edge">
<title>app_di_container&#45;&gt;app_infrastructure_repositories</title><style>.edge>path:hover{stroke-width:8}</style>
<path fill="none" stroke="black" d="M617.49,-106.71C607.55,-116.55 595.55,-130 587.83,-144 576.18,-165.11 568.79,-191.38 564.38,-211.65"/>
<polygon fill="#813737" stroke="black" points="560.98,-210.83 562.43,-221.32 567.84,-212.22 560.98,-210.83"/>
</g>
<!-- app_infrastructure_services -->
<g id="node17" class="node">
<title>app_infrastructure_services</title><style>.edge>path:hover{stroke-width:8}</style>
<ellipse fill="#883a3a" stroke="black" cx="252.83" cy="-244.7" rx="53.74" ry="21.57"/>
<text text-anchor="middle" x="252.83" y="-246.45" font-family="Helvetica,sans-Serif" font-size="10.00" fill="#ffffff">infrastructure.</text>
<text text-anchor="middle" x="252.83" y="-235.2" font-family="Helvetica,sans-Serif" font-size="10.00" fill="#ffffff">services</text>
</g>
<!-- app_di_container&#45;&gt;app_infrastructure_services -->
<g id="edge49" class="edge">
<title>app_di_container&#45;&gt;app_infrastructure_services</title><style>.edge>path:hover{stroke-width:8}</style>
<path fill="none" stroke="black" d="M88.83,-166.57C75.46,-188.35 145.1,-213.55 197.78,-229.05"/>
<polygon fill="#813737" stroke="black" points="196.69,-232.38 207.27,-231.79 198.63,-225.66 196.69,-232.38"/>
</g>
<!-- app_domain_factories&#45;&gt;app_domain_entities -->
<g id="edge21" class="edge">
<title>app_domain_factories&#45;&gt;app_domain_entities</title><style>.edge>path:hover{stroke-width:8}</style>
<path fill="none" stroke="black" d="M63.71,-498.34C83.89,-510.22 112.09,-526.83 134.21,-539.85"/>
<polygon fill="#a83838" stroke="black" points="132.19,-542.72 142.59,-544.78 135.75,-536.69 132.19,-542.72"/>
</g>
<!-- app_domain_repositories&#45;&gt;app_domain_entities -->
<g id="edge22" class="edge">
<title>app_domain_repositories&#45;&gt;app_domain_entities</title><style>.edge>path:hover{stroke-width:8}</style>
<path fill="none" stroke="black" d="M305.25,-497.97C277.23,-510.76 236.77,-529.23 207.19,-542.72"/>
<polygon fill="#c11515" stroke="black" points="205.85,-539.49 198.21,-546.83 208.76,-545.86 205.85,-539.49"/>
</g>
<!-- app_domain_repositories&#45;&gt;app_domain_value_objects -->
<g id="edge38" class="edge">
<title>app_domain_repositories&#45;&gt;app_domain_value_objects</title><style>.edge>path:hover{stroke-width:8}</style>
<path fill="none" stroke="black" d="M356.37,-502.17C365.32,-511.37 376.22,-522.58 386.05,-532.69"/>
<polygon fill="#c11515" stroke="black" points="383.45,-535.04 392.93,-539.77 388.47,-530.16 383.45,-535.04"/>
</g>
<!-- app_domain_services&#45;&gt;app_domain_entities -->
<g id="edge23" class="edge">
<title>app_domain_services&#45;&gt;app_domain_entities</title><style>.edge>path:hover{stroke-width:8}</style>
<path fill="none" stroke="black" d="M168.83,-503.77C168.83,-511.15 168.83,-519.64 168.83,-527.77"/>
<polygon fill="#bc2f2f" stroke="black" points="165.33,-527.72 168.83,-537.72 172.33,-527.72 165.33,-527.72"/>
</g>
<!-- app_infrastructure_repositories&#45;&gt;app_application -->
<g id="edge1" class="edge">
<title>app_infrastructure_repositories&#45;&gt;app_application</title><style>.edge>path:hover{stroke-width:8}</style>
<path fill="none" stroke="black" d="M508.37,-252.54C465.6,-261.18 406.33,-280.43 374.83,-322.83"/>
<path fill="none" stroke="black" d="M374.83,-324.83C361.25,-343.11 344.7,-362.72 331.7,-377.59"/>
<polygon fill="#822b2b" stroke="black" points="329.11,-375.23 325.12,-385.05 334.36,-379.86 329.11,-375.23"/>
</g>
<!-- app_infrastructure_repositories&#45;&gt;app_application_exc -->
<g id="edge7" class="edge">
<title>app_infrastructure_repositories&#45;&gt;app_application_exc</title><style>.edge>path:hover{stroke-width:8}</style>
<path fill="none" stroke="black" d="M577.62,-265.19C593.15,-281.07 615.96,-303.89 636.83,-322.83"/>
</g>
<!-- app_infrastructure_repositories&#45;&gt;app_domain -->
<g id="edge15" class="edge">
<title>app_infrastructure_repositories&#45;&gt;app_domain</title><style>.edge>path:hover{stroke-width:8}</style>
<path fill="none" stroke="black" d="M568,-266.38C575.43,-282.34 586.65,-304.67 598.83,-322.83"/>
</g>
<!-- app_infrastructure_repositories&#45;&gt;app_domain_entities -->
<g id="edge24" class="edge">
<title>app_infrastructure_repositories&#45;&gt;app_domain_entities</title><style>.edge>path:hover{stroke-width:8}</style>
<path fill="none" stroke="black" d="M505.41,-247.81C454.18,-252.14 376.59,-264.94 320.83,-302.27 236.78,-358.54 266.14,-416.49 214.83,-503.67 208.76,-513.98 200.91,-524.38 193.41,-533.41"/>
<polygon fill="#822b2b" stroke="black" points="190.95,-530.9 187.1,-540.77 196.26,-535.46 190.95,-530.9"/>
</g>
<!-- app_infrastructure_repositories&#45;&gt;app_domain_repositories -->
<g id="edge30" class="edge">
<title>app_infrastructure_repositories&#45;&gt;app_domain_repositories</title><style>.edge>path:hover{stroke-width:8}</style>
<path fill="none" stroke="black" d="M374.83,-403.97C369.28,-419.83 361.41,-436.74 354.35,-450.67"/>
<polygon fill="#822b2b" stroke="black" points="351.36,-448.85 349.86,-459.34 357.57,-452.07 351.36,-448.85"/>
<path fill="none" stroke="black" d="M374.83,-324.83C354.39,-352.35 386.15,-369.61 374.83,-401.97"/>
</g>
<!-- app_infrastructure_repositories&#45;&gt;app_domain_value_objects -->
<g id="edge39" class="edge">
<title>app_infrastructure_repositories&#45;&gt;app_domain_value_objects</title><style>.edge>path:hover{stroke-width:8}</style>
<path fill="none" stroke="black" d="M374.83,-324.83C359.39,-345.62 383.99,-355.96 388.83,-381.4 398.51,-432.27 405.7,-492.02 409.57,-527.96"/>
<polygon fill="#822b2b" stroke="black" points="406.07,-528.11 410.6,-537.69 413.03,-527.37 406.07,-528.11"/>
</g>
<!-- app_infrastructure_services&#45;&gt;app_application -->
<g id="edge2" class="edge">
<title>app_infrastructure_services&#45;&gt;app_application</title><style>.edge>path:hover{stroke-width:8}</style>
<path fill="none" stroke="black" d="M286.17,-261.79C307.83,-274.77 332.46,-295.38 334.83,-322.83"/>
<path fill="none" stroke="black" d="M334.83,-324.83C336.31,-342.05 330.63,-360.48 324.31,-375.01"/>
<polygon fill="#883a3a" stroke="black" points="321.21,-373.37 320.11,-383.91 327.54,-376.36 321.21,-373.37"/>
</g>
<!-- app_infrastructure_services&#45;&gt;app_application_exc -->
<g id="edge8" class="edge">
<title>app_infrastructure_services&#45;&gt;app_application_exc</title><style>.edge>path:hover{stroke-width:8}</style>
<path fill="none" stroke="black" d="M305.14,-250.38C391.34,-258.68 559.04,-277.46 612.83,-302.27 625.59,-308.15 626.43,-313.39 636.83,-322.83"/>
<path fill="none" stroke="black" d="M636.83,-324.83C650.13,-336.9 658.91,-354.89 664.47,-370.46"/>
<polygon fill="#883a3a" stroke="black" points="661.09,-371.38 667.5,-379.81 667.75,-369.22 661.09,-371.38"/>
</g>
<!-- app_infrastructure_services&#45;&gt;app_domain -->
<g id="edge16" class="edge">
<title>app_infrastructure_services&#45;&gt;app_domain</title><style>.edge>path:hover{stroke-width:8}</style>
<path fill="none" stroke="black" d="M598.83,-324.83C617.93,-353.3 588.44,-369.3 598.83,-401.97"/>
<path fill="none" stroke="black" d="M305.92,-248.94C394.65,-255.66 566.56,-274.73 598.83,-322.83"/>
</g>
<!-- app_infrastructure_services&#45;&gt;app_domain_entities -->
<g id="edge25" class="edge">
<title>app_infrastructure_services&#45;&gt;app_domain_entities</title><style>.edge>path:hover{stroke-width:8}</style>
<path fill="none" stroke="black" d="M229.19,-264.38C217.25,-274.66 203.14,-288.17 192.83,-302.27 147.44,-364.36 137.52,-385.04 122.83,-460.53 119.17,-479.35 116.41,-485.6 122.83,-503.67 126.83,-514.94 134.15,-525.6 141.79,-534.56"/>
<polygon fill="#883a3a" stroke="black" points="139.07,-536.77 148.4,-541.8 144.24,-532.05 139.07,-536.77"/>
</g>
<!-- app_infrastructure_services&#45;&gt;app_domain_repositories -->
<g id="edge31" class="edge">
<title>app_infrastructure_services&#45;&gt;app_domain_repositories</title><style>.edge>path:hover{stroke-width:8}</style>
<path fill="none" stroke="black" d="M206.83,-324.83C191.2,-382.83 253.83,-432.59 297.85,-459.56"/>
<polygon fill="#883a3a" stroke="black" points="295.79,-462.41 306.18,-464.51 299.37,-456.39 295.79,-462.41"/>
</g>
<!-- app_infrastructure_services&#45;&gt;app_domain_services -->
<g id="edge34" class="edge">
<title>app_infrastructure_services&#45;&gt;app_domain_services</title><style>.edge>path:hover{stroke-width:8}</style>
<path fill="none" stroke="black" d="M236.79,-265.56C225.93,-280.36 212.55,-301.61 206.83,-322.83"/>
<path fill="none" stroke="black" d="M206.83,-324.83C196.88,-361.73 173.32,-364.02 168.83,-401.97"/>
</g>
<!-- app_interfaces -->
<g id="node18" class="node">
<title>app_interfaces</title><style>.edge>path:hover{stroke-width:8}</style>
<ellipse fill="#ce3b3b" stroke="black" cx="727.83" cy="-90" rx="34.76" ry="18"/>
<text text-anchor="middle" x="727.83" y="-86.12" font-family="Helvetica,sans-Serif" font-size="10.00" fill="#ffffff">interfaces</text>
</g>
<!-- app_interfaces_controllers -->
<g id="node19" class="node">
<title>app_interfaces_controllers</title><style>.edge>path:hover{stroke-width:8}</style>
<ellipse fill="#7a2828" stroke="black" cx="640.83" cy="-165.57" rx="43.66" ry="21.57"/>
<text text-anchor="middle" x="640.83" y="-167.32" font-family="Helvetica,sans-Serif" font-size="10.00" fill="#ffffff">interfaces.</text>
<text text-anchor="middle" x="640.83" y="-156.07" font-family="Helvetica,sans-Serif" font-size="10.00" fill="#ffffff">controllers</text>
</g>
<!-- app_interfaces_controllers&#45;&gt;app_application -->
<g id="edge3" class="edge">
<title>app_interfaces_controllers&#45;&gt;app_application</title><style>.edge>path:hover{stroke-width:8}</style>
<path fill="none" stroke="black" d="M597.29,-169.04C510.44,-176.48 324.76,-206.05 334.83,-322.83"/>
</g>
<!-- app_interfaces_controllers&#45;&gt;app_application_dto -->
<g id="edge5" class="edge">
<title>app_interfaces_controllers&#45;&gt;app_application_dto</title><style>.edge>path:hover{stroke-width:8}</style>
<path fill="none" stroke="black" d="M640.83,-245.7C635.23,-256.81 630.52,-257.35 621.83,-266.27 605.82,-282.7 599.09,-284.29 584.83,-302.27 567.62,-323.97 551.64,-351.02 540.5,-371.47"/>
<polygon fill="#7a2828" stroke="black" points="537.48,-369.69 535.85,-380.16 543.65,-372.99 537.48,-369.69"/>
</g>
<!-- app_interfaces_controllers&#45;&gt;app_application_use_cases -->
<g id="edge9" class="edge">
<title>app_interfaces_controllers&#45;&gt;app_application_use_cases</title><style>.edge>path:hover{stroke-width:8}</style>
<path fill="none" stroke="black" d="M640.83,-245.7C635.23,-256.81 632.02,-259.13 621.83,-266.27 606.85,-276.76 566.04,-293.33 533.19,-305.83"/>
<polygon fill="#7a2828" stroke="black" points="532.38,-302.4 524.26,-309.2 534.85,-308.95 532.38,-302.4"/>
</g>
<!-- app_interfaces_controllers&#45;&gt;app_domain -->
<g id="edge17" class="edge">
<title>app_interfaces_controllers&#45;&gt;app_domain</title><style>.edge>path:hover{stroke-width:8}</style>
<path fill="none" stroke="black" d="M640.83,-245.7C613.52,-300.61 819.87,-430.78 784.83,-481.1"/>
<path fill="none" stroke="black" d="M784.83,-483.1C744.89,-539.04 660.34,-554.57 610.3,-558.78"/>
<polygon fill="#7a2828" stroke="black" points="610.21,-555.28 600.48,-559.48 610.71,-562.26 610.21,-555.28"/>
</g>
<!-- app_interfaces_controllers&#45;&gt;app_domain_repositories -->
<g id="edge32" class="edge">
<title>app_interfaces_controllers&#45;&gt;app_domain_repositories</title><style>.edge>path:hover{stroke-width:8}</style>
<path fill="none" stroke="black" d="M645.65,-187.36C648.31,-203.57 649.54,-226.19 640.83,-243.7"/>
<path fill="none" stroke="black" d="M640.83,-245.7C601.5,-324.78 472.36,-273.37 431.83,-302.27 390.27,-331.9 391.68,-353.79 374.83,-401.97"/>
</g>
<!-- app_interfaces_controllers&#45;&gt;app_domain_services -->
<g id="edge35" class="edge">
<title>app_interfaces_controllers&#45;&gt;app_domain_services</title><style>.edge>path:hover{stroke-width:8}</style>
<path fill="none" stroke="black" d="M598.6,-171.69C486.81,-185.28 191.63,-221.32 189.83,-223.13 133.47,-279.94 178.24,-322.49 168.83,-401.97"/>
<path fill="none" stroke="black" d="M168.83,-403.97C167.28,-418.59 167.06,-434.87 167.32,-448.68"/>
<polygon fill="#7a2828" stroke="black" points="163.82,-448.68 167.6,-458.57 170.81,-448.48 163.82,-448.68"/>
</g>
<!-- app_interfaces_views -->
<g id="node21" class="node">
<title>app_interfaces_views</title><style>.edge>path:hover{stroke-width:8}</style>
<ellipse fill="#c24747" stroke="black" cx="712.83" cy="-244.7" rx="43.66" ry="21.57"/>
<text text-anchor="middle" x="712.83" y="-246.45" font-family="Helvetica,sans-Serif" font-size="10.00" fill="#ffffff">interfaces.</text>
<text text-anchor="middle" x="712.83" y="-235.2" font-family="Helvetica,sans-Serif" font-size="10.00" fill="#ffffff">views</text>
</g>
<!-- app_interfaces_controllers&#45;&gt;app_interfaces_views -->
<g id="edge53" class="edge">
<title>app_interfaces_controllers&#45;&gt;app_interfaces_views</title><style>.edge>path:hover{stroke-width:8}</style>
<path fill="none" stroke="black" d="M658.63,-185.63C667.28,-194.9 677.84,-206.22 687.33,-216.38"/>
<polygon fill="#7a2828" stroke="black" points="684.57,-218.56 693.95,-223.48 689.69,-213.78 684.57,-218.56"/>
</g>
<!-- app_interfaces_middlewares -->
<g id="node20" class="node">
<title>app_interfaces_middlewares</title><style>.edge>path:hover{stroke-width:8}</style>
<ellipse fill="#964040" stroke="black" cx="790.83" cy="-165.57" rx="50.03" ry="21.57"/>
<text text-anchor="middle" x="790.83" y="-167.32" font-family="Helvetica,sans-Serif" font-size="10.00" fill="#ffffff">interfaces.</text>
<text text-anchor="middle" x="790.83" y="-156.07" font-family="Helvetica,sans-Serif" font-size="10.00" fill="#ffffff">middlewares</text>
</g>
<!-- app_interfaces_middlewares&#45;&gt;app_domain -->
<g id="edge18" class="edge">
<title>app_interfaces_middlewares&#45;&gt;app_domain</title><style>.edge>path:hover{stroke-width:8}</style>
<path fill="none" stroke="black" d="M822.83,-245.7C826.37,-279.8 818.8,-288.79 822.83,-322.83"/>
</g>
<!-- app_interfaces_middlewares&#45;&gt;app_domain_exc -->
<g id="edge27" class="edge">
<title>app_interfaces_middlewares&#45;&gt;app_domain_exc</title><style>.edge>path:hover{stroke-width:8}</style>
<path fill="none" stroke="black" d="M822.83,-245.7C826.17,-290.58 754.34,-388.17 727.83,-424.53 719.28,-436.26 708.39,-447.97 698.55,-457.67"/>
<polygon fill="#964040" stroke="black" points="696.15,-455.13 691.36,-464.58 701,-460.18 696.15,-455.13"/>
<path fill="none" stroke="black" d="M803.12,-186.97C811.22,-202.03 820.72,-223.37 822.83,-243.7"/>
</g>
<!-- app_interfaces_middlewares&#45;&gt;app_interfaces_views -->
<g id="edge54" class="edge">
<title>app_interfaces_middlewares&#45;&gt;app_interfaces_views</title><style>.edge>path:hover{stroke-width:8}</style>
<path fill="none" stroke="black" d="M771.55,-185.63C762.01,-195.07 750.33,-206.61 739.91,-216.92"/>
<polygon fill="#964040" stroke="black" points="737.61,-214.27 732.97,-223.79 742.54,-219.25 737.61,-214.27"/>
</g>
<!-- app_load_seeds -->
<g id="node22" class="node">
<title>app_load_seeds</title><style>.edge>path:hover{stroke-width:8}</style>
<ellipse fill="#924e4e" stroke="black" cx="868.83" cy="-90" rx="38.76" ry="18"/>
<text text-anchor="middle" x="868.83" y="-86.12" font-family="Helvetica,sans-Serif" font-size="10.00" fill="#ffffff">load_seeds</text>
</g>
<!-- app_load_seeds&#45;&gt;app_infrastructure -->
<g id="edge41" class="edge">
<title>app_load_seeds&#45;&gt;app_infrastructure</title><style>.edge>path:hover{stroke-width:8}</style>
<path fill="none" stroke="black" d="M884.24,-106.96C893.66,-116.73 905.9,-129.41 916.5,-140.39"/>
<polygon fill="#924e4e" stroke="black" points="913.7,-142.53 923.16,-147.29 918.73,-137.67 913.7,-142.53"/>
</g>
<!-- app_load_seeds&#45;&gt;app_infrastructure_config -->
<g id="edge44" class="edge">
<title>app_load_seeds&#45;&gt;app_infrastructure_config</title><style>.edge>path:hover{stroke-width:8}</style>
<path fill="none" stroke="black" d="M836.42,-100.25C826.34,-102.95 815.17,-105.77 804.83,-108 709.26,-128.57 684.13,-127.17 587.83,-144 395.98,-177.52 346.11,-177.29 156.83,-223.13 151.63,-224.39 146.25,-225.81 140.89,-227.31"/>
<polygon fill="#924e4e" stroke="black" points="140.08,-223.9 131.44,-230.03 142.01,-230.63 140.08,-223.9"/>
</g>
<!-- app_load_seeds&#45;&gt;app_infrastructure_database -->
<g id="edge47" class="edge">
<title>app_load_seeds&#45;&gt;app_infrastructure_database</title><style>.edge>path:hover{stroke-width:8}</style>
<path fill="none" stroke="black" d="M863.11,-108.06C858.77,-124.54 855.56,-149.19 868.83,-164.57"/>
</g>
<!-- app_main -->
<g id="node23" class="node">
<title>app_main</title><style>.edge>path:hover{stroke-width:8}</style>
<ellipse fill="#7e4444" stroke="black" cx="727.83" cy="-18" rx="27" ry="18"/>
<text text-anchor="middle" x="727.83" y="-14.12" font-family="Helvetica,sans-Serif" font-size="10.00" fill="#ffffff">main</text>
</g>
<!-- app_main&#45;&gt;app_di_container -->
<g id="edge10" class="edge">
<title>app_main&#45;&gt;app_di_container</title><style>.edge>path:hover{stroke-width:8}</style>
<path fill="none" stroke="black" d="M710.34,-32.17C697.27,-42.01 679.1,-55.68 663.86,-67.15"/>
<polygon fill="#7e4444" stroke="black" points="661.92,-64.23 656.04,-73.04 666.13,-69.82 661.92,-64.23"/>
</g>
<!-- app_main&#45;&gt;app_infrastructure -->
<g id="edge42" class="edge">
<title>app_main&#45;&gt;app_infrastructure</title><style>.edge>path:hover{stroke-width:8}</style>
<path fill="none" stroke="black" d="M755.25,-18.57C796.33,-19.48 873.63,-27.49 916.83,-72 933.14,-88.81 938.45,-115.3 939.93,-135.65"/>
<polygon fill="#7e4444" stroke="black" points="936.44,-135.73 940.36,-145.57 943.43,-135.43 936.44,-135.73"/>
</g>
<!-- app_main&#45;&gt;app_infrastructure_config -->
<g id="edge45" class="edge">
<title>app_main&#45;&gt;app_infrastructure_config</title><style>.edge>path:hover{stroke-width:8}</style>
<path fill="none" stroke="black" d="M700.65,-19.8C587.58,-23.77 156.47,-45.25 74.83,-144 59.11,-163.02 64.98,-191.37 73.41,-212.99"/>
<polygon fill="#7e4444" stroke="black" points="70.07,-214.08 77.22,-221.9 76.51,-211.33 70.07,-214.08"/>
</g>
<!-- app_main&#45;&gt;app_interfaces -->
<g id="edge50" class="edge">
<title>app_main&#45;&gt;app_interfaces</title><style>.edge>path:hover{stroke-width:8}</style>
<path fill="none" stroke="black" d="M727.83,-36.3C727.83,-43.59 727.83,-52.27 727.83,-60.46"/>
<polygon fill="#7e4444" stroke="black" points="724.33,-60.38 727.83,-70.38 731.33,-60.38 724.33,-60.38"/>
</g>
<!-- app_main&#45;&gt;app_interfaces_controllers -->
<g id="edge51" class="edge">
<title>app_main&#45;&gt;app_interfaces_controllers</title><style>.edge>path:hover{stroke-width:8}</style>
<path fill="none" stroke="black" d="M748.11,-30.12C766.84,-42.05 791.65,-62.85 790.83,-89"/>
<path fill="none" stroke="black" d="M790.83,-91C790.11,-113.98 732.73,-136.72 689.17,-150.7"/>
<polygon fill="#7e4444" stroke="black" points="688.37,-147.28 679.87,-153.6 690.46,-153.96 688.37,-147.28"/>
</g>
<!-- app_main&#45;&gt;app_interfaces_middlewares -->
<g id="edge52" class="edge">
<title>app_main&#45;&gt;app_interfaces_middlewares</title><style>.edge>path:hover{stroke-width:8}</style>
<path fill="none" stroke="black" d="M790.83,-91C790.4,-104.59 790.33,-119.59 790.39,-132.48"/>
<polygon fill="#7e4444" stroke="black" points="786.89,-132.15 790.47,-142.12 793.89,-132.09 786.89,-132.15"/>
</g>
</g>
</svg>
