<?xml version="1.0" encoding="UTF-8" standalone="no"?>
<!DOCTYPE svg PUBLIC "-//W3C//DTD SVG 1.1//EN"
 "http://www.w3.org/Graphics/SVG/1.1/DTD/svg11.dtd">
<!-- Generated by graphviz version 12.2.0 (20241103.1931)
 -->
<!-- Title: G Pages: 1 -->
<svg width="904pt" height="945pt"
 viewBox="0.00 0.00 903.63 945.00" xmlns="http://www.w3.org/2000/svg" xmlns:xlink="http://www.w3.org/1999/xlink">
<g id="graph0" class="graph" transform="scale(1 1) rotate(0) translate(4 941)">
<title>G</title><style>.edge>path:hover{stroke-width:8}</style>
<polygon fill="white" stroke="none" points="-4,4 -4,-941 899.63,-941 899.63,4 -4,4"/>
<!-- annotated_types -->
<g id="node1" class="node">
<title>annotated_types</title><style>.edge>path:hover{stroke-width:8}</style>
<polygon fill="#d92626" stroke="black" points="650,-828 647,-832 626,-832 623,-828 562,-828 562,-792 650,-792 650,-828"/>
<text text-anchor="middle" x="606" y="-806.12" font-family="Helvetica,sans-Serif" font-size="10.00" fill="#ffffff">annotated_types</text>
</g>
<!-- typing_extensions -->
<g id="node32" class="node">
<title>typing_extensions</title><style>.edge>path:hover{stroke-width:8}</style>
<polygon fill="#f91048" stroke="black" points="415.38,-937 412.38,-941 391.38,-941 388.38,-937 320.62,-937 320.62,-901 415.38,-901 415.38,-937"/>
<text text-anchor="middle" x="368" y="-915.12" font-family="Helvetica,sans-Serif" font-size="10.00" fill="#ffffff">typing_extensions</text>
</g>
<!-- annotated_types&#45;&gt;typing_extensions -->
<g id="edge71" class="edge">
<title>annotated_types&#45;&gt;typing_extensions</title><style>.edge>path:hover{stroke-width:8}</style>
<path fill="none" stroke="black" d="M561.58,-825.67C558.69,-826.49 555.81,-827.28 553,-828 512.43,-838.41 383.29,-825.01 368,-864"/>
</g>
<!-- anyio -->
<g id="node2" class="node">
<title>anyio</title><style>.edge>path:hover{stroke-width:8}</style>
<polygon fill="#f94006" stroke="black" points="54,-756 51,-760 30,-760 27,-756 0,-756 0,-720 54,-720 54,-756"/>
<text text-anchor="middle" x="27" y="-734.12" font-family="Helvetica,sans-Serif" font-size="10.00" fill="#ffffff">anyio</text>
</g>
<!-- anyio&#45;&gt;typing_extensions -->
<g id="edge72" class="edge">
<title>anyio&#45;&gt;typing_extensions</title><style>.edge>path:hover{stroke-width:8}</style>
<path fill="none" stroke="black" d="M368,-865C365.02,-872.6 364.11,-881.29 364.18,-889.41"/>
<polygon fill="#f94006" stroke="black" points="360.68,-889.42 364.79,-899.19 367.66,-888.99 360.68,-889.42"/>
<path fill="none" stroke="black" d="M36.85,-756.41C49.65,-777.24 74.06,-811.35 105,-828 156.95,-855.95 389.53,-809.08 368,-864"/>
</g>
<!-- app_application -->
<g id="node3" class="node">
<title>app_application</title><style>.edge>path:hover{stroke-width:8}</style>
<ellipse fill="#9c5411" stroke="black" cx="532" cy="-306" rx="36.98" ry="18"/>
<text text-anchor="middle" x="532" y="-302.12" font-family="Helvetica,sans-Serif" font-size="10.00" fill="#ffffff">application</text>
</g>
<!-- app_domain -->
<g id="node6" class="node">
<title>app_domain</title><style>.edge>path:hover{stroke-width:8}</style>
<ellipse fill="#b85d09" stroke="black" cx="617" cy="-378" rx="28.11" ry="18"/>
<text text-anchor="middle" x="617" y="-374.12" font-family="Helvetica,sans-Serif" font-size="10.00" fill="#ffffff">domain</text>
</g>
<!-- app_application&#45;&gt;app_domain -->
<g id="edge12" class="edge">
<title>app_application&#45;&gt;app_domain</title><style>.edge>path:hover{stroke-width:8}</style>
<path fill="none" stroke="black" d="M550.03,-321.85C562.06,-331.76 578.07,-344.94 591.42,-355.94"/>
<polygon fill="#9c5411" stroke="black" points="589.04,-358.51 598.99,-362.17 593.49,-353.11 589.04,-358.51"/>
</g>
<!-- fastapi -->
<g id="node18" class="node">
<title>fastapi</title><style>.edge>path:hover{stroke-width:8}</style>
<polygon fill="#03953e" stroke="black" points="305,-540 302,-544 281,-544 278,-540 251,-540 251,-504 305,-504 305,-540"/>
<text text-anchor="middle" x="278" y="-518.12" font-family="Helvetica,sans-Serif" font-size="10.00" fill="#ffffff">fastapi</text>
</g>
<!-- app_application&#45;&gt;fastapi -->
<g id="edge31" class="edge">
<title>app_application&#45;&gt;fastapi</title><style>.edge>path:hover{stroke-width:8}</style>
<path fill="none" stroke="black" d="M496.09,-310.91C431.63,-318.82 300.93,-339.28 279,-377"/>
</g>
<!-- pydantic -->
<g id="node24" class="node">
<title>pydantic</title><style>.edge>path:hover{stroke-width:8}</style>
<polygon fill="#031b95" stroke="black" points="435,-684 432,-688 411,-688 408,-684 381,-684 381,-648 435,-648 435,-684"/>
<text text-anchor="middle" x="408" y="-662.12" font-family="Helvetica,sans-Serif" font-size="10.00" fill="#ffffff">pydantic</text>
</g>
<!-- app_application&#45;&gt;pydantic -->
<g id="edge42" class="edge">
<title>app_application&#45;&gt;pydantic</title><style>.edge>path:hover{stroke-width:8}</style>
<path fill="none" stroke="black" d="M579,-451C577.23,-462.19 569.63,-462.03 560,-468 523.39,-490.71 506.61,-481.29 470,-504 460.37,-509.97 459.11,-513.08 451,-521"/>
<path fill="none" stroke="black" d="M561,-379C573.3,-408.68 584.02,-417.27 579,-449"/>
</g>
<!-- shortuuid -->
<g id="node28" class="node">
<title>shortuuid</title><style>.edge>path:hover{stroke-width:8}</style>
<polygon fill="#a731c4" stroke="black" points="550.88,-468 547.88,-472 526.88,-472 523.88,-468 495.12,-468 495.12,-432 550.88,-432 550.88,-468"/>
<text text-anchor="middle" x="523" y="-446.12" font-family="Helvetica,sans-Serif" font-size="10.00" fill="#ffffff">shortuuid</text>
</g>
<!-- app_application&#45;&gt;shortuuid -->
<g id="edge57" class="edge">
<title>app_application&#45;&gt;shortuuid</title><style>.edge>path:hover{stroke-width:8}</style>
<path fill="none" stroke="black" d="M561,-379C567.28,-394.15 559.58,-410.29 549.51,-423.25"/>
<polygon fill="#9c5411" stroke="black" points="547.13,-420.65 543.28,-430.52 552.45,-425.2 547.13,-420.65"/>
<path fill="none" stroke="black" d="M539.03,-323.97C544.9,-338.15 553.5,-358.89 561,-377"/>
</g>
<!-- sqlalchemy -->
<g id="node29" class="node">
<title>sqlalchemy</title><style>.edge>path:hover{stroke-width:8}</style>
<polygon fill="#a904a3" stroke="black" points="737.75,-684 734.75,-688 713.75,-688 710.75,-684 672.25,-684 672.25,-648 737.75,-648 737.75,-684"/>
<text text-anchor="middle" x="705" y="-662.12" font-family="Helvetica,sans-Serif" font-size="10.00" fill="#ffffff">sqlalchemy</text>
</g>
<!-- app_application&#45;&gt;sqlalchemy -->
<g id="edge59" class="edge">
<title>app_application&#45;&gt;sqlalchemy</title><style>.edge>path:hover{stroke-width:8}</style>
<path fill="none" stroke="black" d="M673,-451C683.1,-480.43 652.37,-497.71 673,-521"/>
<path fill="none" stroke="black" d="M561,-379C583.47,-433.23 653.95,-393.48 673,-449"/>
</g>
<!-- sqlmodel -->
<g id="node30" class="node">
<title>sqlmodel</title><style>.edge>path:hover{stroke-width:8}</style>
<polygon fill="#832067" stroke="black" points="644.5,-540 641.5,-544 620.5,-544 617.5,-540 589.5,-540 589.5,-504 644.5,-504 644.5,-540"/>
<text text-anchor="middle" x="617" y="-518.12" font-family="Helvetica,sans-Serif" font-size="10.00" fill="#ffffff">sqlmodel</text>
</g>
<!-- app_application&#45;&gt;sqlmodel -->
<g id="edge65" class="edge">
<title>app_application&#45;&gt;sqlmodel</title><style>.edge>path:hover{stroke-width:8}</style>
<path fill="none" stroke="black" d="M579,-451C576.54,-466.56 583.8,-482.14 592.61,-494.64"/>
<polygon fill="#9c5411" stroke="black" points="589.7,-496.59 598.59,-502.34 595.23,-492.3 589.7,-496.59"/>
</g>
<!-- app_config -->
<g id="node4" class="node">
<title>app_config</title><style>.edge>path:hover{stroke-width:8}</style>
<ellipse fill="#c87223" stroke="black" cx="349" cy="-162" rx="27" ry="18"/>
<text text-anchor="middle" x="349" y="-158.12" font-family="Helvetica,sans-Serif" font-size="10.00" fill="#000000">config</text>
</g>
<!-- app_interfaces -->
<g id="node8" class="node">
<title>app_interfaces</title><style>.edge>path:hover{stroke-width:8}</style>
<ellipse fill="#8a4a0f" stroke="black" cx="362" cy="-234" rx="34.76" ry="18"/>
<text text-anchor="middle" x="362" y="-230.12" font-family="Helvetica,sans-Serif" font-size="10.00" fill="#ffffff">interfaces</text>
</g>
<!-- app_config&#45;&gt;app_interfaces -->
<g id="edge18" class="edge">
<title>app_config&#45;&gt;app_interfaces</title><style>.edge>path:hover{stroke-width:8}</style>
<path fill="none" stroke="black" d="M352.21,-180.3C353.58,-187.68 355.22,-196.48 356.75,-204.75"/>
<polygon fill="#c87223" stroke="black" points="353.28,-205.21 358.55,-214.41 360.16,-203.94 353.28,-205.21"/>
</g>
<!-- pydantic_settings -->
<g id="node26" class="node">
<title>pydantic_settings</title><style>.edge>path:hover{stroke-width:8}</style>
<polygon fill="#603ab0" stroke="black" points="571.25,-540 568.25,-544 547.25,-544 544.25,-540 478.75,-540 478.75,-504 571.25,-504 571.25,-540"/>
<text text-anchor="middle" x="525" y="-518.12" font-family="Helvetica,sans-Serif" font-size="10.00" fill="#ffffff">pydantic_settings</text>
</g>
<!-- app_config&#45;&gt;pydantic_settings -->
<g id="edge53" class="edge">
<title>app_config&#45;&gt;pydantic_settings</title><style>.edge>path:hover{stroke-width:8}</style>
<path fill="none" stroke="black" d="M367,-175.73C379.55,-185.46 395.81,-199.9 406,-216 468.87,-315.27 432.69,-363.28 486,-468 490.69,-477.22 496.95,-486.55 503.07,-494.76"/>
<polygon fill="#c87223" stroke="black" points="500.27,-496.86 509.17,-502.61 505.8,-492.56 500.27,-496.86"/>
</g>
<!-- app_di_container -->
<g id="node5" class="node">
<title>app_di_container</title><style>.edge>path:hover{stroke-width:8}</style>
<ellipse fill="#7a5028" stroke="black" cx="336" cy="-90" rx="40.53" ry="18"/>
<text text-anchor="middle" x="336" y="-86.12" font-family="Helvetica,sans-Serif" font-size="10.00" fill="#ffffff">di_container</text>
</g>
<!-- app_di_container&#45;&gt;app_application -->
<g id="edge5" class="edge">
<title>app_di_container&#45;&gt;app_application</title><style>.edge>path:hover{stroke-width:8}</style>
<path fill="none" stroke="black" d="M532,-235C532,-248.63 532,-263.75 532,-276.44"/>
<polygon fill="#7a5028" stroke="black" points="528.5,-276.23 532,-286.23 535.5,-276.23 528.5,-276.23"/>
</g>
<!-- app_di_container&#45;&gt;app_config -->
<g id="edge8" class="edge">
<title>app_di_container&#45;&gt;app_config</title><style>.edge>path:hover{stroke-width:8}</style>
<path fill="none" stroke="black" d="M339.21,-108.3C340.58,-115.68 342.22,-124.48 343.75,-132.75"/>
<polygon fill="#7a5028" stroke="black" points="340.28,-133.21 345.55,-142.41 347.16,-131.94 340.28,-133.21"/>
</g>
<!-- app_di_container&#45;&gt;app_domain -->
<g id="edge13" class="edge">
<title>app_di_container&#45;&gt;app_domain</title><style>.edge>path:hover{stroke-width:8}</style>
<path fill="none" stroke="black" d="M532,-235C532,-256.23 583.37,-288.72 597,-305"/>
</g>
<!-- app_infrastructure -->
<g id="node7" class="node">
<title>app_infrastructure</title><style>.edge>path:hover{stroke-width:8}</style>
<ellipse fill="#824a17" stroke="black" cx="603" cy="-234" rx="43.19" ry="18"/>
<text text-anchor="middle" x="603" y="-230.12" font-family="Helvetica,sans-Serif" font-size="10.00" fill="#ffffff">infrastructure</text>
</g>
<!-- app_di_container&#45;&gt;app_infrastructure -->
<g id="edge16" class="edge">
<title>app_di_container&#45;&gt;app_infrastructure</title><style>.edge>path:hover{stroke-width:8}</style>
<path fill="none" stroke="black" d="M532,-163C548.41,-177.76 566.1,-195.19 579.71,-208.96"/>
<polygon fill="#7a5028" stroke="black" points="577.04,-211.24 586.55,-215.93 582.04,-206.34 577.04,-211.24"/>
</g>
<!-- app_di_container&#45;&gt;app_interfaces -->
<g id="edge19" class="edge">
<title>app_di_container&#45;&gt;app_interfaces</title><style>.edge>path:hover{stroke-width:8}</style>
<path fill="none" stroke="black" d="M308.49,-103.55C286.7,-115.58 260.85,-135.63 267,-161"/>
</g>
<!-- dependency_injector -->
<g id="node14" class="node">
<title>dependency_injector</title><style>.edge>path:hover{stroke-width:8}</style>
<polygon fill="#8dce3b" stroke="black" points="250.62,-396 247.62,-400 226.62,-400 223.62,-396 145.38,-396 145.38,-360 250.62,-360 250.62,-396"/>
<text text-anchor="middle" x="198" y="-374.12" font-family="Helvetica,sans-Serif" font-size="10.00" fill="#000000">dependency_injector</text>
</g>
<!-- app_di_container&#45;&gt;dependency_injector -->
<g id="edge24" class="edge">
<title>app_di_container&#45;&gt;dependency_injector</title><style>.edge>path:hover{stroke-width:8}</style>
<path fill="none" stroke="black" d="M306.85,-102.71C288.71,-111.47 266.36,-125.18 253,-144 208.29,-207.01 199.51,-301.36 198.06,-348.32"/>
<polygon fill="#7a5028" stroke="black" points="194.56,-348.13 197.85,-358.2 201.56,-348.28 194.56,-348.13"/>
</g>
<!-- app_di_container&#45;&gt;shortuuid -->
<g id="edge58" class="edge">
<title>app_di_container&#45;&gt;shortuuid</title><style>.edge>path:hover{stroke-width:8}</style>
<path fill="none" stroke="black" d="M532,-235C532,-266.19 496.91,-258.78 486,-288 469.05,-333.38 490.58,-388.97 507.18,-421.53"/>
<polygon fill="#7a5028" stroke="black" points="504.07,-423.13 511.85,-430.31 510.25,-419.84 504.07,-423.13"/>
<path fill="none" stroke="black" d="M532,-163C555.13,-183.8 530.86,-201.91 532,-233"/>
<path fill="none" stroke="black" d="M374.72,-95.94C417.81,-103.26 487.27,-120.77 532,-161"/>
</g>
<!-- app_domain&#45;&gt;pydantic -->
<g id="edge43" class="edge">
<title>app_domain&#45;&gt;pydantic</title><style>.edge>path:hover{stroke-width:8}</style>
<path fill="none" stroke="black" d="M620.84,-396.24C623.25,-410.95 624.62,-432.31 617,-449"/>
<path fill="none" stroke="black" d="M617,-451C611.57,-462.89 604.77,-462.31 593,-468 541.72,-492.8 519.79,-476.33 470,-504 460.1,-509.51 459.11,-513.08 451,-521"/>
</g>
<!-- app_domain&#45;&gt;sqlalchemy -->
<g id="edge60" class="edge">
<title>app_domain&#45;&gt;sqlalchemy</title><style>.edge>path:hover{stroke-width:8}</style>
<path fill="none" stroke="black" d="M633.15,-392.94C646.78,-405.87 665.27,-426.48 673,-449"/>
</g>
<!-- app_domain&#45;&gt;sqlmodel -->
<g id="edge66" class="edge">
<title>app_domain&#45;&gt;sqlmodel</title><style>.edge>path:hover{stroke-width:8}</style>
<path fill="none" stroke="black" d="M617,-451C611.17,-463.78 610.6,-479.29 611.74,-492.47"/>
<polygon fill="#b85d09" stroke="black" points="608.25,-492.77 612.97,-502.26 615.19,-491.9 608.25,-492.77"/>
</g>
<!-- app_infrastructure&#45;&gt;app_application -->
<g id="edge6" class="edge">
<title>app_infrastructure&#45;&gt;app_application</title><style>.edge>path:hover{stroke-width:8}</style>
<path fill="none" stroke="black" d="M586.89,-250.88C577.68,-259.96 565.97,-271.51 555.73,-281.61"/>
<polygon fill="#824a17" stroke="black" points="553.3,-279.08 548.64,-288.6 558.22,-284.07 553.3,-279.08"/>
</g>
<!-- app_infrastructure&#45;&gt;app_domain -->
<g id="edge14" class="edge">
<title>app_infrastructure&#45;&gt;app_domain</title><style>.edge>path:hover{stroke-width:8}</style>
<path fill="none" stroke="black" d="M619.84,-250.99C634.3,-264.92 655.51,-285.83 673,-305"/>
<path fill="none" stroke="black" d="M673,-307C688.48,-323.97 667.49,-344.65 646.94,-359.11"/>
<polygon fill="#824a17" stroke="black" points="645.01,-356.19 638.61,-364.64 648.88,-362.02 645.01,-356.19"/>
</g>
<!-- asyncpg -->
<g id="node11" class="node">
<title>asyncpg</title><style>.edge>path:hover{stroke-width:8}</style>
<polygon fill="#bd8904" stroke="black" points="865,-612 862,-616 841,-616 838,-612 811,-612 811,-576 865,-576 865,-612"/>
<text text-anchor="middle" x="838" y="-590.12" font-family="Helvetica,sans-Serif" font-size="10.00" fill="#000000">asyncpg</text>
</g>
<!-- app_infrastructure&#45;&gt;asyncpg -->
<g id="edge21" class="edge">
<title>app_infrastructure&#45;&gt;asyncpg</title><style>.edge>path:hover{stroke-width:8}</style>
<path fill="none" stroke="black" d="M673,-307C724.34,-363.28 790.97,-298.56 836,-360 880.75,-421.06 861.14,-517.36 847.36,-564.75"/>
<polygon fill="#824a17" stroke="black" points="844.03,-563.66 844.46,-574.24 850.73,-565.7 844.03,-563.66"/>
</g>
<!-- jose -->
<g id="node21" class="node">
<title>jose</title><style>.edge>path:hover{stroke-width:8}</style>
<polygon fill="#19cde6" stroke="black" points="827,-396 824,-400 803,-400 800,-396 773,-396 773,-360 827,-360 827,-396"/>
<text text-anchor="middle" x="800" y="-374.12" font-family="Helvetica,sans-Serif" font-size="10.00" fill="#000000">jose</text>
</g>
<!-- app_infrastructure&#45;&gt;jose -->
<g id="edge38" class="edge">
<title>app_infrastructure&#45;&gt;jose</title><style>.edge>path:hover{stroke-width:8}</style>
<path fill="none" stroke="black" d="M673,-307C679.79,-314.45 727.81,-339.98 762.8,-358.05"/>
<polygon fill="#824a17" stroke="black" points="760.89,-361.01 771.39,-362.47 764.09,-354.78 760.89,-361.01"/>
</g>
<!-- passlib -->
<g id="node23" class="node">
<title>passlib</title><style>.edge>path:hover{stroke-width:8}</style>
<polygon fill="#2271e7" stroke="black" points="755,-396 752,-400 731,-400 728,-396 701,-396 701,-360 755,-360 755,-396"/>
<text text-anchor="middle" x="728" y="-374.12" font-family="Helvetica,sans-Serif" font-size="10.00" fill="#ffffff">passlib</text>
</g>
<!-- app_infrastructure&#45;&gt;passlib -->
<g id="edge41" class="edge">
<title>app_infrastructure&#45;&gt;passlib</title><style>.edge>path:hover{stroke-width:8}</style>
<path fill="none" stroke="black" d="M673,-307C685.57,-320.78 698.52,-337.13 708.69,-350.56"/>
<polygon fill="#824a17" stroke="black" points="705.86,-352.62 714.65,-358.53 711.46,-348.43 705.86,-352.62"/>
</g>
<!-- app_infrastructure&#45;&gt;sqlalchemy -->
<g id="edge61" class="edge">
<title>app_infrastructure&#45;&gt;sqlalchemy</title><style>.edge>path:hover{stroke-width:8}</style>
<path fill="none" stroke="black" d="M673,-307C693.77,-330.16 669,-346.15 673,-377"/>
</g>
<!-- app_interfaces&#45;&gt;app_application -->
<g id="edge7" class="edge">
<title>app_interfaces&#45;&gt;app_application</title><style>.edge>path:hover{stroke-width:8}</style>
<path fill="none" stroke="black" d="M388.56,-245.94C416.92,-257.61 462.1,-276.22 494.17,-289.42"/>
<polygon fill="#8a4a0f" stroke="black" points="492.52,-292.53 503.1,-293.1 495.18,-286.06 492.52,-292.53"/>
</g>
<!-- app_interfaces&#45;&gt;app_domain -->
<g id="edge15" class="edge">
<title>app_interfaces&#45;&gt;app_domain</title><style>.edge>path:hover{stroke-width:8}</style>
<path fill="none" stroke="black" d="M397.09,-234.28C449.47,-235.28 547.26,-245.6 597,-305"/>
<path fill="none" stroke="black" d="M597,-307C606.66,-318.54 611.67,-334.5 614.25,-348.26"/>
<polygon fill="#8a4a0f" stroke="black" points="610.79,-348.76 615.73,-358.13 617.71,-347.72 610.79,-348.76"/>
</g>
<!-- app_interfaces&#45;&gt;dependency_injector -->
<g id="edge25" class="edge">
<title>app_interfaces&#45;&gt;dependency_injector</title><style>.edge>path:hover{stroke-width:8}</style>
<path fill="none" stroke="black" d="M279,-307C268.85,-325.35 251.9,-341.13 236.13,-353.03"/>
<polygon fill="#8a4a0f" stroke="black" points="234.34,-350.01 228.27,-358.7 238.43,-355.69 234.34,-350.01"/>
</g>
<!-- app_interfaces&#45;&gt;fastapi -->
<g id="edge32" class="edge">
<title>app_interfaces&#45;&gt;fastapi</title><style>.edge>path:hover{stroke-width:8}</style>
<path fill="none" stroke="black" d="M279,-307C263.94,-334.22 294.64,-350.11 279,-377"/>
<path fill="none" stroke="black" d="M279,-379C263.36,-405.89 271.33,-418.85 279,-449"/>
</g>
<!-- fastapi_pagination -->
<g id="node19" class="node">
<title>fastapi_pagination</title><style>.edge>path:hover{stroke-width:8}</style>
<polygon fill="#38a880" stroke="black" points="401.38,-396 398.38,-400 377.38,-400 374.38,-396 306.62,-396 306.62,-360 401.38,-360 401.38,-396"/>
<text text-anchor="middle" x="354" y="-374.12" font-family="Helvetica,sans-Serif" font-size="10.00" fill="#000000">fastapi_pagination</text>
</g>
<!-- app_interfaces&#45;&gt;fastapi_pagination -->
<g id="edge36" class="edge">
<title>app_interfaces&#45;&gt;fastapi_pagination</title><style>.edge>path:hover{stroke-width:8}</style>
<path fill="none" stroke="black" d="M279,-307C268.85,-325.35 283.9,-341.63 303.12,-353.86"/>
<polygon fill="#8a4a0f" stroke="black" points="301.09,-356.73 311.49,-358.76 304.63,-350.69 301.09,-356.73"/>
</g>
<!-- app_interfaces&#45;&gt;pydantic -->
<g id="edge44" class="edge">
<title>app_interfaces&#45;&gt;pydantic</title><style>.edge>path:hover{stroke-width:8}</style>
<path fill="none" stroke="black" d="M451,-523C421.69,-551.63 394.33,-552.16 391,-593"/>
<path fill="none" stroke="black" d="M279,-307C252.13,-363.77 368.69,-312.69 410,-360 434.28,-387.81 477.41,-495.2 451,-521"/>
</g>
<!-- app_interfaces&#45;&gt;sqlalchemy -->
<g id="edge62" class="edge">
<title>app_interfaces&#45;&gt;sqlalchemy</title><style>.edge>path:hover{stroke-width:8}</style>
<path fill="none" stroke="black" d="M673,-379C677,-409.85 662.9,-419.57 673,-449"/>
<path fill="none" stroke="black" d="M395.67,-239.06C455.17,-246.74 575.93,-264.72 611,-288 651.16,-314.66 666.8,-329.19 673,-377"/>
</g>
<!-- starlette -->
<g id="node31" class="node">
<title>starlette</title><style>.edge>path:hover{stroke-width:8}</style>
<polygon fill="#f91080" stroke="black" points="219,-612 216,-616 195,-616 192,-612 165,-612 165,-576 219,-576 219,-612"/>
<text text-anchor="middle" x="192" y="-590.12" font-family="Helvetica,sans-Serif" font-size="10.00" fill="#ffffff">starlette</text>
</g>
<!-- app_interfaces&#45;&gt;starlette -->
<g id="edge67" class="edge">
<title>app_interfaces&#45;&gt;starlette</title><style>.edge>path:hover{stroke-width:8}</style>
<path fill="none" stroke="black" d="M279,-307C246.19,-366.31 180.61,-308.97 136,-360 109.31,-390.52 105.78,-409.77 116,-449"/>
<path fill="none" stroke="black" d="M338.1,-247.45C318.22,-259.28 291.26,-279.1 279,-305"/>
<path fill="none" stroke="black" d="M192,-523C194.24,-536.44 194.52,-551.54 194.12,-564.27"/>
<polygon fill="#8a4a0f" stroke="black" points="190.64,-563.94 193.65,-574.1 197.63,-564.28 190.64,-563.94"/>
<path fill="none" stroke="black" d="M116,-451C121.7,-496.57 184.44,-475.7 192,-521"/>
</g>
<!-- app_load_seeds -->
<g id="node9" class="node">
<title>app_load_seeds</title><style>.edge>path:hover{stroke-width:8}</style>
<ellipse fill="#9d6e43" stroke="black" cx="547" cy="-90" rx="38.76" ry="18"/>
<text text-anchor="middle" x="547" y="-86.12" font-family="Helvetica,sans-Serif" font-size="10.00" fill="#ffffff">load_seeds</text>
</g>
<!-- app_load_seeds&#45;&gt;app_config -->
<g id="edge9" class="edge">
<title>app_load_seeds&#45;&gt;app_config</title><style>.edge>path:hover{stroke-width:8}</style>
<path fill="none" stroke="black" d="M516.93,-101.63C480.89,-114.37 420.66,-135.67 382.97,-148.99"/>
<polygon fill="#9d6e43" stroke="black" points="382.21,-145.55 373.95,-152.18 384.54,-152.15 382.21,-145.55"/>
</g>
<!-- app_load_seeds&#45;&gt;app_infrastructure -->
<g id="edge17" class="edge">
<title>app_load_seeds&#45;&gt;app_infrastructure</title><style>.edge>path:hover{stroke-width:8}</style>
<path fill="none" stroke="black" d="M583.13,-97.13C616.38,-105.11 662.27,-122.86 674,-161"/>
<path fill="none" stroke="black" d="M674,-163C680.69,-184.75 661.78,-202.63 641.8,-214.87"/>
<polygon fill="#9d6e43" stroke="black" points="640.3,-211.69 633.33,-219.67 643.76,-217.78 640.3,-211.69"/>
</g>
<!-- click -->
<g id="node12" class="node">
<title>click</title><style>.edge>path:hover{stroke-width:8}</style>
<polygon fill="#8b8722" stroke="black" points="837,-324 834,-328 813,-328 810,-324 783,-324 783,-288 837,-288 837,-324"/>
<text text-anchor="middle" x="810" y="-302.12" font-family="Helvetica,sans-Serif" font-size="10.00" fill="#ffffff">click</text>
</g>
<!-- app_load_seeds&#45;&gt;click -->
<g id="edge22" class="edge">
<title>app_load_seeds&#45;&gt;click</title><style>.edge>path:hover{stroke-width:8}</style>
<path fill="none" stroke="black" d="M674,-163C690.01,-215.04 738.87,-257.36 773.42,-281.86"/>
<polygon fill="#9d6e43" stroke="black" points="771.29,-284.64 781.5,-287.44 775.26,-278.88 771.29,-284.64"/>
</g>
<!-- app_main -->
<g id="node10" class="node">
<title>app_main</title><style>.edge>path:hover{stroke-width:8}</style>
<ellipse fill="#885f3a" stroke="black" cx="301" cy="-18" rx="27" ry="18"/>
<text text-anchor="middle" x="301" y="-14.12" font-family="Helvetica,sans-Serif" font-size="10.00" fill="#ffffff">main</text>
</g>
<!-- app_main&#45;&gt;app_config -->
<g id="edge10" class="edge">
<title>app_main&#45;&gt;app_config</title><style>.edge>path:hover{stroke-width:8}</style>
<path fill="none" stroke="black" d="M267,-91C260.72,-118.13 289.42,-137.36 314.58,-148.72"/>
<polygon fill="#885f3a" stroke="black" points="313.05,-151.88 323.63,-152.52 315.76,-145.42 313.05,-151.88"/>
</g>
<!-- app_main&#45;&gt;app_di_container -->
<g id="edge11" class="edge">
<title>app_main&#45;&gt;app_di_container</title><style>.edge>path:hover{stroke-width:8}</style>
<path fill="none" stroke="black" d="M309.29,-35.59C313.2,-43.41 317.97,-52.94 322.39,-61.77"/>
<polygon fill="#885f3a" stroke="black" points="319.24,-63.31 326.85,-70.69 325.5,-60.18 319.24,-63.31"/>
</g>
<!-- app_main&#45;&gt;app_interfaces -->
<g id="edge20" class="edge">
<title>app_main&#45;&gt;app_interfaces</title><style>.edge>path:hover{stroke-width:8}</style>
<path fill="none" stroke="black" d="M267,-163C273.53,-189.94 299.68,-207.95 322.9,-218.95"/>
<polygon fill="#885f3a" stroke="black" points="321.33,-222.09 331.9,-222.91 324.15,-215.68 321.33,-222.09"/>
<path fill="none" stroke="black" d="M267,-91C259.98,-121.31 259.67,-130.76 267,-161"/>
</g>
<!-- app_main&#45;&gt;fastapi -->
<g id="edge33" class="edge">
<title>app_main&#45;&gt;fastapi</title><style>.edge>path:hover{stroke-width:8}</style>
<path fill="none" stroke="black" d="M290.69,-34.91C282.46,-48.62 271.57,-69.26 267,-89"/>
<path fill="none" stroke="black" d="M267,-91C260.46,-119.24 243.26,-118.77 229,-144 170.27,-247.94 86.83,-287.21 136,-396 157.36,-443.26 206.4,-479.78 240.84,-500.82"/>
<polygon fill="#885f3a" stroke="black" points="238.89,-503.73 249.27,-505.83 242.46,-497.71 238.89,-503.73"/>
</g>
<!-- asyncpg&#45;&gt;typing_extensions -->
<g id="edge73" class="edge">
<title>asyncpg&#45;&gt;typing_extensions</title><style>.edge>path:hover{stroke-width:8}</style>
<path fill="none" stroke="black" d="M893,-667C869.62,-741.93 831.79,-743.86 788,-809"/>
<path fill="none" stroke="black" d="M863.42,-612.36C878.66,-625.07 894.78,-643.75 893,-665"/>
</g>
<!-- click&#45;&gt;typing_extensions -->
<g id="edge74" class="edge">
<title>click&#45;&gt;typing_extensions</title><style>.edge>path:hover{stroke-width:8}</style>
<path fill="none" stroke="black" d="M829.11,-324.21C839.05,-333.95 850.8,-346.8 859,-360 881.33,-395.98 893,-406.66 893,-449 893,-449 893,-449 893,-523 893,-586.11 898.26,-602.11 893,-665"/>
</g>
<!-- cryptography -->
<g id="node13" class="node">
<title>cryptography</title><style>.edge>path:hover{stroke-width:8}</style>
<polygon fill="#a7c431" stroke="black" points="827.12,-468 824.12,-472 803.12,-472 800.12,-468 754.88,-468 754.88,-432 827.12,-432 827.12,-468"/>
<text text-anchor="middle" x="791" y="-446.12" font-family="Helvetica,sans-Serif" font-size="10.00" fill="#000000">cryptography</text>
</g>
<!-- dependency_injector&#45;&gt;fastapi -->
<g id="edge34" class="edge">
<title>dependency_injector&#45;&gt;fastapi</title><style>.edge>path:hover{stroke-width:8}</style>
<path fill="none" stroke="black" d="M279,-451C282.39,-464.3 282.59,-479.48 281.76,-492.31"/>
<polygon fill="#8dce3b" stroke="black" points="278.28,-491.95 280.86,-502.23 285.25,-492.59 278.28,-491.95"/>
<path fill="none" stroke="black" d="M233.66,-396.43C252.56,-408.17 273.09,-425.76 279,-449"/>
</g>
<!-- dependency_injector&#45;&gt;starlette -->
<g id="edge68" class="edge">
<title>dependency_injector&#45;&gt;starlette</title><style>.edge>path:hover{stroke-width:8}</style>
<path fill="none" stroke="black" d="M152.73,-396.47C130.62,-408.18 109.94,-425.72 116,-449"/>
</g>
<!-- dotenv -->
<g id="node15" class="node">
<title>dotenv</title><style>.edge>path:hover{stroke-width:8}</style>
<polygon fill="#6fc247" stroke="black" points="544,-828 541,-832 520,-832 517,-828 490,-828 490,-792 544,-792 544,-828"/>
<text text-anchor="middle" x="517" y="-806.12" font-family="Helvetica,sans-Serif" font-size="10.00" fill="#000000">dotenv</text>
</g>
<!-- ecdsa -->
<g id="node16" class="node">
<title>ecdsa</title><style>.edge>path:hover{stroke-width:8}</style>
<polygon fill="#34d926" stroke="black" points="755,-540 752,-544 731,-544 728,-540 701,-540 701,-504 755,-504 755,-540"/>
<text text-anchor="middle" x="728" y="-518.12" font-family="Helvetica,sans-Serif" font-size="10.00" fill="#000000">ecdsa</text>
</g>
<!-- email_validator -->
<g id="node17" class="node">
<title>email_validator</title><style>.edge>path:hover{stroke-width:8}</style>
<polygon fill="#16ca33" stroke="black" points="339.62,-828 336.62,-832 315.62,-832 312.62,-828 258.38,-828 258.38,-792 339.62,-792 339.62,-828"/>
<text text-anchor="middle" x="299" y="-806.12" font-family="Helvetica,sans-Serif" font-size="10.00" fill="#000000">email_validator</text>
</g>
<!-- fastapi&#45;&gt;anyio -->
<g id="edge3" class="edge">
<title>fastapi&#45;&gt;anyio</title><style>.edge>path:hover{stroke-width:8}</style>
<path fill="none" stroke="black" d="M277,-595C250.38,-659.27 190.35,-620.36 137,-665"/>
<path fill="none" stroke="black" d="M281.22,-540.4C283.12,-555.02 283.98,-576.16 277,-593"/>
<path fill="none" stroke="black" d="M137,-667C114.27,-686.02 86.01,-703.9 63.83,-716.82"/>
<polygon fill="#03953e" stroke="black" points="62.35,-713.64 55.42,-721.65 65.83,-719.71 62.35,-713.64"/>
</g>
<!-- fastapi&#45;&gt;email_validator -->
<g id="edge29" class="edge">
<title>fastapi&#45;&gt;email_validator</title><style>.edge>path:hover{stroke-width:8}</style>
<path fill="none" stroke="black" d="M277,-667C274.91,-700.61 315.41,-704.66 306,-737"/>
<path fill="none" stroke="black" d="M306,-739C302.15,-752.24 300.33,-767.42 299.51,-780.25"/>
<polygon fill="#03953e" stroke="black" points="296.01,-780.03 299.05,-790.18 303.01,-780.35 296.01,-780.03"/>
</g>
<!-- multipart -->
<g id="node22" class="node">
<title>multipart</title><style>.edge>path:hover{stroke-width:8}</style>
<polygon fill="#3395cc" stroke="black" points="164,-756 161,-760 140,-760 137,-756 110,-756 110,-720 164,-720 164,-756"/>
<text text-anchor="middle" x="137" y="-734.12" font-family="Helvetica,sans-Serif" font-size="10.00" fill="#ffffff">multipart</text>
</g>
<!-- fastapi&#45;&gt;multipart -->
<g id="edge39" class="edge">
<title>fastapi&#45;&gt;multipart</title><style>.edge>path:hover{stroke-width:8}</style>
<path fill="none" stroke="black" d="M137,-667C125.19,-676.88 125.07,-694.13 127.96,-709.03"/>
<polygon fill="#03953e" stroke="black" points="124.47,-709.46 130.26,-718.34 131.26,-707.79 124.47,-709.46"/>
</g>
<!-- fastapi&#45;&gt;pydantic -->
<g id="edge45" class="edge">
<title>fastapi&#45;&gt;pydantic</title><style>.edge>path:hover{stroke-width:8}</style>
<path fill="none" stroke="black" d="M353,-595C363.03,-610.13 375.44,-626.12 385.93,-638.99"/>
<polygon fill="#03953e" stroke="black" points="383.14,-641.1 392.2,-646.59 388.53,-636.65 383.14,-641.1"/>
</g>
<!-- pydantic_core -->
<g id="node25" class="node">
<title>pydantic_core</title><style>.edge>path:hover{stroke-width:8}</style>
<polygon fill="#1705e5" stroke="black" points="472.38,-828 469.38,-832 448.38,-832 445.38,-828 395.62,-828 395.62,-792 472.38,-792 472.38,-828"/>
<text text-anchor="middle" x="434" y="-806.12" font-family="Helvetica,sans-Serif" font-size="10.00" fill="#ffffff">pydantic_core</text>
</g>
<!-- fastapi&#45;&gt;pydantic_core -->
<g id="edge49" class="edge">
<title>fastapi&#45;&gt;pydantic_core</title><style>.edge>path:hover{stroke-width:8}</style>
<path fill="none" stroke="black" d="M353,-595C375.35,-628.71 361.86,-644.85 372,-684 380.39,-716.39 378.8,-726.19 394,-756 398.79,-765.4 405.27,-774.86 411.62,-783.13"/>
<polygon fill="#03953e" stroke="black" points="408.71,-785.09 417.69,-790.71 414.17,-780.71 408.71,-785.09"/>
<path fill="none" stroke="black" d="M300.8,-540.44C316.88,-553.59 338.12,-572.77 353,-593"/>
</g>
<!-- python_multipart -->
<g id="node27" class="node">
<title>python_multipart</title><style>.edge>path:hover{stroke-width:8}</style>
<polygon fill="#8c19e6" stroke="black" points="202,-828 199,-832 178,-832 175,-828 114,-828 114,-792 202,-792 202,-828"/>
<text text-anchor="middle" x="158" y="-806.12" font-family="Helvetica,sans-Serif" font-size="10.00" fill="#ffffff">python_multipart</text>
</g>
<!-- fastapi&#45;&gt;python_multipart -->
<g id="edge54" class="edge">
<title>fastapi&#45;&gt;python_multipart</title><style>.edge>path:hover{stroke-width:8}</style>
<path fill="none" stroke="black" d="M277,-667C274.67,-704.4 248.65,-704.5 230,-737"/>
<path fill="none" stroke="black" d="M230,-739C220.01,-756.41 204.45,-772.31 190.34,-784.55"/>
<polygon fill="#03953e" stroke="black" points="188.41,-781.6 182.97,-790.7 192.89,-786.98 188.41,-781.6"/>
<path fill="none" stroke="black" d="M277,-595C265.1,-623.74 278.93,-633.95 277,-665"/>
</g>
<!-- fastapi&#45;&gt;starlette -->
<g id="edge69" class="edge">
<title>fastapi&#45;&gt;starlette</title><style>.edge>path:hover{stroke-width:8}</style>
<path fill="none" stroke="black" d="M256.74,-540.3C246.3,-548.8 233.54,-559.19 222.12,-568.49"/>
<polygon fill="#03953e" stroke="black" points="220.03,-565.67 214.49,-574.7 224.45,-571.1 220.03,-565.67"/>
</g>
<!-- fastapi&#45;&gt;typing_extensions -->
<g id="edge75" class="edge">
<title>fastapi&#45;&gt;typing_extensions</title><style>.edge>path:hover{stroke-width:8}</style>
<path fill="none" stroke="black" d="M230,-739C214.51,-765.98 213.01,-782.94 230,-809"/>
</g>
<!-- fastapi_pagination&#45;&gt;fastapi -->
<g id="edge35" class="edge">
<title>fastapi_pagination&#45;&gt;fastapi</title><style>.edge>path:hover{stroke-width:8}</style>
<path fill="none" stroke="black" d="M362.2,-396.42C369.24,-410.87 379.96,-431.75 391,-449"/>
<path fill="none" stroke="black" d="M391,-451C411.88,-483.62 356.82,-503.56 316.41,-513.42"/>
<polygon fill="#38a880" stroke="black" points="315.66,-510 306.69,-515.65 317.22,-516.82 315.66,-510"/>
</g>
<!-- fastapi_pagination&#45;&gt;pydantic -->
<g id="edge46" class="edge">
<title>fastapi_pagination&#45;&gt;pydantic</title><style>.edge>path:hover{stroke-width:8}</style>
<path fill="none" stroke="black" d="M391,-595C389.85,-609.03 393,-624.25 396.89,-636.91"/>
<polygon fill="#38a880" stroke="black" points="393.54,-637.93 400.08,-646.27 400.17,-635.67 393.54,-637.93"/>
<path fill="none" stroke="black" d="M391,-523C383.52,-553.2 393.53,-561.99 391,-593"/>
</g>
<!-- fastapi_pagination&#45;&gt;sqlalchemy -->
<g id="edge63" class="edge">
<title>fastapi_pagination&#45;&gt;sqlalchemy</title><style>.edge>path:hover{stroke-width:8}</style>
<path fill="none" stroke="black" d="M673,-523C696.82,-556.98 703.25,-605.79 704.8,-636.42"/>
<polygon fill="#38a880" stroke="black" points="701.29,-636.2 705.13,-646.07 708.28,-635.96 701.29,-636.2"/>
<path fill="none" stroke="black" d="M391,-451C460.61,-559.77 587.36,-424.34 673,-521"/>
</g>
<!-- fastapi_pagination&#45;&gt;starlette -->
<g id="edge70" class="edge">
<title>fastapi_pagination&#45;&gt;starlette</title><style>.edge>path:hover{stroke-width:8}</style>
<path fill="none" stroke="black" d="M306.26,-395.41C253.17,-416.92 176.71,-459.28 192,-521"/>
</g>
<!-- fastapi_pagination&#45;&gt;typing_extensions -->
<g id="edge76" class="edge">
<title>fastapi_pagination&#45;&gt;typing_extensions</title><style>.edge>path:hover{stroke-width:8}</style>
<path fill="none" stroke="black" d="M391,-451C407.77,-477.2 398.48,-490.8 391,-521"/>
<path fill="none" stroke="black" d="M391,-523C386.62,-540.7 220.04,-793.73 230,-809"/>
</g>
<!-- greenlet -->
<g id="node20" class="node">
<title>greenlet</title><style>.edge>path:hover{stroke-width:8}</style>
<polygon fill="#53b6aa" stroke="black" points="760,-828 757,-832 736,-832 733,-828 706,-828 706,-792 760,-792 760,-828"/>
<text text-anchor="middle" x="733" y="-806.12" font-family="Helvetica,sans-Serif" font-size="10.00" fill="#000000">greenlet</text>
</g>
<!-- jose&#45;&gt;cryptography -->
<g id="edge23" class="edge">
<title>jose&#45;&gt;cryptography</title><style>.edge>path:hover{stroke-width:8}</style>
<path fill="none" stroke="black" d="M797.78,-396.3C796.83,-403.68 795.7,-412.48 794.63,-420.75"/>
<polygon fill="#19cde6" stroke="black" points="791.2,-420.03 793.39,-430.39 798.14,-420.92 791.2,-420.03"/>
</g>
<!-- jose&#45;&gt;ecdsa -->
<g id="edge28" class="edge">
<title>jose&#45;&gt;ecdsa</title><style>.edge>path:hover{stroke-width:8}</style>
<path fill="none" stroke="black" d="M776.56,-396.49C765.65,-405.84 753.46,-418.26 746,-432 735.93,-450.55 731.47,-474.04 729.51,-492.23"/>
<polygon fill="#19cde6" stroke="black" points="726.03,-491.81 728.66,-502.07 733.01,-492.41 726.03,-491.81"/>
</g>
<!-- multipart&#45;&gt;python_multipart -->
<g id="edge55" class="edge">
<title>multipart&#45;&gt;python_multipart</title><style>.edge>path:hover{stroke-width:8}</style>
<path fill="none" stroke="black" d="M142.19,-756.3C144.43,-763.76 147.1,-772.68 149.61,-781.03"/>
<polygon fill="#3395cc" stroke="black" points="146.21,-781.87 152.43,-790.45 152.91,-779.86 146.21,-781.87"/>
</g>
<!-- pydantic&#45;&gt;annotated_types -->
<g id="edge1" class="edge">
<title>pydantic&#45;&gt;annotated_types</title><style>.edge>path:hover{stroke-width:8}</style>
<path fill="none" stroke="black" d="M432.28,-684.41C467.48,-709.66 532.82,-756.52 572.56,-785.02"/>
<polygon fill="#031b95" stroke="black" points="570.44,-787.8 580.6,-790.79 574.52,-782.11 570.44,-787.8"/>
</g>
<!-- pydantic&#45;&gt;dotenv -->
<g id="edge26" class="edge">
<title>pydantic&#45;&gt;dotenv</title><style>.edge>path:hover{stroke-width:8}</style>
<path fill="none" stroke="black" d="M408,-739C409.78,-747.49 449.02,-771.18 479.91,-788.66"/>
<polygon fill="#031b95" stroke="black" points="477.83,-791.5 488.26,-793.34 481.26,-785.4 477.83,-791.5"/>
</g>
<!-- pydantic&#45;&gt;email_validator -->
<g id="edge30" class="edge">
<title>pydantic&#45;&gt;email_validator</title><style>.edge>path:hover{stroke-width:8}</style>
<path fill="none" stroke="black" d="M380.77,-674.87C353.98,-684.43 315.72,-703.59 306,-737"/>
</g>
<!-- pydantic&#45;&gt;pydantic_core -->
<g id="edge50" class="edge">
<title>pydantic&#45;&gt;pydantic_core</title><style>.edge>path:hover{stroke-width:8}</style>
<path fill="none" stroke="black" d="M408,-739C411.01,-753.33 416.42,-768.63 421.54,-781.27"/>
<polygon fill="#031b95" stroke="black" points="418.19,-782.34 425.29,-790.2 424.64,-779.62 418.19,-782.34"/>
</g>
<!-- pydantic&#45;&gt;typing_extensions -->
<g id="edge77" class="edge">
<title>pydantic&#45;&gt;typing_extensions</title><style>.edge>path:hover{stroke-width:8}</style>
<path fill="none" stroke="black" d="M406.02,-684.47C404.88,-698.75 404.3,-719.4 408,-737"/>
<path fill="none" stroke="black" d="M408,-739C413.21,-763.8 394.91,-767.93 387,-792 376.66,-823.44 380.05,-833.18 368,-864"/>
</g>
<!-- pydantic_core&#45;&gt;typing_extensions -->
<g id="edge78" class="edge">
<title>pydantic_core&#45;&gt;typing_extensions</title><style>.edge>path:hover{stroke-width:8}</style>
<path fill="none" stroke="black" d="M399.84,-828.37C386.92,-837.05 373.9,-848.95 368,-864"/>
</g>
<!-- pydantic_settings&#45;&gt;dotenv -->
<g id="edge27" class="edge">
<title>pydantic_settings&#45;&gt;dotenv</title><style>.edge>path:hover{stroke-width:8}</style>
<path fill="none" stroke="black" d="M568,-667C568,-709.04 547.95,-754.18 533,-782.01"/>
<polygon fill="#603ab0" stroke="black" points="530.1,-780.02 528.3,-790.46 536.22,-783.42 530.1,-780.02"/>
</g>
<!-- pydantic_settings&#45;&gt;pydantic -->
<g id="edge47" class="edge">
<title>pydantic_settings&#45;&gt;pydantic</title><style>.edge>path:hover{stroke-width:8}</style>
<path fill="none" stroke="black" d="M544.78,-540.37C557.46,-553.63 571.02,-572.97 568,-593"/>
<path fill="none" stroke="black" d="M568,-595C560.27,-646.19 491.68,-660.23 446.85,-663.91"/>
<polygon fill="#603ab0" stroke="black" points="446.71,-660.41 436.97,-664.57 447.18,-667.4 446.71,-660.41"/>
</g>
<!-- pydantic_settings&#45;&gt;pydantic_core -->
<g id="edge51" class="edge">
<title>pydantic_settings&#45;&gt;pydantic_core</title><style>.edge>path:hover{stroke-width:8}</style>
<path fill="none" stroke="black" d="M568,-667C566.95,-696.71 504.41,-752.39 465.15,-784.49"/>
<polygon fill="#603ab0" stroke="black" points="462.95,-781.77 457.37,-790.78 467.35,-787.21 462.95,-781.77"/>
<path fill="none" stroke="black" d="M568,-595C563.36,-625.76 567.26,-633.9 568,-665"/>
</g>
<!-- pydantic_settings&#45;&gt;typing_extensions -->
<g id="edge79" class="edge">
<title>pydantic_settings&#45;&gt;typing_extensions</title><style>.edge>path:hover{stroke-width:8}</style>
<path fill="none" stroke="black" d="M568,-667C569.1,-712.91 623.47,-695.92 644,-737"/>
<path fill="none" stroke="black" d="M644,-739C661.93,-774.88 685.57,-797.94 659,-828 615.85,-876.82 392.26,-803.53 368,-864"/>
</g>
<!-- python_multipart&#45;&gt;typing_extensions -->
<g id="edge80" class="edge">
<title>python_multipart&#45;&gt;typing_extensions</title><style>.edge>path:hover{stroke-width:8}</style>
<path fill="none" stroke="black" d="M202.27,-824.23C206.89,-825.54 211.54,-826.82 216,-828 283.11,-845.77 393.34,-799.37 368,-864"/>
</g>
<!-- sqlalchemy&#45;&gt;greenlet -->
<g id="edge37" class="edge">
<title>sqlalchemy&#45;&gt;greenlet</title><style>.edge>path:hover{stroke-width:8}</style>
<path fill="none" stroke="black" d="M719.19,-684.26C729.49,-697.76 742.83,-717.47 750,-737"/>
<path fill="none" stroke="black" d="M750,-739C755.02,-752.67 751.95,-768.38 747.13,-781.45"/>
<polygon fill="#a904a3" stroke="black" points="744.05,-779.74 743.38,-790.31 750.5,-782.46 744.05,-779.74"/>
</g>
<!-- sqlalchemy&#45;&gt;typing_extensions -->
<g id="edge81" class="edge">
<title>sqlalchemy&#45;&gt;typing_extensions</title><style>.edge>path:hover{stroke-width:8}</style>
<path fill="none" stroke="black" d="M788,-811C781.68,-820.4 779.39,-823.49 769,-828 727.97,-845.82 384.66,-822.48 368,-864"/>
<path fill="none" stroke="black" d="M750,-739C762.2,-772.23 807.75,-779.62 788,-809"/>
</g>
<!-- sqlmodel&#45;&gt;annotated_types -->
<g id="edge2" class="edge">
<title>sqlmodel&#45;&gt;annotated_types</title><style>.edge>path:hover{stroke-width:8}</style>
<path fill="none" stroke="black" d="M606,-739C596.75,-750.45 596.25,-766.73 598.29,-780.71"/>
<polygon fill="#832067" stroke="black" points="594.81,-781.13 600.18,-790.27 601.68,-779.78 594.81,-781.13"/>
</g>
<!-- sqlmodel&#45;&gt;pydantic -->
<g id="edge48" class="edge">
<title>sqlmodel&#45;&gt;pydantic</title><style>.edge>path:hover{stroke-width:8}</style>
<path fill="none" stroke="black" d="M644,-595C637.52,-634.89 511.78,-654.05 446.55,-661.33"/>
<polygon fill="#832067" stroke="black" points="446.57,-657.81 437,-662.36 447.32,-664.77 446.57,-657.81"/>
<path fill="none" stroke="black" d="M629.36,-540.27C637.84,-554.1 647.05,-574.23 644,-593"/>
</g>
<!-- sqlmodel&#45;&gt;pydantic_core -->
<g id="edge52" class="edge">
<title>sqlmodel&#45;&gt;pydantic_core</title><style>.edge>path:hover{stroke-width:8}</style>
<path fill="none" stroke="black" d="M606,-739C601.85,-744.14 532.45,-771.41 483.09,-790.36"/>
<polygon fill="#832067" stroke="black" points="482.09,-786.99 474,-793.84 484.59,-793.53 482.09,-786.99"/>
<path fill="none" stroke="black" d="M644,-667C639.45,-702.11 628.25,-709.47 606,-737"/>
<path fill="none" stroke="black" d="M644,-595C639.01,-625.71 648,-634.15 644,-665"/>
</g>
<!-- sqlmodel&#45;&gt;sqlalchemy -->
<g id="edge64" class="edge">
<title>sqlmodel&#45;&gt;sqlalchemy</title><style>.edge>path:hover{stroke-width:8}</style>
<path fill="none" stroke="black" d="M644,-595C641.09,-612.92 652.55,-628.62 666.29,-640.59"/>
<polygon fill="#832067" stroke="black" points="663.85,-643.12 673.85,-646.6 668.2,-637.64 663.85,-643.12"/>
</g>
<!-- sqlmodel&#45;&gt;typing_extensions -->
<g id="edge82" class="edge">
<title>sqlmodel&#45;&gt;typing_extensions</title><style>.edge>path:hover{stroke-width:8}</style>
<path fill="none" stroke="black" d="M644,-667C640,-697.85 632.33,-708.16 644,-737"/>
</g>
<!-- starlette&#45;&gt;anyio -->
<g id="edge4" class="edge">
<title>starlette&#45;&gt;anyio</title><style>.edge>path:hover{stroke-width:8}</style>
<path fill="none" stroke="black" d="M164.96,-603.52C138.37,-613.52 99.33,-632.94 82,-665"/>
<path fill="none" stroke="black" d="M82,-667C73.48,-682.75 61.41,-698.59 50.74,-711.2"/>
<polygon fill="#f91080" stroke="black" points="48.2,-708.78 44.29,-718.63 53.49,-713.38 48.2,-708.78"/>
</g>
<!-- starlette&#45;&gt;multipart -->
<g id="edge40" class="edge">
<title>starlette&#45;&gt;multipart</title><style>.edge>path:hover{stroke-width:8}</style>
<path fill="none" stroke="black" d="M82,-667C72.88,-683.86 85.51,-700.82 100.95,-713.82"/>
<polygon fill="#f91080" stroke="black" points="98.46,-716.31 108.51,-719.68 102.75,-710.78 98.46,-716.31"/>
</g>
<!-- starlette&#45;&gt;python_multipart -->
<g id="edge56" class="edge">
<title>starlette&#45;&gt;python_multipart</title><style>.edge>path:hover{stroke-width:8}</style>
<path fill="none" stroke="black" d="M82,-667C62.76,-702.58 81.04,-720.82 101,-756 107.01,-766.6 115.86,-776.31 124.8,-784.44"/>
<polygon fill="#f91080" stroke="black" points="122.29,-786.9 132.17,-790.74 126.85,-781.58 122.29,-786.9"/>
</g>
<!-- starlette&#45;&gt;typing_extensions -->
<g id="edge83" class="edge">
<title>starlette&#45;&gt;typing_extensions</title><style>.edge>path:hover{stroke-width:8}</style>
<path fill="none" stroke="black" d="M190.57,-612.28C188.24,-651.08 187.55,-746.6 230,-809"/>
<path fill="none" stroke="black" d="M230,-811C261.82,-859.82 368.35,-863.13 368,-864"/>
</g>
</g>
</svg>
