<?xml version="1.0" encoding="UTF-8" standalone="no"?>
<!DOCTYPE svg PUBLIC "-//W3C//DTD SVG 1.1//EN"
 "http://www.w3.org/Graphics/SVG/1.1/DTD/svg11.dtd">
<!-- Generated by graphviz version 12.2.0 (20241103.1931)
 -->
<!-- Title: G Pages: 1 -->
<svg width="767pt" height="873pt"
 viewBox="0.00 0.00 766.96 873.00" xmlns="http://www.w3.org/2000/svg" xmlns:xlink="http://www.w3.org/1999/xlink">
<g id="graph0" class="graph" transform="scale(1 1) rotate(0) translate(4 869)">
<title>G</title><style>.edge>path:hover{stroke-width:8}</style>
<polygon fill="white" stroke="none" points="-4,4 -4,-869 762.96,-869 762.96,4 -4,4"/>
<!-- annotated_types -->
<g id="node1" class="node">
<title>annotated_types</title><style>.edge>path:hover{stroke-width:8}</style>
<polygon fill="#d92626" stroke="black" points="264.85,-756 261.85,-760 240.85,-760 237.85,-756 176.85,-756 176.85,-720 264.85,-720 264.85,-756"/>
<text text-anchor="middle" x="220.85" y="-734.12" font-family="Helvetica,sans-Serif" font-size="10.00" fill="#ffffff">annotated_types</text>
</g>
<!-- typing_extensions -->
<g id="node25" class="node">
<title>typing_extensions</title><style>.edge>path:hover{stroke-width:8}</style>
<polygon fill="#f9105a" stroke="black" points="440.23,-865 437.23,-869 416.23,-869 413.23,-865 345.48,-865 345.48,-829 440.23,-829 440.23,-865"/>
<text text-anchor="middle" x="392.85" y="-843.12" font-family="Helvetica,sans-Serif" font-size="10.00" fill="#ffffff">typing_extensions</text>
</g>
<!-- annotated_types&#45;&gt;typing_extensions -->
<g id="edge56" class="edge">
<title>annotated_types&#45;&gt;typing_extensions</title><style>.edge>path:hover{stroke-width:8}</style>
<path fill="none" stroke="black" d="M265.08,-753.25C268.05,-754.18 270.99,-755.11 273.85,-756 326.61,-772.44 366.56,-743.4 392.85,-792"/>
</g>
<!-- anyio -->
<g id="node2" class="node">
<title>anyio</title><style>.edge>path:hover{stroke-width:8}</style>
<polygon fill="#f95a10" stroke="black" points="647.85,-684 644.85,-688 623.85,-688 620.85,-684 593.85,-684 593.85,-648 647.85,-648 647.85,-684"/>
<text text-anchor="middle" x="620.85" y="-662.12" font-family="Helvetica,sans-Serif" font-size="10.00" fill="#000000">anyio</text>
</g>
<!-- anyio&#45;&gt;typing_extensions -->
<g id="edge57" class="edge">
<title>anyio&#45;&gt;typing_extensions</title><style>.edge>path:hover{stroke-width:8}</style>
<path fill="none" stroke="black" d="M618.18,-684.34C615.12,-699.5 608.9,-721.47 596.85,-737"/>
</g>
<!-- app_application -->
<g id="node3" class="node">
<title>app_application</title><style>.edge>path:hover{stroke-width:8}</style>
<ellipse fill="#93671a" stroke="black" cx="358.85" cy="-234" rx="36.98" ry="18"/>
<text text-anchor="middle" x="358.85" y="-230.12" font-family="Helvetica,sans-Serif" font-size="10.00" fill="#ffffff">application</text>
</g>
<!-- app_domain -->
<g id="node5" class="node">
<title>app_domain</title><style>.edge>path:hover{stroke-width:8}</style>
<ellipse fill="#b87809" stroke="black" cx="273.85" cy="-306" rx="28.11" ry="18"/>
<text text-anchor="middle" x="273.85" y="-302.12" font-family="Helvetica,sans-Serif" font-size="10.00" fill="#ffffff">domain</text>
</g>
<!-- app_application&#45;&gt;app_domain -->
<g id="edge8" class="edge">
<title>app_application&#45;&gt;app_domain</title><style>.edge>path:hover{stroke-width:8}</style>
<path fill="none" stroke="black" d="M340.83,-249.85C328.79,-259.76 312.78,-272.94 299.43,-283.94"/>
<polygon fill="#93671a" stroke="black" points="297.36,-281.11 291.86,-290.17 301.81,-286.51 297.36,-281.11"/>
</g>
<!-- fastapi -->
<g id="node15" class="node">
<title>fastapi</title><style>.edge>path:hover{stroke-width:8}</style>
<polygon fill="#039550" stroke="black" points="529.85,-468 526.85,-472 505.85,-472 502.85,-468 475.85,-468 475.85,-432 529.85,-432 529.85,-468"/>
<text text-anchor="middle" x="502.85" y="-446.12" font-family="Helvetica,sans-Serif" font-size="10.00" fill="#ffffff">fastapi</text>
</g>
<!-- app_application&#45;&gt;fastapi -->
<g id="edge24" class="edge">
<title>app_application&#45;&gt;fastapi</title><style>.edge>path:hover{stroke-width:8}</style>
<path fill="none" stroke="black" d="M369.85,-379C373.23,-400.11 426.75,-422.87 464.86,-436.52"/>
<polygon fill="#93671a" stroke="black" points="463.6,-439.79 474.2,-439.79 465.91,-433.18 463.6,-439.79"/>
</g>
<!-- pydantic -->
<g id="node18" class="node">
<title>pydantic</title><style>.edge>path:hover{stroke-width:8}</style>
<polygon fill="#035095" stroke="black" points="466.85,-612 463.85,-616 442.85,-616 439.85,-612 412.85,-612 412.85,-576 466.85,-576 466.85,-612"/>
<text text-anchor="middle" x="439.85" y="-590.12" font-family="Helvetica,sans-Serif" font-size="10.00" fill="#ffffff">pydantic</text>
</g>
<!-- app_application&#45;&gt;pydantic -->
<g id="edge31" class="edge">
<title>app_application&#45;&gt;pydantic</title><style>.edge>path:hover{stroke-width:8}</style>
<path fill="none" stroke="black" d="M369.85,-379C375.98,-417.27 418.51,-410.39 421.85,-449"/>
</g>
<!-- shortuuid -->
<g id="node21" class="node">
<title>shortuuid</title><style>.edge>path:hover{stroke-width:8}</style>
<polygon fill="#6f31c4" stroke="black" points="453.73,-396 450.73,-400 429.73,-400 426.73,-396 397.98,-396 397.98,-360 453.73,-360 453.73,-396"/>
<text text-anchor="middle" x="425.85" y="-374.12" font-family="Helvetica,sans-Serif" font-size="10.00" fill="#ffffff">shortuuid</text>
</g>
<!-- app_application&#45;&gt;shortuuid -->
<g id="edge43" class="edge">
<title>app_application&#45;&gt;shortuuid</title><style>.edge>path:hover{stroke-width:8}</style>
<path fill="none" stroke="black" d="M369.85,-307C370.36,-324.32 381.02,-339.81 392.9,-351.79"/>
<polygon fill="#93671a" stroke="black" points="390.39,-354.23 400.1,-358.47 395.15,-349.1 390.39,-354.23"/>
</g>
<!-- sqlalchemy -->
<g id="node22" class="node">
<title>sqlalchemy</title><style>.edge>path:hover{stroke-width:8}</style>
<polygon fill="#7e04a9" stroke="black" points="174.6,-612 171.6,-616 150.6,-616 147.6,-612 109.1,-612 109.1,-576 174.6,-576 174.6,-612"/>
<text text-anchor="middle" x="141.85" y="-590.12" font-family="Helvetica,sans-Serif" font-size="10.00" fill="#ffffff">sqlalchemy</text>
</g>
<!-- app_application&#45;&gt;sqlalchemy -->
<g id="edge45" class="edge">
<title>app_application&#45;&gt;sqlalchemy</title><style>.edge>path:hover{stroke-width:8}</style>
<path fill="none" stroke="black" d="M369.85,-307C372.43,-394.08 284.88,-375.17 218.85,-432 210.26,-439.39 208.38,-441.54 199.85,-449"/>
<path fill="none" stroke="black" d="M362.24,-252.18C364.86,-266.3 368.3,-286.86 369.85,-305"/>
</g>
<!-- sqlmodel -->
<g id="node23" class="node">
<title>sqlmodel</title><style>.edge>path:hover{stroke-width:8}</style>
<polygon fill="#83207d" stroke="black" points="283.35,-468 280.35,-472 259.35,-472 256.35,-468 228.35,-468 228.35,-432 283.35,-432 283.35,-468"/>
<text text-anchor="middle" x="255.85" y="-446.12" font-family="Helvetica,sans-Serif" font-size="10.00" fill="#ffffff">sqlmodel</text>
</g>
<!-- app_application&#45;&gt;sqlmodel -->
<g id="edge51" class="edge">
<title>app_application&#45;&gt;sqlmodel</title><style>.edge>path:hover{stroke-width:8}</style>
<path fill="none" stroke="black" d="M369.85,-379C371.3,-388.07 327.46,-412.64 293.73,-430.11"/>
<polygon fill="#93671a" stroke="black" points="292.29,-426.91 284.99,-434.58 295.49,-433.14 292.29,-426.91"/>
<path fill="none" stroke="black" d="M369.85,-307C370.77,-338.1 364.93,-346.28 369.85,-377"/>
</g>
<!-- app_di_container -->
<g id="node4" class="node">
<title>app_di_container</title><style>.edge>path:hover{stroke-width:8}</style>
<ellipse fill="#916e30" stroke="black" cx="423.85" cy="-90" rx="40.53" ry="18"/>
<text text-anchor="middle" x="423.85" y="-86.12" font-family="Helvetica,sans-Serif" font-size="10.00" fill="#ffffff">di_container</text>
</g>
<!-- app_di_container&#45;&gt;app_domain -->
<g id="edge9" class="edge">
<title>app_di_container&#45;&gt;app_domain</title><style>.edge>path:hover{stroke-width:8}</style>
<path fill="none" stroke="black" d="M427.72,-108.25C430.14,-122.97 431.52,-144.33 423.85,-161"/>
<path fill="none" stroke="black" d="M423.85,-163C419.12,-173.29 414.77,-174.52 404.85,-180 354.26,-207.98 316.15,-171 279.85,-216 266.39,-232.69 265.73,-257.36 267.97,-276.5"/>
<polygon fill="#916e30" stroke="black" points="264.51,-277 269.47,-286.36 271.43,-275.95 264.51,-277"/>
</g>
<!-- app_infrastructure -->
<g id="node6" class="node">
<title>app_infrastructure</title><style>.edge>path:hover{stroke-width:8}</style>
<ellipse fill="#936310" stroke="black" cx="352.85" cy="-162" rx="43.19" ry="18"/>
<text text-anchor="middle" x="352.85" y="-158.12" font-family="Helvetica,sans-Serif" font-size="10.00" fill="#ffffff">infrastructure</text>
</g>
<!-- app_di_container&#45;&gt;app_infrastructure -->
<g id="edge12" class="edge">
<title>app_di_container&#45;&gt;app_infrastructure</title><style>.edge>path:hover{stroke-width:8}</style>
<path fill="none" stroke="black" d="M407.74,-106.88C398.66,-115.83 387.14,-127.19 377.01,-137.19"/>
<polygon fill="#916e30" stroke="black" points="374.64,-134.6 369.98,-144.12 379.55,-139.59 374.64,-134.6"/>
</g>
<!-- dependency_injector -->
<g id="node12" class="node">
<title>dependency_injector</title><style>.edge>path:hover{stroke-width:8}</style>
<polygon fill="#79ce3b" stroke="black" points="726.48,-324 723.48,-328 702.48,-328 699.48,-324 621.23,-324 621.23,-288 726.48,-288 726.48,-324"/>
<text text-anchor="middle" x="673.85" y="-302.12" font-family="Helvetica,sans-Serif" font-size="10.00" fill="#000000">dependency_injector</text>
</g>
<!-- app_di_container&#45;&gt;dependency_injector -->
<g id="edge18" class="edge">
<title>app_di_container&#45;&gt;dependency_injector</title><style>.edge>path:hover{stroke-width:8}</style>
<path fill="none" stroke="black" d="M454.22,-102.35C476.67,-111.58 507.29,-126.01 530.85,-144 582.72,-183.62 630.35,-244.08 655.4,-278.53"/>
<polygon fill="#916e30" stroke="black" points="652.29,-280.2 660.97,-286.29 657.98,-276.12 652.29,-280.2"/>
</g>
<!-- app_di_container&#45;&gt;shortuuid -->
<g id="edge44" class="edge">
<title>app_di_container&#45;&gt;shortuuid</title><style>.edge>path:hover{stroke-width:8}</style>
<path fill="none" stroke="black" d="M423.85,-163C397.45,-224.87 409.39,-306.27 418.65,-348.62"/>
<polygon fill="#916e30" stroke="black" points="415.21,-349.3 420.87,-358.25 422.03,-347.72 415.21,-349.3"/>
</g>
<!-- app_domain&#45;&gt;pydantic -->
<g id="edge32" class="edge">
<title>app_domain&#45;&gt;pydantic</title><style>.edge>path:hover{stroke-width:8}</style>
<path fill="none" stroke="black" d="M421.85,-451C424.97,-481.95 405.82,-494.34 421.85,-521"/>
<path fill="none" stroke="black" d="M286.47,-322.23C301.97,-340.57 329.48,-371.92 355.85,-396 383.63,-421.37 418.08,-411.57 421.85,-449"/>
</g>
<!-- app_domain&#45;&gt;sqlalchemy -->
<g id="edge46" class="edge">
<title>app_domain&#45;&gt;sqlalchemy</title><style>.edge>path:hover{stroke-width:8}</style>
<path fill="none" stroke="black" d="M248.61,-314.67C222.55,-324.33 184.99,-343.82 179.85,-377"/>
</g>
<!-- app_domain&#45;&gt;sqlmodel -->
<g id="edge52" class="edge">
<title>app_domain&#45;&gt;sqlmodel</title><style>.edge>path:hover{stroke-width:8}</style>
<path fill="none" stroke="black" d="M271.64,-324.41C268.6,-348.39 263.09,-391.86 259.45,-420.58"/>
<polygon fill="#b87809" stroke="black" points="256,-420.03 258.21,-430.39 262.94,-420.91 256,-420.03"/>
</g>
<!-- app_infrastructure&#45;&gt;app_application -->
<g id="edge5" class="edge">
<title>app_infrastructure&#45;&gt;app_application</title><style>.edge>path:hover{stroke-width:8}</style>
<path fill="none" stroke="black" d="M354.33,-180.3C354.96,-187.59 355.7,-196.27 356.41,-204.46"/>
<polygon fill="#936310" stroke="black" points="352.91,-204.72 357.26,-214.39 359.89,-204.13 352.91,-204.72"/>
</g>
<!-- app_infrastructure&#45;&gt;app_domain -->
<g id="edge10" class="edge">
<title>app_infrastructure&#45;&gt;app_domain</title><style>.edge>path:hover{stroke-width:8}</style>
<path fill="none" stroke="black" d="M217.85,-235C205.54,-253.52 224.41,-273.17 243.5,-286.92"/>
<polygon fill="#936310" stroke="black" points="241.53,-289.82 251.78,-292.5 245.45,-284.01 241.53,-289.82"/>
</g>
<!-- asyncpg -->
<g id="node10" class="node">
<title>asyncpg</title><style>.edge>path:hover{stroke-width:8}</style>
<polygon fill="#bdb304" stroke="black" points="65.85,-540 62.85,-544 41.85,-544 38.85,-540 11.85,-540 11.85,-504 65.85,-504 65.85,-540"/>
<text text-anchor="middle" x="38.85" y="-518.12" font-family="Helvetica,sans-Serif" font-size="10.00" fill="#000000">asyncpg</text>
</g>
<!-- app_infrastructure&#45;&gt;asyncpg -->
<g id="edge16" class="edge">
<title>app_infrastructure&#45;&gt;asyncpg</title><style>.edge>path:hover{stroke-width:8}</style>
<path fill="none" stroke="black" d="M315.92,-171.67C284.37,-181.13 240.6,-199.62 217.85,-233"/>
<path fill="none" stroke="black" d="M141.85,-451C132.49,-480.18 101.92,-498.51 76.49,-509.05"/>
<polygon fill="#936310" stroke="black" points="75.47,-505.7 67.4,-512.56 77.99,-512.23 75.47,-505.7"/>
<path fill="none" stroke="black" d="M217.85,-235C199.27,-262.27 180.56,-258.46 165.85,-288 133.61,-352.76 163.95,-380.11 141.85,-449"/>
</g>
<!-- pydantic_settings -->
<g id="node20" class="node">
<title>pydantic_settings</title><style>.edge>path:hover{stroke-width:8}</style>
<polygon fill="#473ab0" stroke="black" points="394.1,-468 391.1,-472 370.1,-472 367.1,-468 301.6,-468 301.6,-432 394.1,-432 394.1,-468"/>
<text text-anchor="middle" x="347.85" y="-446.12" font-family="Helvetica,sans-Serif" font-size="10.00" fill="#ffffff">pydantic_settings</text>
</g>
<!-- app_infrastructure&#45;&gt;pydantic_settings -->
<g id="edge42" class="edge">
<title>app_infrastructure&#45;&gt;pydantic_settings</title><style>.edge>path:hover{stroke-width:8}</style>
<path fill="none" stroke="black" d="M217.85,-235C173.13,-302.28 261.85,-384.66 313.84,-424.75"/>
<polygon fill="#936310" stroke="black" points="311.47,-427.35 321.56,-430.59 315.69,-421.77 311.47,-427.35"/>
</g>
<!-- app_infrastructure&#45;&gt;sqlalchemy -->
<g id="edge47" class="edge">
<title>app_infrastructure&#45;&gt;sqlalchemy</title><style>.edge>path:hover{stroke-width:8}</style>
<path fill="none" stroke="black" d="M141.85,-523C139.26,-536.38 138.94,-551.47 139.39,-564.21"/>
<polygon fill="#936310" stroke="black" points="135.89,-564.26 139.94,-574.05 142.88,-563.87 135.89,-564.26"/>
<path fill="none" stroke="black" d="M141.85,-451C130.63,-480.02 147.77,-490.46 141.85,-521"/>
</g>
<!-- app_interfaces -->
<g id="node7" class="node">
<title>app_interfaces</title><style>.edge>path:hover{stroke-width:8}</style>
<ellipse fill="#7a581e" stroke="black" cx="486.85" cy="-162" rx="34.76" ry="18"/>
<text text-anchor="middle" x="486.85" y="-158.12" font-family="Helvetica,sans-Serif" font-size="10.00" fill="#ffffff">interfaces</text>
</g>
<!-- app_interfaces&#45;&gt;app_application -->
<g id="edge6" class="edge">
<title>app_interfaces&#45;&gt;app_application</title><style>.edge>path:hover{stroke-width:8}</style>
<path fill="none" stroke="black" d="M463.67,-175.68C443.89,-186.49 415.19,-202.19 392.82,-214.42"/>
<polygon fill="#7a581e" stroke="black" points="391.15,-211.35 384.05,-219.22 394.51,-217.49 391.15,-211.35"/>
</g>
<!-- app_interfaces&#45;&gt;app_domain -->
<g id="edge11" class="edge">
<title>app_interfaces&#45;&gt;app_domain</title><style>.edge>path:hover{stroke-width:8}</style>
<path fill="none" stroke="black" d="M293.85,-235C280.59,-243.87 275.54,-261.01 273.83,-276.12"/>
<polygon fill="#7a581e" stroke="black" points="270.34,-275.88 273.18,-286.08 277.33,-276.33 270.34,-275.88"/>
</g>
<!-- app_interfaces&#45;&gt;dependency_injector -->
<g id="edge19" class="edge">
<title>app_interfaces&#45;&gt;dependency_injector</title><style>.edge>path:hover{stroke-width:8}</style>
<path fill="none" stroke="black" d="M486.85,-235C492.37,-247.07 558.18,-269.74 610.19,-286.01"/>
<polygon fill="#7a581e" stroke="black" points="609.01,-289.31 619.6,-288.94 611.09,-282.63 609.01,-289.31"/>
</g>
<!-- app_interfaces&#45;&gt;fastapi -->
<g id="edge25" class="edge">
<title>app_interfaces&#45;&gt;fastapi</title><style>.edge>path:hover{stroke-width:8}</style>
<path fill="none" stroke="black" d="M480.85,-307C490.62,-338.85 521.1,-329.22 533.85,-360 542.37,-380.57 533.08,-404.41 522.5,-422.24"/>
<polygon fill="#7a581e" stroke="black" points="519.69,-420.14 517.24,-430.44 525.58,-423.91 519.69,-420.14"/>
</g>
<!-- fastapi_pagination -->
<g id="node16" class="node">
<title>fastapi_pagination</title><style>.edge>path:hover{stroke-width:8}</style>
<polygon fill="#38a897" stroke="black" points="603.23,-324 600.23,-328 579.23,-328 576.23,-324 508.48,-324 508.48,-288 603.23,-288 603.23,-324"/>
<text text-anchor="middle" x="555.85" y="-302.12" font-family="Helvetica,sans-Serif" font-size="10.00" fill="#000000">fastapi_pagination</text>
</g>
<!-- app_interfaces&#45;&gt;fastapi_pagination -->
<g id="edge29" class="edge">
<title>app_interfaces&#45;&gt;fastapi_pagination</title><style>.edge>path:hover{stroke-width:8}</style>
<path fill="none" stroke="black" d="M486.85,-235C494.89,-252.57 509.31,-268.28 522.9,-280.35"/>
<polygon fill="#7a581e" stroke="black" points="520.58,-282.98 530.48,-286.76 525.1,-277.63 520.58,-282.98"/>
</g>
<!-- app_interfaces&#45;&gt;pydantic -->
<g id="edge33" class="edge">
<title>app_interfaces&#45;&gt;pydantic</title><style>.edge>path:hover{stroke-width:8}</style>
<path fill="none" stroke="black" d="M486.85,-235C499.84,-263.39 473.22,-274.72 480.85,-305"/>
<path fill="none" stroke="black" d="M519.85,-379C496.18,-427.01 417.24,-395.67 421.85,-449"/>
<path fill="none" stroke="black" d="M480.85,-307C489.55,-341.53 535.6,-345.06 519.85,-377"/>
<path fill="none" stroke="black" d="M483,-180.25C480.59,-194.96 479.22,-216.31 486.85,-233"/>
</g>
<!-- app_interfaces&#45;&gt;sqlalchemy -->
<g id="edge48" class="edge">
<title>app_interfaces&#45;&gt;sqlalchemy</title><style>.edge>path:hover{stroke-width:8}</style>
<path fill="none" stroke="black" d="M199.85,-451C169.07,-477.17 149.54,-481.34 141.85,-521"/>
<path fill="none" stroke="black" d="M179.85,-379C174.9,-410.97 224.5,-428.04 199.85,-449"/>
<path fill="none" stroke="black" d="M458.69,-173.06C451.89,-175.41 444.63,-177.85 437.85,-180 382.74,-197.48 363.44,-188.02 312.85,-216 302.94,-221.48 303.27,-226.7 293.85,-233"/>
<path fill="none" stroke="black" d="M293.85,-235C226.57,-279.97 192.24,-297.02 179.85,-377"/>
</g>
<!-- app_load_seeds -->
<g id="node8" class="node">
<title>app_load_seeds</title><style>.edge>path:hover{stroke-width:8}</style>
<ellipse fill="#a48246" stroke="black" cx="194.85" cy="-90" rx="38.76" ry="18"/>
<text text-anchor="middle" x="194.85" y="-86.12" font-family="Helvetica,sans-Serif" font-size="10.00" fill="#000000">load_seeds</text>
</g>
<!-- app_load_seeds&#45;&gt;app_infrastructure -->
<g id="edge13" class="edge">
<title>app_load_seeds&#45;&gt;app_infrastructure</title><style>.edge>path:hover{stroke-width:8}</style>
<path fill="none" stroke="black" d="M222.01,-103.03C247.2,-114.19 284.99,-130.93 313.49,-143.56"/>
<polygon fill="#a48246" stroke="black" points="311.96,-146.71 322.52,-147.56 314.8,-140.31 311.96,-146.71"/>
</g>
<!-- click -->
<g id="node11" class="node">
<title>click</title><style>.edge>path:hover{stroke-width:8}</style>
<polygon fill="#6f8b22" stroke="black" points="61.85,-396 58.85,-400 37.85,-400 34.85,-396 7.85,-396 7.85,-360 61.85,-360 61.85,-396"/>
<text text-anchor="middle" x="34.85" y="-374.12" font-family="Helvetica,sans-Serif" font-size="10.00" fill="#ffffff">click</text>
</g>
<!-- app_load_seeds&#45;&gt;click -->
<g id="edge17" class="edge">
<title>app_load_seeds&#45;&gt;click</title><style>.edge>path:hover{stroke-width:8}</style>
<path fill="none" stroke="black" d="M185.56,-107.61C159.06,-154.97 82.95,-291.03 50.17,-349.62"/>
<polygon fill="#a48246" stroke="black" points="47.14,-347.86 45.31,-358.3 53.25,-351.28 47.14,-347.86"/>
</g>
<!-- app_main -->
<g id="node9" class="node">
<title>app_main</title><style>.edge>path:hover{stroke-width:8}</style>
<ellipse fill="#886b3a" stroke="black" cx="423.85" cy="-18" rx="27" ry="18"/>
<text text-anchor="middle" x="423.85" y="-14.12" font-family="Helvetica,sans-Serif" font-size="10.00" fill="#ffffff">main</text>
</g>
<!-- app_main&#45;&gt;app_di_container -->
<g id="edge7" class="edge">
<title>app_main&#45;&gt;app_di_container</title><style>.edge>path:hover{stroke-width:8}</style>
<path fill="none" stroke="black" d="M423.85,-36.3C423.85,-43.59 423.85,-52.27 423.85,-60.46"/>
<polygon fill="#886b3a" stroke="black" points="420.35,-60.38 423.85,-70.38 427.35,-60.38 420.35,-60.38"/>
</g>
<!-- app_main&#45;&gt;app_infrastructure -->
<g id="edge14" class="edge">
<title>app_main&#45;&gt;app_infrastructure</title><style>.edge>path:hover{stroke-width:8}</style>
<path fill="none" stroke="black" d="M407.05,-32.6C396.01,-42.43 382.13,-56.63 373.85,-72 363.77,-90.71 358.49,-114.2 355.75,-132.34"/>
<polygon fill="#886b3a" stroke="black" points="352.29,-131.79 354.45,-142.16 359.23,-132.7 352.29,-131.79"/>
</g>
<!-- app_main&#45;&gt;app_interfaces -->
<g id="edge15" class="edge">
<title>app_main&#45;&gt;app_interfaces</title><style>.edge>path:hover{stroke-width:8}</style>
<path fill="none" stroke="black" d="M451.24,-19.05C529.04,-19.95 746.28,-27.93 754.85,-89"/>
<path fill="none" stroke="black" d="M754.85,-91C761.18,-136.13 611.26,-152.8 532.96,-158.42"/>
<polygon fill="#886b3a" stroke="black" points="532.75,-154.93 523.01,-159.1 533.23,-161.91 532.75,-154.93"/>
</g>
<!-- app_main&#45;&gt;fastapi -->
<g id="edge26" class="edge">
<title>app_main&#45;&gt;fastapi</title><style>.edge>path:hover{stroke-width:8}</style>
<path fill="none" stroke="black" d="M754.85,-91C763.62,-153.5 754.85,-169.89 754.85,-233 754.85,-233 754.85,-233 754.85,-307 754.85,-355.5 611.37,-411.66 540.94,-436.3"/>
<polygon fill="#886b3a" stroke="black" points="540.04,-432.91 531.73,-439.49 542.32,-439.53 540.04,-432.91"/>
</g>
<!-- asyncpg&#45;&gt;typing_extensions -->
<g id="edge58" class="edge">
<title>asyncpg&#45;&gt;typing_extensions</title><style>.edge>path:hover{stroke-width:8}</style>
<path fill="none" stroke="black" d="M37.11,-540.42C36.1,-554.68 35.59,-575.31 38.85,-593"/>
</g>
<!-- click&#45;&gt;typing_extensions -->
<g id="edge59" class="edge">
<title>click&#45;&gt;typing_extensions</title><style>.edge>path:hover{stroke-width:8}</style>
<path fill="none" stroke="black" d="M29.01,-396.13C21.21,-419.96 7.81,-464.66 2.85,-504 0.85,-519.87 -1.85,-524.71 2.85,-540 11.22,-567.22 33.69,-565 38.85,-593"/>
<path fill="none" stroke="black" d="M38.85,-595C47.96,-666.47 6.64,-705.32 57.85,-756 111.07,-808.67 356.89,-726.33 392.85,-792"/>
<path fill="none" stroke="black" d="M392.85,-793C396.85,-800.36 398.01,-809.2 397.83,-817.52"/>
<polygon fill="#6f8b22" stroke="black" points="394.37,-816.97 396.99,-827.24 401.34,-817.57 394.37,-816.97"/>
</g>
<!-- dependency_injector&#45;&gt;fastapi -->
<g id="edge27" class="edge">
<title>dependency_injector&#45;&gt;fastapi</title><style>.edge>path:hover{stroke-width:8}</style>
<path fill="none" stroke="black" d="M665.25,-324.38C654.85,-343.92 635.75,-375.56 611.85,-396 590.96,-413.86 563.01,-427.3 540.64,-436.17"/>
<polygon fill="#79ce3b" stroke="black" points="539.68,-432.79 531.58,-439.62 542.17,-439.33 539.68,-432.79"/>
</g>
<!-- starlette -->
<g id="node24" class="node">
<title>starlette</title><style>.edge>path:hover{stroke-width:8}</style>
<polygon fill="#f910a3" stroke="black" points="627.85,-540 624.85,-544 603.85,-544 600.85,-540 573.85,-540 573.85,-504 627.85,-504 627.85,-540"/>
<text text-anchor="middle" x="600.85" y="-518.12" font-family="Helvetica,sans-Serif" font-size="10.00" fill="#ffffff">starlette</text>
</g>
<!-- dependency_injector&#45;&gt;starlette -->
<g id="edge53" class="edge">
<title>dependency_injector&#45;&gt;starlette</title><style>.edge>path:hover{stroke-width:8}</style>
<path fill="none" stroke="black" d="M669.35,-324.41C664.18,-342.87 654.72,-372.54 641.85,-396 627.53,-422.11 610.27,-420.75 600.85,-449"/>
</g>
<!-- dotenv -->
<g id="node13" class="node">
<title>dotenv</title><style>.edge>path:hover{stroke-width:8}</style>
<polygon fill="#54c247" stroke="black" points="336.85,-756 333.85,-760 312.85,-760 309.85,-756 282.85,-756 282.85,-720 336.85,-720 336.85,-756"/>
<text text-anchor="middle" x="309.85" y="-734.12" font-family="Helvetica,sans-Serif" font-size="10.00" fill="#000000">dotenv</text>
</g>
<!-- email_validator -->
<g id="node14" class="node">
<title>email_validator</title><style>.edge>path:hover{stroke-width:8}</style>
<polygon fill="#16ca3c" stroke="black" points="568.48,-756 565.48,-760 544.48,-760 541.48,-756 487.23,-756 487.23,-720 568.48,-720 568.48,-756"/>
<text text-anchor="middle" x="527.85" y="-734.12" font-family="Helvetica,sans-Serif" font-size="10.00" fill="#000000">email_validator</text>
</g>
<!-- fastapi&#45;&gt;anyio -->
<g id="edge3" class="edge">
<title>fastapi&#45;&gt;anyio</title><style>.edge>path:hover{stroke-width:8}</style>
<path fill="none" stroke="black" d="M527.85,-523C534.23,-568.48 587.38,-550.13 603.85,-593"/>
<path fill="none" stroke="black" d="M603.85,-595C608.97,-608.32 612.9,-623.67 615.69,-636.59"/>
<polygon fill="#039550" stroke="black" points="612.21,-637.06 617.63,-646.17 619.07,-635.67 612.21,-637.06"/>
</g>
<!-- fastapi&#45;&gt;email_validator -->
<g id="edge22" class="edge">
<title>fastapi&#45;&gt;email_validator</title><style>.edge>path:hover{stroke-width:8}</style>
<path fill="none" stroke="black" d="M527.85,-667C525.84,-680.48 525.59,-695.59 525.94,-708.3"/>
<polygon fill="#039550" stroke="black" points="522.44,-708.28 526.37,-718.12 529.43,-707.98 522.44,-708.28"/>
</g>
<!-- fastapi&#45;&gt;pydantic -->
<g id="edge34" class="edge">
<title>fastapi&#45;&gt;pydantic</title><style>.edge>path:hover{stroke-width:8}</style>
<path fill="none" stroke="black" d="M527.85,-523C531.77,-550.91 503.28,-569.6 477.69,-580.6"/>
<polygon fill="#039550" stroke="black" points="476.41,-577.34 468.41,-584.29 478.99,-583.85 476.41,-577.34"/>
<path fill="none" stroke="black" d="M511.28,-468.33C517.47,-482.2 525.23,-502.34 527.85,-521"/>
</g>
<!-- pydantic_core -->
<g id="node19" class="node">
<title>pydantic_core</title><style>.edge>path:hover{stroke-width:8}</style>
<polygon fill="#0534e5" stroke="black" points="431.23,-756 428.23,-760 407.23,-760 404.23,-756 354.48,-756 354.48,-720 431.23,-720 431.23,-756"/>
<text text-anchor="middle" x="392.85" y="-734.12" font-family="Helvetica,sans-Serif" font-size="10.00" fill="#ffffff">pydantic_core</text>
</g>
<!-- fastapi&#45;&gt;pydantic_core -->
<g id="edge38" class="edge">
<title>fastapi&#45;&gt;pydantic_core</title><style>.edge>path:hover{stroke-width:8}</style>
<path fill="none" stroke="black" d="M527.85,-523C536.62,-585.5 537.17,-602.58 527.85,-665"/>
<path fill="none" stroke="black" d="M527.85,-667C520.49,-704.64 478,-722.1 442.63,-730.17"/>
<polygon fill="#039550" stroke="black" points="442.03,-726.72 432.94,-732.16 443.44,-733.58 442.03,-726.72"/>
</g>
<!-- fastapi&#45;&gt;starlette -->
<g id="edge54" class="edge">
<title>fastapi&#45;&gt;starlette</title><style>.edge>path:hover{stroke-width:8}</style>
<path fill="none" stroke="black" d="M527.33,-468.48C539.46,-477.15 554.3,-487.75 567.46,-497.15"/>
<polygon fill="#039550" stroke="black" points="565.28,-499.9 575.45,-502.86 569.35,-494.2 565.28,-499.9"/>
</g>
<!-- fastapi&#45;&gt;typing_extensions -->
<g id="edge60" class="edge">
<title>fastapi&#45;&gt;typing_extensions</title><style>.edge>path:hover{stroke-width:8}</style>
<path fill="none" stroke="black" d="M527.85,-667C519.46,-709.87 624.69,-703.33 596.85,-737"/>
<path fill="none" stroke="black" d="M596.85,-739C589.63,-747.73 588,-750.96 577.85,-756 502.83,-793.27 352.62,-718.53 392.85,-792"/>
</g>
<!-- fastapi_pagination&#45;&gt;fastapi -->
<g id="edge28" class="edge">
<title>fastapi_pagination&#45;&gt;fastapi</title><style>.edge>path:hover{stroke-width:8}</style>
<path fill="none" stroke="black" d="M597.85,-379C597.25,-408.61 567.03,-427.11 540.83,-437.59"/>
<polygon fill="#38a897" stroke="black" points="539.91,-434.2 531.74,-440.95 542.34,-440.77 539.91,-434.2"/>
<path fill="none" stroke="black" d="M573.66,-324.31C585.29,-337.54 598.26,-356.88 597.85,-377"/>
</g>
<!-- fastapi_pagination&#45;&gt;pydantic -->
<g id="edge35" class="edge">
<title>fastapi_pagination&#45;&gt;pydantic</title><style>.edge>path:hover{stroke-width:8}</style>
<path fill="none" stroke="black" d="M546.66,-324.47C539.29,-338.58 528.74,-358.98 519.85,-377"/>
</g>
<!-- fastapi_pagination&#45;&gt;sqlalchemy -->
<g id="edge49" class="edge">
<title>fastapi_pagination&#45;&gt;sqlalchemy</title><style>.edge>path:hover{stroke-width:8}</style>
<path fill="none" stroke="black" d="M538.92,-324.3C514.66,-348.91 471.94,-391.56 462.85,-396 364.38,-444.17 318.11,-385.49 218.85,-432 208.59,-436.81 208.38,-441.54 199.85,-449"/>
</g>
<!-- fastapi_pagination&#45;&gt;starlette -->
<g id="edge55" class="edge">
<title>fastapi_pagination&#45;&gt;starlette</title><style>.edge>path:hover{stroke-width:8}</style>
<path fill="none" stroke="black" d="M600.85,-451C596.47,-464.15 595.99,-479.48 596.81,-492.44"/>
<polygon fill="#38a897" stroke="black" points="593.29,-492.4 597.71,-502.03 600.26,-491.75 593.29,-492.4"/>
<path fill="none" stroke="black" d="M597.85,-379C597.22,-410.13 610.7,-419.46 600.85,-449"/>
</g>
<!-- fastapi_pagination&#45;&gt;typing_extensions -->
<g id="edge61" class="edge">
<title>fastapi_pagination&#45;&gt;typing_extensions</title><style>.edge>path:hover{stroke-width:8}</style>
<path fill="none" stroke="black" d="M580.62,-324.47C591.9,-333.73 604.38,-346.08 611.85,-360 680.58,-488.11 716.61,-551.47 656.85,-684 642.23,-716.44 619.52,-709.58 596.85,-737"/>
</g>
<!-- greenlet -->
<g id="node17" class="node">
<title>greenlet</title><style>.edge>path:hover{stroke-width:8}</style>
<polygon fill="#53a6b6" stroke="black" points="120.85,-756 117.85,-760 96.85,-760 93.85,-756 66.85,-756 66.85,-720 120.85,-720 120.85,-756"/>
<text text-anchor="middle" x="93.85" y="-734.12" font-family="Helvetica,sans-Serif" font-size="10.00" fill="#000000">greenlet</text>
</g>
<!-- pydantic&#45;&gt;annotated_types -->
<g id="edge1" class="edge">
<title>pydantic&#45;&gt;annotated_types</title><style>.edge>path:hover{stroke-width:8}</style>
<path fill="none" stroke="black" d="M413,-612.41C373.81,-637.82 300.88,-685.11 257.01,-713.56"/>
<polygon fill="#035095" stroke="black" points="255.34,-710.47 248.85,-718.84 259.15,-716.34 255.34,-710.47"/>
</g>
<!-- pydantic&#45;&gt;dotenv -->
<g id="edge20" class="edge">
<title>pydantic&#45;&gt;dotenv</title><style>.edge>path:hover{stroke-width:8}</style>
<path fill="none" stroke="black" d="M448.31,-612.25C454.25,-626.24 460.8,-646.59 458.85,-665"/>
<path fill="none" stroke="black" d="M458.85,-667C453.35,-718.93 402.54,-699.12 347.33,-719.82"/>
<polygon fill="#035095" stroke="black" points="346.23,-716.49 338.37,-723.59 348.94,-722.94 346.23,-716.49"/>
</g>
<!-- pydantic&#45;&gt;email_validator -->
<g id="edge23" class="edge">
<title>pydantic&#45;&gt;email_validator</title><style>.edge>path:hover{stroke-width:8}</style>
<path fill="none" stroke="black" d="M458.85,-667C456.85,-685.87 469.6,-701.55 484.67,-713.25"/>
<polygon fill="#035095" stroke="black" points="482.3,-715.86 492.48,-718.8 486.36,-710.16 482.3,-715.86"/>
</g>
<!-- pydantic&#45;&gt;pydantic_core -->
<g id="edge39" class="edge">
<title>pydantic&#45;&gt;pydantic_core</title><style>.edge>path:hover{stroke-width:8}</style>
<path fill="none" stroke="black" d="M458.85,-667C456.92,-685.26 444.47,-700.74 430.91,-712.47"/>
<polygon fill="#035095" stroke="black" points="428.75,-709.71 423.11,-718.68 433.11,-715.19 428.75,-709.71"/>
</g>
<!-- pydantic&#45;&gt;typing_extensions -->
<g id="edge62" class="edge">
<title>pydantic&#45;&gt;typing_extensions</title><style>.edge>path:hover{stroke-width:8}</style>
<path fill="none" stroke="black" d="M458.85,-667C454.59,-707.22 461.46,-721.81 439.85,-756 425.79,-778.24 380.33,-768.86 392.85,-792"/>
</g>
<!-- pydantic_core&#45;&gt;typing_extensions -->
<g id="edge63" class="edge">
<title>pydantic_core&#45;&gt;typing_extensions</title><style>.edge>path:hover{stroke-width:8}</style>
<path fill="none" stroke="black" d="M388.85,-756.25C387.26,-767.14 386.99,-781.15 392.85,-792"/>
</g>
<!-- pydantic_settings&#45;&gt;dotenv -->
<g id="edge21" class="edge">
<title>pydantic_settings&#45;&gt;dotenv</title><style>.edge>path:hover{stroke-width:8}</style>
<path fill="none" stroke="black" d="M349.09,-468.34C349.8,-482.55 350.17,-503.16 347.85,-521"/>
<path fill="none" stroke="black" d="M347.85,-523C344.72,-547.16 338.77,-552.14 333.85,-576 324.35,-622.14 317.04,-676.46 313.11,-708.74"/>
<polygon fill="#473ab0" stroke="black" points="309.65,-708.12 311.94,-718.47 316.61,-708.95 309.65,-708.12"/>
</g>
<!-- pydantic_settings&#45;&gt;pydantic -->
<g id="edge36" class="edge">
<title>pydantic_settings&#45;&gt;pydantic</title><style>.edge>path:hover{stroke-width:8}</style>
<path fill="none" stroke="black" d="M372.15,-468.3C388.45,-481.11 409.18,-499.94 421.85,-521"/>
</g>
<!-- pydantic_settings&#45;&gt;pydantic_core -->
<g id="edge40" class="edge">
<title>pydantic_settings&#45;&gt;pydantic_core</title><style>.edge>path:hover{stroke-width:8}</style>
<path fill="none" stroke="black" d="M347.85,-523C346,-554.06 336.55,-564.01 347.85,-593"/>
</g>
<!-- pydantic_settings&#45;&gt;typing_extensions -->
<g id="edge64" class="edge">
<title>pydantic_settings&#45;&gt;typing_extensions</title><style>.edge>path:hover{stroke-width:8}</style>
<path fill="none" stroke="black" d="M320.28,-468.45C286.61,-491.85 232.33,-537.02 217.85,-593"/>
</g>
<!-- sqlalchemy&#45;&gt;greenlet -->
<g id="edge30" class="edge">
<title>sqlalchemy&#45;&gt;greenlet</title><style>.edge>path:hover{stroke-width:8}</style>
<path fill="none" stroke="black" d="M130.84,-612.29C122.98,-625.97 113.37,-645.89 110.85,-665"/>
<path fill="none" stroke="black" d="M110.85,-667C109.01,-680.95 105.51,-696.17 102.15,-708.84"/>
<polygon fill="#7e04a9" stroke="black" points="98.86,-707.62 99.57,-718.19 105.61,-709.48 98.86,-707.62"/>
</g>
<!-- sqlalchemy&#45;&gt;typing_extensions -->
<g id="edge65" class="edge">
<title>sqlalchemy&#45;&gt;typing_extensions</title><style>.edge>path:hover{stroke-width:8}</style>
<path fill="none" stroke="black" d="M148.85,-739C157.02,-746.86 157.62,-751.13 167.85,-756 213.57,-777.76 368.53,-747.59 392.85,-792"/>
<path fill="none" stroke="black" d="M110.85,-667C106.23,-702.1 123.35,-712.45 148.85,-737"/>
</g>
<!-- sqlmodel&#45;&gt;annotated_types -->
<g id="edge2" class="edge">
<title>sqlmodel&#45;&gt;annotated_types</title><style>.edge>path:hover{stroke-width:8}</style>
<path fill="none" stroke="black" d="M179.85,-523C172.1,-555.08 219.37,-545.45 231.85,-576 249.77,-619.85 239.22,-676 229.99,-709.08"/>
<polygon fill="#83207d" stroke="black" points="226.74,-707.73 227.26,-718.31 233.46,-709.71 226.74,-707.73"/>
</g>
<!-- sqlmodel&#45;&gt;pydantic -->
<g id="edge37" class="edge">
<title>sqlmodel&#45;&gt;pydantic</title><style>.edge>path:hover{stroke-width:8}</style>
<path fill="none" stroke="black" d="M283.68,-463.93C286.76,-465.32 289.87,-466.7 292.85,-468 349.69,-492.72 389.9,-467.88 421.85,-521"/>
<path fill="none" stroke="black" d="M421.85,-523C429.4,-535.56 433.81,-551.23 436.37,-564.55"/>
<polygon fill="#83207d" stroke="black" points="432.86,-564.73 437.93,-574.03 439.76,-563.6 432.86,-564.73"/>
</g>
<!-- sqlmodel&#45;&gt;pydantic_core -->
<g id="edge41" class="edge">
<title>sqlmodel&#45;&gt;pydantic_core</title><style>.edge>path:hover{stroke-width:8}</style>
<path fill="none" stroke="black" d="M347.85,-595C362.96,-633.75 376.85,-679.86 385.08,-708.79"/>
<polygon fill="#83207d" stroke="black" points="381.67,-709.57 387.75,-718.24 388.41,-707.67 381.67,-709.57"/>
<path fill="none" stroke="black" d="M271.71,-468.14C293.78,-493.28 332.73,-542.64 347.85,-593"/>
</g>
<!-- sqlmodel&#45;&gt;sqlalchemy -->
<g id="edge50" class="edge">
<title>sqlmodel&#45;&gt;sqlalchemy</title><style>.edge>path:hover{stroke-width:8}</style>
<path fill="none" stroke="black" d="M228.02,-465.3C208.88,-477.15 185.88,-496.07 179.85,-521"/>
<path fill="none" stroke="black" d="M179.85,-523C176.16,-538.27 168.26,-553.78 160.61,-566.3"/>
<polygon fill="#83207d" stroke="black" points="157.89,-564.06 155.44,-574.37 163.78,-567.84 157.89,-564.06"/>
</g>
<!-- sqlmodel&#45;&gt;typing_extensions -->
<g id="edge66" class="edge">
<title>sqlmodel&#45;&gt;typing_extensions</title><style>.edge>path:hover{stroke-width:8}</style>
<path fill="none" stroke="black" d="M217.85,-595C190.92,-659.8 98.3,-688.34 148.85,-737"/>
<path fill="none" stroke="black" d="M179.85,-523C170.1,-557.03 229.91,-559.72 217.85,-593"/>
</g>
<!-- starlette&#45;&gt;anyio -->
<g id="edge4" class="edge">
<title>starlette&#45;&gt;anyio</title><style>.edge>path:hover{stroke-width:8}</style>
<path fill="none" stroke="black" d="M598.6,-540.31C597.4,-554.86 597.31,-575.97 603.85,-593"/>
</g>
<!-- starlette&#45;&gt;typing_extensions -->
<g id="edge67" class="edge">
<title>starlette&#45;&gt;typing_extensions</title><style>.edge>path:hover{stroke-width:8}</style>
<path fill="none" stroke="black" d="M596.69,-540.08C594.33,-550.42 591.52,-563.9 589.85,-576 583.29,-623.6 579.51,-636.25 584.85,-684 587.53,-708 611.66,-717.92 596.85,-737"/>
</g>
</g>
</svg>
