<?xml version="1.0" encoding="UTF-8" standalone="no"?>
<!DOCTYPE svg PUBLIC "-//W3C//DTD SVG 1.1//EN"
 "http://www.w3.org/Graphics/SVG/1.1/DTD/svg11.dtd">
<!-- Generated by graphviz version 12.2.0 (20241103.1931)
 -->
<!-- Title: G Pages: 1 -->
<svg width="1113pt" height="591pt"
 viewBox="0.00 0.00 1113.12 590.80" xmlns="http://www.w3.org/2000/svg" xmlns:xlink="http://www.w3.org/1999/xlink">
<g id="graph0" class="graph" transform="scale(1 1) rotate(0) translate(4 586.8)">
<title>G</title><style>.edge>path:hover{stroke-width:8}</style>
<polygon fill="white" stroke="none" points="-4,4 -4,-586.8 1109.12,-586.8 1109.12,4 -4,4"/>
<!-- app_application -->
<g id="node1" class="node">
<title>app_application</title><style>.edge>path:hover{stroke-width:8}</style>
<ellipse fill="#db2f2f" stroke="black" cx="459.43" cy="-402.97" rx="36.98" ry="18"/>
<text text-anchor="middle" x="459.43" y="-399.09" font-family="Helvetica,sans-Serif" font-size="10.00" fill="#ffffff">application</text>
</g>
<!-- app_application_exc -->
<g id="node2" class="node">
<title>app_application_exc</title><style>.edge>path:hover{stroke-width:8}</style>
<ellipse fill="#bc2f2f" stroke="black" cx="692.43" cy="-402.97" rx="46.32" ry="21.57"/>
<text text-anchor="middle" x="692.43" y="-404.72" font-family="Helvetica,sans-Serif" font-size="10.00" fill="#ffffff">application.</text>
<text text-anchor="middle" x="692.43" y="-393.47" font-family="Helvetica,sans-Serif" font-size="10.00" fill="#ffffff">exc</text>
</g>
<!-- app_domain -->
<g id="node5" class="node">
<title>app_domain</title><style>.edge>path:hover{stroke-width:8}</style>
<ellipse fill="#f91010" stroke="black" cx="782.43" cy="-561.23" rx="28.11" ry="18"/>
<text text-anchor="middle" x="782.43" y="-557.36" font-family="Helvetica,sans-Serif" font-size="10.00" fill="#ffffff">domain</text>
</g>
<!-- app_application_exc&#45;&gt;app_domain -->
<g id="edge9" class="edge">
<title>app_application_exc&#45;&gt;app_domain</title><style>.edge>path:hover{stroke-width:8}</style>
<path fill="none" stroke="black" d="M704.23,-424.1C710.54,-434.89 718.43,-448.42 725.43,-460.53 739.8,-485.41 756.05,-513.87 767.51,-534"/>
<polygon fill="#bc2f2f" stroke="black" points="764.45,-535.7 772.44,-542.66 770.54,-532.24 764.45,-535.7"/>
</g>
<!-- app_domain_exc -->
<g id="node7" class="node">
<title>app_domain_exc</title><style>.edge>path:hover{stroke-width:8}</style>
<ellipse fill="#b65353" stroke="black" cx="677.43" cy="-482.1" rx="39.2" ry="18"/>
<text text-anchor="middle" x="677.43" y="-478.23" font-family="Helvetica,sans-Serif" font-size="10.00" fill="#ffffff">domain.exc</text>
</g>
<!-- app_application_exc&#45;&gt;app_domain_exc -->
<g id="edge24" class="edge">
<title>app_application_exc&#45;&gt;app_domain_exc</title><style>.edge>path:hover{stroke-width:8}</style>
<path fill="none" stroke="black" d="M688.41,-424.64C686.73,-433.23 684.77,-443.36 682.96,-452.64"/>
<polygon fill="#bc2f2f" stroke="black" points="679.56,-451.8 681.09,-462.28 686.43,-453.13 679.56,-451.8"/>
</g>
<!-- app_application_use_cases -->
<g id="node3" class="node">
<title>app_application_use_cases</title><style>.edge>path:hover{stroke-width:8}</style>
<ellipse fill="#8a2e2e" stroke="black" cx="334.43" cy="-323.83" rx="46.32" ry="21.57"/>
<text text-anchor="middle" x="334.43" y="-325.58" font-family="Helvetica,sans-Serif" font-size="10.00" fill="#ffffff">application.</text>
<text text-anchor="middle" x="334.43" y="-314.33" font-family="Helvetica,sans-Serif" font-size="10.00" fill="#ffffff">use_cases</text>
</g>
<!-- app_application_use_cases&#45;&gt;app_application_exc -->
<g id="edge4" class="edge">
<title>app_application_use_cases&#45;&gt;app_application_exc</title><style>.edge>path:hover{stroke-width:8}</style>
<path fill="none" stroke="black" d="M370,-338.05C377.97,-340.72 386.43,-343.34 394.43,-345.4 484.01,-368.47 508.69,-363.41 599.43,-381.4 612.73,-384.04 627.06,-387.1 640.39,-390.04"/>
<polygon fill="#8a2e2e" stroke="black" points="639.31,-393.38 649.83,-392.14 640.83,-386.55 639.31,-393.38"/>
</g>
<!-- app_application_use_cases&#45;&gt;app_domain -->
<g id="edge10" class="edge">
<title>app_application_use_cases&#45;&gt;app_domain</title><style>.edge>path:hover{stroke-width:8}</style>
<path fill="none" stroke="black" d="M356.43,-403.97C391.61,-477.24 646.88,-533.92 744.56,-553.15"/>
<polygon fill="#8a2e2e" stroke="black" points="743.69,-556.55 754.18,-555.02 745.03,-549.68 743.69,-556.55"/>
</g>
<!-- app_domain_entities -->
<g id="node6" class="node">
<title>app_domain_entities</title><style>.edge>path:hover{stroke-width:8}</style>
<ellipse fill="#e50505" stroke="black" cx="253.43" cy="-561.23" rx="35.71" ry="21.57"/>
<text text-anchor="middle" x="253.43" y="-562.98" font-family="Helvetica,sans-Serif" font-size="10.00" fill="#ffffff">domain.</text>
<text text-anchor="middle" x="253.43" y="-551.73" font-family="Helvetica,sans-Serif" font-size="10.00" fill="#ffffff">entities</text>
</g>
<!-- app_application_use_cases&#45;&gt;app_domain_entities -->
<g id="edge16" class="edge">
<title>app_application_use_cases&#45;&gt;app_domain_entities</title><style>.edge>path:hover{stroke-width:8}</style>
<path fill="none" stroke="black" d="M356.43,-403.97C372.97,-438.42 420.86,-453.5 394.43,-481.1"/>
<path fill="none" stroke="black" d="M338.32,-345.5C341.79,-361.44 347.69,-383.77 356.43,-401.97"/>
<path fill="none" stroke="black" d="M394.43,-483.1C366.55,-512.22 325.23,-533.03 294.52,-545.65"/>
<polygon fill="#8a2e2e" stroke="black" points="293.55,-542.27 285.55,-549.21 296.13,-548.77 293.55,-542.27"/>
</g>
<!-- app_domain_repositories -->
<g id="node9" class="node">
<title>app_domain_repositories</title><style>.edge>path:hover{stroke-width:8}</style>
<ellipse fill="#b62020" stroke="black" cx="75.43" cy="-482.1" rx="46.85" ry="21.57"/>
<text text-anchor="middle" x="75.43" y="-483.85" font-family="Helvetica,sans-Serif" font-size="10.00" fill="#ffffff">domain.</text>
<text text-anchor="middle" x="75.43" y="-472.6" font-family="Helvetica,sans-Serif" font-size="10.00" fill="#ffffff">repositories</text>
</g>
<!-- app_application_use_cases&#45;&gt;app_domain_repositories -->
<g id="edge27" class="edge">
<title>app_application_use_cases&#45;&gt;app_domain_repositories</title><style>.edge>path:hover{stroke-width:8}</style>
<path fill="none" stroke="black" d="M306.71,-341.56C259.88,-369.81 165.07,-427.01 112.55,-458.7"/>
<polygon fill="#8a2e2e" stroke="black" points="110.99,-455.55 104.24,-463.72 114.61,-461.55 110.99,-455.55"/>
</g>
<!-- app_domain_value_objects -->
<g id="node11" class="node">
<title>app_domain_value_objects</title><style>.edge>path:hover{stroke-width:8}</style>
<ellipse fill="#e72222" stroke="black" cx="75.43" cy="-561.23" rx="53.74" ry="21.57"/>
<text text-anchor="middle" x="75.43" y="-562.98" font-family="Helvetica,sans-Serif" font-size="10.00" fill="#ffffff">domain.</text>
<text text-anchor="middle" x="75.43" y="-551.73" font-family="Helvetica,sans-Serif" font-size="10.00" fill="#ffffff">value_objects</text>
</g>
<!-- app_application_use_cases&#45;&gt;app_domain_value_objects -->
<g id="edge31" class="edge">
<title>app_application_use_cases&#45;&gt;app_domain_value_objects</title><style>.edge>path:hover{stroke-width:8}</style>
<path fill="none" stroke="black" d="M336.89,-345.66C340.02,-382.66 340.77,-460.03 299.43,-503.67 277.44,-526.87 196.02,-543.11 137.68,-552.06"/>
<polygon fill="#8a2e2e" stroke="black" points="137.21,-548.59 127.84,-553.53 138.25,-555.51 137.21,-548.59"/>
</g>
<!-- app_di_container -->
<g id="node4" class="node">
<title>app_di_container</title><style>.edge>path:hover{stroke-width:8}</style>
<ellipse fill="#883a3a" stroke="black" cx="820.43" cy="-90" rx="40.53" ry="18"/>
<text text-anchor="middle" x="820.43" y="-86.12" font-family="Helvetica,sans-Serif" font-size="10.00" fill="#ffffff">di_container</text>
</g>
<!-- app_di_container&#45;&gt;app_domain -->
<g id="edge11" class="edge">
<title>app_di_container&#45;&gt;app_domain</title><style>.edge>path:hover{stroke-width:8}</style>
<path fill="none" stroke="black" d="M820.43,-166.57C811.85,-235.49 790.75,-260.04 820.43,-322.83"/>
</g>
<!-- app_domain_factories -->
<g id="node8" class="node">
<title>app_domain_factories</title><style>.edge>path:hover{stroke-width:8}</style>
<ellipse fill="#b42d2d" stroke="black" cx="552.43" cy="-402.97" rx="37.83" ry="21.57"/>
<text text-anchor="middle" x="552.43" y="-404.72" font-family="Helvetica,sans-Serif" font-size="10.00" fill="#ffffff">domain.</text>
<text text-anchor="middle" x="552.43" y="-393.47" font-family="Helvetica,sans-Serif" font-size="10.00" fill="#ffffff">factories</text>
</g>
<!-- app_di_container&#45;&gt;app_domain_factories -->
<g id="edge25" class="edge">
<title>app_di_container&#45;&gt;app_domain_factories</title><style>.edge>path:hover{stroke-width:8}</style>
<path fill="none" stroke="black" d="M820.43,-166.57C806.84,-267.04 671.35,-151.67 599.43,-223.13 578.89,-243.54 563.96,-323.98 556.93,-369.72"/>
<polygon fill="#883a3a" stroke="black" points="553.47,-369.18 555.46,-379.58 560.4,-370.21 553.47,-369.18"/>
<path fill="none" stroke="black" d="M821.63,-108.32C822.38,-123.27 822.81,-145.43 820.43,-164.57"/>
</g>
<!-- app_infrastructure -->
<g id="node12" class="node">
<title>app_infrastructure</title><style>.edge>path:hover{stroke-width:8}</style>
<ellipse fill="#db2f2f" stroke="black" cx="891.43" cy="-165.57" rx="43.19" ry="18"/>
<text text-anchor="middle" x="891.43" y="-161.69" font-family="Helvetica,sans-Serif" font-size="10.00" fill="#ffffff">infrastructure</text>
</g>
<!-- app_di_container&#45;&gt;app_infrastructure -->
<g id="edge36" class="edge">
<title>app_di_container&#45;&gt;app_infrastructure</title><style>.edge>path:hover{stroke-width:8}</style>
<path fill="none" stroke="black" d="M835.83,-106.96C845.26,-116.73 857.5,-129.41 868.1,-140.39"/>
<polygon fill="#883a3a" stroke="black" points="865.29,-142.53 874.75,-147.29 870.33,-137.67 865.29,-142.53"/>
</g>
<!-- app_infrastructure_config -->
<g id="node13" class="node">
<title>app_infrastructure_config</title><style>.edge>path:hover{stroke-width:8}</style>
<ellipse fill="#ce3b3b" stroke="black" cx="1027.43" cy="-244.7" rx="53.74" ry="21.57"/>
<text text-anchor="middle" x="1027.43" y="-246.45" font-family="Helvetica,sans-Serif" font-size="10.00" fill="#ffffff">infrastructure.</text>
<text text-anchor="middle" x="1027.43" y="-235.2" font-family="Helvetica,sans-Serif" font-size="10.00" fill="#ffffff">config</text>
</g>
<!-- app_di_container&#45;&gt;app_infrastructure_config -->
<g id="edge39" class="edge">
<title>app_di_container&#45;&gt;app_infrastructure_config</title><style>.edge>path:hover{stroke-width:8}</style>
<path fill="none" stroke="black" d="M820.43,-166.57C813.8,-215.59 810.84,-175.43 965.43,-223.13 968.95,-224.22 972.57,-225.36 976.22,-226.53"/>
<polygon fill="#883a3a" stroke="black" points="975.12,-229.85 985.71,-229.6 977.28,-223.19 975.12,-229.85"/>
</g>
<!-- app_infrastructure_database -->
<g id="node14" class="node">
<title>app_infrastructure_database</title><style>.edge>path:hover{stroke-width:8}</style>
<ellipse fill="#c24747" stroke="black" cx="902.43" cy="-244.7" rx="53.74" ry="21.57"/>
<text text-anchor="middle" x="902.43" y="-246.45" font-family="Helvetica,sans-Serif" font-size="10.00" fill="#ffffff">infrastructure.</text>
<text text-anchor="middle" x="902.43" y="-235.2" font-family="Helvetica,sans-Serif" font-size="10.00" fill="#ffffff">database</text>
</g>
<!-- app_di_container&#45;&gt;app_infrastructure_database -->
<g id="edge42" class="edge">
<title>app_di_container&#45;&gt;app_infrastructure_database</title><style>.edge>path:hover{stroke-width:8}</style>
<path fill="none" stroke="black" d="M820.43,-166.57C817.17,-190.64 836.41,-209.53 857.07,-222.58"/>
<polygon fill="#883a3a" stroke="black" points="855.2,-225.54 865.6,-227.58 858.74,-219.5 855.2,-225.54"/>
</g>
<!-- app_infrastructure_repositories -->
<g id="node16" class="node">
<title>app_infrastructure_repositories</title><style>.edge>path:hover{stroke-width:8}</style>
<ellipse fill="#732626" stroke="black" cx="662.43" cy="-244.7" rx="53.74" ry="21.57"/>
<text text-anchor="middle" x="662.43" y="-246.45" font-family="Helvetica,sans-Serif" font-size="10.00" fill="#ffffff">infrastructure.</text>
<text text-anchor="middle" x="662.43" y="-235.2" font-family="Helvetica,sans-Serif" font-size="10.00" fill="#ffffff">repositories</text>
</g>
<!-- app_di_container&#45;&gt;app_infrastructure_repositories -->
<g id="edge45" class="edge">
<title>app_di_container&#45;&gt;app_infrastructure_repositories</title><style>.edge>path:hover{stroke-width:8}</style>
<path fill="none" stroke="black" d="M820.43,-166.57C814.66,-209.24 767.27,-228.3 725.88,-236.82"/>
<polygon fill="#883a3a" stroke="black" points="725.36,-233.36 716.17,-238.63 726.65,-240.24 725.36,-233.36"/>
</g>
<!-- app_domain_factories&#45;&gt;app_domain_entities -->
<g id="edge17" class="edge">
<title>app_domain_factories&#45;&gt;app_domain_entities</title><style>.edge>path:hover{stroke-width:8}</style>
<path fill="none" stroke="black" d="M523.21,-416.9C480.25,-436.12 404.06,-471.04 394.43,-481.1"/>
</g>
<!-- app_domain_repositories&#45;&gt;app_domain_entities -->
<g id="edge18" class="edge">
<title>app_domain_repositories&#45;&gt;app_domain_entities</title><style>.edge>path:hover{stroke-width:8}</style>
<path fill="none" stroke="black" d="M108.91,-497.61C138.95,-510.63 183.03,-529.73 214.61,-543.41"/>
<polygon fill="#b62020" stroke="black" points="212.84,-546.46 223.41,-547.23 215.62,-540.04 212.84,-546.46"/>
</g>
<!-- app_domain_repositories&#45;&gt;app_domain_value_objects -->
<g id="edge32" class="edge">
<title>app_domain_repositories&#45;&gt;app_domain_value_objects</title><style>.edge>path:hover{stroke-width:8}</style>
<path fill="none" stroke="black" d="M75.43,-503.77C75.43,-511.15 75.43,-519.64 75.43,-527.77"/>
<polygon fill="#b62020" stroke="black" points="71.93,-527.72 75.43,-537.72 78.93,-527.72 71.93,-527.72"/>
</g>
<!-- app_domain_services -->
<g id="node10" class="node">
<title>app_domain_services</title><style>.edge>path:hover{stroke-width:8}</style>
<ellipse fill="#a44646" stroke="black" cx="253.43" cy="-482.1" rx="37.3" ry="21.57"/>
<text text-anchor="middle" x="253.43" y="-483.85" font-family="Helvetica,sans-Serif" font-size="10.00" fill="#ffffff">domain.</text>
<text text-anchor="middle" x="253.43" y="-472.6" font-family="Helvetica,sans-Serif" font-size="10.00" fill="#ffffff">services</text>
</g>
<!-- app_domain_services&#45;&gt;app_domain_entities -->
<g id="edge19" class="edge">
<title>app_domain_services&#45;&gt;app_domain_entities</title><style>.edge>path:hover{stroke-width:8}</style>
<path fill="none" stroke="black" d="M253.43,-503.77C253.43,-511.15 253.43,-519.64 253.43,-527.77"/>
<polygon fill="#a44646" stroke="black" points="249.93,-527.72 253.43,-537.72 256.93,-527.72 249.93,-527.72"/>
</g>
<!-- app_infrastructure_mappers -->
<g id="node15" class="node">
<title>app_infrastructure_mappers</title><style>.edge>path:hover{stroke-width:8}</style>
<ellipse fill="#a44646" stroke="black" cx="738.43" cy="-323.83" rx="53.74" ry="21.57"/>
<text text-anchor="middle" x="738.43" y="-325.58" font-family="Helvetica,sans-Serif" font-size="10.00" fill="#ffffff">infrastructure.</text>
<text text-anchor="middle" x="738.43" y="-314.33" font-family="Helvetica,sans-Serif" font-size="10.00" fill="#ffffff">mappers</text>
</g>
<!-- app_infrastructure_mappers&#45;&gt;app_domain -->
<g id="edge12" class="edge">
<title>app_infrastructure_mappers&#45;&gt;app_domain</title><style>.edge>path:hover{stroke-width:8}</style>
<path fill="none" stroke="black" d="M782.43,-483.1C772.13,-496.93 772.19,-516.36 774.79,-532.26"/>
<polygon fill="#a44646" stroke="black" points="771.27,-532.51 776.72,-541.6 778.13,-531.1 771.27,-532.51"/>
</g>
<!-- app_infrastructure_mappers&#45;&gt;app_domain_entities -->
<g id="edge20" class="edge">
<title>app_infrastructure_mappers&#45;&gt;app_domain_entities</title><style>.edge>path:hover{stroke-width:8}</style>
<path fill="none" stroke="black" d="M782.43,-483.1C753.7,-521.68 424.58,-548.36 300.43,-557.11"/>
<polygon fill="#a44646" stroke="black" points="300.32,-553.61 290.59,-557.8 300.8,-560.59 300.32,-553.61"/>
<path fill="none" stroke="black" d="M754.07,-344.83C776.92,-376.64 813.48,-439.39 782.43,-481.1"/>
</g>
<!-- app_infrastructure_repositories&#45;&gt;app_application -->
<g id="edge1" class="edge">
<title>app_infrastructure_repositories&#45;&gt;app_application</title><style>.edge>path:hover{stroke-width:8}</style>
<path fill="none" stroke="black" d="M627.8,-261.52C601.67,-274.86 566.35,-296.05 542.43,-322.83"/>
</g>
<!-- app_infrastructure_repositories&#45;&gt;app_application_exc -->
<g id="edge5" class="edge">
<title>app_infrastructure_repositories&#45;&gt;app_application_exc</title><style>.edge>path:hover{stroke-width:8}</style>
<path fill="none" stroke="black" d="M618.43,-324.83C612.82,-348.04 631.53,-367.4 651.54,-380.92"/>
<polygon fill="#732626" stroke="black" points="649.44,-383.73 659.77,-386.09 653.16,-377.8 649.44,-383.73"/>
</g>
<!-- app_infrastructure_repositories&#45;&gt;app_domain -->
<g id="edge13" class="edge">
<title>app_infrastructure_repositories&#45;&gt;app_domain</title><style>.edge>path:hover{stroke-width:8}</style>
<path fill="none" stroke="black" d="M705.59,-257.83C734.34,-267.17 772.08,-281.94 801.43,-302.27 811.66,-309.35 815.71,-311.32 820.43,-322.83"/>
<path fill="none" stroke="black" d="M820.43,-324.83C849.74,-396.34 816.1,-488.73 795.72,-533.53"/>
<polygon fill="#732626" stroke="black" points="792.6,-531.94 791.52,-542.48 798.94,-534.92 792.6,-531.94"/>
</g>
<!-- app_infrastructure_repositories&#45;&gt;app_domain_entities -->
<g id="edge21" class="edge">
<title>app_infrastructure_repositories&#45;&gt;app_domain_entities</title><style>.edge>path:hover{stroke-width:8}</style>
<path fill="none" stroke="black" d="M618.43,-324.83C607.84,-368.68 627.9,-389.55 599.43,-424.53 523.69,-517.59 375.42,-547.06 299.95,-556.22"/>
<polygon fill="#732626" stroke="black" points="299.97,-552.69 290.43,-557.3 300.76,-559.65 299.97,-552.69"/>
</g>
<!-- app_infrastructure_repositories&#45;&gt;app_domain_factories -->
<g id="edge26" class="edge">
<title>app_infrastructure_repositories&#45;&gt;app_domain_factories</title><style>.edge>path:hover{stroke-width:8}</style>
<path fill="none" stroke="black" d="M618.43,-324.83C613.38,-345.74 598.14,-364.25 583.58,-377.89"/>
<polygon fill="#732626" stroke="black" points="581.47,-375.08 576.3,-384.33 586.11,-380.32 581.47,-375.08"/>
<path fill="none" stroke="black" d="M646.85,-265.62C636.36,-280.45 623.53,-301.7 618.43,-322.83"/>
</g>
<!-- app_infrastructure_repositories&#45;&gt;app_domain_repositories -->
<g id="edge28" class="edge">
<title>app_infrastructure_repositories&#45;&gt;app_domain_repositories</title><style>.edge>path:hover{stroke-width:8}</style>
<path fill="none" stroke="black" d="M75.43,-403.97C72.14,-418.56 71.73,-435.11 72.3,-449.12"/>
<polygon fill="#732626" stroke="black" points="68.78,-448.92 72.88,-458.69 75.77,-448.5 68.78,-448.92"/>
</g>
<!-- app_infrastructure_repositories&#45;&gt;app_domain_value_objects -->
<g id="edge33" class="edge">
<title>app_infrastructure_repositories&#45;&gt;app_domain_value_objects</title><style>.edge>path:hover{stroke-width:8}</style>
<path fill="none" stroke="black" d="M75.43,-403.97C64.93,-450.62 -2.98,-433.41 0.43,-481.1"/>
<path fill="none" stroke="black" d="M612.96,-253.56C586.45,-257.64 553.2,-262.54 523.43,-266.27 317,-292.14 121.09,-198.99 75.43,-401.97"/>
</g>
<!-- app_infrastructure_repositories&#45;&gt;app_infrastructure_mappers -->
<g id="edge44" class="edge">
<title>app_infrastructure_repositories&#45;&gt;app_infrastructure_mappers</title><style>.edge>path:hover{stroke-width:8}</style>
<path fill="none" stroke="black" d="M681.6,-265.16C690.61,-274.3 701.49,-285.35 711.32,-295.32"/>
<polygon fill="#732626" stroke="black" points="708.68,-297.63 718.19,-302.3 713.67,-292.72 708.68,-297.63"/>
</g>
<!-- app_interfaces -->
<g id="node17" class="node">
<title>app_interfaces</title><style>.edge>path:hover{stroke-width:8}</style>
<ellipse fill="#db2f2f" stroke="black" cx="1048.43" cy="-90" rx="34.76" ry="18"/>
<text text-anchor="middle" x="1048.43" y="-86.12" font-family="Helvetica,sans-Serif" font-size="10.00" fill="#ffffff">interfaces</text>
</g>
<!-- app_interfaces_controllers -->
<g id="node18" class="node">
<title>app_interfaces_controllers</title><style>.edge>path:hover{stroke-width:8}</style>
<ellipse fill="#732626" stroke="black" cx="470.43" cy="-165.57" rx="43.66" ry="21.57"/>
<text text-anchor="middle" x="470.43" y="-167.32" font-family="Helvetica,sans-Serif" font-size="10.00" fill="#ffffff">interfaces.</text>
<text text-anchor="middle" x="470.43" y="-156.07" font-family="Helvetica,sans-Serif" font-size="10.00" fill="#ffffff">controllers</text>
</g>
<!-- app_interfaces_controllers&#45;&gt;app_application -->
<g id="edge2" class="edge">
<title>app_interfaces_controllers&#45;&gt;app_application</title><style>.edge>path:hover{stroke-width:8}</style>
<path fill="none" stroke="black" d="M408.43,-324.83C420.5,-341.62 433.33,-361.04 443.1,-376.19"/>
<polygon fill="#732626" stroke="black" points="439.89,-377.66 448.23,-384.19 445.78,-373.88 439.89,-377.66"/>
</g>
<!-- app_interfaces_controllers&#45;&gt;app_application_use_cases -->
<g id="edge7" class="edge">
<title>app_interfaces_controllers&#45;&gt;app_application_use_cases</title><style>.edge>path:hover{stroke-width:8}</style>
<path fill="none" stroke="black" d="M280.43,-245.7C265.13,-261.72 281.16,-282.4 299.64,-298.31"/>
<polygon fill="#732626" stroke="black" points="297.34,-300.95 307.32,-304.52 301.75,-295.51 297.34,-300.95"/>
</g>
<!-- app_interfaces_controllers&#45;&gt;app_domain -->
<g id="edge14" class="edge">
<title>app_interfaces_controllers&#45;&gt;app_domain</title><style>.edge>path:hover{stroke-width:8}</style>
<path fill="none" stroke="black" d="M502.89,-180.3C509.6,-182.82 516.68,-185.24 523.43,-187.13 611.23,-211.74 645.01,-180.14 725.43,-223.13 779.4,-251.99 793.63,-267.81 820.43,-322.83"/>
</g>
<!-- app_interfaces_controllers&#45;&gt;app_domain_entities -->
<g id="edge22" class="edge">
<title>app_interfaces_controllers&#45;&gt;app_domain_entities</title><style>.edge>path:hover{stroke-width:8}</style>
<path fill="none" stroke="black" d="M280.43,-245.7C242.73,-285.17 346.04,-269.16 389.43,-302.27 399.32,-309.82 401.16,-312.73 408.43,-322.83"/>
<path fill="none" stroke="black" d="M408.43,-324.83C418.6,-338.99 406.48,-468.51 394.43,-481.1"/>
</g>
<!-- app_interfaces_controllers&#45;&gt;app_domain_repositories -->
<g id="edge29" class="edge">
<title>app_interfaces_controllers&#45;&gt;app_domain_repositories</title><style>.edge>path:hover{stroke-width:8}</style>
<path fill="none" stroke="black" d="M37.43,-403.97C37.48,-421.02 45.06,-438.22 53.43,-452.04"/>
<polygon fill="#732626" stroke="black" points="50.35,-453.72 58.74,-460.18 56.21,-449.89 50.35,-453.72"/>
</g>
<!-- app_interfaces_controllers&#45;&gt;app_domain_value_objects -->
<g id="edge34" class="edge">
<title>app_interfaces_controllers&#45;&gt;app_domain_value_objects</title><style>.edge>path:hover{stroke-width:8}</style>
<path fill="none" stroke="black" d="M280.43,-245.7C220.75,-308.19 161.97,-248.39 94.43,-302.27 54.52,-334.1 37.26,-350.93 37.43,-401.97"/>
<path fill="none" stroke="black" d="M0.43,-483.1C2.03,-505.47 18.62,-523.82 35.8,-537.01"/>
<polygon fill="#732626" stroke="black" points="33.36,-539.57 43.53,-542.54 37.43,-533.88 33.36,-539.57"/>
<path fill="none" stroke="black" d="M428.42,-172.31C384.98,-180.5 318.32,-199.75 280.43,-243.7"/>
<path fill="none" stroke="black" d="M37.43,-403.97C29.64,-441.18 -2.29,-443.18 0.43,-481.1"/>
</g>
<!-- app_interfaces_serializers -->
<g id="node20" class="node">
<title>app_interfaces_serializers</title><style>.edge>path:hover{stroke-width:8}</style>
<ellipse fill="#913030" stroke="black" cx="226.43" cy="-323.83" rx="43.66" ry="21.57"/>
<text text-anchor="middle" x="226.43" y="-325.58" font-family="Helvetica,sans-Serif" font-size="10.00" fill="#ffffff">interfaces.</text>
<text text-anchor="middle" x="226.43" y="-314.33" font-family="Helvetica,sans-Serif" font-size="10.00" fill="#ffffff">serializers</text>
</g>
<!-- app_interfaces_controllers&#45;&gt;app_interfaces_serializers -->
<g id="edge49" class="edge">
<title>app_interfaces_controllers&#45;&gt;app_interfaces_serializers</title><style>.edge>path:hover{stroke-width:8}</style>
<path fill="none" stroke="black" d="M280.43,-245.7C266.72,-260.05 253.87,-278.14 244.15,-293.19"/>
<polygon fill="#732626" stroke="black" points="241.41,-290.97 239.04,-301.29 247.33,-294.7 241.41,-290.97"/>
</g>
<!-- app_interfaces_views -->
<g id="node21" class="node">
<title>app_interfaces_views</title><style>.edge>path:hover{stroke-width:8}</style>
<ellipse fill="#c24747" stroke="black" cx="470.43" cy="-244.7" rx="43.66" ry="21.57"/>
<text text-anchor="middle" x="470.43" y="-246.45" font-family="Helvetica,sans-Serif" font-size="10.00" fill="#ffffff">interfaces.</text>
<text text-anchor="middle" x="470.43" y="-235.2" font-family="Helvetica,sans-Serif" font-size="10.00" fill="#ffffff">views</text>
</g>
<!-- app_interfaces_controllers&#45;&gt;app_interfaces_views -->
<g id="edge50" class="edge">
<title>app_interfaces_controllers&#45;&gt;app_interfaces_views</title><style>.edge>path:hover{stroke-width:8}</style>
<path fill="none" stroke="black" d="M470.43,-187.24C470.43,-194.61 470.43,-203.11 470.43,-211.24"/>
<polygon fill="#732626" stroke="black" points="466.93,-211.19 470.43,-221.19 473.93,-211.19 466.93,-211.19"/>
</g>
<!-- app_interfaces_middlewares -->
<g id="node19" class="node">
<title>app_interfaces_middlewares</title><style>.edge>path:hover{stroke-width:8}</style>
<ellipse fill="#964040" stroke="black" cx="582.43" cy="-165.57" rx="50.03" ry="21.57"/>
<text text-anchor="middle" x="582.43" y="-167.32" font-family="Helvetica,sans-Serif" font-size="10.00" fill="#ffffff">interfaces.</text>
<text text-anchor="middle" x="582.43" y="-156.07" font-family="Helvetica,sans-Serif" font-size="10.00" fill="#ffffff">middlewares</text>
</g>
<!-- app_interfaces_middlewares&#45;&gt;app_application -->
<g id="edge3" class="edge">
<title>app_interfaces_middlewares&#45;&gt;app_application</title><style>.edge>path:hover{stroke-width:8}</style>
<path fill="none" stroke="black" d="M576.3,-187.47C573.24,-198.12 569.53,-211.29 566.43,-223.13 554.89,-267.23 572.79,-288.84 542.43,-322.83"/>
<path fill="none" stroke="black" d="M542.43,-324.83C523.89,-343.96 501.74,-364.43 484.99,-379.48"/>
<polygon fill="#964040" stroke="black" points="483.03,-376.53 477.9,-385.8 487.69,-381.76 483.03,-376.53"/>
</g>
<!-- app_interfaces_middlewares&#45;&gt;app_application_exc -->
<g id="edge6" class="edge">
<title>app_interfaces_middlewares&#45;&gt;app_application_exc</title><style>.edge>path:hover{stroke-width:8}</style>
<path fill="none" stroke="black" d="M630.61,-171.78C663.32,-178.1 704.34,-192.11 725.43,-223.13 736.2,-238.99 734.17,-249.2 725.43,-266.27 712.94,-290.64 687.91,-277.9 675.43,-302.27 664.48,-323.63 670.07,-350.6 677.66,-371.1"/>
<polygon fill="#964040" stroke="black" points="674.41,-372.4 681.42,-380.35 680.89,-369.77 674.41,-372.4"/>
</g>
<!-- app_interfaces_middlewares&#45;&gt;app_interfaces_views -->
<g id="edge51" class="edge">
<title>app_interfaces_middlewares&#45;&gt;app_interfaces_views</title><style>.edge>path:hover{stroke-width:8}</style>
<path fill="none" stroke="black" d="M556.45,-184.46C541,-195.1 521.22,-208.72 504.53,-220.22"/>
<polygon fill="#964040" stroke="black" points="502.61,-217.29 496.36,-225.84 506.58,-223.05 502.61,-217.29"/>
</g>
<!-- app_interfaces_serializers&#45;&gt;app_domain -->
<g id="edge15" class="edge">
<title>app_interfaces_serializers&#45;&gt;app_domain</title><style>.edge>path:hover{stroke-width:8}</style>
<path fill="none" stroke="black" d="M242.18,-344.37C273.81,-382.11 349.2,-464.73 432.43,-503.67 536.83,-552.51 675.76,-560.16 742.85,-560.75"/>
<polygon fill="#913030" stroke="black" points="742.61,-564.25 752.62,-560.79 742.63,-557.25 742.61,-564.25"/>
</g>
<!-- app_interfaces_serializers&#45;&gt;app_domain_entities -->
<g id="edge23" class="edge">
<title>app_interfaces_serializers&#45;&gt;app_domain_entities</title><style>.edge>path:hover{stroke-width:8}</style>
<path fill="none" stroke="black" d="M226.43,-403.97C225.51,-430.47 211.7,-434.36 207.43,-460.53 204.33,-479.45 201.01,-485.6 207.43,-503.67 211.43,-514.94 218.75,-525.6 226.38,-534.56"/>
<polygon fill="#913030" stroke="black" points="223.67,-536.77 233,-541.8 228.84,-532.05 223.67,-536.77"/>
<path fill="none" stroke="black" d="M226.21,-345.79C226.1,-361.3 226.06,-382.96 226.43,-401.97"/>
</g>
<!-- app_interfaces_serializers&#45;&gt;app_domain_services -->
<g id="edge30" class="edge">
<title>app_interfaces_serializers&#45;&gt;app_domain_services</title><style>.edge>path:hover{stroke-width:8}</style>
<path fill="none" stroke="black" d="M226.43,-403.97C225.87,-419.97 231.05,-436.85 237.02,-450.72"/>
<polygon fill="#913030" stroke="black" points="233.84,-452.18 241.24,-459.76 240.18,-449.22 233.84,-452.18"/>
</g>
<!-- app_interfaces_serializers&#45;&gt;app_domain_value_objects -->
<g id="edge35" class="edge">
<title>app_interfaces_serializers&#45;&gt;app_domain_value_objects</title><style>.edge>path:hover{stroke-width:8}</style>
<path fill="none" stroke="black" d="M217.93,-345.26C203.12,-379.7 170.39,-450.71 131.43,-503.67 123.78,-514.06 114.25,-524.4 105.24,-533.35"/>
<polygon fill="#913030" stroke="black" points="103.04,-530.61 98.27,-540.07 107.9,-535.65 103.04,-530.61"/>
</g>
<!-- app_load_seeds -->
<g id="node22" class="node">
<title>app_load_seeds</title><style>.edge>path:hover{stroke-width:8}</style>
<ellipse fill="#924e4e" stroke="black" cx="956.43" cy="-90" rx="38.76" ry="18"/>
<text text-anchor="middle" x="956.43" y="-86.12" font-family="Helvetica,sans-Serif" font-size="10.00" fill="#ffffff">load_seeds</text>
</g>
<!-- app_load_seeds&#45;&gt;app_infrastructure -->
<g id="edge37" class="edge">
<title>app_load_seeds&#45;&gt;app_infrastructure</title><style>.edge>path:hover{stroke-width:8}</style>
<path fill="none" stroke="black" d="M942.32,-106.96C933.92,-116.47 923.07,-128.75 913.55,-139.52"/>
<polygon fill="#924e4e" stroke="black" points="910.95,-137.18 906.95,-146.99 916.2,-141.81 910.95,-137.18"/>
</g>
<!-- app_load_seeds&#45;&gt;app_infrastructure_config -->
<g id="edge40" class="edge">
<title>app_load_seeds&#45;&gt;app_infrastructure_config</title><style>.edge>path:hover{stroke-width:8}</style>
<path fill="none" stroke="black" d="M995.43,-166.57C996.31,-182.83 1002.58,-199.68 1009.34,-213.46"/>
<polygon fill="#924e4e" stroke="black" points="1006.08,-214.78 1013.82,-222.01 1012.28,-211.52 1006.08,-214.78"/>
</g>
<!-- app_load_seeds&#45;&gt;app_infrastructure_database -->
<g id="edge43" class="edge">
<title>app_load_seeds&#45;&gt;app_infrastructure_database</title><style>.edge>path:hover{stroke-width:8}</style>
<path fill="none" stroke="black" d="M995.43,-166.57C996.85,-192.75 974.71,-211.75 951.68,-224.35"/>
<polygon fill="#924e4e" stroke="black" points="950.16,-221.19 942.82,-228.83 953.32,-227.44 950.16,-221.19"/>
<path fill="none" stroke="black" d="M970.34,-107.26C981.06,-121.38 994.25,-142.92 995.43,-164.57"/>
</g>
<!-- app_main -->
<g id="node23" class="node">
<title>app_main</title><style>.edge>path:hover{stroke-width:8}</style>
<ellipse fill="#7e4444" stroke="black" cx="889.43" cy="-18" rx="27" ry="18"/>
<text text-anchor="middle" x="889.43" y="-14.12" font-family="Helvetica,sans-Serif" font-size="10.00" fill="#ffffff">main</text>
</g>
<!-- app_main&#45;&gt;app_di_container -->
<g id="edge8" class="edge">
<title>app_main&#45;&gt;app_di_container</title><style>.edge>path:hover{stroke-width:8}</style>
<path fill="none" stroke="black" d="M875.13,-33.5C866.16,-42.6 854.37,-54.56 844.04,-65.04"/>
<polygon fill="#7e4444" stroke="black" points="841.74,-62.39 837.21,-71.97 846.72,-67.31 841.74,-62.39"/>
</g>
<!-- app_main&#45;&gt;app_infrastructure -->
<g id="edge38" class="edge">
<title>app_main&#45;&gt;app_infrastructure</title><style>.edge>path:hover{stroke-width:8}</style>
<path fill="none" stroke="black" d="M889.66,-36.27C890,-60.89 890.63,-106.39 891.03,-136.05"/>
<polygon fill="#7e4444" stroke="black" points="887.53,-135.85 891.17,-145.81 894.53,-135.76 887.53,-135.85"/>
</g>
<!-- app_main&#45;&gt;app_infrastructure_config -->
<g id="edge41" class="edge">
<title>app_main&#45;&gt;app_infrastructure_config</title><style>.edge>path:hover{stroke-width:8}</style>
<path fill="none" stroke="black" d="M915.97,-21.95C965.93,-28.1 1070.88,-44.11 1092.43,-72 1126.28,-115.83 1084.23,-179.27 1053.72,-215.5"/>
<polygon fill="#7e4444" stroke="black" points="1051.16,-213.11 1047.25,-222.96 1056.45,-217.7 1051.16,-213.11"/>
</g>
<!-- app_main&#45;&gt;app_interfaces -->
<g id="edge46" class="edge">
<title>app_main&#45;&gt;app_interfaces</title><style>.edge>path:hover{stroke-width:8}</style>
<path fill="none" stroke="black" d="M911.53,-28.73C937.56,-40.19 981.17,-59.39 1012.16,-73.04"/>
<polygon fill="#7e4444" stroke="black" points="1010.61,-76.17 1021.17,-77 1013.43,-69.77 1010.61,-76.17"/>
</g>
<!-- app_main&#45;&gt;app_interfaces_controllers -->
<g id="edge47" class="edge">
<title>app_main&#45;&gt;app_interfaces_controllers</title><style>.edge>path:hover{stroke-width:8}</style>
<path fill="none" stroke="black" d="M582.43,-91C556.64,-107.96 527.49,-127.1 505.4,-141.61"/>
<polygon fill="#7e4444" stroke="black" points="503.49,-138.68 497.05,-147.09 507.33,-144.53 503.49,-138.68"/>
<path fill="none" stroke="black" d="M862.36,-19.01C805.7,-20.27 672.41,-29.83 582.43,-89"/>
</g>
<!-- app_main&#45;&gt;app_interfaces_middlewares -->
<g id="edge48" class="edge">
<title>app_main&#45;&gt;app_interfaces_middlewares</title><style>.edge>path:hover{stroke-width:8}</style>
<path fill="none" stroke="black" d="M582.43,-91C569.2,-99.7 568.78,-117.21 571.87,-132.97"/>
<polygon fill="#7e4444" stroke="black" points="568.43,-133.65 574.23,-142.51 575.22,-131.97 568.43,-133.65"/>
</g>
</g>
</svg>
