<?xml version="1.0" encoding="UTF-8" standalone="no"?>
<!DOCTYPE svg PUBLIC "-//W3C//DTD SVG 1.1//EN"
 "http://www.w3.org/Graphics/SVG/1.1/DTD/svg11.dtd">
<!-- Generated by graphviz version 12.2.0 (20241103.1931)
 -->
<!-- Title: G Pages: 1 -->
<svg width="922pt" height="873pt"
 viewBox="0.00 0.00 922.38 873.00" xmlns="http://www.w3.org/2000/svg" xmlns:xlink="http://www.w3.org/1999/xlink">
<g id="graph0" class="graph" transform="scale(1 1) rotate(0) translate(4 869)">
<title>G</title><style>.edge>path:hover{stroke-width:8}</style>
<polygon fill="white" stroke="none" points="-4,4 -4,-869 918.38,-869 918.38,4 -4,4"/>
<!-- annotated_types -->
<g id="node1" class="node">
<title>annotated_types</title><style>.edge>path:hover{stroke-width:8}</style>
<polygon fill="#d92626" stroke="black" points="394,-756 391,-760 370,-760 367,-756 306,-756 306,-720 394,-720 394,-756"/>
<text text-anchor="middle" x="350" y="-734.12" font-family="Helvetica,sans-Serif" font-size="10.00" fill="#ffffff">annotated_types</text>
</g>
<!-- typing_extensions -->
<g id="node31" class="node">
<title>typing_extensions</title><style>.edge>path:hover{stroke-width:8}</style>
<polygon fill="#f91048" stroke="black" points="469.38,-865 466.38,-869 445.38,-869 442.38,-865 374.62,-865 374.62,-829 469.38,-829 469.38,-865"/>
<text text-anchor="middle" x="422" y="-843.12" font-family="Helvetica,sans-Serif" font-size="10.00" fill="#ffffff">typing_extensions</text>
</g>
<!-- annotated_types&#45;&gt;typing_extensions -->
<g id="edge65" class="edge">
<title>annotated_types&#45;&gt;typing_extensions</title><style>.edge>path:hover{stroke-width:8}</style>
<path fill="none" stroke="black" d="M394.19,-752.91C412.54,-761.49 428.28,-774.3 422,-792"/>
</g>
<!-- anyio -->
<g id="node2" class="node">
<title>anyio</title><style>.edge>path:hover{stroke-width:8}</style>
<polygon fill="#f94810" stroke="black" points="860,-684 857,-688 836,-688 833,-684 806,-684 806,-648 860,-648 860,-684"/>
<text text-anchor="middle" x="833" y="-662.12" font-family="Helvetica,sans-Serif" font-size="10.00" fill="#ffffff">anyio</text>
</g>
<!-- anyio&#45;&gt;typing_extensions -->
<g id="edge66" class="edge">
<title>anyio&#45;&gt;typing_extensions</title><style>.edge>path:hover{stroke-width:8}</style>
<path fill="none" stroke="black" d="M860.44,-683.42C879.62,-697.1 899.85,-717.44 888,-737"/>
<path fill="none" stroke="black" d="M888,-739C860.99,-783.57 439.43,-742.89 422,-792"/>
</g>
<!-- app_application -->
<g id="node3" class="node">
<title>app_application</title><style>.edge>path:hover{stroke-width:8}</style>
<ellipse fill="#93541a" stroke="black" cx="458" cy="-234" rx="36.98" ry="18"/>
<text text-anchor="middle" x="458" y="-230.12" font-family="Helvetica,sans-Serif" font-size="10.00" fill="#ffffff">application</text>
</g>
<!-- app_domain -->
<g id="node5" class="node">
<title>app_domain</title><style>.edge>path:hover{stroke-width:8}</style>
<ellipse fill="#b85d09" stroke="black" cx="496" cy="-306" rx="28.11" ry="18"/>
<text text-anchor="middle" x="496" y="-302.12" font-family="Helvetica,sans-Serif" font-size="10.00" fill="#ffffff">domain</text>
</g>
<!-- app_application&#45;&gt;app_domain -->
<g id="edge8" class="edge">
<title>app_application&#45;&gt;app_domain</title><style>.edge>path:hover{stroke-width:8}</style>
<path fill="none" stroke="black" d="M467.01,-251.59C471.36,-259.61 476.69,-269.43 481.59,-278.46"/>
<polygon fill="#93541a" stroke="black" points="478.49,-280.08 486.34,-287.2 484.64,-276.74 478.49,-280.08"/>
</g>
<!-- fastapi -->
<g id="node17" class="node">
<title>fastapi</title><style>.edge>path:hover{stroke-width:8}</style>
<polygon fill="#03953e" stroke="black" points="767,-468 764,-472 743,-472 740,-468 713,-468 713,-432 767,-432 767,-468"/>
<text text-anchor="middle" x="740" y="-446.12" font-family="Helvetica,sans-Serif" font-size="10.00" fill="#ffffff">fastapi</text>
</g>
<!-- app_application&#45;&gt;fastapi -->
<g id="edge26" class="edge">
<title>app_application&#45;&gt;fastapi</title><style>.edge>path:hover{stroke-width:8}</style>
<path fill="none" stroke="black" d="M481.21,-248.46C534.46,-279.64 661.4,-355.78 668,-377"/>
<path fill="none" stroke="black" d="M668,-379C674.42,-397.71 689.29,-413.58 703.86,-425.46"/>
<polygon fill="#93541a" stroke="black" points="701.55,-428.1 711.62,-431.41 705.81,-422.54 701.55,-428.1"/>
</g>
<!-- pydantic -->
<g id="node23" class="node">
<title>pydantic</title><style>.edge>path:hover{stroke-width:8}</style>
<polygon fill="#031b95" stroke="black" points="598,-612 595,-616 574,-616 571,-612 544,-612 544,-576 598,-576 598,-612"/>
<text text-anchor="middle" x="571" y="-590.12" font-family="Helvetica,sans-Serif" font-size="10.00" fill="#ffffff">pydantic</text>
</g>
<!-- app_application&#45;&gt;pydantic -->
<g id="edge37" class="edge">
<title>app_application&#45;&gt;pydantic</title><style>.edge>path:hover{stroke-width:8}</style>
<path fill="none" stroke="black" d="M440,-307C441.27,-339.98 472.25,-333.56 492,-360 513.9,-389.33 518.68,-397.9 532,-432 549.52,-476.85 560.81,-531.91 566.52,-564.63"/>
<polygon fill="#93541a" stroke="black" points="563,-564.85 568.12,-574.12 569.91,-563.68 563,-564.85"/>
</g>
<!-- shortuuid -->
<g id="node27" class="node">
<title>shortuuid</title><style>.edge>path:hover{stroke-width:8}</style>
<polygon fill="#a731c4" stroke="black" points="411.88,-396 408.88,-400 387.88,-400 384.88,-396 356.12,-396 356.12,-360 411.88,-360 411.88,-396"/>
<text text-anchor="middle" x="384" y="-374.12" font-family="Helvetica,sans-Serif" font-size="10.00" fill="#ffffff">shortuuid</text>
</g>
<!-- app_application&#45;&gt;shortuuid -->
<g id="edge52" class="edge">
<title>app_application&#45;&gt;shortuuid</title><style>.edge>path:hover{stroke-width:8}</style>
<path fill="none" stroke="black" d="M440,-307C440.68,-324.6 429.8,-340.33 417.46,-352.39"/>
<polygon fill="#93541a" stroke="black" points="415.47,-349.47 410.38,-358.76 420.15,-354.68 415.47,-349.47"/>
<path fill="none" stroke="black" d="M450.71,-251.96C445.41,-265.95 439.29,-286.44 440,-305"/>
</g>
<!-- sqlalchemy -->
<g id="node28" class="node">
<title>sqlalchemy</title><style>.edge>path:hover{stroke-width:8}</style>
<polygon fill="#a904a3" stroke="black" points="487.75,-612 484.75,-616 463.75,-616 460.75,-612 422.25,-612 422.25,-576 487.75,-576 487.75,-612"/>
<text text-anchor="middle" x="455" y="-590.12" font-family="Helvetica,sans-Serif" font-size="10.00" fill="#ffffff">sqlalchemy</text>
</g>
<!-- app_application&#45;&gt;sqlalchemy -->
<g id="edge54" class="edge">
<title>app_application&#45;&gt;sqlalchemy</title><style>.edge>path:hover{stroke-width:8}</style>
<path fill="none" stroke="black" d="M440,-379C434.26,-409.58 437.43,-417.99 440,-449"/>
<path fill="none" stroke="black" d="M440,-307C441.19,-338.09 445.74,-346.42 440,-377"/>
</g>
<!-- sqlmodel -->
<g id="node29" class="node">
<title>sqlmodel</title><style>.edge>path:hover{stroke-width:8}</style>
<polygon fill="#832067" stroke="black" points="523.5,-468 520.5,-472 499.5,-472 496.5,-468 468.5,-468 468.5,-432 523.5,-432 523.5,-468"/>
<text text-anchor="middle" x="496" y="-446.12" font-family="Helvetica,sans-Serif" font-size="10.00" fill="#ffffff">sqlmodel</text>
</g>
<!-- app_application&#45;&gt;sqlmodel -->
<g id="edge60" class="edge">
<title>app_application&#45;&gt;sqlmodel</title><style>.edge>path:hover{stroke-width:8}</style>
<path fill="none" stroke="black" d="M478,-379C480.69,-392.86 484.49,-408.07 487.91,-420.75"/>
<polygon fill="#93541a" stroke="black" points="484.46,-421.42 490.5,-430.13 491.21,-419.55 484.46,-421.42"/>
<path fill="none" stroke="black" d="M440,-307C441.36,-342.37 471.26,-342.25 478,-377"/>
</g>
<!-- app_di_container -->
<g id="node4" class="node">
<title>app_di_container</title><style>.edge>path:hover{stroke-width:8}</style>
<ellipse fill="#915f30" stroke="black" cx="523" cy="-90" rx="40.53" ry="18"/>
<text text-anchor="middle" x="523" y="-86.12" font-family="Helvetica,sans-Serif" font-size="10.00" fill="#ffffff">di_container</text>
</g>
<!-- app_di_container&#45;&gt;app_domain -->
<g id="edge9" class="edge">
<title>app_di_container&#45;&gt;app_domain</title><style>.edge>path:hover{stroke-width:8}</style>
<path fill="none" stroke="black" d="M523,-163C511.83,-192.04 521.46,-201.93 523,-233"/>
</g>
<!-- app_infrastructure -->
<g id="node6" class="node">
<title>app_infrastructure</title><style>.edge>path:hover{stroke-width:8}</style>
<ellipse fill="#8a4a0f" stroke="black" cx="452" cy="-162" rx="43.19" ry="18"/>
<text text-anchor="middle" x="452" y="-158.12" font-family="Helvetica,sans-Serif" font-size="10.00" fill="#ffffff">infrastructure</text>
</g>
<!-- app_di_container&#45;&gt;app_infrastructure -->
<g id="edge12" class="edge">
<title>app_di_container&#45;&gt;app_infrastructure</title><style>.edge>path:hover{stroke-width:8}</style>
<path fill="none" stroke="black" d="M506.89,-106.88C497.81,-115.83 486.29,-127.19 476.16,-137.19"/>
<polygon fill="#915f30" stroke="black" points="473.79,-134.6 469.13,-144.12 478.7,-139.59 473.79,-134.6"/>
</g>
<!-- dependency_injector -->
<g id="node13" class="node">
<title>dependency_injector</title><style>.edge>path:hover{stroke-width:8}</style>
<polygon fill="#8dce3b" stroke="black" points="763.62,-324 760.62,-328 739.62,-328 736.62,-324 658.38,-324 658.38,-288 763.62,-288 763.62,-324"/>
<text text-anchor="middle" x="711" y="-302.12" font-family="Helvetica,sans-Serif" font-size="10.00" fill="#000000">dependency_injector</text>
</g>
<!-- app_di_container&#45;&gt;dependency_injector -->
<g id="edge19" class="edge">
<title>app_di_container&#45;&gt;dependency_injector</title><style>.edge>path:hover{stroke-width:8}</style>
<path fill="none" stroke="black" d="M563.04,-93.67C598.75,-98.26 649.77,-110.66 679,-144 711.26,-180.81 714.64,-240.69 713.37,-276.12"/>
<polygon fill="#915f30" stroke="black" points="709.88,-275.88 712.84,-286.05 716.87,-276.25 709.88,-275.88"/>
</g>
<!-- app_di_container&#45;&gt;shortuuid -->
<g id="edge53" class="edge">
<title>app_di_container&#45;&gt;shortuuid</title><style>.edge>path:hover{stroke-width:8}</style>
<path fill="none" stroke="black" d="M526.37,-108.31C528.42,-122.88 529.54,-143.99 523,-161"/>
<path fill="none" stroke="black" d="M523,-163C518.93,-173.58 513.65,-174.06 504,-180 466.6,-203 439.78,-182 412,-216 381.25,-253.64 379.12,-312.99 381.07,-348.15"/>
<polygon fill="#915f30" stroke="black" points="377.57,-348.27 381.78,-357.99 384.55,-347.77 377.57,-348.27"/>
</g>
<!-- app_domain&#45;&gt;pydantic -->
<g id="edge38" class="edge">
<title>app_domain&#45;&gt;pydantic</title><style>.edge>path:hover{stroke-width:8}</style>
<path fill="none" stroke="black" d="M685,-523C676.74,-556.81 639.08,-575.02 609.28,-584.31"/>
<polygon fill="#b85d09" stroke="black" points="608.43,-580.92 599.78,-587.04 610.35,-587.65 608.43,-580.92"/>
<path fill="none" stroke="black" d="M515.92,-319.25C531.14,-329.15 552.13,-344.04 568,-360 599.18,-391.37 695.5,-478.04 685,-521"/>
</g>
<!-- app_domain&#45;&gt;sqlalchemy -->
<g id="edge55" class="edge">
<title>app_domain&#45;&gt;sqlalchemy</title><style>.edge>path:hover{stroke-width:8}</style>
<path fill="none" stroke="black" d="M478.52,-320.26C463.79,-332.9 444.42,-353.44 440,-377"/>
</g>
<!-- app_domain&#45;&gt;sqlmodel -->
<g id="edge61" class="edge">
<title>app_domain&#45;&gt;sqlmodel</title><style>.edge>path:hover{stroke-width:8}</style>
<path fill="none" stroke="black" d="M487.45,-323.56C481.21,-337.67 474.42,-358.52 478,-377"/>
</g>
<!-- app_infrastructure&#45;&gt;app_application -->
<g id="edge5" class="edge">
<title>app_infrastructure&#45;&gt;app_application</title><style>.edge>path:hover{stroke-width:8}</style>
<path fill="none" stroke="black" d="M453.48,-180.3C454.11,-187.59 454.85,-196.27 455.55,-204.46"/>
<polygon fill="#8a4a0f" stroke="black" points="452.06,-204.72 456.4,-214.39 459.04,-204.13 452.06,-204.72"/>
</g>
<!-- app_infrastructure&#45;&gt;app_domain -->
<g id="edge10" class="edge">
<title>app_infrastructure&#45;&gt;app_domain</title><style>.edge>path:hover{stroke-width:8}</style>
<path fill="none" stroke="black" d="M478.97,-176.44C498.51,-188.28 521.74,-207.59 523,-233"/>
<path fill="none" stroke="black" d="M523,-235C523.76,-250.25 518.16,-266.2 511.87,-279.02"/>
<polygon fill="#8a4a0f" stroke="black" points="508.9,-277.17 507.27,-287.64 515.07,-280.47 508.9,-277.17"/>
</g>
<!-- asyncpg -->
<g id="node10" class="node">
<title>asyncpg</title><style>.edge>path:hover{stroke-width:8}</style>
<polygon fill="#bd8904" stroke="black" points="248,-396 245,-400 224,-400 221,-396 194,-396 194,-360 248,-360 248,-396"/>
<text text-anchor="middle" x="221" y="-374.12" font-family="Helvetica,sans-Serif" font-size="10.00" fill="#000000">asyncpg</text>
</g>
<!-- app_infrastructure&#45;&gt;asyncpg -->
<g id="edge16" class="edge">
<title>app_infrastructure&#45;&gt;asyncpg</title><style>.edge>path:hover{stroke-width:8}</style>
<path fill="none" stroke="black" d="M328,-235C302.79,-253.24 337.77,-275.46 328,-305"/>
<path fill="none" stroke="black" d="M328,-307C317.98,-337.28 285.49,-355.63 258.92,-365.89"/>
<polygon fill="#8a4a0f" stroke="black" points="258,-362.5 249.77,-369.17 260.37,-369.09 258,-362.5"/>
</g>
<!-- jose -->
<g id="node20" class="node">
<title>jose</title><style>.edge>path:hover{stroke-width:8}</style>
<polygon fill="#19cde6" stroke="black" points="167,-324 164,-328 143,-328 140,-324 113,-324 113,-288 167,-288 167,-324"/>
<text text-anchor="middle" x="140" y="-302.12" font-family="Helvetica,sans-Serif" font-size="10.00" fill="#000000">jose</text>
</g>
<!-- app_infrastructure&#45;&gt;jose -->
<g id="edge33" class="edge">
<title>app_infrastructure&#45;&gt;jose</title><style>.edge>path:hover{stroke-width:8}</style>
<path fill="none" stroke="black" d="M424.82,-176.1C398.96,-189.08 359.44,-210.25 328,-233"/>
<path fill="none" stroke="black" d="M328,-235C282.16,-268.17 218.79,-287.43 178.59,-297.08"/>
<polygon fill="#8a4a0f" stroke="black" points="177.84,-293.66 168.88,-299.32 179.42,-300.48 177.84,-293.66"/>
</g>
<!-- passlib -->
<g id="node22" class="node">
<title>passlib</title><style>.edge>path:hover{stroke-width:8}</style>
<polygon fill="#2271e7" stroke="black" points="300,-324 297,-328 276,-328 273,-324 246,-324 246,-288 300,-288 300,-324"/>
<text text-anchor="middle" x="273" y="-302.12" font-family="Helvetica,sans-Serif" font-size="10.00" fill="#ffffff">passlib</text>
</g>
<!-- app_infrastructure&#45;&gt;passlib -->
<g id="edge36" class="edge">
<title>app_infrastructure&#45;&gt;passlib</title><style>.edge>path:hover{stroke-width:8}</style>
<path fill="none" stroke="black" d="M328,-235C312.13,-246.48 298.49,-263.76 288.77,-278.27"/>
<polygon fill="#8a4a0f" stroke="black" points="285.94,-276.19 283.5,-286.5 291.84,-279.96 285.94,-276.19"/>
</g>
<!-- pydantic_settings -->
<g id="node25" class="node">
<title>pydantic_settings</title><style>.edge>path:hover{stroke-width:8}</style>
<polygon fill="#603ab0" stroke="black" points="412.25,-468 409.25,-472 388.25,-472 385.25,-468 319.75,-468 319.75,-432 412.25,-432 412.25,-468"/>
<text text-anchor="middle" x="366" y="-446.12" font-family="Helvetica,sans-Serif" font-size="10.00" fill="#ffffff">pydantic_settings</text>
</g>
<!-- app_infrastructure&#45;&gt;pydantic_settings -->
<g id="edge48" class="edge">
<title>app_infrastructure&#45;&gt;pydantic_settings</title><style>.edge>path:hover{stroke-width:8}</style>
<path fill="none" stroke="black" d="M328,-379C334.18,-393.51 342.4,-408.99 349.61,-421.69"/>
<polygon fill="#8a4a0f" stroke="black" points="346.57,-423.41 354.61,-430.31 352.62,-419.9 346.57,-423.41"/>
<path fill="none" stroke="black" d="M328,-307C318.23,-336.54 315.8,-348.38 328,-377"/>
</g>
<!-- app_infrastructure&#45;&gt;sqlalchemy -->
<g id="edge56" class="edge">
<title>app_infrastructure&#45;&gt;sqlalchemy</title><style>.edge>path:hover{stroke-width:8}</style>
<path fill="none" stroke="black" d="M440,-451C442.57,-482.01 442.57,-490 440,-521"/>
<path fill="none" stroke="black" d="M440,-523C438.84,-536.94 441.6,-552.15 445.06,-564.82"/>
<polygon fill="#8a4a0f" stroke="black" points="441.65,-565.63 447.9,-574.19 448.35,-563.6 441.65,-565.63"/>
<path fill="none" stroke="black" d="M328,-379C351.02,-433 435.16,-390.5 440,-449"/>
</g>
<!-- app_interfaces -->
<g id="node7" class="node">
<title>app_interfaces</title><style>.edge>path:hover{stroke-width:8}</style>
<ellipse fill="#7a4a1e" stroke="black" cx="635" cy="-162" rx="34.76" ry="18"/>
<text text-anchor="middle" x="635" y="-158.12" font-family="Helvetica,sans-Serif" font-size="10.00" fill="#ffffff">interfaces</text>
</g>
<!-- app_interfaces&#45;&gt;app_application -->
<g id="edge6" class="edge">
<title>app_interfaces&#45;&gt;app_application</title><style>.edge>path:hover{stroke-width:8}</style>
<path fill="none" stroke="black" d="M608.12,-173.63C578.36,-185.4 530.15,-204.47 496.42,-217.81"/>
<polygon fill="#7a4a1e" stroke="black" points="495.43,-214.43 487.42,-221.36 498.01,-220.94 495.43,-214.43"/>
</g>
<!-- app_interfaces&#45;&gt;app_domain -->
<g id="edge11" class="edge">
<title>app_interfaces&#45;&gt;app_domain</title><style>.edge>path:hover{stroke-width:8}</style>
<path fill="none" stroke="black" d="M635.42,-180.23C635.38,-194.57 634.41,-215.39 630,-233"/>
<path fill="none" stroke="black" d="M630,-235C627.27,-245.91 568.14,-273.59 529.34,-290.69"/>
<polygon fill="#7a4a1e" stroke="black" points="528.15,-287.39 520.39,-294.6 530.96,-293.8 528.15,-287.39"/>
</g>
<!-- app_interfaces&#45;&gt;dependency_injector -->
<g id="edge20" class="edge">
<title>app_interfaces&#45;&gt;dependency_injector</title><style>.edge>path:hover{stroke-width:8}</style>
<path fill="none" stroke="black" d="M630,-235C625.04,-254.81 639.26,-270.5 657.1,-281.97"/>
<polygon fill="#7a4a1e" stroke="black" points="654.97,-284.78 665.37,-286.82 658.51,-278.74 654.97,-284.78"/>
</g>
<!-- app_interfaces&#45;&gt;fastapi -->
<g id="edge27" class="edge">
<title>app_interfaces&#45;&gt;fastapi</title><style>.edge>path:hover{stroke-width:8}</style>
<path fill="none" stroke="black" d="M630,-307C634.55,-342.11 656.51,-343.52 668,-377"/>
</g>
<!-- fastapi_pagination -->
<g id="node18" class="node">
<title>fastapi_pagination</title><style>.edge>path:hover{stroke-width:8}</style>
<polygon fill="#38a880" stroke="black" points="914.38,-324 911.38,-328 890.38,-328 887.38,-324 819.62,-324 819.62,-288 914.38,-288 914.38,-324"/>
<text text-anchor="middle" x="867" y="-302.12" font-family="Helvetica,sans-Serif" font-size="10.00" fill="#000000">fastapi_pagination</text>
</g>
<!-- app_interfaces&#45;&gt;fastapi_pagination -->
<g id="edge31" class="edge">
<title>app_interfaces&#45;&gt;fastapi_pagination</title><style>.edge>path:hover{stroke-width:8}</style>
<path fill="none" stroke="black" d="M656.83,-176.36C696.29,-200.52 779.97,-251.73 829,-281.74"/>
<polygon fill="#7a4a1e" stroke="black" points="826.97,-284.6 837.33,-286.84 830.63,-278.63 826.97,-284.6"/>
</g>
<!-- app_interfaces&#45;&gt;pydantic -->
<g id="edge39" class="edge">
<title>app_interfaces&#45;&gt;pydantic</title><style>.edge>path:hover{stroke-width:8}</style>
<path fill="none" stroke="black" d="M630,-235C622.45,-265.18 626,-274.15 630,-305"/>
<path fill="none" stroke="black" d="M685,-451C688.6,-481.9 696.9,-492.26 685,-521"/>
<path fill="none" stroke="black" d="M630,-307C635.27,-347.63 638.18,-358.21 654,-396 664.53,-421.17 681.84,-421.89 685,-449"/>
</g>
<!-- app_interfaces&#45;&gt;sqlalchemy -->
<g id="edge57" class="edge">
<title>app_interfaces&#45;&gt;sqlalchemy</title><style>.edge>path:hover{stroke-width:8}</style>
<path fill="none" stroke="black" d="M630,-235C614.56,-296.69 434.75,-385.62 440,-449"/>
</g>
<!-- app_load_seeds -->
<g id="node8" class="node">
<title>app_load_seeds</title><style>.edge>path:hover{stroke-width:8}</style>
<ellipse fill="#a47346" stroke="black" cx="190" cy="-90" rx="38.76" ry="18"/>
<text text-anchor="middle" x="190" y="-86.12" font-family="Helvetica,sans-Serif" font-size="10.00" fill="#ffffff">load_seeds</text>
</g>
<!-- app_load_seeds&#45;&gt;app_infrastructure -->
<g id="edge13" class="edge">
<title>app_load_seeds&#45;&gt;app_infrastructure</title><style>.edge>path:hover{stroke-width:8}</style>
<path fill="none" stroke="black" d="M223.18,-99.87C269.24,-112.17 352.76,-134.49 405.15,-148.48"/>
<polygon fill="#a47346" stroke="black" points="404.13,-151.83 414.69,-151.03 405.94,-145.07 404.13,-151.83"/>
</g>
<!-- click -->
<g id="node11" class="node">
<title>click</title><style>.edge>path:hover{stroke-width:8}</style>
<polygon fill="#8b8722" stroke="black" points="54,-540 51,-544 30,-544 27,-540 0,-540 0,-504 54,-504 54,-540"/>
<text text-anchor="middle" x="27" y="-518.12" font-family="Helvetica,sans-Serif" font-size="10.00" fill="#ffffff">click</text>
</g>
<!-- app_load_seeds&#45;&gt;click -->
<g id="edge17" class="edge">
<title>app_load_seeds&#45;&gt;click</title><style>.edge>path:hover{stroke-width:8}</style>
<path fill="none" stroke="black" d="M157.77,-100.41C106.47,-117.6 12,-159.27 12,-233 12,-233 12,-233 12,-379 12,-418.48 17.8,-463.79 22.19,-492.4"/>
<polygon fill="#a47346" stroke="black" points="18.7,-492.75 23.73,-502.08 25.62,-491.65 18.7,-492.75"/>
</g>
<!-- app_main -->
<g id="node9" class="node">
<title>app_main</title><style>.edge>path:hover{stroke-width:8}</style>
<ellipse fill="#885f3a" stroke="black" cx="523" cy="-18" rx="27" ry="18"/>
<text text-anchor="middle" x="523" y="-14.12" font-family="Helvetica,sans-Serif" font-size="10.00" fill="#ffffff">main</text>
</g>
<!-- app_main&#45;&gt;app_di_container -->
<g id="edge7" class="edge">
<title>app_main&#45;&gt;app_di_container</title><style>.edge>path:hover{stroke-width:8}</style>
<path fill="none" stroke="black" d="M523,-36.3C523,-43.59 523,-52.27 523,-60.46"/>
<polygon fill="#885f3a" stroke="black" points="519.5,-60.38 523,-70.38 526.5,-60.38 519.5,-60.38"/>
</g>
<!-- app_main&#45;&gt;app_infrastructure -->
<g id="edge14" class="edge">
<title>app_main&#45;&gt;app_infrastructure</title><style>.edge>path:hover{stroke-width:8}</style>
<path fill="none" stroke="black" d="M506.2,-32.6C495.16,-42.43 481.28,-56.63 473,-72 462.92,-90.71 457.64,-114.2 454.9,-132.34"/>
<polygon fill="#885f3a" stroke="black" points="451.44,-131.79 453.6,-142.16 458.38,-132.7 451.44,-131.79"/>
</g>
<!-- app_main&#45;&gt;app_interfaces -->
<g id="edge15" class="edge">
<title>app_main&#45;&gt;app_interfaces</title><style>.edge>path:hover{stroke-width:8}</style>
<path fill="none" stroke="black" d="M792,-91C804,-139.94 731.87,-154.77 681.37,-159.2"/>
<polygon fill="#885f3a" stroke="black" points="681.23,-155.7 671.52,-159.94 681.76,-162.68 681.23,-155.7"/>
<path fill="none" stroke="black" d="M549.85,-20.54C615.62,-25.05 780.25,-41.08 792,-89"/>
</g>
<!-- app_main&#45;&gt;fastapi -->
<g id="edge28" class="edge">
<title>app_main&#45;&gt;fastapi</title><style>.edge>path:hover{stroke-width:8}</style>
<path fill="none" stroke="black" d="M792,-91C816.73,-191.91 833.11,-239.26 773,-324 742.76,-366.64 651.03,-327.56 668,-377"/>
</g>
<!-- asyncpg&#45;&gt;typing_extensions -->
<g id="edge67" class="edge">
<title>asyncpg&#45;&gt;typing_extensions</title><style>.edge>path:hover{stroke-width:8}</style>
<path fill="none" stroke="black" d="M199.48,-396.42C159.75,-430.81 80.3,-511.24 96,-593"/>
</g>
<!-- click&#45;&gt;typing_extensions -->
<g id="edge68" class="edge">
<title>click&#45;&gt;typing_extensions</title><style>.edge>path:hover{stroke-width:8}</style>
<path fill="none" stroke="black" d="M96,-595C109.98,-656.54 67.38,-680.75 96,-737"/>
<path fill="none" stroke="black" d="M54.26,-538.9C71.57,-551.07 91.53,-569.71 96,-593"/>
<path fill="none" stroke="black" d="M96,-739C101.28,-749.03 104.67,-751.35 115,-756 177.63,-784.22 444.68,-727.16 422,-792"/>
<path fill="none" stroke="black" d="M422,-793C419.31,-800.7 418.48,-809.43 418.55,-817.55"/>
<polygon fill="#8b8722" stroke="black" points="415.04,-817.51 419.09,-827.3 422.03,-817.12 415.04,-817.51"/>
</g>
<!-- cryptography -->
<g id="node12" class="node">
<title>cryptography</title><style>.edge>path:hover{stroke-width:8}</style>
<polygon fill="#a7c431" stroke="black" points="112.12,-396 109.12,-400 88.12,-400 85.12,-396 39.88,-396 39.88,-360 112.12,-360 112.12,-396"/>
<text text-anchor="middle" x="76" y="-374.12" font-family="Helvetica,sans-Serif" font-size="10.00" fill="#000000">cryptography</text>
</g>
<!-- dependency_injector&#45;&gt;fastapi -->
<g id="edge29" class="edge">
<title>dependency_injector&#45;&gt;fastapi</title><style>.edge>path:hover{stroke-width:8}</style>
<path fill="none" stroke="black" d="M689.72,-324.49C676.07,-337.97 661.94,-357.53 668,-377"/>
</g>
<!-- starlette -->
<g id="node30" class="node">
<title>starlette</title><style>.edge>path:hover{stroke-width:8}</style>
<polygon fill="#f91080" stroke="black" points="846,-540 843,-544 822,-544 819,-540 792,-540 792,-504 846,-504 846,-540"/>
<text text-anchor="middle" x="819" y="-518.12" font-family="Helvetica,sans-Serif" font-size="10.00" fill="#ffffff">starlette</text>
</g>
<!-- dependency_injector&#45;&gt;starlette -->
<g id="edge62" class="edge">
<title>dependency_injector&#45;&gt;starlette</title><style>.edge>path:hover{stroke-width:8}</style>
<path fill="none" stroke="black" d="M720.21,-324.31C732.95,-348.36 756.59,-393.3 776,-432 786.26,-452.45 797.49,-475.74 805.91,-493.37"/>
<polygon fill="#8dce3b" stroke="black" points="802.64,-494.64 810.1,-502.16 808.96,-491.63 802.64,-494.64"/>
</g>
<!-- dotenv -->
<g id="node14" class="node">
<title>dotenv</title><style>.edge>path:hover{stroke-width:8}</style>
<polygon fill="#6fc247" stroke="black" points="288,-756 285,-760 264,-760 261,-756 234,-756 234,-720 288,-720 288,-756"/>
<text text-anchor="middle" x="261" y="-734.12" font-family="Helvetica,sans-Serif" font-size="10.00" fill="#000000">dotenv</text>
</g>
<!-- ecdsa -->
<g id="node15" class="node">
<title>ecdsa</title><style>.edge>path:hover{stroke-width:8}</style>
<polygon fill="#34d926" stroke="black" points="94,-468 91,-472 70,-472 67,-468 40,-468 40,-432 94,-432 94,-468"/>
<text text-anchor="middle" x="67" y="-446.12" font-family="Helvetica,sans-Serif" font-size="10.00" fill="#000000">ecdsa</text>
</g>
<!-- email_validator -->
<g id="node16" class="node">
<title>email_validator</title><style>.edge>path:hover{stroke-width:8}</style>
<polygon fill="#16ca33" stroke="black" points="663.62,-756 660.62,-760 639.62,-760 636.62,-756 582.38,-756 582.38,-720 663.62,-720 663.62,-756"/>
<text text-anchor="middle" x="623" y="-734.12" font-family="Helvetica,sans-Serif" font-size="10.00" fill="#000000">email_validator</text>
</g>
<!-- fastapi&#45;&gt;anyio -->
<g id="edge3" class="edge">
<title>fastapi&#45;&gt;anyio</title><style>.edge>path:hover{stroke-width:8}</style>
<path fill="none" stroke="black" d="M723,-595C718.41,-630.4 761.2,-648.74 794.75,-657.62"/>
<polygon fill="#03953e" stroke="black" points="793.68,-660.96 804.22,-659.92 795.33,-654.16 793.68,-660.96"/>
</g>
<!-- fastapi&#45;&gt;email_validator -->
<g id="edge24" class="edge">
<title>fastapi&#45;&gt;email_validator</title><style>.edge>path:hover{stroke-width:8}</style>
<path fill="none" stroke="black" d="M668,-667C663.43,-682.82 654.01,-698.42 644.97,-710.87"/>
<polygon fill="#03953e" stroke="black" points="642.41,-708.45 639.13,-718.52 647.98,-712.7 642.41,-708.45"/>
<path fill="none" stroke="black" d="M723,-595C717.91,-634.24 678.98,-626.99 668,-665"/>
</g>
<!-- multipart -->
<g id="node21" class="node">
<title>multipart</title><style>.edge>path:hover{stroke-width:8}</style>
<polygon fill="#3395cc" stroke="black" points="750,-684 747,-688 726,-688 723,-684 696,-684 696,-648 750,-648 750,-684"/>
<text text-anchor="middle" x="723" y="-662.12" font-family="Helvetica,sans-Serif" font-size="10.00" fill="#ffffff">multipart</text>
</g>
<!-- fastapi&#45;&gt;multipart -->
<g id="edge34" class="edge">
<title>fastapi&#45;&gt;multipart</title><style>.edge>path:hover{stroke-width:8}</style>
<path fill="none" stroke="black" d="M723,-595C721.25,-608.52 721.03,-623.63 721.34,-636.34"/>
<polygon fill="#03953e" stroke="black" points="717.83,-636.29 721.71,-646.15 724.83,-636.02 717.83,-636.29"/>
</g>
<!-- fastapi&#45;&gt;pydantic -->
<g id="edge40" class="edge">
<title>fastapi&#45;&gt;pydantic</title><style>.edge>path:hover{stroke-width:8}</style>
<path fill="none" stroke="black" d="M723,-523C699.82,-563.28 646.27,-580.55 609.35,-587.84"/>
<polygon fill="#03953e" stroke="black" points="609.18,-584.32 599.96,-589.53 610.42,-591.2 609.18,-584.32"/>
<path fill="none" stroke="black" d="M738.52,-468.41C736.64,-483.22 732.42,-504.63 723,-521"/>
</g>
<!-- pydantic_core -->
<g id="node24" class="node">
<title>pydantic_core</title><style>.edge>path:hover{stroke-width:8}</style>
<polygon fill="#1705e5" stroke="black" points="526.38,-756 523.38,-760 502.38,-760 499.38,-756 449.62,-756 449.62,-720 526.38,-720 526.38,-756"/>
<text text-anchor="middle" x="488" y="-734.12" font-family="Helvetica,sans-Serif" font-size="10.00" fill="#ffffff">pydantic_core</text>
</g>
<!-- fastapi&#45;&gt;pydantic_core -->
<g id="edge44" class="edge">
<title>fastapi&#45;&gt;pydantic_core</title><style>.edge>path:hover{stroke-width:8}</style>
<path fill="none" stroke="black" d="M723,-595C721.56,-606.07 596.33,-677.01 529.29,-714.25"/>
<polygon fill="#03953e" stroke="black" points="527.82,-711.06 520.78,-718.97 531.22,-717.18 527.82,-711.06"/>
<path fill="none" stroke="black" d="M723,-523C707.48,-549.97 726,-562.03 723,-593"/>
</g>
<!-- python_multipart -->
<g id="node26" class="node">
<title>python_multipart</title><style>.edge>path:hover{stroke-width:8}</style>
<polygon fill="#8c19e6" stroke="black" points="770,-756 767,-760 746,-760 743,-756 682,-756 682,-720 770,-720 770,-756"/>
<text text-anchor="middle" x="726" y="-734.12" font-family="Helvetica,sans-Serif" font-size="10.00" fill="#ffffff">python_multipart</text>
</g>
<!-- fastapi&#45;&gt;python_multipart -->
<g id="edge49" class="edge">
<title>fastapi&#45;&gt;python_multipart</title><style>.edge>path:hover{stroke-width:8}</style>
<path fill="none" stroke="black" d="M668,-667C662.96,-684.45 674.18,-700.36 688.05,-712.59"/>
<polygon fill="#03953e" stroke="black" points="685.75,-715.23 695.73,-718.76 690.13,-709.77 685.75,-715.23"/>
</g>
<!-- fastapi&#45;&gt;starlette -->
<g id="edge63" class="edge">
<title>fastapi&#45;&gt;starlette</title><style>.edge>path:hover{stroke-width:8}</style>
<path fill="none" stroke="black" d="M759.53,-468.3C769.02,-476.72 780.61,-486.98 791.02,-496.21"/>
<polygon fill="#03953e" stroke="black" points="788.48,-498.64 798.29,-502.65 793.13,-493.4 788.48,-498.64"/>
</g>
<!-- fastapi&#45;&gt;typing_extensions -->
<g id="edge69" class="edge">
<title>fastapi&#45;&gt;typing_extensions</title><style>.edge>path:hover{stroke-width:8}</style>
<path fill="none" stroke="black" d="M767.36,-453.55C804.45,-458.76 868.32,-474.39 888,-521"/>
<path fill="none" stroke="black" d="M888,-523C912.55,-581.14 875.62,-603.11 888,-665"/>
</g>
<!-- fastapi_pagination&#45;&gt;fastapi -->
<g id="edge30" class="edge">
<title>fastapi_pagination&#45;&gt;fastapi</title><style>.edge>path:hover{stroke-width:8}</style>
<path fill="none" stroke="black" d="M706,-379C695.41,-392.1 703.2,-409.04 713.98,-422.98"/>
<polygon fill="#38a880" stroke="black" points="711.21,-425.13 720.35,-430.48 716.54,-420.59 711.21,-425.13"/>
</g>
<!-- fastapi_pagination&#45;&gt;pydantic -->
<g id="edge41" class="edge">
<title>fastapi_pagination&#45;&gt;pydantic</title><style>.edge>path:hover{stroke-width:8}</style>
<path fill="none" stroke="black" d="M706,-379C685.57,-404.26 681.24,-416.74 685,-449"/>
</g>
<!-- fastapi_pagination&#45;&gt;sqlalchemy -->
<g id="edge58" class="edge">
<title>fastapi_pagination&#45;&gt;sqlalchemy</title><style>.edge>path:hover{stroke-width:8}</style>
<path fill="none" stroke="black" d="M706,-379C640.91,-459.48 542.61,-533 490.44,-569.26"/>
<polygon fill="#38a880" stroke="black" points="488.75,-566.18 482.5,-574.73 492.72,-571.94 488.75,-566.18"/>
<path fill="none" stroke="black" d="M819.51,-322.38C777.77,-336.82 721.34,-358.84 706,-377"/>
</g>
<!-- fastapi_pagination&#45;&gt;starlette -->
<g id="edge64" class="edge">
<title>fastapi_pagination&#45;&gt;starlette</title><style>.edge>path:hover{stroke-width:8}</style>
<path fill="none" stroke="black" d="M873.61,-324.21C883.03,-351.07 898.1,-404.53 888,-449"/>
<path fill="none" stroke="black" d="M888,-451C883.77,-470.04 869.57,-486.03 855.14,-497.9"/>
<polygon fill="#38a880" stroke="black" points="853.22,-494.96 847.41,-503.82 857.48,-500.51 853.22,-494.96"/>
</g>
<!-- fastapi_pagination&#45;&gt;typing_extensions -->
<g id="edge70" class="edge">
<title>fastapi_pagination&#45;&gt;typing_extensions</title><style>.edge>path:hover{stroke-width:8}</style>
<path fill="none" stroke="black" d="M888,-451C881.26,-481.37 875.1,-492.69 888,-521"/>
</g>
<!-- greenlet -->
<g id="node19" class="node">
<title>greenlet</title><style>.edge>path:hover{stroke-width:8}</style>
<polygon fill="#53b6aa" stroke="black" points="178,-756 175,-760 154,-760 151,-756 124,-756 124,-720 178,-720 178,-756"/>
<text text-anchor="middle" x="151" y="-734.12" font-family="Helvetica,sans-Serif" font-size="10.00" fill="#000000">greenlet</text>
</g>
<!-- jose&#45;&gt;cryptography -->
<g id="edge18" class="edge">
<title>jose&#45;&gt;cryptography</title><style>.edge>path:hover{stroke-width:8}</style>
<path fill="none" stroke="black" d="M124.18,-324.3C116.66,-332.53 107.53,-342.52 99.24,-351.58"/>
<polygon fill="#19cde6" stroke="black" points="96.82,-349.04 92.66,-358.78 101.99,-353.76 96.82,-349.04"/>
</g>
<!-- jose&#45;&gt;ecdsa -->
<g id="edge23" class="edge">
<title>jose&#45;&gt;ecdsa</title><style>.edge>path:hover{stroke-width:8}</style>
<path fill="none" stroke="black" d="M139.24,-324.42C137.77,-343.15 133.48,-373.29 121,-396 115.31,-406.36 106.94,-415.99 98.49,-424.12"/>
<polygon fill="#19cde6" stroke="black" points="96.28,-421.39 91.22,-430.7 100.98,-426.58 96.28,-421.39"/>
</g>
<!-- multipart&#45;&gt;python_multipart -->
<g id="edge50" class="edge">
<title>multipart&#45;&gt;python_multipart</title><style>.edge>path:hover{stroke-width:8}</style>
<path fill="none" stroke="black" d="M723.74,-684.3C724.05,-691.59 724.43,-700.27 724.78,-708.46"/>
<polygon fill="#3395cc" stroke="black" points="721.28,-708.54 725.2,-718.38 728.27,-708.24 721.28,-708.54"/>
</g>
<!-- pydantic&#45;&gt;annotated_types -->
<g id="edge1" class="edge">
<title>pydantic&#45;&gt;annotated_types</title><style>.edge>path:hover{stroke-width:8}</style>
<path fill="none" stroke="black" d="M478,-667C449.91,-683.35 417.82,-700.9 392.8,-714.33"/>
<polygon fill="#031b95" stroke="black" points="391.39,-711.12 384.22,-718.92 394.69,-717.29 391.39,-711.12"/>
</g>
<!-- pydantic&#45;&gt;dotenv -->
<g id="edge21" class="edge">
<title>pydantic&#45;&gt;dotenv</title><style>.edge>path:hover{stroke-width:8}</style>
<path fill="none" stroke="black" d="M550.93,-612.32C532.72,-627.48 504.72,-649.45 478,-665"/>
<path fill="none" stroke="black" d="M478,-667C408.53,-707.44 377.91,-691.69 298.76,-719.71"/>
<polygon fill="#031b95" stroke="black" points="297.92,-716.29 289.75,-723.03 300.34,-722.86 297.92,-716.29"/>
</g>
<!-- pydantic&#45;&gt;email_validator -->
<g id="edge25" class="edge">
<title>pydantic&#45;&gt;email_validator</title><style>.edge>path:hover{stroke-width:8}</style>
<path fill="none" stroke="black" d="M577.38,-612.41C586.23,-636.6 602.36,-680.64 612.87,-709.35"/>
<polygon fill="#031b95" stroke="black" points="609.49,-710.28 616.21,-718.47 616.06,-707.87 609.49,-710.28"/>
</g>
<!-- pydantic&#45;&gt;pydantic_core -->
<g id="edge45" class="edge">
<title>pydantic&#45;&gt;pydantic_core</title><style>.edge>path:hover{stroke-width:8}</style>
<path fill="none" stroke="black" d="M554,-667C547.9,-684.75 534.44,-700.41 521.25,-712.39"/>
<polygon fill="#031b95" stroke="black" points="519.17,-709.56 513.86,-718.73 523.73,-714.88 519.17,-709.56"/>
<path fill="none" stroke="black" d="M567.75,-612.23C564.82,-626.55 560.05,-647.38 554,-665"/>
</g>
<!-- pydantic&#45;&gt;typing_extensions -->
<g id="edge71" class="edge">
<title>pydantic&#45;&gt;typing_extensions</title><style>.edge>path:hover{stroke-width:8}</style>
<path fill="none" stroke="black" d="M554,-667C540.86,-705.25 562.16,-726.03 535,-756 499.6,-795.05 439.8,-742.39 422,-792"/>
</g>
<!-- pydantic_core&#45;&gt;typing_extensions -->
<g id="edge72" class="edge">
<title>pydantic_core&#45;&gt;typing_extensions</title><style>.edge>path:hover{stroke-width:8}</style>
<path fill="none" stroke="black" d="M453.01,-756.42C440.12,-765.05 427.36,-776.9 422,-792"/>
</g>
<!-- pydantic_settings&#45;&gt;dotenv -->
<g id="edge22" class="edge">
<title>pydantic_settings&#45;&gt;dotenv</title><style>.edge>path:hover{stroke-width:8}</style>
<path fill="none" stroke="black" d="M168,-667C151.11,-694.02 190.3,-714.31 222.91,-725.91"/>
<polygon fill="#603ab0" stroke="black" points="221.59,-729.16 232.18,-729.03 223.82,-722.52 221.59,-729.16"/>
</g>
<!-- pydantic_settings&#45;&gt;pydantic -->
<g id="edge42" class="edge">
<title>pydantic_settings&#45;&gt;pydantic</title><style>.edge>path:hover{stroke-width:8}</style>
<path fill="none" stroke="black" d="M396.65,-468.36C413.8,-478.35 435.41,-491.38 454,-504 462.63,-509.85 507.89,-544.48 539.52,-568.78"/>
<polygon fill="#603ab0" stroke="black" points="537.18,-571.39 547.24,-574.71 541.44,-565.84 537.18,-571.39"/>
</g>
<!-- pydantic_settings&#45;&gt;pydantic_core -->
<g id="edge46" class="edge">
<title>pydantic_settings&#45;&gt;pydantic_core</title><style>.edge>path:hover{stroke-width:8}</style>
<path fill="none" stroke="black" d="M394,-595C372.84,-639.03 418.15,-685.38 452.95,-712.71"/>
<polygon fill="#603ab0" stroke="black" points="450.69,-715.39 460.76,-718.65 454.92,-709.81 450.69,-715.39"/>
</g>
<!-- pydantic_settings&#45;&gt;typing_extensions -->
<g id="edge73" class="edge">
<title>pydantic_settings&#45;&gt;typing_extensions</title><style>.edge>path:hover{stroke-width:8}</style>
<path fill="none" stroke="black" d="M394,-595C344.82,-687.94 223.75,-575.84 168,-665"/>
<path fill="none" stroke="black" d="M376.28,-468.23C391.44,-496.05 415.74,-551.91 394,-593"/>
<path fill="none" stroke="black" d="M168,-667C144.34,-704.84 75.21,-697.5 96,-737"/>
</g>
<!-- python_multipart&#45;&gt;typing_extensions -->
<g id="edge74" class="edge">
<title>python_multipart&#45;&gt;typing_extensions</title><style>.edge>path:hover{stroke-width:8}</style>
<path fill="none" stroke="black" d="M681.62,-753.83C678.72,-754.62 675.82,-755.35 673,-756 618.09,-768.65 440.84,-738.9 422,-792"/>
</g>
<!-- sqlalchemy&#45;&gt;greenlet -->
<g id="edge32" class="edge">
<title>sqlalchemy&#45;&gt;greenlet</title><style>.edge>path:hover{stroke-width:8}</style>
<path fill="none" stroke="black" d="M206,-667C191.95,-679.92 178.66,-696.67 168.66,-710.54"/>
<polygon fill="#a904a3" stroke="black" points="166.05,-708.17 163.17,-718.36 171.78,-712.19 166.05,-708.17"/>
<path fill="none" stroke="black" d="M422,-607.36C417.32,-608.99 412.56,-610.58 408,-612 319.38,-639.59 274.31,-602.16 206,-665"/>
</g>
<!-- sqlalchemy&#45;&gt;typing_extensions -->
<g id="edge75" class="edge">
<title>sqlalchemy&#45;&gt;typing_extensions</title><style>.edge>path:hover{stroke-width:8}</style>
<path fill="none" stroke="black" d="M206,-667C176.23,-694.38 195.98,-727.83 225,-756 288.86,-818 451.76,-708.12 422,-792"/>
</g>
<!-- sqlmodel&#45;&gt;annotated_types -->
<g id="edge2" class="edge">
<title>sqlmodel&#45;&gt;annotated_types</title><style>.edge>path:hover{stroke-width:8}</style>
<path fill="none" stroke="black" d="M516,-523C525.72,-552.55 527.26,-564 516,-593"/>
<path fill="none" stroke="black" d="M402,-667C391.7,-681.65 379.81,-697.7 370.01,-710.74"/>
<polygon fill="#832067" stroke="black" points="367.44,-708.34 364.2,-718.43 373.02,-712.56 367.44,-708.34"/>
<path fill="none" stroke="black" d="M516,-595C494.48,-650.42 436.21,-616.37 402,-665"/>
<path fill="none" stroke="black" d="M500.55,-468.38C504.38,-482.61 510.15,-503.23 516,-521"/>
</g>
<!-- sqlmodel&#45;&gt;pydantic -->
<g id="edge43" class="edge">
<title>sqlmodel&#45;&gt;pydantic</title><style>.edge>path:hover{stroke-width:8}</style>
<path fill="none" stroke="black" d="M516,-523C521.44,-539.54 532.75,-555.08 543.7,-567.29"/>
<polygon fill="#832067" stroke="black" points="541.07,-569.61 550.48,-574.47 546.15,-564.8 541.07,-569.61"/>
</g>
<!-- sqlmodel&#45;&gt;pydantic_core -->
<g id="edge47" class="edge">
<title>sqlmodel&#45;&gt;pydantic_core</title><style>.edge>path:hover{stroke-width:8}</style>
<path fill="none" stroke="black" d="M516,-595C502.78,-633 495.14,-679.02 491.28,-708.16"/>
<polygon fill="#832067" stroke="black" points="487.81,-707.68 490.03,-718.04 494.75,-708.55 487.81,-707.68"/>
</g>
<!-- sqlmodel&#45;&gt;sqlalchemy -->
<g id="edge59" class="edge">
<title>sqlmodel&#45;&gt;sqlalchemy</title><style>.edge>path:hover{stroke-width:8}</style>
<path fill="none" stroke="black" d="M472.41,-468.26C457.91,-480.93 441.78,-499.6 440,-521"/>
</g>
<!-- sqlmodel&#45;&gt;typing_extensions -->
<g id="edge76" class="edge">
<title>sqlmodel&#45;&gt;typing_extensions</title><style>.edge>path:hover{stroke-width:8}</style>
<path fill="none" stroke="black" d="M402,-667C385.81,-690.01 431.29,-765.45 422,-792"/>
</g>
<!-- starlette&#45;&gt;anyio -->
<g id="edge4" class="edge">
<title>starlette&#45;&gt;anyio</title><style>.edge>path:hover{stroke-width:8}</style>
<path fill="none" stroke="black" d="M828,-595C826.78,-608.61 827.59,-623.73 828.88,-636.43"/>
<polygon fill="#f91080" stroke="black" points="825.39,-636.7 830.04,-646.22 832.34,-635.88 825.39,-636.7"/>
</g>
<!-- starlette&#45;&gt;multipart -->
<g id="edge35" class="edge">
<title>starlette&#45;&gt;multipart</title><style>.edge>path:hover{stroke-width:8}</style>
<path fill="none" stroke="black" d="M828,-595C826.52,-611.54 789.96,-633.05 760.39,-647.83"/>
<polygon fill="#f91080" stroke="black" points="759.11,-644.56 751.66,-652.1 762.18,-650.85 759.11,-644.56"/>
<path fill="none" stroke="black" d="M823.32,-540.22C826.36,-554.36 829.62,-574.94 828,-593"/>
</g>
<!-- starlette&#45;&gt;python_multipart -->
<g id="edge51" class="edge">
<title>starlette&#45;&gt;python_multipart</title><style>.edge>path:hover{stroke-width:8}</style>
<path fill="none" stroke="black" d="M828,-595C826.78,-608.66 776.47,-673.78 746.97,-710.91"/>
<polygon fill="#f91080" stroke="black" points="744.41,-708.51 740.91,-718.51 749.88,-712.88 744.41,-708.51"/>
</g>
<!-- starlette&#45;&gt;typing_extensions -->
<g id="edge77" class="edge">
<title>starlette&#45;&gt;typing_extensions</title><style>.edge>path:hover{stroke-width:8}</style>
<path fill="none" stroke="black" d="M828,-595C824.62,-635.84 879.96,-624.82 888,-665"/>
<path fill="none" stroke="black" d="M888,-667C894.1,-697.51 904.12,-710.39 888,-737"/>
</g>
</g>
</svg>
