<?xml version="1.0" encoding="UTF-8" standalone="no"?>
<!DOCTYPE svg PUBLIC "-//W3C//DTD SVG 1.1//EN"
 "http://www.w3.org/Graphics/SVG/1.1/DTD/svg11.dtd">
<!-- Generated by graphviz version 12.2.0 (20241103.1931)
 -->
<!-- Title: G Pages: 1 -->
<svg width="742pt" height="591pt"
 viewBox="0.00 0.00 742.13 590.80" xmlns="http://www.w3.org/2000/svg" xmlns:xlink="http://www.w3.org/1999/xlink">
<g id="graph0" class="graph" transform="scale(1 1) rotate(0) translate(4 586.8)">
<title>G</title><style>.edge>path:hover{stroke-width:8}</style>
<polygon fill="white" stroke="none" points="-4,4 -4,-586.8 738.13,-586.8 738.13,4 -4,4"/>
<!-- app_application -->
<g id="node1" class="node">
<title>app_application</title><style>.edge>path:hover{stroke-width:8}</style>
<ellipse fill="#e72222" stroke="black" cx="352.74" cy="-402.97" rx="36.98" ry="18"/>
<text text-anchor="middle" x="352.74" y="-399.09" font-family="Helvetica,sans-Serif" font-size="10.00" fill="#ffffff">application</text>
</g>
<!-- app_application_dto -->
<g id="node2" class="node">
<title>app_application_dto</title><style>.edge>path:hover{stroke-width:8}</style>
<ellipse fill="#a32828" stroke="black" cx="491.74" cy="-402.97" rx="46.32" ry="21.57"/>
<text text-anchor="middle" x="491.74" y="-404.72" font-family="Helvetica,sans-Serif" font-size="10.00" fill="#ffffff">application.</text>
<text text-anchor="middle" x="491.74" y="-393.47" font-family="Helvetica,sans-Serif" font-size="10.00" fill="#ffffff">dto</text>
</g>
<!-- app_domain -->
<g id="node6" class="node">
<title>app_domain</title><style>.edge>path:hover{stroke-width:8}</style>
<ellipse fill="#f91010" stroke="black" cx="242.74" cy="-561.23" rx="28.11" ry="18"/>
<text text-anchor="middle" x="242.74" y="-557.36" font-family="Helvetica,sans-Serif" font-size="10.00" fill="#ffffff">domain</text>
</g>
<!-- app_application_dto&#45;&gt;app_domain -->
<g id="edge11" class="edge">
<title>app_application_dto&#45;&gt;app_domain</title><style>.edge>path:hover{stroke-width:8}</style>
<path fill="none" stroke="black" d="M524.3,-418.71C552.4,-433.51 585.85,-457.44 567.74,-481.1"/>
<path fill="none" stroke="black" d="M567.74,-483.1C559.2,-494.26 556.41,-497.59 543.74,-503.67 456.77,-545.37 341.91,-556.38 282.36,-559.25"/>
<polygon fill="#a32828" stroke="black" points="282.57,-555.74 272.73,-559.66 282.87,-562.73 282.57,-555.74"/>
</g>
<!-- app_domain_entities -->
<g id="node7" class="node">
<title>app_domain_entities</title><style>.edge>path:hover{stroke-width:8}</style>
<ellipse fill="#e50505" stroke="black" cx="160.74" cy="-561.23" rx="35.71" ry="21.57"/>
<text text-anchor="middle" x="160.74" y="-562.98" font-family="Helvetica,sans-Serif" font-size="10.00" fill="#ffffff">domain.</text>
<text text-anchor="middle" x="160.74" y="-551.73" font-family="Helvetica,sans-Serif" font-size="10.00" fill="#ffffff">entities</text>
</g>
<!-- app_application_dto&#45;&gt;app_domain_entities -->
<g id="edge17" class="edge">
<title>app_application_dto&#45;&gt;app_domain_entities</title><style>.edge>path:hover{stroke-width:8}</style>
<path fill="none" stroke="black" d="M468.78,-422.1C439.77,-444.21 387.61,-481.37 337.74,-503.67 282.23,-528.49 262.92,-518.96 205.74,-539.67 203.38,-540.52 200.97,-541.45 198.55,-542.43"/>
<polygon fill="#a32828" stroke="black" points="197.27,-539.17 189.44,-546.3 200.02,-545.61 197.27,-539.17"/>
</g>
<!-- app_domain_value_objects -->
<g id="node12" class="node">
<title>app_domain_value_objects</title><style>.edge>path:hover{stroke-width:8}</style>
<ellipse fill="#ce3b3b" stroke="black" cx="53.74" cy="-561.23" rx="53.74" ry="21.57"/>
<text text-anchor="middle" x="53.74" y="-562.98" font-family="Helvetica,sans-Serif" font-size="10.00" fill="#ffffff">domain.</text>
<text text-anchor="middle" x="53.74" y="-551.73" font-family="Helvetica,sans-Serif" font-size="10.00" fill="#ffffff">value_objects</text>
</g>
<!-- app_application_dto&#45;&gt;app_domain_value_objects -->
<g id="edge29" class="edge">
<title>app_application_dto&#45;&gt;app_domain_value_objects</title><style>.edge>path:hover{stroke-width:8}</style>
<path fill="none" stroke="black" d="M455.62,-416.66C411.68,-432.19 342.71,-456.87 337.74,-460.53 318.31,-474.85 325.28,-490.99 304.74,-503.67 231.97,-548.58 198.5,-518.16 115.74,-539.67 111.95,-540.65 108.05,-541.75 104.15,-542.9"/>
<polygon fill="#a32828" stroke="black" points="103.17,-539.54 94.64,-545.84 105.23,-546.23 103.17,-539.54"/>
</g>
<!-- app_application_exc -->
<g id="node3" class="node">
<title>app_application_exc</title><style>.edge>path:hover{stroke-width:8}</style>
<ellipse fill="#bc2f2f" stroke="black" cx="639.74" cy="-402.97" rx="46.32" ry="21.57"/>
<text text-anchor="middle" x="639.74" y="-404.72" font-family="Helvetica,sans-Serif" font-size="10.00" fill="#ffffff">application.</text>
<text text-anchor="middle" x="639.74" y="-393.47" font-family="Helvetica,sans-Serif" font-size="10.00" fill="#ffffff">exc</text>
</g>
<!-- app_application_exc&#45;&gt;app_domain -->
<g id="edge12" class="edge">
<title>app_application_exc&#45;&gt;app_domain</title><style>.edge>path:hover{stroke-width:8}</style>
<path fill="none" stroke="black" d="M620.29,-422.69C605.13,-437.76 584,-459.86 567.74,-481.1"/>
</g>
<!-- app_domain_exc -->
<g id="node8" class="node">
<title>app_domain_exc</title><style>.edge>path:hover{stroke-width:8}</style>
<ellipse fill="#b65353" stroke="black" cx="639.74" cy="-482.1" rx="39.2" ry="18"/>
<text text-anchor="middle" x="639.74" y="-478.23" font-family="Helvetica,sans-Serif" font-size="10.00" fill="#ffffff">domain.exc</text>
</g>
<!-- app_application_exc&#45;&gt;app_domain_exc -->
<g id="edge23" class="edge">
<title>app_application_exc&#45;&gt;app_domain_exc</title><style>.edge>path:hover{stroke-width:8}</style>
<path fill="none" stroke="black" d="M639.74,-424.64C639.74,-433.14 639.74,-443.13 639.74,-452.33"/>
<polygon fill="#bc2f2f" stroke="black" points="636.24,-452.25 639.74,-462.25 643.24,-452.25 636.24,-452.25"/>
</g>
<!-- app_application_use_cases -->
<g id="node4" class="node">
<title>app_application_use_cases</title><style>.edge>path:hover{stroke-width:8}</style>
<ellipse fill="#822b2b" stroke="black" cx="603.74" cy="-323.83" rx="46.32" ry="21.57"/>
<text text-anchor="middle" x="603.74" y="-325.58" font-family="Helvetica,sans-Serif" font-size="10.00" fill="#ffffff">application.</text>
<text text-anchor="middle" x="603.74" y="-314.33" font-family="Helvetica,sans-Serif" font-size="10.00" fill="#ffffff">use_cases</text>
</g>
<!-- app_application_use_cases&#45;&gt;app_application_dto -->
<g id="edge4" class="edge">
<title>app_application_use_cases&#45;&gt;app_application_dto</title><style>.edge>path:hover{stroke-width:8}</style>
<path fill="none" stroke="black" d="M578.33,-342.34C563,-352.89 543.27,-366.48 526.52,-378.01"/>
<polygon fill="#822b2b" stroke="black" points="524.55,-375.12 518.3,-383.68 528.52,-380.89 524.55,-375.12"/>
</g>
<!-- app_application_use_cases&#45;&gt;app_application_exc -->
<g id="edge6" class="edge">
<title>app_application_use_cases&#45;&gt;app_application_exc</title><style>.edge>path:hover{stroke-width:8}</style>
<path fill="none" stroke="black" d="M613.2,-345.1C616.93,-353.1 621.3,-362.46 625.41,-371.25"/>
<polygon fill="#822b2b" stroke="black" points="622.18,-372.62 629.58,-380.2 628.52,-369.66 622.18,-372.62"/>
</g>
<!-- app_application_use_cases&#45;&gt;app_domain -->
<g id="edge13" class="edge">
<title>app_application_use_cases&#45;&gt;app_domain</title><style>.edge>path:hover{stroke-width:8}</style>
<path fill="none" stroke="black" d="M565.74,-403.97C549.83,-434.35 588.58,-453.87 567.74,-481.1"/>
</g>
<!-- app_application_use_cases&#45;&gt;app_domain_entities -->
<g id="edge18" class="edge">
<title>app_application_use_cases&#45;&gt;app_domain_entities</title><style>.edge>path:hover{stroke-width:8}</style>
<path fill="none" stroke="black" d="M565.74,-403.97C542.26,-448.8 552.73,-475.42 510.74,-503.67 397.48,-579.85 337.18,-502.85 205.74,-539.67 203.16,-540.39 200.54,-541.24 197.92,-542.18"/>
<polygon fill="#822b2b" stroke="black" points="196.73,-538.89 188.76,-545.86 199.34,-545.39 196.73,-538.89"/>
</g>
<!-- app_domain_repositories -->
<g id="node10" class="node">
<title>app_domain_repositories</title><style>.edge>path:hover{stroke-width:8}</style>
<ellipse fill="#b62020" stroke="black" cx="248.74" cy="-482.1" rx="46.85" ry="21.57"/>
<text text-anchor="middle" x="248.74" y="-483.85" font-family="Helvetica,sans-Serif" font-size="10.00" fill="#ffffff">domain.</text>
<text text-anchor="middle" x="248.74" y="-472.6" font-family="Helvetica,sans-Serif" font-size="10.00" fill="#ffffff">repositories</text>
</g>
<!-- app_application_use_cases&#45;&gt;app_domain_repositories -->
<g id="edge25" class="edge">
<title>app_application_use_cases&#45;&gt;app_domain_repositories</title><style>.edge>path:hover{stroke-width:8}</style>
<path fill="none" stroke="black" d="M567.26,-337.37C559.5,-340.03 551.35,-342.82 543.74,-345.4 496.23,-361.54 478.53,-353.63 436.74,-381.4 415.46,-395.54 419.76,-410.01 398.74,-424.53 389.88,-430.66 336.88,-450.06 296.37,-464.44"/>
<polygon fill="#822b2b" stroke="black" points="295.27,-461.12 287.01,-467.75 297.61,-467.72 295.27,-461.12"/>
</g>
<!-- app_domain_services -->
<g id="node11" class="node">
<title>app_domain_services</title><style>.edge>path:hover{stroke-width:8}</style>
<ellipse fill="#a44646" stroke="black" cx="464.74" cy="-482.1" rx="37.3" ry="21.57"/>
<text text-anchor="middle" x="464.74" y="-483.85" font-family="Helvetica,sans-Serif" font-size="10.00" fill="#ffffff">domain.</text>
<text text-anchor="middle" x="464.74" y="-472.6" font-family="Helvetica,sans-Serif" font-size="10.00" fill="#ffffff">services</text>
</g>
<!-- app_application_use_cases&#45;&gt;app_domain_services -->
<g id="edge28" class="edge">
<title>app_application_use_cases&#45;&gt;app_domain_services</title><style>.edge>path:hover{stroke-width:8}</style>
<path fill="none" stroke="black" d="M565.74,-403.97C552.25,-429.73 525.87,-449.41 503.46,-462.45"/>
<polygon fill="#822b2b" stroke="black" points="501.88,-459.32 494.82,-467.23 505.27,-465.45 501.88,-459.32"/>
<path fill="none" stroke="black" d="M594.01,-345.27C586.49,-360.9 575.71,-382.92 565.74,-401.97"/>
</g>
<!-- app_di_container -->
<g id="node5" class="node">
<title>app_di_container</title><style>.edge>path:hover{stroke-width:8}</style>
<ellipse fill="#883a3a" stroke="black" cx="242.74" cy="-90" rx="40.53" ry="18"/>
<text text-anchor="middle" x="242.74" y="-86.12" font-family="Helvetica,sans-Serif" font-size="10.00" fill="#ffffff">di_container</text>
</g>
<!-- app_di_container&#45;&gt;app_domain -->
<g id="edge14" class="edge">
<title>app_di_container&#45;&gt;app_domain</title><style>.edge>path:hover{stroke-width:8}</style>
<path fill="none" stroke="black" d="M244.74,-166.57C255.28,-299.49 290.9,-327.91 304.74,-460.53 306.73,-479.6 312.48,-486.13 304.74,-503.67 297.99,-518.96 284.83,-531.91 272.37,-541.55"/>
<polygon fill="#883a3a" stroke="black" points="270.38,-538.67 264.32,-547.36 274.48,-544.34 270.38,-538.67"/>
</g>
<!-- app_domain_factories -->
<g id="node9" class="node">
<title>app_domain_factories</title><style>.edge>path:hover{stroke-width:8}</style>
<ellipse fill="#a83838" stroke="black" cx="107.74" cy="-482.1" rx="37.83" ry="21.57"/>
<text text-anchor="middle" x="107.74" y="-483.85" font-family="Helvetica,sans-Serif" font-size="10.00" fill="#ffffff">domain.</text>
<text text-anchor="middle" x="107.74" y="-472.6" font-family="Helvetica,sans-Serif" font-size="10.00" fill="#ffffff">factories</text>
</g>
<!-- app_di_container&#45;&gt;app_domain_factories -->
<g id="edge24" class="edge">
<title>app_di_container&#45;&gt;app_domain_factories</title><style>.edge>path:hover{stroke-width:8}</style>
<path fill="none" stroke="black" d="M244.74,-166.57C249.4,-235.58 138.77,-166.02 99.74,-223.13 52.5,-292.27 78.49,-397.92 95.97,-449.95"/>
<polygon fill="#883a3a" stroke="black" points="92.66,-451.08 99.26,-459.36 99.27,-448.77 92.66,-451.08"/>
<path fill="none" stroke="black" d="M242.7,-108.27C242.79,-123.2 243.21,-145.33 244.74,-164.57"/>
</g>
<!-- app_infrastructure -->
<g id="node13" class="node">
<title>app_infrastructure</title><style>.edge>path:hover{stroke-width:8}</style>
<ellipse fill="#db2f2f" stroke="black" cx="382.74" cy="-165.57" rx="43.19" ry="18"/>
<text text-anchor="middle" x="382.74" y="-161.69" font-family="Helvetica,sans-Serif" font-size="10.00" fill="#ffffff">infrastructure</text>
</g>
<!-- app_di_container&#45;&gt;app_infrastructure -->
<g id="edge32" class="edge">
<title>app_di_container&#45;&gt;app_infrastructure</title><style>.edge>path:hover{stroke-width:8}</style>
<path fill="none" stroke="black" d="M268.09,-104.32C290.02,-115.84 321.97,-132.64 346.58,-145.57"/>
<polygon fill="#883a3a" stroke="black" points="344.81,-148.59 355.29,-150.14 348.06,-142.39 344.81,-148.59"/>
</g>
<!-- app_infrastructure_config -->
<g id="node14" class="node">
<title>app_infrastructure_config</title><style>.edge>path:hover{stroke-width:8}</style>
<ellipse fill="#ce3b3b" stroke="black" cx="451.74" cy="-244.7" rx="53.74" ry="21.57"/>
<text text-anchor="middle" x="451.74" y="-246.45" font-family="Helvetica,sans-Serif" font-size="10.00" fill="#ffffff">infrastructure.</text>
<text text-anchor="middle" x="451.74" y="-235.2" font-family="Helvetica,sans-Serif" font-size="10.00" fill="#ffffff">config</text>
</g>
<!-- app_di_container&#45;&gt;app_infrastructure_config -->
<g id="edge35" class="edge">
<title>app_di_container&#45;&gt;app_infrastructure_config</title><style>.edge>path:hover{stroke-width:8}</style>
<path fill="none" stroke="black" d="M244.74,-166.57C245.02,-170.72 340.09,-204.7 401.27,-226.15"/>
<polygon fill="#883a3a" stroke="black" points="399.88,-229.37 410.47,-229.37 402.19,-222.77 399.88,-229.37"/>
</g>
<!-- app_infrastructure_database -->
<g id="node15" class="node">
<title>app_infrastructure_database</title><style>.edge>path:hover{stroke-width:8}</style>
<ellipse fill="#c24747" stroke="black" cx="326.74" cy="-244.7" rx="53.74" ry="21.57"/>
<text text-anchor="middle" x="326.74" y="-246.45" font-family="Helvetica,sans-Serif" font-size="10.00" fill="#ffffff">infrastructure.</text>
<text text-anchor="middle" x="326.74" y="-235.2" font-family="Helvetica,sans-Serif" font-size="10.00" fill="#ffffff">database</text>
</g>
<!-- app_di_container&#45;&gt;app_infrastructure_database -->
<g id="edge38" class="edge">
<title>app_di_container&#45;&gt;app_infrastructure_database</title><style>.edge>path:hover{stroke-width:8}</style>
<path fill="none" stroke="black" d="M244.74,-166.57C246.33,-190.09 264.62,-208.57 283.53,-221.54"/>
<polygon fill="#883a3a" stroke="black" points="281.5,-224.39 291.81,-226.82 285.26,-218.49 281.5,-224.39"/>
</g>
<!-- app_infrastructure_repositories -->
<g id="node16" class="node">
<title>app_infrastructure_repositories</title><style>.edge>path:hover{stroke-width:8}</style>
<ellipse fill="#822b2b" stroke="black" cx="162.74" cy="-244.7" rx="53.74" ry="21.57"/>
<text text-anchor="middle" x="162.74" y="-246.45" font-family="Helvetica,sans-Serif" font-size="10.00" fill="#ffffff">infrastructure.</text>
<text text-anchor="middle" x="162.74" y="-235.2" font-family="Helvetica,sans-Serif" font-size="10.00" fill="#ffffff">repositories</text>
</g>
<!-- app_di_container&#45;&gt;app_infrastructure_repositories -->
<g id="edge40" class="edge">
<title>app_di_container&#45;&gt;app_infrastructure_repositories</title><style>.edge>path:hover{stroke-width:8}</style>
<path fill="none" stroke="black" d="M244.74,-166.57C246.36,-190.53 227.53,-209.26 207.5,-222.26"/>
<polygon fill="#883a3a" stroke="black" points="205.73,-219.25 198.96,-227.4 209.34,-225.25 205.73,-219.25"/>
</g>
<!-- app_domain_factories&#45;&gt;app_domain_entities -->
<g id="edge19" class="edge">
<title>app_domain_factories&#45;&gt;app_domain_entities</title><style>.edge>path:hover{stroke-width:8}</style>
<path fill="none" stroke="black" d="M121.11,-502.56C127.14,-511.33 134.38,-521.87 141.01,-531.52"/>
<polygon fill="#a83838" stroke="black" points="137.97,-533.27 146.51,-539.53 143.73,-529.31 137.97,-533.27"/>
</g>
<!-- app_domain_repositories&#45;&gt;app_domain_entities -->
<g id="edge20" class="edge">
<title>app_domain_repositories&#45;&gt;app_domain_entities</title><style>.edge>path:hover{stroke-width:8}</style>
<path fill="none" stroke="black" d="M227.44,-501.77C215.78,-511.99 201.2,-524.77 188.65,-535.77"/>
<polygon fill="#b62020" stroke="black" points="186.69,-532.83 181.48,-542.06 191.31,-538.1 186.69,-532.83"/>
</g>
<!-- app_domain_repositories&#45;&gt;app_domain_value_objects -->
<g id="edge30" class="edge">
<title>app_domain_repositories&#45;&gt;app_domain_value_objects</title><style>.edge>path:hover{stroke-width:8}</style>
<path fill="none" stroke="black" d="M213.88,-496.89C182.61,-509.26 136.42,-527.53 101.68,-541.27"/>
<polygon fill="#b62020" stroke="black" points="100.71,-537.89 92.7,-544.82 103.29,-544.4 100.71,-537.89"/>
</g>
<!-- app_domain_services&#45;&gt;app_domain_entities -->
<g id="edge21" class="edge">
<title>app_domain_services&#45;&gt;app_domain_entities</title><style>.edge>path:hover{stroke-width:8}</style>
<path fill="none" stroke="black" d="M435.72,-496.04C428.63,-498.85 420.99,-501.6 413.74,-503.67 323.51,-529.36 295.37,-511.94 205.74,-539.67 203.18,-540.46 200.57,-541.37 197.97,-542.34"/>
<polygon fill="#a44646" stroke="black" points="196.74,-539.06 188.83,-546.1 199.41,-545.54 196.74,-539.06"/>
</g>
<!-- app_infrastructure_repositories&#45;&gt;app_application -->
<g id="edge1" class="edge">
<title>app_infrastructure_repositories&#45;&gt;app_application</title><style>.edge>path:hover{stroke-width:8}</style>
<path fill="none" stroke="black" d="M185.66,-264.55C220.87,-293.51 288.14,-348.83 325.69,-379.72"/>
<polygon fill="#822b2b" stroke="black" points="323.44,-382.4 333.39,-386.05 327.89,-377 323.44,-382.4"/>
</g>
<!-- app_infrastructure_repositories&#45;&gt;app_application_exc -->
<g id="edge7" class="edge">
<title>app_infrastructure_repositories&#45;&gt;app_application_exc</title><style>.edge>path:hover{stroke-width:8}</style>
<path fill="none" stroke="black" d="M208.81,-256.19C225.98,-259.81 245.68,-263.61 263.74,-266.27 355.61,-279.77 640.52,-237.77 677.74,-322.83"/>
<path fill="none" stroke="black" d="M677.74,-324.83C685.01,-341.44 676.83,-359.64 666.23,-374.19"/>
<polygon fill="#822b2b" stroke="black" points="663.51,-371.99 660,-381.99 668.98,-376.37 663.51,-371.99"/>
</g>
<!-- app_infrastructure_repositories&#45;&gt;app_domain -->
<g id="edge15" class="edge">
<title>app_infrastructure_repositories&#45;&gt;app_domain</title><style>.edge>path:hover{stroke-width:8}</style>
<path fill="none" stroke="black" d="M173.74,-483.1C177.87,-507.16 197.05,-527.4 214.14,-541.11"/>
<polygon fill="#822b2b" stroke="black" points="212.01,-543.89 222.1,-547.12 216.23,-538.3 212.01,-543.89"/>
</g>
<!-- app_infrastructure_repositories&#45;&gt;app_domain_entities -->
<g id="edge22" class="edge">
<title>app_infrastructure_repositories&#45;&gt;app_domain_entities</title><style>.edge>path:hover{stroke-width:8}</style>
<path fill="none" stroke="black" d="M173.74,-403.97C169.71,-438.01 167.94,-447.31 173.74,-481.1"/>
<path fill="none" stroke="black" d="M173.74,-483.1C176.33,-498.16 174.13,-514.88 170.85,-528.89"/>
<polygon fill="#822b2b" stroke="black" points="167.49,-527.9 168.32,-538.47 174.26,-529.69 167.49,-527.9"/>
</g>
<!-- app_infrastructure_repositories&#45;&gt;app_domain_repositories -->
<g id="edge26" class="edge">
<title>app_infrastructure_repositories&#45;&gt;app_domain_repositories</title><style>.edge>path:hover{stroke-width:8}</style>
<path fill="none" stroke="black" d="M173.74,-403.97C171,-427.13 188.78,-446.06 207.72,-459.36"/>
<polygon fill="#822b2b" stroke="black" points="205.77,-462.26 216.05,-464.79 209.59,-456.4 205.77,-462.26"/>
</g>
<!-- app_infrastructure_repositories&#45;&gt;app_domain_value_objects -->
<g id="edge31" class="edge">
<title>app_infrastructure_repositories&#45;&gt;app_domain_value_objects</title><style>.edge>path:hover{stroke-width:8}</style>
<path fill="none" stroke="black" d="M166.68,-266.49C171.8,-296.48 179.46,-353.62 173.74,-401.97"/>
<path fill="none" stroke="black" d="M173.74,-403.97C167.15,-459.74 91.91,-413.82 60.74,-460.53 47.64,-480.17 46.48,-507.1 48.28,-528.02"/>
<polygon fill="#822b2b" stroke="black" points="44.78,-528.2 49.4,-537.73 51.73,-527.4 44.78,-528.2"/>
</g>
<!-- app_interfaces -->
<g id="node17" class="node">
<title>app_interfaces</title><style>.edge>path:hover{stroke-width:8}</style>
<ellipse fill="#ce3b3b" stroke="black" cx="374.74" cy="-90" rx="34.76" ry="18"/>
<text text-anchor="middle" x="374.74" y="-86.12" font-family="Helvetica,sans-Serif" font-size="10.00" fill="#ffffff">interfaces</text>
</g>
<!-- app_interfaces_controllers -->
<g id="node18" class="node">
<title>app_interfaces_controllers</title><style>.edge>path:hover{stroke-width:8}</style>
<ellipse fill="#822b2b" stroke="black" cx="533.74" cy="-165.57" rx="43.66" ry="21.57"/>
<text text-anchor="middle" x="533.74" y="-167.32" font-family="Helvetica,sans-Serif" font-size="10.00" fill="#ffffff">interfaces.</text>
<text text-anchor="middle" x="533.74" y="-156.07" font-family="Helvetica,sans-Serif" font-size="10.00" fill="#ffffff">controllers</text>
</g>
<!-- app_interfaces_controllers&#45;&gt;app_application -->
<g id="edge2" class="edge">
<title>app_interfaces_controllers&#45;&gt;app_application</title><style>.edge>path:hover{stroke-width:8}</style>
<path fill="none" stroke="black" d="M533.74,-245.7C529.27,-284.48 513.92,-290.71 491.74,-322.83"/>
<path fill="none" stroke="black" d="M491.74,-324.83C485.14,-334.4 427.04,-364.77 388.08,-384.43"/>
<polygon fill="#822b2b" stroke="black" points="386.86,-381.12 379.49,-388.74 390,-387.38 386.86,-381.12"/>
</g>
<!-- app_interfaces_controllers&#45;&gt;app_application_dto -->
<g id="edge5" class="edge">
<title>app_interfaces_controllers&#45;&gt;app_application_dto</title><style>.edge>path:hover{stroke-width:8}</style>
<path fill="none" stroke="black" d="M491.74,-324.83C482.79,-337.79 482.07,-355.11 483.89,-370.06"/>
<polygon fill="#822b2b" stroke="black" points="480.44,-370.64 485.55,-379.92 487.34,-369.48 480.44,-370.64"/>
</g>
<!-- app_interfaces_controllers&#45;&gt;app_application_use_cases -->
<g id="edge9" class="edge">
<title>app_interfaces_controllers&#45;&gt;app_application_use_cases</title><style>.edge>path:hover{stroke-width:8}</style>
<path fill="none" stroke="black" d="M533.74,-245.7C531.16,-268.04 547.6,-286.87 565.19,-300.33"/>
<polygon fill="#822b2b" stroke="black" points="562.99,-303.06 573.16,-306 567.04,-297.35 562.99,-303.06"/>
</g>
<!-- app_interfaces_controllers&#45;&gt;app_domain -->
<g id="edge16" class="edge">
<title>app_interfaces_controllers&#45;&gt;app_domain</title><style>.edge>path:hover{stroke-width:8}</style>
<path fill="none" stroke="black" d="M533.74,-245.7C535.29,-258.05 542.06,-259.88 552.74,-266.27 607.5,-299.03 651.73,-252.55 691.74,-302.27 747.87,-372.02 749.83,-439.16 687.74,-503.67 659.78,-532.71 385.95,-551.78 282.26,-558.01"/>
<polygon fill="#822b2b" stroke="black" points="282.05,-554.51 272.28,-558.6 282.47,-561.5 282.05,-554.51"/>
</g>
<!-- app_interfaces_controllers&#45;&gt;app_domain_repositories -->
<g id="edge27" class="edge">
<title>app_interfaces_controllers&#45;&gt;app_domain_repositories</title><style>.edge>path:hover{stroke-width:8}</style>
<path fill="none" stroke="black" d="M535.04,-187.59C535.68,-203.14 535.92,-224.81 533.74,-243.7"/>
<path fill="none" stroke="black" d="M533.74,-245.7C532.31,-258.06 524.53,-258.59 514.74,-266.27 431.61,-331.49 382.25,-307.49 306.74,-381.4 286.76,-400.96 271.31,-428.85 261.41,-450.16"/>
<polygon fill="#822b2b" stroke="black" points="258.23,-448.69 257.35,-459.25 264.62,-451.54 258.23,-448.69"/>
</g>
<!-- app_interfaces_views -->
<g id="node20" class="node">
<title>app_interfaces_views</title><style>.edge>path:hover{stroke-width:8}</style>
<ellipse fill="#c24747" stroke="black" cx="605.74" cy="-244.7" rx="43.66" ry="21.57"/>
<text text-anchor="middle" x="605.74" y="-246.45" font-family="Helvetica,sans-Serif" font-size="10.00" fill="#ffffff">interfaces.</text>
<text text-anchor="middle" x="605.74" y="-235.2" font-family="Helvetica,sans-Serif" font-size="10.00" fill="#ffffff">views</text>
</g>
<!-- app_interfaces_controllers&#45;&gt;app_interfaces_views -->
<g id="edge44" class="edge">
<title>app_interfaces_controllers&#45;&gt;app_interfaces_views</title><style>.edge>path:hover{stroke-width:8}</style>
<path fill="none" stroke="black" d="M551.54,-185.63C560.19,-194.9 570.75,-206.22 580.24,-216.38"/>
<polygon fill="#822b2b" stroke="black" points="577.48,-218.56 586.86,-223.48 582.6,-213.78 577.48,-218.56"/>
</g>
<!-- app_interfaces_middlewares -->
<g id="node19" class="node">
<title>app_interfaces_middlewares</title><style>.edge>path:hover{stroke-width:8}</style>
<ellipse fill="#964040" stroke="black" cx="645.74" cy="-165.57" rx="50.03" ry="21.57"/>
<text text-anchor="middle" x="645.74" y="-167.32" font-family="Helvetica,sans-Serif" font-size="10.00" fill="#ffffff">interfaces.</text>
<text text-anchor="middle" x="645.74" y="-156.07" font-family="Helvetica,sans-Serif" font-size="10.00" fill="#ffffff">middlewares</text>
</g>
<!-- app_interfaces_middlewares&#45;&gt;app_application -->
<g id="edge3" class="edge">
<title>app_interfaces_middlewares&#45;&gt;app_application</title><style>.edge>path:hover{stroke-width:8}</style>
<path fill="none" stroke="black" d="M677.74,-245.7C669.51,-289.95 605.25,-267.49 548.74,-302.27 525.69,-316.45 528.81,-331.25 505.74,-345.4 461.53,-372.52 442.82,-361.95 394.74,-381.4 392.42,-382.34 390.04,-383.35 387.66,-384.41"/>
<polygon fill="#964040" stroke="black" points="386.32,-381.17 378.72,-388.56 389.27,-387.52 386.32,-381.17"/>
<path fill="none" stroke="black" d="M661.21,-186.48C671.18,-201.65 681.61,-223.33 677.74,-243.7"/>
</g>
<!-- app_interfaces_middlewares&#45;&gt;app_application_exc -->
<g id="edge8" class="edge">
<title>app_interfaces_middlewares&#45;&gt;app_application_exc</title><style>.edge>path:hover{stroke-width:8}</style>
<path fill="none" stroke="black" d="M677.74,-245.7C671.47,-279.4 664,-291.43 677.74,-322.83"/>
</g>
<!-- app_interfaces_middlewares&#45;&gt;app_interfaces_views -->
<g id="edge45" class="edge">
<title>app_interfaces_middlewares&#45;&gt;app_interfaces_views</title><style>.edge>path:hover{stroke-width:8}</style>
<path fill="none" stroke="black" d="M635.23,-186.83C631.04,-194.92 626.12,-204.4 621.52,-213.28"/>
<polygon fill="#964040" stroke="black" points="618.51,-211.47 617.02,-221.96 624.73,-214.69 618.51,-211.47"/>
</g>
<!-- app_load_seeds -->
<g id="node21" class="node">
<title>app_load_seeds</title><style>.edge>path:hover{stroke-width:8}</style>
<ellipse fill="#924e4e" stroke="black" cx="504.74" cy="-90" rx="38.76" ry="18"/>
<text text-anchor="middle" x="504.74" y="-86.12" font-family="Helvetica,sans-Serif" font-size="10.00" fill="#ffffff">load_seeds</text>
</g>
<!-- app_load_seeds&#45;&gt;app_infrastructure -->
<g id="edge33" class="edge">
<title>app_load_seeds&#45;&gt;app_infrastructure</title><style>.edge>path:hover{stroke-width:8}</style>
<path fill="none" stroke="black" d="M481.79,-104.84C463.29,-116 437,-131.85 416.15,-144.42"/>
<polygon fill="#924e4e" stroke="black" points="414.47,-141.35 407.71,-149.51 418.08,-147.34 414.47,-141.35"/>
</g>
<!-- app_load_seeds&#45;&gt;app_infrastructure_config -->
<g id="edge36" class="edge">
<title>app_load_seeds&#45;&gt;app_infrastructure_config</title><style>.edge>path:hover{stroke-width:8}</style>
<path fill="none" stroke="black" d="M453.74,-166.57C444.26,-179.34 443.14,-196.85 444.67,-211.97"/>
<polygon fill="#924e4e" stroke="black" points="441.14,-212.05 446.04,-221.44 448.07,-211.04 441.14,-212.05"/>
</g>
<!-- app_load_seeds&#45;&gt;app_infrastructure_database -->
<g id="edge39" class="edge">
<title>app_load_seeds&#45;&gt;app_infrastructure_database</title><style>.edge>path:hover{stroke-width:8}</style>
<path fill="none" stroke="black" d="M453.74,-166.57C434.19,-192.89 402.74,-212.1 376.03,-224.75"/>
<polygon fill="#924e4e" stroke="black" points="374.72,-221.51 367.06,-228.83 377.61,-227.88 374.72,-221.51"/>
<path fill="none" stroke="black" d="M493.7,-107.58C483.57,-122.63 468.01,-145.35 453.74,-164.57"/>
</g>
<!-- app_main -->
<g id="node22" class="node">
<title>app_main</title><style>.edge>path:hover{stroke-width:8}</style>
<ellipse fill="#7e4444" stroke="black" cx="374.74" cy="-18" rx="27" ry="18"/>
<text text-anchor="middle" x="374.74" y="-14.12" font-family="Helvetica,sans-Serif" font-size="10.00" fill="#ffffff">main</text>
</g>
<!-- app_main&#45;&gt;app_di_container -->
<g id="edge10" class="edge">
<title>app_main&#45;&gt;app_di_container</title><style>.edge>path:hover{stroke-width:8}</style>
<path fill="none" stroke="black" d="M354.12,-29.94C333.81,-40.7 302.41,-57.36 278.11,-70.24"/>
<polygon fill="#7e4444" stroke="black" points="276.72,-67.02 269.53,-74.79 280,-73.2 276.72,-67.02"/>
</g>
<!-- app_main&#45;&gt;app_infrastructure -->
<g id="edge34" class="edge">
<title>app_main&#45;&gt;app_infrastructure</title><style>.edge>path:hover{stroke-width:8}</style>
<path fill="none" stroke="black" d="M390.6,-32.51C400.79,-42.29 413.14,-56.48 418.74,-72 424.17,-87.05 423.21,-92.64 418.74,-108 415.54,-119 409.48,-129.9 403.23,-139.15"/>
<polygon fill="#7e4444" stroke="black" points="400.4,-137.09 397.39,-147.25 406.08,-141.19 400.4,-137.09"/>
</g>
<!-- app_main&#45;&gt;app_infrastructure_config -->
<g id="edge37" class="edge">
<title>app_main&#45;&gt;app_infrastructure_config</title><style>.edge>path:hover{stroke-width:8}</style>
<path fill="none" stroke="black" d="M358.88,-32.51C348.69,-42.29 336.34,-56.48 330.74,-72 313.37,-120.13 303.27,-143.96 330.74,-187.13 339.03,-200.16 371.43,-214.94 400.61,-226.12"/>
<polygon fill="#7e4444" stroke="black" points="399.16,-229.31 409.75,-229.54 401.61,-222.76 399.16,-229.31"/>
</g>
<!-- app_main&#45;&gt;app_interfaces -->
<g id="edge41" class="edge">
<title>app_main&#45;&gt;app_interfaces</title><style>.edge>path:hover{stroke-width:8}</style>
<path fill="none" stroke="black" d="M374.74,-36.3C374.74,-43.59 374.74,-52.27 374.74,-60.46"/>
<polygon fill="#7e4444" stroke="black" points="371.24,-60.38 374.74,-70.38 378.24,-60.38 371.24,-60.38"/>
</g>
<!-- app_main&#45;&gt;app_interfaces_controllers -->
<g id="edge42" class="edge">
<title>app_main&#45;&gt;app_interfaces_controllers</title><style>.edge>path:hover{stroke-width:8}</style>
<path fill="none" stroke="black" d="M401.3,-22.4C458.12,-30.33 588.03,-52.24 608.74,-89"/>
<path fill="none" stroke="black" d="M608.74,-91C620.88,-112.55 599.11,-131.92 575.95,-145.36"/>
<polygon fill="#7e4444" stroke="black" points="574.47,-142.18 567.36,-150.03 577.82,-148.33 574.47,-142.18"/>
</g>
<!-- app_main&#45;&gt;app_interfaces_middlewares -->
<g id="edge43" class="edge">
<title>app_main&#45;&gt;app_interfaces_middlewares</title><style>.edge>path:hover{stroke-width:8}</style>
<path fill="none" stroke="black" d="M608.74,-91C616.55,-104.86 624.56,-120.57 631.12,-133.9"/>
<polygon fill="#7e4444" stroke="black" points="627.85,-135.18 635.38,-142.64 634.14,-132.12 627.85,-135.18"/>
</g>
</g>
</svg>
