<?xml version="1.0" encoding="UTF-8" standalone="no"?>
<!DOCTYPE svg PUBLIC "-//W3C//DTD SVG 1.1//EN"
 "http://www.w3.org/Graphics/SVG/1.1/DTD/svg11.dtd">
<!-- Generated by graphviz version 12.2.0 (20241103.1931)
 -->
<!-- Title: G Pages: 1 -->
<svg width="888pt" height="900pt"
 viewBox="0.00 0.00 888.38 900.20" xmlns="http://www.w3.org/2000/svg" xmlns:xlink="http://www.w3.org/1999/xlink">
<g id="graph0" class="graph" transform="scale(1 1) rotate(0) translate(4 896.2)">
<title>G</title><style>.edge>path:hover{stroke-width:8}</style>
<polygon fill="white" stroke="none" points="-4,4 -4,-896.2 884.38,-896.2 884.38,4 -4,4"/>
<!-- app_application -->
<g id="node1" class="node">
<title>app_application</title><style>.edge>path:hover{stroke-width:8}</style>
<ellipse fill="#f91010" stroke="black" cx="734.83" cy="-633.23" rx="36.98" ry="18"/>
<text text-anchor="middle" x="734.83" y="-629.36" font-family="Helvetica,sans-Serif" font-size="10.00" fill="#ffffff">application</text>
</g>
<!-- app_application_dto -->
<g id="node2" class="node">
<title>app_application_dto</title><style>.edge>path:hover{stroke-width:8}</style>
<ellipse fill="#a51d1d" stroke="black" cx="253.83" cy="-633.23" rx="46.32" ry="21.57"/>
<text text-anchor="middle" x="253.83" y="-634.98" font-family="Helvetica,sans-Serif" font-size="10.00" fill="#ffffff">application.</text>
<text text-anchor="middle" x="253.83" y="-623.73" font-family="Helvetica,sans-Serif" font-size="10.00" fill="#ffffff">dto</text>
</g>
<!-- app_domain -->
<g id="node7" class="node">
<title>app_domain</title><style>.edge>path:hover{stroke-width:8}</style>
<ellipse fill="#f91010" stroke="black" cx="477.83" cy="-791.5" rx="28.11" ry="18"/>
<text text-anchor="middle" x="477.83" y="-787.63" font-family="Helvetica,sans-Serif" font-size="10.00" fill="#ffffff">domain</text>
</g>
<!-- app_application_dto&#45;&gt;app_domain -->
<g id="edge18" class="edge">
<title>app_application_dto&#45;&gt;app_domain</title><style>.edge>path:hover{stroke-width:8}</style>
<path fill="none" stroke="black" d="M327.83,-713.37C336.42,-722.38 336.68,-726.74 346.83,-733.93 363.04,-745.42 410.35,-764.71 443.43,-777.53"/>
<polygon fill="#a51d1d" stroke="black" points="442.04,-780.74 452.63,-781.06 444.55,-774.2 442.04,-780.74"/>
<path fill="none" stroke="black" d="M272.11,-653.22C287.11,-668.81 308.88,-691.49 327.83,-711.37"/>
</g>
<!-- app_domain_entities -->
<g id="node8" class="node">
<title>app_domain_entities</title><style>.edge>path:hover{stroke-width:8}</style>
<ellipse fill="#e50505" stroke="black" cx="89.83" cy="-870.63" rx="35.71" ry="21.57"/>
<text text-anchor="middle" x="89.83" y="-872.38" font-family="Helvetica,sans-Serif" font-size="10.00" fill="#ffffff">domain.</text>
<text text-anchor="middle" x="89.83" y="-861.13" font-family="Helvetica,sans-Serif" font-size="10.00" fill="#ffffff">entities</text>
</g>
<!-- app_application_dto&#45;&gt;app_domain_entities -->
<g id="edge26" class="edge">
<title>app_application_dto&#45;&gt;app_domain_entities</title><style>.edge>path:hover{stroke-width:8}</style>
<path fill="none" stroke="black" d="M402.83,-792.5C377.07,-838.91 217.67,-858.89 136.79,-866.13"/>
<polygon fill="#a51d1d" stroke="black" points="136.62,-862.63 126.96,-866.98 137.22,-869.61 136.62,-862.63"/>
<path fill="none" stroke="black" d="M251.83,-713.37C246.77,-788.56 439.4,-724.61 402.83,-790.5"/>
</g>
<!-- app_domain_services -->
<g id="node12" class="node">
<title>app_domain_services</title><style>.edge>path:hover{stroke-width:8}</style>
<ellipse fill="#df0b0b" stroke="black" cx="89.83" cy="-791.5" rx="37.3" ry="21.57"/>
<text text-anchor="middle" x="89.83" y="-793.25" font-family="Helvetica,sans-Serif" font-size="10.00" fill="#ffffff">domain.</text>
<text text-anchor="middle" x="89.83" y="-782" font-family="Helvetica,sans-Serif" font-size="10.00" fill="#ffffff">services</text>
</g>
<!-- app_application_dto&#45;&gt;app_domain_services -->
<g id="edge45" class="edge">
<title>app_application_dto&#45;&gt;app_domain_services</title><style>.edge>path:hover{stroke-width:8}</style>
<path fill="none" stroke="black" d="M251.83,-713.37C250.08,-739.34 181.59,-764.27 134.24,-778.45"/>
<polygon fill="#a51d1d" stroke="black" points="133.37,-775.06 124.75,-781.23 135.33,-781.78 133.37,-775.06"/>
<path fill="none" stroke="black" d="M253.75,-655.21C253.58,-670.73 253.11,-692.39 251.83,-711.37"/>
</g>
<!-- app_domain_value_objects -->
<g id="node13" class="node">
<title>app_domain_value_objects</title><style>.edge>path:hover{stroke-width:8}</style>
<ellipse fill="#e72222" stroke="black" cx="236.83" cy="-791.5" rx="53.74" ry="21.57"/>
<text text-anchor="middle" x="236.83" y="-793.25" font-family="Helvetica,sans-Serif" font-size="10.00" fill="#ffffff">domain.</text>
<text text-anchor="middle" x="236.83" y="-782" font-family="Helvetica,sans-Serif" font-size="10.00" fill="#ffffff">value_objects</text>
</g>
<!-- app_application_dto&#45;&gt;app_domain_value_objects -->
<g id="edge51" class="edge">
<title>app_application_dto&#45;&gt;app_domain_value_objects</title><style>.edge>path:hover{stroke-width:8}</style>
<path fill="none" stroke="black" d="M251.83,-713.37C250.81,-728.47 247.86,-744.97 244.84,-758.81"/>
<polygon fill="#a51d1d" stroke="black" points="241.5,-757.73 242.67,-768.26 248.32,-759.3 241.5,-757.73"/>
</g>
<!-- app_application_exc -->
<g id="node3" class="node">
<title>app_application_exc</title><style>.edge>path:hover{stroke-width:8}</style>
<ellipse fill="#c82323" stroke="black" cx="633.83" cy="-633.23" rx="46.32" ry="21.57"/>
<text text-anchor="middle" x="633.83" y="-634.98" font-family="Helvetica,sans-Serif" font-size="10.00" fill="#ffffff">application.</text>
<text text-anchor="middle" x="633.83" y="-623.73" font-family="Helvetica,sans-Serif" font-size="10.00" fill="#ffffff">exc</text>
</g>
<!-- app_application_exc&#45;&gt;app_domain -->
<g id="edge19" class="edge">
<title>app_application_exc&#45;&gt;app_domain</title><style>.edge>path:hover{stroke-width:8}</style>
<path fill="none" stroke="black" d="M664.37,-649.74C687,-663.61 712.53,-685.67 703.83,-711.37"/>
</g>
<!-- app_domain_exc -->
<g id="node9" class="node">
<title>app_domain_exc</title><style>.edge>path:hover{stroke-width:8}</style>
<ellipse fill="#c24747" stroke="black" cx="808.83" cy="-712.37" rx="39.2" ry="18"/>
<text text-anchor="middle" x="808.83" y="-708.49" font-family="Helvetica,sans-Serif" font-size="10.00" fill="#ffffff">domain.exc</text>
</g>
<!-- app_application_exc&#45;&gt;app_domain_exc -->
<g id="edge35" class="edge">
<title>app_application_exc&#45;&gt;app_domain_exc</title><style>.edge>path:hover{stroke-width:8}</style>
<path fill="none" stroke="black" d="M666.75,-648.74C696.33,-661.78 739.77,-680.93 770.82,-694.61"/>
<polygon fill="#c82323" stroke="black" points="769.3,-697.77 779.86,-698.6 772.12,-691.36 769.3,-697.77"/>
</g>
<!-- app_application_use_cases -->
<g id="node4" class="node">
<title>app_application_use_cases</title><style>.edge>path:hover{stroke-width:8}</style>
<ellipse fill="#732626" stroke="black" cx="253.83" cy="-554.1" rx="46.32" ry="21.57"/>
<text text-anchor="middle" x="253.83" y="-555.85" font-family="Helvetica,sans-Serif" font-size="10.00" fill="#ffffff">application.</text>
<text text-anchor="middle" x="253.83" y="-544.6" font-family="Helvetica,sans-Serif" font-size="10.00" fill="#ffffff">use_cases</text>
</g>
<!-- app_application_use_cases&#45;&gt;app_application_dto -->
<g id="edge6" class="edge">
<title>app_application_use_cases&#45;&gt;app_application_dto</title><style>.edge>path:hover{stroke-width:8}</style>
<path fill="none" stroke="black" d="M253.83,-575.77C253.83,-583.15 253.83,-591.64 253.83,-599.77"/>
<polygon fill="#732626" stroke="black" points="250.33,-599.72 253.83,-609.72 257.33,-599.72 250.33,-599.72"/>
</g>
<!-- app_application_use_cases&#45;&gt;app_application_exc -->
<g id="edge9" class="edge">
<title>app_application_use_cases&#45;&gt;app_application_exc</title><style>.edge>path:hover{stroke-width:8}</style>
<path fill="none" stroke="black" d="M295.29,-563.93C312.74,-567.61 333.26,-571.9 351.83,-575.67 433.5,-592.23 454.16,-595.11 535.83,-611.67 550.63,-614.67 566.67,-618 581.4,-621.09"/>
<polygon fill="#732626" stroke="black" points="580.38,-624.46 590.89,-623.09 581.82,-617.61 580.38,-624.46"/>
</g>
<!-- app_application_use_cases&#45;&gt;app_domain -->
<g id="edge20" class="edge">
<title>app_application_use_cases&#45;&gt;app_domain</title><style>.edge>path:hover{stroke-width:8}</style>
<path fill="none" stroke="black" d="M327.83,-634.23C347.11,-662.58 304.18,-686.55 327.83,-711.37"/>
<path fill="none" stroke="black" d="M274.97,-573.48C290.97,-588.19 312.7,-609.98 327.83,-632.23"/>
</g>
<!-- app_application_use_cases&#45;&gt;app_domain_entities -->
<g id="edge27" class="edge">
<title>app_application_use_cases&#45;&gt;app_domain_entities</title><style>.edge>path:hover{stroke-width:8}</style>
<path fill="none" stroke="black" d="M154.83,-713.37C160.1,-758.17 154.86,-772.17 135.83,-813.07 130.78,-823.91 123.19,-834.46 115.63,-843.45"/>
<polygon fill="#732626" stroke="black" points="113.18,-840.94 109.17,-850.74 118.42,-845.58 113.18,-840.94"/>
</g>
<!-- app_domain_factories -->
<g id="node10" class="node">
<title>app_domain_factories</title><style>.edge>path:hover{stroke-width:8}</style>
<ellipse fill="#b62020" stroke="black" cx="37.83" cy="-712.37" rx="37.83" ry="21.57"/>
<text text-anchor="middle" x="37.83" y="-714.12" font-family="Helvetica,sans-Serif" font-size="10.00" fill="#ffffff">domain.</text>
<text text-anchor="middle" x="37.83" y="-702.87" font-family="Helvetica,sans-Serif" font-size="10.00" fill="#ffffff">factories</text>
</g>
<!-- app_application_use_cases&#45;&gt;app_domain_factories -->
<g id="edge37" class="edge">
<title>app_application_use_cases&#45;&gt;app_domain_factories</title><style>.edge>path:hover{stroke-width:8}</style>
<path fill="none" stroke="black" d="M223.9,-570.63C199.57,-584.36 165.52,-606.23 141.83,-632.23"/>
<path fill="none" stroke="black" d="M141.83,-634.23C121.75,-656.28 94.54,-676.2 73,-690.27"/>
<polygon fill="#732626" stroke="black" points="71.36,-687.16 64.82,-695.49 75.13,-693.06 71.36,-687.16"/>
</g>
<!-- app_domain_repositories -->
<g id="node11" class="node">
<title>app_domain_repositories</title><style>.edge>path:hover{stroke-width:8}</style>
<ellipse fill="#cc0a0a" stroke="black" cx="402.83" cy="-712.37" rx="46.85" ry="21.57"/>
<text text-anchor="middle" x="402.83" y="-714.12" font-family="Helvetica,sans-Serif" font-size="10.00" fill="#ffffff">domain.</text>
<text text-anchor="middle" x="402.83" y="-702.87" font-family="Helvetica,sans-Serif" font-size="10.00" fill="#ffffff">repositories</text>
</g>
<!-- app_application_use_cases&#45;&gt;app_domain_repositories -->
<g id="edge40" class="edge">
<title>app_application_use_cases&#45;&gt;app_domain_repositories</title><style>.edge>path:hover{stroke-width:8}</style>
<path fill="none" stroke="black" d="M327.83,-634.23C340.56,-652.96 358.05,-671.24 372.94,-685.31"/>
<polygon fill="#732626" stroke="black" points="370.51,-687.83 380.23,-692.04 375.26,-682.69 370.51,-687.83"/>
</g>
<!-- app_application_use_cases&#45;&gt;app_domain_services -->
<g id="edge46" class="edge">
<title>app_application_use_cases&#45;&gt;app_domain_services</title><style>.edge>path:hover{stroke-width:8}</style>
<path fill="none" stroke="black" d="M141.83,-634.23C118.42,-659.94 150.77,-676.84 154.83,-711.37"/>
<path fill="none" stroke="black" d="M154.83,-713.37C157.46,-735.73 141.05,-755.09 124.06,-768.82"/>
<polygon fill="#732626" stroke="black" points="122.32,-765.75 116.43,-774.56 126.53,-771.34 122.32,-765.75"/>
</g>
<!-- app_application_use_cases&#45;&gt;app_domain_value_objects -->
<g id="edge52" class="edge">
<title>app_application_use_cases&#45;&gt;app_domain_value_objects</title><style>.edge>path:hover{stroke-width:8}</style>
<path fill="none" stroke="black" d="M154.83,-713.37C157.55,-736.51 175.52,-754.82 193.95,-767.79"/>
<polygon fill="#732626" stroke="black" points="192,-770.7 202.28,-773.25 195.84,-764.84 192,-770.7"/>
</g>
<!-- app_config -->
<g id="node5" class="node">
<title>app_config</title><style>.edge>path:hover{stroke-width:8}</style>
<ellipse fill="#bc2f2f" stroke="black" cx="581.83" cy="-162" rx="27" ry="18"/>
<text text-anchor="middle" x="581.83" y="-158.12" font-family="Helvetica,sans-Serif" font-size="10.00" fill="#ffffff">config</text>
</g>
<!-- app_interfaces -->
<g id="node18" class="node">
<title>app_interfaces</title><style>.edge>path:hover{stroke-width:8}</style>
<ellipse fill="#e72222" stroke="black" cx="518.83" cy="-237.57" rx="34.76" ry="18"/>
<text text-anchor="middle" x="518.83" y="-233.69" font-family="Helvetica,sans-Serif" font-size="10.00" fill="#ffffff">interfaces</text>
</g>
<!-- app_config&#45;&gt;app_interfaces -->
<g id="edge62" class="edge">
<title>app_config&#45;&gt;app_interfaces</title><style>.edge>path:hover{stroke-width:8}</style>
<path fill="none" stroke="black" d="M568.78,-178.24C560.42,-188.01 549.38,-200.9 539.8,-212.07"/>
<polygon fill="#bc2f2f" stroke="black" points="537.35,-209.56 533.51,-219.43 542.67,-214.11 537.35,-209.56"/>
</g>
<!-- app_interfaces_middlewares -->
<g id="node20" class="node">
<title>app_interfaces_middlewares</title><style>.edge>path:hover{stroke-width:8}</style>
<ellipse fill="#8a0f0f" stroke="black" cx="559.83" cy="-316.7" rx="50.03" ry="21.57"/>
<text text-anchor="middle" x="559.83" y="-318.45" font-family="Helvetica,sans-Serif" font-size="10.00" fill="#ffffff">interfaces.</text>
<text text-anchor="middle" x="559.83" y="-307.2" font-family="Helvetica,sans-Serif" font-size="10.00" fill="#ffffff">middlewares</text>
</g>
<!-- app_config&#45;&gt;app_interfaces_middlewares -->
<g id="edge67" class="edge">
<title>app_config&#45;&gt;app_interfaces_middlewares</title><style>.edge>path:hover{stroke-width:8}</style>
<path fill="none" stroke="black" d="M581.34,-180.26C581.03,-195.17 580.86,-217.31 581.83,-236.57"/>
</g>
<!-- app_di_container -->
<g id="node6" class="node">
<title>app_di_container</title><style>.edge>path:hover{stroke-width:8}</style>
<ellipse fill="#6b2e2e" stroke="black" cx="544.83" cy="-90" rx="40.53" ry="18"/>
<text text-anchor="middle" x="544.83" y="-86.12" font-family="Helvetica,sans-Serif" font-size="10.00" fill="#ffffff">di_container</text>
</g>
<!-- app_di_container&#45;&gt;app_application -->
<g id="edge1" class="edge">
<title>app_di_container&#45;&gt;app_application</title><style>.edge>path:hover{stroke-width:8}</style>
<path fill="none" stroke="black" d="M636.83,-163C664.95,-196.26 630.81,-223.49 655.83,-259.13 683.85,-299.04 736.33,-268.85 749.83,-315.7"/>
<path fill="none" stroke="black" d="M749.83,-317.7C756.98,-345.87 616.72,-531.21 635.83,-553.1"/>
<path fill="none" stroke="black" d="M567.9,-105.08C587.75,-117.96 616.34,-138.4 636.83,-161"/>
</g>
<!-- app_di_container&#45;&gt;app_application_dto -->
<g id="edge7" class="edge">
<title>app_di_container&#45;&gt;app_application_dto</title><style>.edge>path:hover{stroke-width:8}</style>
<path fill="none" stroke="black" d="M99.83,-475.97C137.23,-564.63 250.34,-456.12 308.83,-532.53 320.48,-547.76 316.04,-557.91 308.83,-575.67 304.02,-587.52 295.39,-598.26 286.38,-607.11"/>
<polygon fill="#6b2e2e" stroke="black" points="284.23,-604.34 279.21,-613.67 288.95,-609.5 284.23,-604.34"/>
</g>
<!-- app_di_container&#45;&gt;app_config -->
<g id="edge14" class="edge">
<title>app_di_container&#45;&gt;app_config</title><style>.edge>path:hover{stroke-width:8}</style>
<path fill="none" stroke="black" d="M553.79,-107.95C558.03,-115.97 563.19,-125.74 567.93,-134.7"/>
<polygon fill="#6b2e2e" stroke="black" points="564.74,-136.15 572.5,-143.35 570.92,-132.88 564.74,-136.15"/>
</g>
<!-- app_di_container&#45;&gt;app_domain -->
<g id="edge21" class="edge">
<title>app_di_container&#45;&gt;app_domain</title><style>.edge>path:hover{stroke-width:8}</style>
<path fill="none" stroke="black" d="M521.83,-634.23C528.75,-643.87 529.08,-648.05 538.83,-654.8 602.59,-698.9 728.68,-637.94 703.83,-711.37"/>
<path fill="none" stroke="black" d="M357.83,-317.7C301.82,-379.53 375.71,-422.86 414.83,-496.53 450.85,-564.37 477.02,-569.86 521.83,-632.23"/>
<path fill="none" stroke="black" d="M703.83,-713.37C691.44,-749.98 577.18,-774.18 516.04,-784.63"/>
<polygon fill="#6b2e2e" stroke="black" points="515.7,-781.13 506.41,-786.23 516.85,-788.04 515.7,-781.13"/>
</g>
<!-- app_di_container&#45;&gt;app_domain_factories -->
<g id="edge38" class="edge">
<title>app_di_container&#45;&gt;app_domain_factories</title><style>.edge>path:hover{stroke-width:8}</style>
<path fill="none" stroke="black" d="M99.83,-475.97C114.21,-511.37 152.21,-517.69 137.83,-553.1"/>
<path fill="none" stroke="black" d="M137.83,-555.1C127.18,-581.33 84,-645.22 57.99,-682.68"/>
<polygon fill="#6b2e2e" stroke="black" points="55.18,-680.6 52.33,-690.81 60.92,-684.6 55.18,-680.6"/>
<path fill="none" stroke="black" d="M527.71,-106.74C491.24,-141.17 405.38,-227.17 357.83,-315.7"/>
<path fill="none" stroke="black" d="M357.83,-317.7C306.38,-369.37 265.68,-335.65 203.83,-374.27 149.52,-408.18 75.73,-414.65 99.83,-473.97"/>
</g>
<!-- app_infrastructure -->
<g id="node14" class="node">
<title>app_infrastructure</title><style>.edge>path:hover{stroke-width:8}</style>
<ellipse fill="#ce3b3b" stroke="black" cx="707.83" cy="-162" rx="43.19" ry="18"/>
<text text-anchor="middle" x="707.83" y="-158.12" font-family="Helvetica,sans-Serif" font-size="10.00" fill="#ffffff">infrastructure</text>
</g>
<!-- app_di_container&#45;&gt;app_infrastructure -->
<g id="edge56" class="edge">
<title>app_di_container&#45;&gt;app_infrastructure</title><style>.edge>path:hover{stroke-width:8}</style>
<path fill="none" stroke="black" d="M573.22,-103.19C599.46,-114.46 638.71,-131.32 668.06,-143.92"/>
<polygon fill="#6b2e2e" stroke="black" points="666.43,-147.03 677,-147.76 669.19,-140.6 666.43,-147.03"/>
</g>
<!-- app_infrastructure_database -->
<g id="node15" class="node">
<title>app_infrastructure_database</title><style>.edge>path:hover{stroke-width:8}</style>
<ellipse fill="#c24747" stroke="black" cx="718.83" cy="-237.57" rx="53.74" ry="21.57"/>
<text text-anchor="middle" x="718.83" y="-239.32" font-family="Helvetica,sans-Serif" font-size="10.00" fill="#ffffff">infrastructure.</text>
<text text-anchor="middle" x="718.83" y="-228.07" font-family="Helvetica,sans-Serif" font-size="10.00" fill="#ffffff">database</text>
</g>
<!-- app_di_container&#45;&gt;app_infrastructure_database -->
<g id="edge58" class="edge">
<title>app_di_container&#45;&gt;app_infrastructure_database</title><style>.edge>path:hover{stroke-width:8}</style>
<path fill="none" stroke="black" d="M636.83,-163C651.52,-180.37 670.27,-197.49 686.13,-210.83"/>
<polygon fill="#6b2e2e" stroke="black" points="683.49,-213.19 693.43,-216.87 687.95,-207.8 683.49,-213.19"/>
</g>
<!-- app_infrastructure_repositories -->
<g id="node16" class="node">
<title>app_infrastructure_repositories</title><style>.edge>path:hover{stroke-width:8}</style>
<ellipse fill="#822b2b" stroke="black" cx="477.83" cy="-474.97" rx="53.74" ry="21.57"/>
<text text-anchor="middle" x="477.83" y="-476.72" font-family="Helvetica,sans-Serif" font-size="10.00" fill="#ffffff">infrastructure.</text>
<text text-anchor="middle" x="477.83" y="-465.47" font-family="Helvetica,sans-Serif" font-size="10.00" fill="#ffffff">repositories</text>
</g>
<!-- app_di_container&#45;&gt;app_infrastructure_repositories -->
<g id="edge60" class="edge">
<title>app_di_container&#45;&gt;app_infrastructure_repositories</title><style>.edge>path:hover{stroke-width:8}</style>
<path fill="none" stroke="black" d="M538.03,-108.23C532.86,-122.22 526.09,-142.56 522.83,-161"/>
<path fill="none" stroke="black" d="M522.83,-163C517.31,-194.3 486.26,-186.35 474.83,-216 445.22,-292.8 459.67,-392.27 470.18,-442.29"/>
<polygon fill="#6b2e2e" stroke="black" points="466.71,-442.83 472.28,-451.85 473.55,-441.33 466.71,-442.83"/>
</g>
<!-- app_infrastructure_services -->
<g id="node17" class="node">
<title>app_infrastructure_services</title><style>.edge>path:hover{stroke-width:8}</style>
<ellipse fill="#883a3a" stroke="black" cx="755.83" cy="-474.97" rx="53.74" ry="21.57"/>
<text text-anchor="middle" x="755.83" y="-476.72" font-family="Helvetica,sans-Serif" font-size="10.00" fill="#ffffff">infrastructure.</text>
<text text-anchor="middle" x="755.83" y="-465.47" font-family="Helvetica,sans-Serif" font-size="10.00" fill="#ffffff">services</text>
</g>
<!-- app_di_container&#45;&gt;app_infrastructure_services -->
<g id="edge61" class="edge">
<title>app_di_container&#45;&gt;app_infrastructure_services</title><style>.edge>path:hover{stroke-width:8}</style>
<path fill="none" stroke="black" d="M749.83,-317.7C760.78,-359.5 760.43,-409.73 758.6,-441.75"/>
<polygon fill="#6b2e2e" stroke="black" points="755.12,-441.35 757.95,-451.56 762.11,-441.82 755.12,-441.35"/>
</g>
<!-- app_di_container&#45;&gt;app_interfaces -->
<g id="edge63" class="edge">
<title>app_di_container&#45;&gt;app_interfaces</title><style>.edge>path:hover{stroke-width:8}</style>
<path fill="none" stroke="black" d="M522.83,-163C520.23,-177.71 519.17,-194.31 518.79,-208.01"/>
<polygon fill="#6b2e2e" stroke="black" points="515.29,-207.62 518.63,-217.68 522.29,-207.74 515.29,-207.62"/>
</g>
<!-- app_di_container&#45;&gt;app_interfaces_middlewares -->
<g id="edge68" class="edge">
<title>app_di_container&#45;&gt;app_interfaces_middlewares</title><style>.edge>path:hover{stroke-width:8}</style>
<path fill="none" stroke="black" d="M581.83,-238.57C582.62,-254.15 578.5,-270.87 573.62,-284.74"/>
<polygon fill="#6b2e2e" stroke="black" points="570.47,-283.18 570.17,-293.77 577.01,-285.68 570.47,-283.18"/>
<path fill="none" stroke="black" d="M522.83,-163C515.54,-204.27 579.71,-194.71 581.83,-236.57"/>
</g>
<!-- app_domain_factories&#45;&gt;app_domain_entities -->
<g id="edge28" class="edge">
<title>app_domain_factories&#45;&gt;app_domain_entities</title><style>.edge>path:hover{stroke-width:8}</style>
<path fill="none" stroke="black" d="M35.48,-734.01C33.93,-754.73 33.76,-787.22 43.83,-813.07 48.17,-824.21 55.58,-834.84 63.19,-843.81"/>
<polygon fill="#b62020" stroke="black" points="60.45,-846 69.75,-851.06 65.64,-841.3 60.45,-846"/>
</g>
<!-- app_domain_factories&#45;&gt;app_domain_services -->
<g id="edge47" class="edge">
<title>app_domain_factories&#45;&gt;app_domain_services</title><style>.edge>path:hover{stroke-width:8}</style>
<path fill="none" stroke="black" d="M50.95,-732.83C56.86,-741.6 63.96,-752.13 70.47,-761.78"/>
<polygon fill="#b62020" stroke="black" points="67.37,-763.45 75.87,-769.79 73.18,-759.54 67.37,-763.45"/>
</g>
<!-- app_domain_repositories&#45;&gt;app_domain_entities -->
<g id="edge29" class="edge">
<title>app_domain_repositories&#45;&gt;app_domain_entities</title><style>.edge>path:hover{stroke-width:8}</style>
<path fill="none" stroke="black" d="M408.03,-734.05C410.96,-750.41 412.38,-773.29 402.83,-790.5"/>
</g>
<!-- app_domain_repositories&#45;&gt;app_domain_value_objects -->
<g id="edge53" class="edge">
<title>app_domain_repositories&#45;&gt;app_domain_value_objects</title><style>.edge>path:hover{stroke-width:8}</style>
<path fill="none" stroke="black" d="M370.43,-728.42C345.08,-740.2 309.55,-756.71 281.5,-769.75"/>
<polygon fill="#cc0a0a" stroke="black" points="280.12,-766.53 272.52,-773.92 283.07,-772.88 280.12,-766.53"/>
</g>
<!-- app_domain_services&#45;&gt;app_domain_entities -->
<g id="edge30" class="edge">
<title>app_domain_services&#45;&gt;app_domain_entities</title><style>.edge>path:hover{stroke-width:8}</style>
<path fill="none" stroke="black" d="M89.83,-813.17C89.83,-820.55 89.83,-829.05 89.83,-837.17"/>
<polygon fill="#df0b0b" stroke="black" points="86.33,-837.13 89.83,-847.13 93.33,-837.13 86.33,-837.13"/>
</g>
<!-- app_infrastructure_repositories&#45;&gt;app_application -->
<g id="edge2" class="edge">
<title>app_infrastructure_repositories&#45;&gt;app_application</title><style>.edge>path:hover{stroke-width:8}</style>
<path fill="none" stroke="black" d="M523.3,-486.81C559.06,-497.67 607.43,-517.96 635.83,-553.1"/>
<path fill="none" stroke="black" d="M635.83,-555.1C654.51,-578.21 681.39,-598.6 702.43,-612.59"/>
<polygon fill="#822b2b" stroke="black" points="700.36,-615.43 710.66,-617.93 704.17,-609.55 700.36,-615.43"/>
</g>
<!-- app_infrastructure_repositories&#45;&gt;app_application_exc -->
<g id="edge10" class="edge">
<title>app_infrastructure_repositories&#45;&gt;app_application_exc</title><style>.edge>path:hover{stroke-width:8}</style>
<path fill="none" stroke="black" d="M524.09,-486.46C556.98,-496.99 595.71,-517 597.83,-553.1"/>
<path fill="none" stroke="black" d="M597.83,-555.1C598.81,-571.79 605.96,-588.8 613.63,-602.58"/>
<polygon fill="#822b2b" stroke="black" points="610.6,-604.34 618.73,-611.13 616.61,-600.75 610.6,-604.34"/>
</g>
<!-- app_infrastructure_repositories&#45;&gt;app_domain -->
<g id="edge22" class="edge">
<title>app_infrastructure_repositories&#45;&gt;app_domain</title><style>.edge>path:hover{stroke-width:8}</style>
<path fill="none" stroke="black" d="M491.51,-496.1C501.21,-511.2 513.88,-532.7 521.83,-553.1"/>
<path fill="none" stroke="black" d="M521.83,-555.1C534.28,-587.04 503.03,-603.57 521.83,-632.23"/>
</g>
<!-- app_infrastructure_repositories&#45;&gt;app_domain_entities -->
<g id="edge31" class="edge">
<title>app_infrastructure_repositories&#45;&gt;app_domain_entities</title><style>.edge>path:hover{stroke-width:8}</style>
<path fill="none" stroke="black" d="M808.83,-792.5C763.92,-842.62 289.86,-862.89 137.03,-868.16"/>
<polygon fill="#822b2b" stroke="black" points="137.14,-864.65 127.27,-868.49 137.38,-871.65 137.14,-864.65"/>
<path fill="none" stroke="black" d="M521.83,-555.1C540.36,-602.66 538.27,-623.81 578.83,-654.8 629.54,-693.55 663.17,-657.87 717.83,-690.8 721.04,-692.74 811.33,-787.71 808.83,-790.5"/>
</g>
<!-- app_infrastructure_repositories&#45;&gt;app_domain_repositories -->
<g id="edge41" class="edge">
<title>app_infrastructure_repositories&#45;&gt;app_domain_repositories</title><style>.edge>path:hover{stroke-width:8}</style>
<path fill="none" stroke="black" d="M445.83,-555.1C441.75,-566.89 422.69,-637.32 411.36,-679.5"/>
<polygon fill="#822b2b" stroke="black" points="407.99,-678.55 408.78,-689.12 414.75,-680.37 407.99,-678.55"/>
</g>
<!-- app_infrastructure_repositories&#45;&gt;app_domain_value_objects -->
<g id="edge54" class="edge">
<title>app_infrastructure_repositories&#45;&gt;app_domain_value_objects</title><style>.edge>path:hover{stroke-width:8}</style>
<path fill="none" stroke="black" d="M445.83,-555.1C429.55,-586.51 414.53,-586.34 389.83,-611.67 355.79,-646.58 345.67,-653.87 313.83,-690.8 293.98,-713.83 272.99,-741.24 257.95,-761.49"/>
<polygon fill="#822b2b" stroke="black" points="255.3,-759.18 252.17,-769.3 260.93,-763.34 255.3,-759.18"/>
<path fill="none" stroke="black" d="M470.26,-496.66C464.26,-512.42 455.32,-534.51 445.83,-553.1"/>
</g>
<!-- app_infrastructure_services&#45;&gt;app_application -->
<g id="edge3" class="edge">
<title>app_infrastructure_services&#45;&gt;app_application</title><style>.edge>path:hover{stroke-width:8}</style>
<path fill="none" stroke="black" d="M770.89,-496.02C781.14,-510.92 793.89,-532.19 799.83,-553.1"/>
<path fill="none" stroke="black" d="M799.83,-555.1C806.41,-578.26 787.17,-598.8 767.95,-612.84"/>
<polygon fill="#883a3a" stroke="black" points="766.17,-609.82 759.88,-618.35 770.11,-615.6 766.17,-609.82"/>
</g>
<!-- app_infrastructure_services&#45;&gt;app_application_exc -->
<g id="edge11" class="edge">
<title>app_infrastructure_services&#45;&gt;app_application_exc</title><style>.edge>path:hover{stroke-width:8}</style>
<path fill="none" stroke="black" d="M712.12,-487.97C664.84,-502.28 596.33,-527.5 597.83,-553.1"/>
</g>
<!-- app_infrastructure_services&#45;&gt;app_domain -->
<g id="edge23" class="edge">
<title>app_infrastructure_services&#45;&gt;app_domain</title><style>.edge>path:hover{stroke-width:8}</style>
<path fill="none" stroke="black" d="M799.83,-634.23C792.5,-644.29 790.11,-646.51 780.83,-654.8 749.17,-683.1 717.44,-671.14 703.83,-711.37"/>
</g>
<!-- app_infrastructure_services&#45;&gt;app_domain_entities -->
<g id="edge32" class="edge">
<title>app_infrastructure_services&#45;&gt;app_domain_entities</title><style>.edge>path:hover{stroke-width:8}</style>
<path fill="none" stroke="black" d="M799.83,-555.1C812.99,-601.39 865.15,-585.31 875.83,-632.23"/>
<path fill="none" stroke="black" d="M875.83,-634.23C892.6,-707.92 858.53,-733.58 808.83,-790.5"/>
</g>
<!-- app_infrastructure_services&#45;&gt;app_domain_repositories -->
<g id="edge42" class="edge">
<title>app_infrastructure_services&#45;&gt;app_domain_repositories</title><style>.edge>path:hover{stroke-width:8}</style>
<path fill="none" stroke="black" d="M799.83,-555.1C809.2,-588.08 820.03,-604.54 799.83,-632.23"/>
<path fill="none" stroke="black" d="M799.83,-634.23C792.5,-644.29 791.93,-649.18 780.83,-654.8 654.35,-718.89 602.23,-659.98 463.83,-690.8 458.97,-691.88 453.96,-693.21 449,-694.66"/>
<polygon fill="#883a3a" stroke="black" points="448.22,-691.24 439.72,-697.56 450.31,-697.92 448.22,-691.24"/>
</g>
<!-- app_infrastructure_services&#45;&gt;app_domain_services -->
<g id="edge48" class="edge">
<title>app_infrastructure_services&#45;&gt;app_domain_services</title><style>.edge>path:hover{stroke-width:8}</style>
<path fill="none" stroke="black" d="M709.32,-486.16C690.87,-489.9 669.43,-493.86 649.83,-496.53 550.21,-510.13 289.26,-488.59 198.83,-532.53 187.64,-537.97 190.17,-546.18 179.83,-553.1"/>
</g>
<!-- app_interfaces_controllers -->
<g id="node19" class="node">
<title>app_interfaces_controllers</title><style>.edge>path:hover{stroke-width:8}</style>
<ellipse fill="#7a1e1e" stroke="black" cx="285.83" cy="-395.83" rx="43.66" ry="21.57"/>
<text text-anchor="middle" x="285.83" y="-397.58" font-family="Helvetica,sans-Serif" font-size="10.00" fill="#ffffff">interfaces.</text>
<text text-anchor="middle" x="285.83" y="-386.33" font-family="Helvetica,sans-Serif" font-size="10.00" fill="#ffffff">controllers</text>
</g>
<!-- app_interfaces_controllers&#45;&gt;app_application -->
<g id="edge4" class="edge">
<title>app_interfaces_controllers&#45;&gt;app_application</title><style>.edge>path:hover{stroke-width:8}</style>
<path fill="none" stroke="black" d="M329.17,-398.79C382.21,-402.85 473.3,-415.28 540.83,-453.4 594.13,-483.49 597.36,-505.5 635.83,-553.1"/>
</g>
<!-- app_interfaces_controllers&#45;&gt;app_application_dto -->
<g id="edge8" class="edge">
<title>app_interfaces_controllers&#45;&gt;app_application_dto</title><style>.edge>path:hover{stroke-width:8}</style>
<path fill="none" stroke="black" d="M365.83,-555.1C370.82,-572.31 330.51,-596.23 296.87,-612.85"/>
<polygon fill="#7a1e1e" stroke="black" points="295.55,-609.6 288.07,-617.1 298.6,-615.91 295.55,-609.6"/>
</g>
<!-- app_interfaces_controllers&#45;&gt;app_application_use_cases -->
<g id="edge13" class="edge">
<title>app_interfaces_controllers&#45;&gt;app_application_use_cases</title><style>.edge>path:hover{stroke-width:8}</style>
<path fill="none" stroke="black" d="M213.83,-475.97C212.51,-493.44 220.63,-510.95 229.89,-524.85"/>
<polygon fill="#7a1e1e" stroke="black" points="226.81,-526.56 235.49,-532.63 232.49,-522.47 226.81,-526.56"/>
</g>
<!-- app_interfaces_controllers&#45;&gt;app_domain -->
<g id="edge24" class="edge">
<title>app_interfaces_controllers&#45;&gt;app_domain</title><style>.edge>path:hover{stroke-width:8}</style>
<path fill="none" stroke="black" d="M477.83,-713.37C477.71,-729.37 477.7,-747.25 477.72,-761.76"/>
<polygon fill="#7a1e1e" stroke="black" points="474.22,-761.54 477.75,-771.53 481.22,-761.52 474.22,-761.54"/>
</g>
<!-- app_interfaces_controllers&#45;&gt;app_domain_entities -->
<g id="edge33" class="edge">
<title>app_interfaces_controllers&#45;&gt;app_domain_entities</title><style>.edge>path:hover{stroke-width:8}</style>
<path fill="none" stroke="black" d="M365.83,-555.1C375.81,-587.76 397.37,-584.33 417.83,-611.67 448.82,-653.07 478.23,-659.65 477.83,-711.37"/>
<path fill="none" stroke="black" d="M477.83,-713.37C478.56,-761.18 426.03,-748.69 402.83,-790.5"/>
</g>
<!-- app_interfaces_controllers&#45;&gt;app_domain_factories -->
<g id="edge39" class="edge">
<title>app_interfaces_controllers&#45;&gt;app_domain_factories</title><style>.edge>path:hover{stroke-width:8}</style>
<path fill="none" stroke="black" d="M256.44,-411.9C238.65,-422 216.3,-436.51 199.83,-453.4 163.41,-490.76 150.81,-502.56 137.83,-553.1"/>
</g>
<!-- app_interfaces_controllers&#45;&gt;app_domain_repositories -->
<g id="edge43" class="edge">
<title>app_interfaces_controllers&#45;&gt;app_domain_repositories</title><style>.edge>path:hover{stroke-width:8}</style>
<path fill="none" stroke="black" d="M365.83,-555.1C376.47,-591.81 399.58,-594.26 403.83,-632.23"/>
<path fill="none" stroke="black" d="M403.83,-634.23C405.47,-648.85 405.52,-665.12 405.04,-678.94"/>
<polygon fill="#7a1e1e" stroke="black" points="401.54,-678.68 404.58,-688.83 408.54,-679.01 401.54,-678.68"/>
</g>
<!-- app_interfaces_controllers&#45;&gt;app_domain_services -->
<g id="edge49" class="edge">
<title>app_interfaces_controllers&#45;&gt;app_domain_services</title><style>.edge>path:hover{stroke-width:8}</style>
<path fill="none" stroke="black" d="M213.83,-475.97C212.42,-494.65 195.4,-542.69 179.83,-553.1"/>
<path fill="none" stroke="black" d="M258.09,-412.82C238.67,-426.25 215.83,-447.48 213.83,-473.97"/>
</g>
<!-- app_interfaces_controllers&#45;&gt;app_domain_value_objects -->
<g id="edge55" class="edge">
<title>app_interfaces_controllers&#45;&gt;app_domain_value_objects</title><style>.edge>path:hover{stroke-width:8}</style>
<path fill="none" stroke="black" d="M213.83,-475.97C208.12,-551.51 344.74,-480.34 365.83,-553.1"/>
<path fill="none" stroke="black" d="M365.83,-555.1C387.65,-630.37 244.82,-548.22 198.83,-611.67 166.42,-656.37 195.6,-722.9 217.64,-760.94"/>
<polygon fill="#7a1e1e" stroke="black" points="214.4,-762.35 222.54,-769.13 220.4,-758.75 214.4,-762.35"/>
</g>
<!-- app_interfaces_views -->
<g id="node21" class="node">
<title>app_interfaces_views</title><style>.edge>path:hover{stroke-width:8}</style>
<ellipse fill="#c24747" stroke="black" cx="285.83" cy="-474.97" rx="43.66" ry="21.57"/>
<text text-anchor="middle" x="285.83" y="-476.72" font-family="Helvetica,sans-Serif" font-size="10.00" fill="#ffffff">interfaces.</text>
<text text-anchor="middle" x="285.83" y="-465.47" font-family="Helvetica,sans-Serif" font-size="10.00" fill="#ffffff">views</text>
</g>
<!-- app_interfaces_controllers&#45;&gt;app_interfaces_views -->
<g id="edge71" class="edge">
<title>app_interfaces_controllers&#45;&gt;app_interfaces_views</title><style>.edge>path:hover{stroke-width:8}</style>
<path fill="none" stroke="black" d="M285.83,-417.5C285.83,-424.88 285.83,-433.38 285.83,-441.5"/>
<polygon fill="#7a1e1e" stroke="black" points="282.33,-441.46 285.83,-451.46 289.33,-441.46 282.33,-441.46"/>
</g>
<!-- app_interfaces_middlewares&#45;&gt;app_application -->
<g id="edge5" class="edge">
<title>app_interfaces_middlewares&#45;&gt;app_application</title><style>.edge>path:hover{stroke-width:8}</style>
<path fill="none" stroke="black" d="M635.83,-475.97C644.8,-509.05 613.29,-527.27 635.83,-553.1"/>
</g>
<!-- app_interfaces_middlewares&#45;&gt;app_application_exc -->
<g id="edge12" class="edge">
<title>app_interfaces_middlewares&#45;&gt;app_application_exc</title><style>.edge>path:hover{stroke-width:8}</style>
<path fill="none" stroke="black" d="M635.83,-475.97C645.83,-512.85 595.59,-514.95 597.83,-553.1"/>
<path fill="none" stroke="black" d="M559.83,-396.83C554.81,-444.7 623.24,-427.52 635.83,-473.97"/>
</g>
<!-- app_interfaces_middlewares&#45;&gt;app_domain -->
<g id="edge25" class="edge">
<title>app_interfaces_middlewares&#45;&gt;app_domain</title><style>.edge>path:hover{stroke-width:8}</style>
<path fill="none" stroke="black" d="M559.83,-396.83C551.45,-476.59 550.82,-496.89 535.83,-575.67 530.99,-601.11 507.63,-610.58 521.83,-632.23"/>
</g>
<!-- app_interfaces_middlewares&#45;&gt;app_domain_entities -->
<g id="edge34" class="edge">
<title>app_interfaces_middlewares&#45;&gt;app_domain_entities</title><style>.edge>path:hover{stroke-width:8}</style>
<path fill="none" stroke="black" d="M604.88,-326.41C668.24,-341.09 782.76,-377 843.83,-453.4 894.25,-516.47 861.76,-552.72 875.83,-632.23"/>
</g>
<!-- app_interfaces_middlewares&#45;&gt;app_domain_exc -->
<g id="edge36" class="edge">
<title>app_interfaces_middlewares&#45;&gt;app_domain_exc</title><style>.edge>path:hover{stroke-width:8}</style>
<path fill="none" stroke="black" d="M559.83,-396.83C548.64,-514.13 744.94,-361.63 818.83,-453.4 872.79,-520.42 840.2,-632 820.52,-683.61"/>
<polygon fill="#8a0f0f" stroke="black" points="817.29,-682.25 816.87,-692.84 823.8,-684.83 817.29,-682.25"/>
</g>
<!-- app_interfaces_middlewares&#45;&gt;app_domain_repositories -->
<g id="edge44" class="edge">
<title>app_interfaces_middlewares&#45;&gt;app_domain_repositories</title><style>.edge>path:hover{stroke-width:8}</style>
<path fill="none" stroke="black" d="M559.83,-396.83C552.61,-465.63 455.59,-397.51 414.83,-453.4 367.91,-517.74 394.97,-553.1 403.83,-632.23"/>
</g>
<!-- app_interfaces_middlewares&#45;&gt;app_domain_services -->
<g id="edge50" class="edge">
<title>app_interfaces_middlewares&#45;&gt;app_domain_services</title><style>.edge>path:hover{stroke-width:8}</style>
<path fill="none" stroke="black" d="M511.79,-323.43C426.23,-334 254.36,-357.09 232.83,-374.27 203.04,-398.03 210.96,-416.96 199.83,-453.4 186.62,-496.62 217.4,-527.98 179.83,-553.1"/>
<path fill="none" stroke="black" d="M179.83,-555.1C151.33,-573.91 143.49,-581.32 127.83,-611.67 103.4,-659.01 94.67,-721.14 91.55,-758.32"/>
<polygon fill="#8a0f0f" stroke="black" points="88.09,-757.73 90.84,-767.96 95.07,-758.25 88.09,-757.73"/>
</g>
<!-- app_interfaces_middlewares&#45;&gt;app_interfaces_controllers -->
<g id="edge65" class="edge">
<title>app_interfaces_middlewares&#45;&gt;app_interfaces_controllers</title><style>.edge>path:hover{stroke-width:8}</style>
<path fill="none" stroke="black" d="M507.46,-332.44C457.39,-346.54 382.53,-367.61 333.93,-381.29"/>
<polygon fill="#8a0f0f" stroke="black" points="508.38,-335.82 517.06,-329.74 506.48,-329.08 508.38,-335.82"/>
<polygon fill="#8a0f0f" stroke="black" points="333.21,-377.86 324.53,-383.94 335.11,-384.6 333.21,-377.86"/>
</g>
<!-- app_interfaces_middlewares&#45;&gt;app_interfaces_views -->
<g id="edge72" class="edge">
<title>app_interfaces_middlewares&#45;&gt;app_interfaces_views</title><style>.edge>path:hover{stroke-width:8}</style>
<path fill="none" stroke="black" d="M559.83,-396.83C558.63,-408.25 414.75,-443.75 336,-462.34"/>
<polygon fill="#8a0f0f" stroke="black" points="335.28,-458.91 326.35,-464.61 336.88,-465.73 335.28,-458.91"/>
<path fill="none" stroke="black" d="M561.01,-338.71C561.6,-354.26 561.82,-375.92 559.83,-394.83"/>
</g>
<!-- app_load_seeds -->
<g id="node22" class="node">
<title>app_load_seeds</title><style>.edge>path:hover{stroke-width:8}</style>
<ellipse fill="#924e4e" stroke="black" cx="707.83" cy="-90" rx="38.76" ry="18"/>
<text text-anchor="middle" x="707.83" y="-86.12" font-family="Helvetica,sans-Serif" font-size="10.00" fill="#ffffff">load_seeds</text>
</g>
<!-- app_load_seeds&#45;&gt;app_config -->
<g id="edge15" class="edge">
<title>app_load_seeds&#45;&gt;app_config</title><style>.edge>path:hover{stroke-width:8}</style>
<path fill="none" stroke="black" d="M683.54,-104.5C663.04,-115.88 633.62,-132.23 611.69,-144.41"/>
<polygon fill="#924e4e" stroke="black" points="610.26,-141.2 603.22,-149.12 613.66,-147.32 610.26,-141.2"/>
</g>
<!-- app_load_seeds&#45;&gt;app_infrastructure -->
<g id="edge57" class="edge">
<title>app_load_seeds&#45;&gt;app_infrastructure</title><style>.edge>path:hover{stroke-width:8}</style>
<path fill="none" stroke="black" d="M707.83,-108.3C707.83,-115.59 707.83,-124.27 707.83,-132.46"/>
<polygon fill="#924e4e" stroke="black" points="704.33,-132.38 707.83,-142.38 711.33,-132.38 704.33,-132.38"/>
</g>
<!-- app_load_seeds&#45;&gt;app_infrastructure_database -->
<g id="edge59" class="edge">
<title>app_load_seeds&#45;&gt;app_infrastructure_database</title><style>.edge>path:hover{stroke-width:8}</style>
<path fill="none" stroke="black" d="M728.61,-105.61C740.18,-115.06 753.49,-128.49 759.83,-144 765.88,-158.81 764.77,-164.78 759.83,-180 756.6,-189.98 750.87,-199.67 744.7,-208.12"/>
<polygon fill="#924e4e" stroke="black" points="742.01,-205.88 738.6,-215.91 747.52,-210.2 742.01,-205.88"/>
</g>
<!-- app_main -->
<g id="node23" class="node">
<title>app_main</title><style>.edge>path:hover{stroke-width:8}</style>
<ellipse fill="#854747" stroke="black" cx="578.83" cy="-18" rx="27" ry="18"/>
<text text-anchor="middle" x="578.83" y="-14.12" font-family="Helvetica,sans-Serif" font-size="10.00" fill="#ffffff">main</text>
</g>
<!-- app_main&#45;&gt;app_config -->
<g id="edge16" class="edge">
<title>app_main&#45;&gt;app_config</title><style>.edge>path:hover{stroke-width:8}</style>
<path fill="none" stroke="black" d="M585.32,-35.9C588.91,-46.16 593.01,-59.64 594.83,-72 597.17,-87.83 596.75,-92.12 594.83,-108 593.84,-116.22 592.01,-124.99 590.03,-133"/>
<polygon fill="#854747" stroke="black" points="586.68,-131.98 587.49,-142.54 593.44,-133.78 586.68,-131.98"/>
</g>
<!-- app_main&#45;&gt;app_di_container -->
<g id="edge17" class="edge">
<title>app_main&#45;&gt;app_di_container</title><style>.edge>path:hover{stroke-width:8}</style>
<path fill="none" stroke="black" d="M570.77,-35.59C566.98,-43.41 562.35,-52.94 558.05,-61.77"/>
<polygon fill="#854747" stroke="black" points="554.95,-60.16 553.73,-70.68 561.24,-63.22 554.95,-60.16"/>
</g>
<!-- app_main&#45;&gt;app_interfaces -->
<g id="edge64" class="edge">
<title>app_main&#45;&gt;app_interfaces</title><style>.edge>path:hover{stroke-width:8}</style>
<path fill="none" stroke="black" d="M395.83,-91C350.28,-131.77 434.56,-189.52 484.98,-218.5"/>
<polygon fill="#854747" stroke="black" points="483.12,-221.47 493.55,-223.32 486.55,-215.37 483.12,-221.47"/>
</g>
<!-- app_main&#45;&gt;app_interfaces_controllers -->
<g id="edge66" class="edge">
<title>app_main&#45;&gt;app_interfaces_controllers</title><style>.edge>path:hover{stroke-width:8}</style>
<path fill="none" stroke="black" d="M552.31,-22.48C513.24,-28.93 440.08,-46.19 395.83,-89"/>
<path fill="none" stroke="black" d="M395.83,-91C372.11,-113.94 359.7,-115.06 343.83,-144 304.52,-215.69 291.78,-312.99 287.7,-362.71"/>
<polygon fill="#854747" stroke="black" points="284.23,-362.25 286.97,-372.48 291.21,-362.77 284.23,-362.25"/>
</g>
<!-- app_main&#45;&gt;app_interfaces_middlewares -->
<g id="edge70" class="edge">
<title>app_main&#45;&gt;app_interfaces_middlewares</title><style>.edge>path:hover{stroke-width:8}</style>
<path fill="none" stroke="black" d="M606,-19.35C644.72,-21.37 715.53,-30.88 755.83,-72 814.61,-131.97 833.36,-192.83 781.83,-259.13 762.04,-284.6 678.22,-300.5 619.44,-308.74"/>
<polygon fill="#854747" stroke="black" points="618.99,-305.27 609.55,-310.08 619.93,-312.2 618.99,-305.27"/>
</g>
</g>
</svg>
