<?xml version="1.0" encoding="UTF-8" standalone="no"?>
<!DOCTYPE svg PUBLIC "-//W3C//DTD SVG 1.1//EN"
 "http://www.w3.org/Graphics/SVG/1.1/DTD/svg11.dtd">
<!-- Generated by graphviz version 12.2.0 (20241103.1931)
 -->
<!-- Title: G Pages: 1 -->
<svg width="723pt" height="873pt"
 viewBox="0.00 0.00 723.11 873.00" xmlns="http://www.w3.org/2000/svg" xmlns:xlink="http://www.w3.org/1999/xlink">
<g id="graph0" class="graph" transform="scale(1 1) rotate(0) translate(4 869)">
<title>G</title><style>.edge>path:hover{stroke-width:8}</style>
<polygon fill="white" stroke="none" points="-4,4 -4,-869 719.11,-869 719.11,4 -4,4"/>
<!-- annotated_types -->
<g id="node1" class="node">
<title>annotated_types</title><style>.edge>path:hover{stroke-width:8}</style>
<polygon fill="#d92626" stroke="black" points="535,-756 532,-760 511,-760 508,-756 447,-756 447,-720 535,-720 535,-756"/>
<text text-anchor="middle" x="491" y="-734.12" font-family="Helvetica,sans-Serif" font-size="10.00" fill="#ffffff">annotated_types</text>
</g>
<!-- typing_extensions -->
<g id="node25" class="node">
<title>typing_extensions</title><style>.edge>path:hover{stroke-width:8}</style>
<polygon fill="#f9105a" stroke="black" points="466.38,-865 463.38,-869 442.38,-869 439.38,-865 371.62,-865 371.62,-829 466.38,-829 466.38,-865"/>
<text text-anchor="middle" x="419" y="-843.12" font-family="Helvetica,sans-Serif" font-size="10.00" fill="#ffffff">typing_extensions</text>
</g>
<!-- annotated_types&#45;&gt;typing_extensions -->
<g id="edge55" class="edge">
<title>annotated_types&#45;&gt;typing_extensions</title><style>.edge>path:hover{stroke-width:8}</style>
<path fill="none" stroke="black" d="M446.62,-754.03C430.81,-762.4 417.25,-774.7 419,-792"/>
</g>
<!-- anyio -->
<g id="node2" class="node">
<title>anyio</title><style>.edge>path:hover{stroke-width:8}</style>
<polygon fill="#f95a10" stroke="black" points="683,-684 680,-688 659,-688 656,-684 629,-684 629,-648 683,-648 683,-684"/>
<text text-anchor="middle" x="656" y="-662.12" font-family="Helvetica,sans-Serif" font-size="10.00" fill="#000000">anyio</text>
</g>
<!-- anyio&#45;&gt;typing_extensions -->
<g id="edge56" class="edge">
<title>anyio&#45;&gt;typing_extensions</title><style>.edge>path:hover{stroke-width:8}</style>
<path fill="none" stroke="black" d="M683.32,-683.82C700.84,-696.95 718.93,-716.37 711,-737"/>
</g>
<!-- app_application -->
<g id="node3" class="node">
<title>app_application</title><style>.edge>path:hover{stroke-width:8}</style>
<ellipse fill="#b67f20" stroke="black" cx="249" cy="-234" rx="36.98" ry="18"/>
<text text-anchor="middle" x="249" y="-230.12" font-family="Helvetica,sans-Serif" font-size="10.00" fill="#000000">application</text>
</g>
<!-- app_domain -->
<g id="node5" class="node">
<title>app_domain</title><style>.edge>path:hover{stroke-width:8}</style>
<ellipse fill="#b87809" stroke="black" cx="296" cy="-306" rx="28.11" ry="18"/>
<text text-anchor="middle" x="296" y="-302.12" font-family="Helvetica,sans-Serif" font-size="10.00" fill="#ffffff">domain</text>
</g>
<!-- app_application&#45;&gt;app_domain -->
<g id="edge8" class="edge">
<title>app_application&#45;&gt;app_domain</title><style>.edge>path:hover{stroke-width:8}</style>
<path fill="none" stroke="black" d="M260.14,-251.59C265.78,-259.99 272.75,-270.37 279.04,-279.74"/>
<polygon fill="#b67f20" stroke="black" points="275.94,-281.4 284.42,-287.76 281.75,-277.5 275.94,-281.4"/>
</g>
<!-- pydantic -->
<g id="node18" class="node">
<title>pydantic</title><style>.edge>path:hover{stroke-width:8}</style>
<polygon fill="#035095" stroke="black" points="455,-612 452,-616 431,-616 428,-612 401,-612 401,-576 455,-576 455,-612"/>
<text text-anchor="middle" x="428" y="-590.12" font-family="Helvetica,sans-Serif" font-size="10.00" fill="#ffffff">pydantic</text>
</g>
<!-- app_application&#45;&gt;pydantic -->
<g id="edge30" class="edge">
<title>app_application&#45;&gt;pydantic</title><style>.edge>path:hover{stroke-width:8}</style>
<path fill="none" stroke="black" d="M240,-307C235.64,-320.86 349.7,-528.83 359,-540 368.21,-551.07 380.12,-561.24 391.46,-569.65"/>
<polygon fill="#b67f20" stroke="black" points="389.36,-572.45 399.53,-575.4 393.42,-566.75 389.36,-572.45"/>
</g>
<!-- sqlalchemy -->
<g id="node22" class="node">
<title>sqlalchemy</title><style>.edge>path:hover{stroke-width:8}</style>
<polygon fill="#7e04a9" stroke="black" points="192.75,-612 189.75,-616 168.75,-616 165.75,-612 127.25,-612 127.25,-576 192.75,-576 192.75,-612"/>
<text text-anchor="middle" x="160" y="-590.12" font-family="Helvetica,sans-Serif" font-size="10.00" fill="#ffffff">sqlalchemy</text>
</g>
<!-- app_application&#45;&gt;sqlalchemy -->
<g id="edge44" class="edge">
<title>app_application&#45;&gt;sqlalchemy</title><style>.edge>path:hover{stroke-width:8}</style>
<path fill="none" stroke="black" d="M240,-307C226.21,-350.8 179.15,-333.65 164,-377"/>
<path fill="none" stroke="black" d="M248.47,-252.34C247.63,-266.73 245.48,-287.59 240,-305"/>
</g>
<!-- app_di_container -->
<g id="node4" class="node">
<title>app_di_container</title><style>.edge>path:hover{stroke-width:8}</style>
<ellipse fill="#916e30" stroke="black" cx="314" cy="-90" rx="40.53" ry="18"/>
<text text-anchor="middle" x="314" y="-86.12" font-family="Helvetica,sans-Serif" font-size="10.00" fill="#ffffff">di_container</text>
</g>
<!-- app_di_container&#45;&gt;app_domain -->
<g id="edge9" class="edge">
<title>app_di_container&#45;&gt;app_domain</title><style>.edge>path:hover{stroke-width:8}</style>
<path fill="none" stroke="black" d="M314,-163C302.83,-192.04 310.69,-202.07 314,-233"/>
</g>
<!-- app_infrastructure -->
<g id="node6" class="node">
<title>app_infrastructure</title><style>.edge>path:hover{stroke-width:8}</style>
<ellipse fill="#8a5c0f" stroke="black" cx="243" cy="-162" rx="43.19" ry="18"/>
<text text-anchor="middle" x="243" y="-158.12" font-family="Helvetica,sans-Serif" font-size="10.00" fill="#ffffff">infrastructure</text>
</g>
<!-- app_di_container&#45;&gt;app_infrastructure -->
<g id="edge12" class="edge">
<title>app_di_container&#45;&gt;app_infrastructure</title><style>.edge>path:hover{stroke-width:8}</style>
<path fill="none" stroke="black" d="M297.89,-106.88C288.81,-115.83 277.29,-127.19 267.16,-137.19"/>
<polygon fill="#916e30" stroke="black" points="264.79,-134.6 260.13,-144.12 269.7,-139.59 264.79,-134.6"/>
</g>
<!-- dependency_injector -->
<g id="node12" class="node">
<title>dependency_injector</title><style>.edge>path:hover{stroke-width:8}</style>
<polygon fill="#79ce3b" stroke="black" points="670.62,-324 667.62,-328 646.62,-328 643.62,-324 565.38,-324 565.38,-288 670.62,-288 670.62,-324"/>
<text text-anchor="middle" x="618" y="-302.12" font-family="Helvetica,sans-Serif" font-size="10.00" fill="#000000">dependency_injector</text>
</g>
<!-- app_di_container&#45;&gt;dependency_injector -->
<g id="edge18" class="edge">
<title>app_di_container&#45;&gt;dependency_injector</title><style>.edge>path:hover{stroke-width:8}</style>
<path fill="none" stroke="black" d="M353.36,-94.59C393.58,-99.88 456.31,-112.81 501,-144 550.69,-178.67 587.2,-241.39 605.28,-277.46"/>
<polygon fill="#916e30" stroke="black" points="602.1,-278.92 609.62,-286.38 608.39,-275.86 602.1,-278.92"/>
</g>
<!-- shortuuid -->
<g id="node21" class="node">
<title>shortuuid</title><style>.edge>path:hover{stroke-width:8}</style>
<polygon fill="#6f31c4" stroke="black" points="211.88,-324 208.88,-328 187.88,-328 184.88,-324 156.12,-324 156.12,-288 211.88,-288 211.88,-324"/>
<text text-anchor="middle" x="184" y="-302.12" font-family="Helvetica,sans-Serif" font-size="10.00" fill="#ffffff">shortuuid</text>
</g>
<!-- app_di_container&#45;&gt;shortuuid -->
<g id="edge42" class="edge">
<title>app_di_container&#45;&gt;shortuuid</title><style>.edge>path:hover{stroke-width:8}</style>
<path fill="none" stroke="black" d="M317.37,-108.31C319.42,-122.88 320.54,-143.99 314,-161"/>
<path fill="none" stroke="black" d="M314,-163C309.93,-173.58 304.65,-174.06 295,-180 257.6,-203 231.42,-182.53 203,-216 188.92,-232.58 184.49,-257.06 183.4,-276.15"/>
<polygon fill="#916e30" stroke="black" points="179.91,-275.9 183.14,-285.99 186.9,-276.08 179.91,-275.9"/>
</g>
<!-- app_domain&#45;&gt;pydantic -->
<g id="edge31" class="edge">
<title>app_domain&#45;&gt;pydantic</title><style>.edge>path:hover{stroke-width:8}</style>
<path fill="none" stroke="black" d="M316,-379C340.24,-418.14 379.47,-393.69 405,-432 431.75,-472.14 433.04,-530.42 430.94,-564.74"/>
<polygon fill="#b87809" stroke="black" points="427.48,-564.06 430.2,-574.3 434.46,-564.6 427.48,-564.06"/>
</g>
<!-- app_domain&#45;&gt;sqlalchemy -->
<g id="edge45" class="edge">
<title>app_domain&#45;&gt;sqlalchemy</title><style>.edge>path:hover{stroke-width:8}</style>
<path fill="none" stroke="black" d="M273.27,-317.02C236.59,-333.48 168,-365.55 164,-377"/>
</g>
<!-- sqlmodel -->
<g id="node23" class="node">
<title>sqlmodel</title><style>.edge>path:hover{stroke-width:8}</style>
<polygon fill="#83207d" stroke="black" points="395.5,-468 392.5,-472 371.5,-472 368.5,-468 340.5,-468 340.5,-432 395.5,-432 395.5,-468"/>
<text text-anchor="middle" x="368" y="-446.12" font-family="Helvetica,sans-Serif" font-size="10.00" fill="#ffffff">sqlmodel</text>
</g>
<!-- app_domain&#45;&gt;sqlmodel -->
<g id="edge50" class="edge">
<title>app_domain&#45;&gt;sqlmodel</title><style>.edge>path:hover{stroke-width:8}</style>
<path fill="none" stroke="black" d="M298.21,-324.18C300.73,-339.05 305.89,-360.67 316,-377"/>
<path fill="none" stroke="black" d="M316,-379C325.36,-394.12 337.09,-410.11 347.03,-422.98"/>
<polygon fill="#b87809" stroke="black" points="344.04,-424.84 352.96,-430.55 349.55,-420.52 344.04,-424.84"/>
</g>
<!-- app_infrastructure&#45;&gt;app_application -->
<g id="edge5" class="edge">
<title>app_infrastructure&#45;&gt;app_application</title><style>.edge>path:hover{stroke-width:8}</style>
<path fill="none" stroke="black" d="M244.48,-180.3C245.11,-187.59 245.85,-196.27 246.55,-204.46"/>
<polygon fill="#8a5c0f" stroke="black" points="243.06,-204.72 247.4,-214.39 250.04,-204.13 243.06,-204.72"/>
</g>
<!-- app_infrastructure&#45;&gt;app_domain -->
<g id="edge10" class="edge">
<title>app_infrastructure&#45;&gt;app_domain</title><style>.edge>path:hover{stroke-width:8}</style>
<path fill="none" stroke="black" d="M269.18,-176.5C288.28,-188.37 311.29,-207.7 314,-233"/>
<path fill="none" stroke="black" d="M314,-235C315.54,-249.38 312.04,-265 307.74,-277.83"/>
<polygon fill="#8a5c0f" stroke="black" points="304.58,-276.27 304.37,-286.86 311.14,-278.71 304.58,-276.27"/>
</g>
<!-- asyncpg -->
<g id="node10" class="node">
<title>asyncpg</title><style>.edge>path:hover{stroke-width:8}</style>
<polygon fill="#bdb304" stroke="black" points="126,-396 123,-400 102,-400 99,-396 72,-396 72,-360 126,-360 126,-396"/>
<text text-anchor="middle" x="99" y="-374.12" font-family="Helvetica,sans-Serif" font-size="10.00" fill="#000000">asyncpg</text>
</g>
<!-- app_infrastructure&#45;&gt;asyncpg -->
<g id="edge16" class="edge">
<title>app_infrastructure&#45;&gt;asyncpg</title><style>.edge>path:hover{stroke-width:8}</style>
<path fill="none" stroke="black" d="M206.15,-171.86C176.87,-181.29 139.07,-199.61 128,-233"/>
<path fill="none" stroke="black" d="M128,-235C118.21,-264.53 122.45,-274.39 128,-305"/>
<path fill="none" stroke="black" d="M128,-307C130.66,-321.66 125.29,-337.06 118.47,-349.66"/>
<polygon fill="#8a5c0f" stroke="black" points="115.48,-347.85 113.33,-358.22 121.48,-351.45 115.48,-347.85"/>
</g>
<!-- pydantic_settings -->
<g id="node20" class="node">
<title>pydantic_settings</title><style>.edge>path:hover{stroke-width:8}</style>
<polygon fill="#473ab0" stroke="black" points="284.25,-468 281.25,-472 260.25,-472 257.25,-468 191.75,-468 191.75,-432 284.25,-432 284.25,-468"/>
<text text-anchor="middle" x="238" y="-446.12" font-family="Helvetica,sans-Serif" font-size="10.00" fill="#ffffff">pydantic_settings</text>
</g>
<!-- app_infrastructure&#45;&gt;pydantic_settings -->
<g id="edge41" class="edge">
<title>app_infrastructure&#45;&gt;pydantic_settings</title><style>.edge>path:hover{stroke-width:8}</style>
<path fill="none" stroke="black" d="M128,-307C133.78,-338.86 157.77,-334.71 178,-360 193.94,-379.92 209.99,-403.99 221.47,-422.07"/>
<polygon fill="#8a5c0f" stroke="black" points="218.42,-423.8 226.71,-430.41 224.35,-420.08 218.42,-423.8"/>
</g>
<!-- app_infrastructure&#45;&gt;shortuuid -->
<g id="edge43" class="edge">
<title>app_infrastructure&#45;&gt;shortuuid</title><style>.edge>path:hover{stroke-width:8}</style>
<path fill="none" stroke="black" d="M128,-235C122.32,-252.13 133.27,-268.1 146.95,-280.45"/>
<polygon fill="#8a5c0f" stroke="black" points="144.59,-283.03 154.53,-286.68 149.03,-277.63 144.59,-283.03"/>
</g>
<!-- app_infrastructure&#45;&gt;sqlalchemy -->
<g id="edge46" class="edge">
<title>app_infrastructure&#45;&gt;sqlalchemy</title><style>.edge>path:hover{stroke-width:8}</style>
<path fill="none" stroke="black" d="M128,-307C133.46,-341.56 175.54,-343.97 164,-377"/>
<path fill="none" stroke="black" d="M164,-379C153.74,-408.37 179.32,-421.92 164,-449"/>
<path fill="none" stroke="black" d="M160,-523C153.42,-535.42 152.79,-550.89 154.07,-564.14"/>
<polygon fill="#8a5c0f" stroke="black" points="150.6,-564.6 155.45,-574.02 157.53,-563.63 150.6,-564.6"/>
<path fill="none" stroke="black" d="M164,-451C148.65,-478.12 174.58,-493.46 160,-521"/>
</g>
<!-- app_interfaces -->
<g id="node7" class="node">
<title>app_interfaces</title><style>.edge>path:hover{stroke-width:8}</style>
<ellipse fill="#7a581e" stroke="black" cx="457" cy="-162" rx="34.76" ry="18"/>
<text text-anchor="middle" x="457" y="-158.12" font-family="Helvetica,sans-Serif" font-size="10.00" fill="#ffffff">interfaces</text>
</g>
<!-- app_interfaces&#45;&gt;app_application -->
<g id="edge6" class="edge">
<title>app_interfaces&#45;&gt;app_application</title><style>.edge>path:hover{stroke-width:8}</style>
<path fill="none" stroke="black" d="M428.51,-172.59C392.54,-184.69 330.4,-205.6 289.5,-219.37"/>
<polygon fill="#7a581e" stroke="black" points="288.62,-215.97 280.26,-222.48 290.85,-222.61 288.62,-215.97"/>
</g>
<!-- app_interfaces&#45;&gt;app_domain -->
<g id="edge11" class="edge">
<title>app_interfaces&#45;&gt;app_domain</title><style>.edge>path:hover{stroke-width:8}</style>
<path fill="none" stroke="black" d="M444.55,-179.31C435.43,-192.92 424.69,-213.23 425,-233"/>
<path fill="none" stroke="black" d="M425,-235C425.65,-276.44 373.39,-293.48 335.19,-300.4"/>
<polygon fill="#7a581e" stroke="black" points="334.67,-296.94 325.36,-301.99 335.79,-303.85 334.67,-296.94"/>
</g>
<!-- app_interfaces&#45;&gt;dependency_injector -->
<g id="edge19" class="edge">
<title>app_interfaces&#45;&gt;dependency_injector</title><style>.edge>path:hover{stroke-width:8}</style>
<path fill="none" stroke="black" d="M425,-235C425.11,-242.02 498.22,-266.92 554.42,-285.03"/>
<polygon fill="#7a581e" stroke="black" points="553.02,-288.26 563.61,-287.98 555.15,-281.59 553.02,-288.26"/>
</g>
<!-- fastapi -->
<g id="node15" class="node">
<title>fastapi</title><style>.edge>path:hover{stroke-width:8}</style>
<polygon fill="#039550" stroke="black" points="700,-468 697,-472 676,-472 673,-468 646,-468 646,-432 700,-432 700,-468"/>
<text text-anchor="middle" x="673" y="-446.12" font-family="Helvetica,sans-Serif" font-size="10.00" fill="#ffffff">fastapi</text>
</g>
<!-- app_interfaces&#45;&gt;fastapi -->
<g id="edge24" class="edge">
<title>app_interfaces&#45;&gt;fastapi</title><style>.edge>path:hover{stroke-width:8}</style>
<path fill="none" stroke="black" d="M490.44,-167.03C551.84,-175.27 678.19,-196.41 699,-233"/>
<path fill="none" stroke="black" d="M699,-235C732.87,-294.56 705,-378.37 686.38,-421.29"/>
<polygon fill="#7a581e" stroke="black" points="683.3,-419.59 682.39,-430.15 689.69,-422.46 683.3,-419.59"/>
</g>
<!-- fastapi_pagination -->
<g id="node16" class="node">
<title>fastapi_pagination</title><style>.edge>path:hover{stroke-width:8}</style>
<polygon fill="#38a897" stroke="black" points="547.38,-324 544.38,-328 523.38,-328 520.38,-324 452.62,-324 452.62,-288 547.38,-288 547.38,-324"/>
<text text-anchor="middle" x="500" y="-302.12" font-family="Helvetica,sans-Serif" font-size="10.00" fill="#000000">fastapi_pagination</text>
</g>
<!-- app_interfaces&#45;&gt;fastapi_pagination -->
<g id="edge28" class="edge">
<title>app_interfaces&#45;&gt;fastapi_pagination</title><style>.edge>path:hover{stroke-width:8}</style>
<path fill="none" stroke="black" d="M425,-235C425.3,-254.35 438.87,-269.89 454.37,-281.36"/>
<polygon fill="#7a581e" stroke="black" points="452.15,-284.08 462.39,-286.8 456.08,-278.29 452.15,-284.08"/>
</g>
<!-- app_interfaces&#45;&gt;pydantic -->
<g id="edge32" class="edge">
<title>app_interfaces&#45;&gt;pydantic</title><style>.edge>path:hover{stroke-width:8}</style>
<path fill="none" stroke="black" d="M462,-379C458.27,-450.86 459.84,-469.59 445,-540 443.29,-548.13 440.8,-556.78 438.27,-564.68"/>
<polygon fill="#7a581e" stroke="black" points="434.95,-563.55 435.07,-574.14 441.59,-565.79 434.95,-563.55"/>
</g>
<!-- app_interfaces&#45;&gt;sqlalchemy -->
<g id="edge47" class="edge">
<title>app_interfaces&#45;&gt;sqlalchemy</title><style>.edge>path:hover{stroke-width:8}</style>
<path fill="none" stroke="black" d="M425,-235C425.49,-266.11 434.97,-275.53 425,-305"/>
<path fill="none" stroke="black" d="M425,-307C423.79,-310.58 186.12,-429.85 183,-432 173.67,-438.43 169.58,-439.14 164,-449"/>
</g>
<!-- app_interfaces&#45;&gt;sqlmodel -->
<g id="edge51" class="edge">
<title>app_interfaces&#45;&gt;sqlmodel</title><style>.edge>path:hover{stroke-width:8}</style>
<path fill="none" stroke="black" d="M462,-379C460.5,-407.89 431.67,-426.28 406.33,-436.93"/>
<polygon fill="#7a581e" stroke="black" points="405.24,-433.6 397.18,-440.47 407.77,-440.12 405.24,-433.6"/>
<path fill="none" stroke="black" d="M425,-307C413.72,-340.33 463.82,-341.86 462,-377"/>
</g>
<!-- app_load_seeds -->
<g id="node8" class="node">
<title>app_load_seeds</title><style>.edge>path:hover{stroke-width:8}</style>
<ellipse fill="#a48246" stroke="black" cx="101" cy="-90" rx="38.76" ry="18"/>
<text text-anchor="middle" x="101" y="-86.12" font-family="Helvetica,sans-Serif" font-size="10.00" fill="#000000">load_seeds</text>
</g>
<!-- app_load_seeds&#45;&gt;app_infrastructure -->
<g id="edge13" class="edge">
<title>app_load_seeds&#45;&gt;app_infrastructure</title><style>.edge>path:hover{stroke-width:8}</style>
<path fill="none" stroke="black" d="M127.04,-103.84C149.18,-114.75 181.23,-130.55 206.02,-142.77"/>
<polygon fill="#a48246" stroke="black" points="204.28,-145.82 214.8,-147.1 207.38,-139.54 204.28,-145.82"/>
</g>
<!-- click -->
<g id="node11" class="node">
<title>click</title><style>.edge>path:hover{stroke-width:8}</style>
<polygon fill="#6f8b22" stroke="black" points="54,-396 51,-400 30,-400 27,-396 0,-396 0,-360 54,-360 54,-396"/>
<text text-anchor="middle" x="27" y="-374.12" font-family="Helvetica,sans-Serif" font-size="10.00" fill="#ffffff">click</text>
</g>
<!-- app_load_seeds&#45;&gt;click -->
<g id="edge17" class="edge">
<title>app_load_seeds&#45;&gt;click</title><style>.edge>path:hover{stroke-width:8}</style>
<path fill="none" stroke="black" d="M96.59,-108.03C84.31,-155.51 49.59,-289.69 34.34,-348.64"/>
<polygon fill="#a48246" stroke="black" points="30.97,-347.67 31.86,-358.23 37.75,-349.42 30.97,-347.67"/>
</g>
<!-- app_main -->
<g id="node9" class="node">
<title>app_main</title><style>.edge>path:hover{stroke-width:8}</style>
<ellipse fill="#886b3a" stroke="black" cx="314" cy="-18" rx="27" ry="18"/>
<text text-anchor="middle" x="314" y="-14.12" font-family="Helvetica,sans-Serif" font-size="10.00" fill="#ffffff">main</text>
</g>
<!-- app_main&#45;&gt;app_di_container -->
<g id="edge7" class="edge">
<title>app_main&#45;&gt;app_di_container</title><style>.edge>path:hover{stroke-width:8}</style>
<path fill="none" stroke="black" d="M314,-36.3C314,-43.59 314,-52.27 314,-60.46"/>
<polygon fill="#886b3a" stroke="black" points="310.5,-60.38 314,-70.38 317.5,-60.38 310.5,-60.38"/>
</g>
<!-- app_main&#45;&gt;app_infrastructure -->
<g id="edge14" class="edge">
<title>app_main&#45;&gt;app_infrastructure</title><style>.edge>path:hover{stroke-width:8}</style>
<path fill="none" stroke="black" d="M297.2,-32.6C286.16,-42.43 272.28,-56.63 264,-72 253.92,-90.71 248.64,-114.2 245.9,-132.34"/>
<polygon fill="#886b3a" stroke="black" points="242.44,-131.79 244.6,-142.16 249.38,-132.7 242.44,-131.79"/>
</g>
<!-- app_main&#45;&gt;app_interfaces -->
<g id="edge15" class="edge">
<title>app_main&#45;&gt;app_interfaces</title><style>.edge>path:hover{stroke-width:8}</style>
<path fill="none" stroke="black" d="M699,-91C706.14,-131.16 574.41,-149.96 502.38,-157.2"/>
<polygon fill="#886b3a" stroke="black" points="502.48,-153.68 492.87,-158.12 503.16,-160.65 502.48,-153.68"/>
<path fill="none" stroke="black" d="M340.87,-21.12C427.26,-28.28 692.63,-53.17 699,-89"/>
</g>
<!-- app_main&#45;&gt;fastapi -->
<g id="edge25" class="edge">
<title>app_main&#45;&gt;fastapi</title><style>.edge>path:hover{stroke-width:8}</style>
<path fill="none" stroke="black" d="M699,-91C710.05,-153.14 662.2,-181.73 699,-233"/>
</g>
<!-- asyncpg&#45;&gt;typing_extensions -->
<g id="edge57" class="edge">
<title>asyncpg&#45;&gt;typing_extensions</title><style>.edge>path:hover{stroke-width:8}</style>
<path fill="none" stroke="black" d="M96.82,-396.23C95.52,-410.55 94.84,-431.38 99,-449"/>
</g>
<!-- click&#45;&gt;typing_extensions -->
<g id="edge58" class="edge">
<title>click&#45;&gt;typing_extensions</title><style>.edge>path:hover{stroke-width:8}</style>
<path fill="none" stroke="black" d="M99,-451C130.25,-583.37 29.75,-657.94 124,-756 169.76,-803.62 411.56,-726.38 419,-792"/>
<path fill="none" stroke="black" d="M54.36,-394.85C71.92,-407 92.59,-425.63 99,-449"/>
<path fill="none" stroke="black" d="M419,-793C419.82,-800.9 420.08,-809.5 420.07,-817.43"/>
<polygon fill="#6f8b22" stroke="black" points="416.58,-817.2 419.92,-827.25 423.58,-817.31 416.58,-817.2"/>
</g>
<!-- dependency_injector&#45;&gt;fastapi -->
<g id="edge26" class="edge">
<title>dependency_injector&#45;&gt;fastapi</title><style>.edge>path:hover{stroke-width:8}</style>
<path fill="none" stroke="black" d="M618,-379C621.17,-396.17 632.24,-411.81 643.63,-423.93"/>
<polygon fill="#79ce3b" stroke="black" points="640.85,-426.1 650.41,-430.67 645.79,-421.14 640.85,-426.1"/>
</g>
<!-- starlette -->
<g id="node24" class="node">
<title>starlette</title><style>.edge>path:hover{stroke-width:8}</style>
<polygon fill="#f910a3" stroke="black" points="645,-540 642,-544 621,-544 618,-540 591,-540 591,-504 645,-504 645,-540"/>
<text text-anchor="middle" x="618" y="-518.12" font-family="Helvetica,sans-Serif" font-size="10.00" fill="#ffffff">starlette</text>
</g>
<!-- dependency_injector&#45;&gt;starlette -->
<g id="edge52" class="edge">
<title>dependency_injector&#45;&gt;starlette</title><style>.edge>path:hover{stroke-width:8}</style>
<path fill="none" stroke="black" d="M616.26,-324.42C615.25,-338.68 614.74,-359.31 618,-377"/>
<path fill="none" stroke="black" d="M618,-379C625.16,-417.82 623.36,-463.63 621.01,-492.5"/>
<polygon fill="#79ce3b" stroke="black" points="617.55,-491.99 620.13,-502.26 624.52,-492.62 617.55,-491.99"/>
</g>
<!-- dotenv -->
<g id="node13" class="node">
<title>dotenv</title><style>.edge>path:hover{stroke-width:8}</style>
<polygon fill="#54c247" stroke="black" points="297,-756 294,-760 273,-760 270,-756 243,-756 243,-720 297,-720 297,-756"/>
<text text-anchor="middle" x="270" y="-734.12" font-family="Helvetica,sans-Serif" font-size="10.00" fill="#000000">dotenv</text>
</g>
<!-- email_validator -->
<g id="node14" class="node">
<title>email_validator</title><style>.edge>path:hover{stroke-width:8}</style>
<polygon fill="#16ca3c" stroke="black" points="677.62,-756 674.62,-760 653.62,-760 650.62,-756 596.38,-756 596.38,-720 677.62,-720 677.62,-756"/>
<text text-anchor="middle" x="637" y="-734.12" font-family="Helvetica,sans-Serif" font-size="10.00" fill="#000000">email_validator</text>
</g>
<!-- fastapi&#45;&gt;anyio -->
<g id="edge3" class="edge">
<title>fastapi&#45;&gt;anyio</title><style>.edge>path:hover{stroke-width:8}</style>
<path fill="none" stroke="black" d="M673,-523C655.65,-553.86 708.86,-557.66 711,-593"/>
<path fill="none" stroke="black" d="M711,-595C712.05,-612.3 701.62,-627.87 689.58,-639.91"/>
<polygon fill="#039550" stroke="black" points="687.24,-637.31 682.22,-646.64 691.96,-642.48 687.24,-637.31"/>
</g>
<!-- fastapi&#45;&gt;email_validator -->
<g id="edge22" class="edge">
<title>fastapi&#45;&gt;email_validator</title><style>.edge>path:hover{stroke-width:8}</style>
<path fill="none" stroke="black" d="M711,-595C712.88,-626.05 718.32,-634.76 711,-665"/>
<path fill="none" stroke="black" d="M711,-667C706.45,-685.79 692.3,-701.3 677.57,-712.9"/>
<polygon fill="#039550" stroke="black" points="675.62,-709.98 669.62,-718.72 679.76,-715.63 675.62,-709.98"/>
</g>
<!-- fastapi&#45;&gt;pydantic -->
<g id="edge33" class="edge">
<title>fastapi&#45;&gt;pydantic</title><style>.edge>path:hover{stroke-width:8}</style>
<path fill="none" stroke="black" d="M677.48,-468.3C680.35,-483.24 682.05,-504.9 673,-521"/>
<path fill="none" stroke="black" d="M673,-523C667.45,-532.88 664.05,-534.77 654,-540 637.42,-548.63 526.16,-572.59 466.17,-585.13"/>
<polygon fill="#039550" stroke="black" points="465.8,-581.63 456.73,-587.09 467.23,-588.48 465.8,-581.63"/>
</g>
<!-- pydantic_core -->
<g id="node19" class="node">
<title>pydantic_core</title><style>.edge>path:hover{stroke-width:8}</style>
<polygon fill="#0534e5" stroke="black" points="391.38,-756 388.38,-760 367.38,-760 364.38,-756 314.62,-756 314.62,-720 391.38,-720 391.38,-756"/>
<text text-anchor="middle" x="353" y="-734.12" font-family="Helvetica,sans-Serif" font-size="10.00" fill="#ffffff">pydantic_core</text>
</g>
<!-- fastapi&#45;&gt;pydantic_core -->
<g id="edge37" class="edge">
<title>fastapi&#45;&gt;pydantic_core</title><style>.edge>path:hover{stroke-width:8}</style>
<path fill="none" stroke="black" d="M673,-523C667.45,-532.88 663.13,-533.29 654,-540 578.52,-595.49 550.8,-595.82 473,-648 450.85,-662.85 446.4,-668.1 425,-684 412.19,-693.52 398.06,-703.94 385.73,-713"/>
<polygon fill="#039550" stroke="black" points="383.92,-709.99 377.93,-718.73 388.06,-715.63 383.92,-709.99"/>
</g>
<!-- fastapi&#45;&gt;starlette -->
<g id="edge53" class="edge">
<title>fastapi&#45;&gt;starlette</title><style>.edge>path:hover{stroke-width:8}</style>
<path fill="none" stroke="black" d="M659.4,-468.3C653.08,-476.36 645.42,-486.11 638.41,-495.02"/>
<polygon fill="#039550" stroke="black" points="635.8,-492.68 632.37,-502.71 641.3,-497 635.8,-492.68"/>
</g>
<!-- fastapi&#45;&gt;typing_extensions -->
<g id="edge59" class="edge">
<title>fastapi&#45;&gt;typing_extensions</title><style>.edge>path:hover{stroke-width:8}</style>
<path fill="none" stroke="black" d="M711,-667C703.68,-697.24 722.62,-708.14 711,-737"/>
</g>
<!-- fastapi_pagination&#45;&gt;fastapi -->
<g id="edge27" class="edge">
<title>fastapi_pagination&#45;&gt;fastapi</title><style>.edge>path:hover{stroke-width:8}</style>
<path fill="none" stroke="black" d="M580,-379C595.89,-397.64 617.58,-414.33 636.02,-426.73"/>
<polygon fill="#38a897" stroke="black" points="634.04,-429.61 644.32,-432.15 637.87,-423.75 634.04,-429.61"/>
</g>
<!-- fastapi_pagination&#45;&gt;pydantic -->
<g id="edge34" class="edge">
<title>fastapi_pagination&#45;&gt;pydantic</title><style>.edge>path:hover{stroke-width:8}</style>
<path fill="none" stroke="black" d="M580,-379C600.18,-402.68 577.75,-417.97 580,-449"/>
<path fill="none" stroke="black" d="M580,-451C582.32,-482.93 578.14,-492.79 563,-521"/>
<path fill="none" stroke="black" d="M563,-523C543.85,-558.69 499.17,-576.74 466.44,-585.48"/>
<polygon fill="#38a897" stroke="black" points="465.76,-582.04 456.89,-587.83 467.43,-588.84 465.76,-582.04"/>
<path fill="none" stroke="black" d="M523.35,-324.41C540.25,-337.7 563,-357.05 580,-377"/>
</g>
<!-- fastapi_pagination&#45;&gt;sqlalchemy -->
<g id="edge48" class="edge">
<title>fastapi_pagination&#45;&gt;sqlalchemy</title><style>.edge>path:hover{stroke-width:8}</style>
<path fill="none" stroke="black" d="M471.81,-324.48C438.87,-344.26 382.2,-376.28 330,-396 257.55,-423.37 201.42,-381.19 164,-449"/>
</g>
<!-- fastapi_pagination&#45;&gt;starlette -->
<g id="edge54" class="edge">
<title>fastapi_pagination&#45;&gt;starlette</title><style>.edge>path:hover{stroke-width:8}</style>
<path fill="none" stroke="black" d="M580,-451C581.13,-466.56 588.64,-482 596.7,-494.41"/>
<polygon fill="#38a897" stroke="black" points="593.69,-496.22 602.29,-502.41 599.43,-492.21 593.69,-496.22"/>
</g>
<!-- fastapi_pagination&#45;&gt;typing_extensions -->
<g id="edge60" class="edge">
<title>fastapi_pagination&#45;&gt;typing_extensions</title><style>.edge>path:hover{stroke-width:8}</style>
<path fill="none" stroke="black" d="M563,-523C513.87,-614.55 609.8,-675.6 544,-756 507.38,-800.74 413.07,-734.49 419,-792"/>
</g>
<!-- greenlet -->
<g id="node17" class="node">
<title>greenlet</title><style>.edge>path:hover{stroke-width:8}</style>
<polygon fill="#53a6b6" stroke="black" points="187,-756 184,-760 163,-760 160,-756 133,-756 133,-720 187,-720 187,-756"/>
<text text-anchor="middle" x="160" y="-734.12" font-family="Helvetica,sans-Serif" font-size="10.00" fill="#000000">greenlet</text>
</g>
<!-- pydantic&#45;&gt;annotated_types -->
<g id="edge1" class="edge">
<title>pydantic&#45;&gt;annotated_types</title><style>.edge>path:hover{stroke-width:8}</style>
<path fill="none" stroke="black" d="M487,-667C490.01,-680.32 491.15,-695.4 491.48,-708.15"/>
<polygon fill="#035095" stroke="black" points="487.98,-708.04 491.57,-718.01 494.98,-707.97 487.98,-708.04"/>
<path fill="none" stroke="black" d="M450.97,-612.27C465.4,-624.94 482.17,-643.61 487,-665"/>
</g>
<!-- pydantic&#45;&gt;dotenv -->
<g id="edge20" class="edge">
<title>pydantic&#45;&gt;dotenv</title><style>.edge>path:hover{stroke-width:8}</style>
<path fill="none" stroke="black" d="M408.63,-612.41C380.76,-637.46 329.22,-683.78 297.44,-712.34"/>
<polygon fill="#035095" stroke="black" points="295.26,-709.59 290.16,-718.88 299.94,-714.8 295.26,-709.59"/>
</g>
<!-- pydantic&#45;&gt;email_validator -->
<g id="edge23" class="edge">
<title>pydantic&#45;&gt;email_validator</title><style>.edge>path:hover{stroke-width:8}</style>
<path fill="none" stroke="black" d="M453.63,-612.41C490.94,-637.76 560.34,-684.91 602.23,-713.38"/>
<polygon fill="#035095" stroke="black" points="600,-716.09 610.24,-718.82 603.93,-710.3 600,-716.09"/>
</g>
<!-- pydantic&#45;&gt;pydantic_core -->
<g id="edge38" class="edge">
<title>pydantic&#45;&gt;pydantic_core</title><style>.edge>path:hover{stroke-width:8}</style>
<path fill="none" stroke="black" d="M411,-667C406.02,-684.12 394.15,-699.75 382.43,-711.89"/>
<polygon fill="#035095" stroke="black" points="380.22,-709.15 375.51,-718.64 385.11,-714.16 380.22,-709.15"/>
<path fill="none" stroke="black" d="M424.24,-612.37C421.04,-626.61 416.17,-647.23 411,-665"/>
</g>
<!-- pydantic&#45;&gt;typing_extensions -->
<g id="edge61" class="edge">
<title>pydantic&#45;&gt;typing_extensions</title><style>.edge>path:hover{stroke-width:8}</style>
<path fill="none" stroke="black" d="M411,-667C395.45,-720.45 413.4,-736.61 419,-792"/>
</g>
<!-- pydantic_core&#45;&gt;typing_extensions -->
<g id="edge62" class="edge">
<title>pydantic_core&#45;&gt;typing_extensions</title><style>.edge>path:hover{stroke-width:8}</style>
<path fill="none" stroke="black" d="M391.7,-755.59C405.18,-764.09 417.39,-776.06 419,-792"/>
</g>
<!-- pydantic_settings&#45;&gt;dotenv -->
<g id="edge21" class="edge">
<title>pydantic_settings&#45;&gt;dotenv</title><style>.edge>path:hover{stroke-width:8}</style>
<path fill="none" stroke="black" d="M198,-523C198.3,-551.73 223.5,-549.67 235,-576 254.27,-620.12 263.33,-675.83 267.28,-708.81"/>
<polygon fill="#473ab0" stroke="black" points="263.76,-708.81 268.34,-718.36 270.71,-708.04 263.76,-708.81"/>
</g>
<!-- pydantic_settings&#45;&gt;pydantic -->
<g id="edge35" class="edge">
<title>pydantic_settings&#45;&gt;pydantic</title><style>.edge>path:hover{stroke-width:8}</style>
<path fill="none" stroke="black" d="M297,-523C321.66,-551.55 360.92,-570.33 390.04,-581.19"/>
<polygon fill="#473ab0" stroke="black" points="388.63,-584.4 399.22,-584.45 390.98,-577.8 388.63,-584.4"/>
</g>
<!-- pydantic_settings&#45;&gt;pydantic_core -->
<g id="edge39" class="edge">
<title>pydantic_settings&#45;&gt;pydantic_core</title><style>.edge>path:hover{stroke-width:8}</style>
<path fill="none" stroke="black" d="M252.43,-468.36C264.31,-482.58 281.63,-503.2 297,-521"/>
<path fill="none" stroke="black" d="M297,-523C343.12,-576.4 351.88,-663.38 353.16,-708.23"/>
<polygon fill="#473ab0" stroke="black" points="349.66,-708.25 353.32,-718.19 356.66,-708.13 349.66,-708.25"/>
</g>
<!-- pydantic_settings&#45;&gt;typing_extensions -->
<g id="edge63" class="edge">
<title>pydantic_settings&#45;&gt;typing_extensions</title><style>.edge>path:hover{stroke-width:8}</style>
<path fill="none" stroke="black" d="M198,-523C196.74,-555.72 223.54,-560.35 221,-593"/>
<path fill="none" stroke="black" d="M221,-595C216.1,-657.98 170.4,-692.27 215,-737"/>
<path fill="none" stroke="black" d="M221.72,-468.47C210.99,-481.77 198.76,-501.14 198,-521"/>
</g>
<!-- sqlalchemy&#45;&gt;greenlet -->
<g id="edge29" class="edge">
<title>sqlalchemy&#45;&gt;greenlet</title><style>.edge>path:hover{stroke-width:8}</style>
<path fill="none" stroke="black" d="M164.75,-612.44C168.46,-626.54 173.56,-646.94 177,-665"/>
<path fill="none" stroke="black" d="M177,-667C179.66,-680.97 176.61,-696.34 172.39,-709.1"/>
<polygon fill="#7e04a9" stroke="black" points="169.23,-707.55 169.02,-718.14 175.79,-709.99 169.23,-707.55"/>
</g>
<!-- sqlalchemy&#45;&gt;typing_extensions -->
<g id="edge64" class="edge">
<title>sqlalchemy&#45;&gt;typing_extensions</title><style>.edge>path:hover{stroke-width:8}</style>
<path fill="none" stroke="black" d="M177,-667C183.63,-701.77 190.01,-711.93 215,-737"/>
<path fill="none" stroke="black" d="M215,-739C223,-747.02 223.85,-750.96 234,-756 271.51,-774.63 414.28,-750.38 419,-792"/>
</g>
<!-- sqlmodel&#45;&gt;annotated_types -->
<g id="edge2" class="edge">
<title>sqlmodel&#45;&gt;annotated_types</title><style>.edge>path:hover{stroke-width:8}</style>
<path fill="none" stroke="black" d="M385.18,-468.48C406.7,-491.33 443.24,-533.46 464,-576 481.91,-612.72 478,-625.15 487,-665"/>
</g>
<!-- sqlmodel&#45;&gt;pydantic -->
<g id="edge36" class="edge">
<title>sqlmodel&#45;&gt;pydantic</title><style>.edge>path:hover{stroke-width:8}</style>
<path fill="none" stroke="black" d="M373,-523C376.72,-539.88 387.69,-555.37 398.87,-567.47"/>
<polygon fill="#83207d" stroke="black" points="396.36,-569.91 405.87,-574.57 401.34,-564.99 396.36,-569.91"/>
</g>
<!-- sqlmodel&#45;&gt;pydantic_core -->
<g id="edge40" class="edge">
<title>sqlmodel&#45;&gt;pydantic_core</title><style>.edge>path:hover{stroke-width:8}</style>
<path fill="none" stroke="black" d="M373,-523C387.41,-588.34 371.82,-667.13 361.19,-708.48"/>
<polygon fill="#83207d" stroke="black" points="357.82,-707.55 358.61,-718.12 364.58,-709.36 357.82,-707.55"/>
<path fill="none" stroke="black" d="M367.7,-468.5C367.82,-482.8 368.84,-503.45 373,-521"/>
</g>
<!-- sqlmodel&#45;&gt;sqlalchemy -->
<g id="edge49" class="edge">
<title>sqlmodel&#45;&gt;sqlalchemy</title><style>.edge>path:hover{stroke-width:8}</style>
<path fill="none" stroke="black" d="M340.1,-458.12C285.42,-472.4 168.72,-504.54 160,-521"/>
</g>
<!-- sqlmodel&#45;&gt;typing_extensions -->
<g id="edge65" class="edge">
<title>sqlmodel&#45;&gt;typing_extensions</title><style>.edge>path:hover{stroke-width:8}</style>
<path fill="none" stroke="black" d="M340.22,-462.72C297.86,-482.68 221.9,-527.54 221,-593"/>
</g>
<!-- starlette&#45;&gt;anyio -->
<g id="edge4" class="edge">
<title>starlette&#45;&gt;anyio</title><style>.edge>path:hover{stroke-width:8}</style>
<path fill="none" stroke="black" d="M601,-595C602.15,-612.29 612.85,-627.86 624.5,-639.91"/>
<polygon fill="#f910a3" stroke="black" points="621.87,-642.24 631.52,-646.61 626.71,-637.18 621.87,-642.24"/>
</g>
<!-- starlette&#45;&gt;typing_extensions -->
<g id="edge66" class="edge">
<title>starlette&#45;&gt;typing_extensions</title><style>.edge>path:hover{stroke-width:8}</style>
<path fill="none" stroke="black" d="M711,-739C687.34,-800.56 411.57,-726.47 419,-792"/>
<path fill="none" stroke="black" d="M610.71,-540.29C605.57,-554.3 599.78,-574.66 601,-593"/>
<path fill="none" stroke="black" d="M601,-595C603.69,-635.36 595.71,-651.66 620,-684 648.1,-721.43 727.79,-693.31 711,-737"/>
</g>
</g>
</svg>
