<?xml version="1.0" encoding="UTF-8" standalone="no"?>
<!DOCTYPE svg PUBLIC "-//W3C//DTD SVG 1.1//EN"
 "http://www.w3.org/Graphics/SVG/1.1/DTD/svg11.dtd">
<!-- Generated by graphviz version 2.40.1 (20161225.0304)
 -->
<!-- Title: public.user_roles Pages: 1 -->
<svg width="753pt" height="712pt"
 viewBox="0.00 0.00 753.00 712.00" xmlns="http://www.w3.org/2000/svg" xmlns:xlink="http://www.w3.org/1999/xlink">
<g id="graph0" class="graph" transform="scale(1 1) rotate(0) translate(4 708)">
<title>public.user_roles</title>
<polygon fill="#ffffff" stroke="transparent" points="-4,4 -4,-708 749,-708 749,4 -4,4"/>
<!-- public.user_roles -->
<g id="node1" class="node">
<title>public.user_roles</title>
<polygon fill="#efefef" stroke="transparent" points="237,-622.5 237,-657.5 514,-657.5 514,-622.5 237,-622.5"/>
<polygon fill="none" stroke="#000000" points="237,-622.5 237,-657.5 514,-657.5 514,-622.5 237,-622.5"/>
<text text-anchor="start" x="243.7066" y="-635.3" font-family="Arial Bold" font-size="18.00" fill="#000000">public.user_roles</text>
<text text-anchor="start" x="379.7254" y="-635.3" font-family="Arial" font-size="14.00" fill="#000000">    </text>
<text text-anchor="start" x="413.9302" y="-635.3" font-family="Arial" font-size="14.00" fill="#666666">[BASE TABLE]</text>
<polygon fill="none" stroke="#000000" points="237,-592.5 237,-622.5 514,-622.5 514,-592.5 237,-592.5"/>
<text text-anchor="start" x="244" y="-603.9" font-family="Arial" font-size="14.00" fill="#000000">user_id </text>
<text text-anchor="start" x="293.7882" y="-603.9" font-family="Arial" font-size="14.00" fill="#666666">[integer]</text>
<polygon fill="none" stroke="#000000" points="237,-562.5 237,-592.5 514,-592.5 514,-562.5 237,-562.5"/>
<text text-anchor="start" x="244" y="-573.9" font-family="Arial" font-size="14.00" fill="#000000">role_id </text>
<text text-anchor="start" x="289.8948" y="-573.9" font-family="Arial" font-size="14.00" fill="#666666">[integer]</text>
<polygon fill="none" stroke="#000000" stroke-width="3" points="235,-561.5 235,-659.5 515,-659.5 515,-561.5 235,-561.5"/>
</g>
<!-- public.users -->
<g id="node2" class="node">
<title>public.users</title>
<polygon fill="#efefef" stroke="transparent" points="54,-402.5 54,-437.5 337,-437.5 337,-402.5 54,-402.5"/>
<polygon fill="none" stroke="#000000" points="54,-402.5 54,-437.5 337,-437.5 337,-402.5 54,-402.5"/>
<text text-anchor="start" x="83.7091" y="-415.3" font-family="Arial Bold" font-size="18.00" fill="#000000">public.users</text>
<text text-anchor="start" x="179.7229" y="-415.3" font-family="Arial" font-size="14.00" fill="#000000">    </text>
<text text-anchor="start" x="213.9277" y="-415.3" font-family="Arial" font-size="14.00" fill="#666666">[BASE TABLE]</text>
<polygon fill="none" stroke="#000000" points="54,-372.5 54,-402.5 337,-402.5 337,-372.5 54,-372.5"/>
<text text-anchor="start" x="61" y="-383.9" font-family="Arial" font-size="14.00" fill="#000000">first_name    </text>
<text text-anchor="start" x="160.5442" y="-383.9" font-family="Arial" font-size="14.00" fill="#666666">[varchar(256)]</text>
<polygon fill="none" stroke="#000000" points="54,-342.5 54,-372.5 337,-372.5 337,-342.5 54,-342.5"/>
<text text-anchor="start" x="61" y="-353.9" font-family="Arial" font-size="14.00" fill="#000000">last_name    </text>
<text text-anchor="start" x="159.7756" y="-353.9" font-family="Arial" font-size="14.00" fill="#666666">[varchar(256)]</text>
<polygon fill="none" stroke="#000000" points="54,-312.5 54,-342.5 337,-342.5 337,-312.5 54,-312.5"/>
<text text-anchor="start" x="61" y="-323.9" font-family="Arial" font-size="14.00" fill="#000000">email    </text>
<text text-anchor="start" x="128.6438" y="-323.9" font-family="Arial" font-size="14.00" fill="#666666">[varchar]</text>
<polygon fill="none" stroke="#000000" points="54,-282.5 54,-312.5 337,-312.5 337,-282.5 54,-282.5"/>
<text text-anchor="start" x="61" y="-293.9" font-family="Arial" font-size="14.00" fill="#000000">id    </text>
<text text-anchor="start" x="106.094" y="-293.9" font-family="Arial" font-size="14.00" fill="#666666">[integer]</text>
<polygon fill="none" stroke="#000000" points="54,-252.5 54,-282.5 337,-282.5 337,-252.5 54,-252.5"/>
<text text-anchor="start" x="61" y="-263.9" font-family="Arial" font-size="14.00" fill="#000000">uuid    </text>
<text text-anchor="start" x="121.6592" y="-263.9" font-family="Arial" font-size="14.00" fill="#666666">[varchar]</text>
<polygon fill="none" stroke="#000000" points="54,-222.5 54,-252.5 337,-252.5 337,-222.5 54,-222.5"/>
<text text-anchor="start" x="61" y="-233.9" font-family="Arial" font-size="14.00" fill="#000000">password_hash    </text>
<text text-anchor="start" x="193.2328" y="-233.9" font-family="Arial" font-size="14.00" fill="#666666">[varchar]</text>
<polygon fill="none" stroke="#000000" points="54,-192.5 54,-222.5 337,-222.5 337,-192.5 54,-192.5"/>
<text text-anchor="start" x="61" y="-203.9" font-family="Arial" font-size="14.00" fill="#000000">is_active    </text>
<text text-anchor="start" x="149.6564" y="-203.9" font-family="Arial" font-size="14.00" fill="#666666">[boolean]</text>
<polygon fill="none" stroke="#000000" points="54,-162.5 54,-192.5 337,-192.5 337,-162.5 54,-162.5"/>
<text text-anchor="start" x="61" y="-173.9" font-family="Arial" font-size="14.00" fill="#000000">is_superuser    </text>
<text text-anchor="start" x="175.3282" y="-173.9" font-family="Arial" font-size="14.00" fill="#666666">[boolean]</text>
<polygon fill="none" stroke="#000000" points="54,-132.5 54,-162.5 337,-162.5 337,-132.5 54,-132.5"/>
<text text-anchor="start" x="61" y="-143.9" font-family="Arial" font-size="14.00" fill="#000000">last_login    </text>
<text text-anchor="start" x="154.3282" y="-143.9" font-family="Arial" font-size="14.00" fill="#666666">[timestamp with time zone]</text>
<polygon fill="none" stroke="#000000" points="54,-102.5 54,-132.5 337,-132.5 337,-102.5 54,-102.5"/>
<text text-anchor="start" x="61" y="-113.9" font-family="Arial" font-size="14.00" fill="#000000">created_at    </text>
<text text-anchor="start" x="161.3422" y="-113.9" font-family="Arial" font-size="14.00" fill="#666666">[timestamp with time zone]</text>
<polygon fill="none" stroke="#000000" points="54,-72.5 54,-102.5 337,-102.5 337,-72.5 54,-72.5"/>
<text text-anchor="start" x="60.5344" y="-83.9" font-family="Arial" font-size="14.00" fill="#000000">updated_at    </text>
<text text-anchor="start" x="164.7812" y="-83.9" font-family="Arial" font-size="14.00" fill="#666666">[timestamp with time zone]</text>
<polygon fill="none" stroke="#000000" points="54,-42.5 54,-72.5 337,-72.5 337,-42.5 54,-42.5"/>
<text text-anchor="start" x="61" y="-53.9" font-family="Arial" font-size="14.00" fill="#000000">deleted_at    </text>
<text text-anchor="start" x="160.5708" y="-53.9" font-family="Arial" font-size="14.00" fill="#666666">[timestamp with time zone]</text>
</g>
<!-- public.user_roles&#45;&gt;public.users -->
<g id="edge1" class="edge">
<title>public.user_roles:user_id&#45;&gt;public.users:id</title>
<path fill="none" stroke="#000000" d="M226.8082,-605.9289C200.174,-596.4869 216.1303,-546.6939 237,-517 264.1617,-478.3535 309.8383,-519.6465 337,-481 383.8955,-414.2758 418.5556,-297.5 337,-297.5"/>
<polygon fill="#000000" stroke="#000000" points="227.1167,-605.9764 236.3144,-611.9475 232.0584,-606.7382 237,-607.5 237,-607.5 237,-607.5 232.0584,-606.7382 237.6856,-603.0525 227.1167,-605.9764 227.1167,-605.9764"/>
<text text-anchor="start" x="7.3345" y="-617.5" font-family="Arial" font-size="10.00" fill="#000000">FOREIGN KEY (user_id) REFERENCES users(id)</text>
</g>
<!-- public.roles -->
<g id="node3" class="node">
<title>public.roles</title>
<polygon fill="#efefef" stroke="transparent" points="441,-267.5 441,-302.5 673,-302.5 673,-267.5 441,-267.5"/>
<polygon fill="none" stroke="#000000" points="441,-267.5 441,-302.5 673,-302.5 673,-267.5 441,-267.5"/>
<text text-anchor="start" x="447.712" y="-280.3" font-family="Arial Bold" font-size="18.00" fill="#000000">public.roles</text>
<text text-anchor="start" x="538.72" y="-280.3" font-family="Arial" font-size="14.00" fill="#000000">    </text>
<text text-anchor="start" x="572.9248" y="-280.3" font-family="Arial" font-size="14.00" fill="#666666">[BASE TABLE]</text>
<polygon fill="none" stroke="#000000" points="441,-237.5 441,-267.5 673,-267.5 673,-237.5 441,-237.5"/>
<text text-anchor="start" x="448" y="-248.9" font-family="Arial" font-size="14.00" fill="#000000">id    </text>
<text text-anchor="start" x="493.094" y="-248.9" font-family="Arial" font-size="14.00" fill="#666666">[integer]</text>
<polygon fill="none" stroke="#000000" points="441,-207.5 441,-237.5 673,-237.5 673,-207.5 441,-207.5"/>
<text text-anchor="start" x="448" y="-218.9" font-family="Arial" font-size="14.00" fill="#000000">name    </text>
<text text-anchor="start" x="517.2132" y="-218.9" font-family="Arial" font-size="14.00" fill="#666666">[varchar(256)]</text>
<polygon fill="none" stroke="#000000" points="441,-177.5 441,-207.5 673,-207.5 673,-177.5 441,-177.5"/>
<text text-anchor="start" x="448" y="-188.9" font-family="Arial" font-size="14.00" fill="#000000">description    </text>
<text text-anchor="start" x="549.8822" y="-188.9" font-family="Arial" font-size="14.00" fill="#666666">[varchar]</text>
</g>
<!-- public.user_roles&#45;&gt;public.roles -->
<g id="edge2" class="edge">
<title>public.user_roles:role_id&#45;&gt;public.roles:id</title>
<path fill="none" stroke="#000000" d="M524.2935,-576.8821C643.6341,-561.2056 296.7155,-252.5 441,-252.5"/>
<polygon fill="#000000" stroke="#000000" points="523.982,-576.9007 513.7303,-573.0081 518.991,-577.2003 514,-577.5 514,-577.5 514,-577.5 518.991,-577.2003 514.2697,-581.9919 523.982,-576.9007 523.982,-576.9007"/>
<text text-anchor="start" x="521.1155" y="-587.5" font-family="Arial" font-size="10.00" fill="#000000">FOREIGN KEY (role_id) REFERENCES roles(id)</text>
</g>
</g>
</svg>
