<?xml version="1.0" encoding="UTF-8" standalone="no"?>
<!DOCTYPE svg PUBLIC "-//W3C//DTD SVG 1.1//EN"
 "http://www.w3.org/Graphics/SVG/1.1/DTD/svg11.dtd">
<!-- Generated by graphviz version 2.40.1 (20161225.0304)
 -->
<!-- Title: public.users Pages: 1 -->
<svg width="565pt" height="712pt"
 viewBox="0.00 0.00 564.50 712.00" xmlns="http://www.w3.org/2000/svg" xmlns:xlink="http://www.w3.org/1999/xlink">
<g id="graph0" class="graph" transform="scale(1 1) rotate(0) translate(4 708)">
<title>public.users</title>
<polygon fill="#ffffff" stroke="transparent" points="-4,4 -4,-708 560.5,-708 560.5,4 -4,4"/>
<!-- public.users -->
<g id="node1" class="node">
<title>public.users</title>
<polygon fill="#efefef" stroke="transparent" points="249,-405.5 249,-440.5 502,-440.5 502,-405.5 249,-405.5"/>
<polygon fill="none" stroke="#000000" points="249,-405.5 249,-440.5 502,-440.5 502,-405.5 249,-405.5"/>
<text text-anchor="start" x="263.7091" y="-418.3" font-family="Arial Bold" font-size="18.00" fill="#000000">public.users</text>
<text text-anchor="start" x="359.7229" y="-418.3" font-family="Arial" font-size="14.00" fill="#000000">    </text>
<text text-anchor="start" x="393.9277" y="-418.3" font-family="Arial" font-size="14.00" fill="#666666">[BASE TABLE]</text>
<polygon fill="none" stroke="#000000" points="249,-375.5 249,-405.5 502,-405.5 502,-375.5 249,-375.5"/>
<text text-anchor="start" x="256" y="-386.9" font-family="Arial" font-size="14.00" fill="#000000">first_name </text>
<text text-anchor="start" x="325.23" y="-386.9" font-family="Arial" font-size="14.00" fill="#666666">[varchar(256)]</text>
<polygon fill="none" stroke="#000000" points="249,-345.5 249,-375.5 502,-375.5 502,-345.5 249,-345.5"/>
<text text-anchor="start" x="256" y="-356.9" font-family="Arial" font-size="14.00" fill="#000000">last_name </text>
<text text-anchor="start" x="324.4614" y="-356.9" font-family="Arial" font-size="14.00" fill="#666666">[varchar(256)]</text>
<polygon fill="none" stroke="#000000" points="249,-315.5 249,-345.5 502,-345.5 502,-315.5 249,-315.5"/>
<text text-anchor="start" x="256" y="-326.9" font-family="Arial" font-size="14.00" fill="#000000">email </text>
<text text-anchor="start" x="293.3296" y="-326.9" font-family="Arial" font-size="14.00" fill="#666666">[varchar]</text>
<polygon fill="none" stroke="#000000" points="249,-285.5 249,-315.5 502,-315.5 502,-285.5 249,-285.5"/>
<text text-anchor="start" x="256" y="-296.9" font-family="Arial" font-size="14.00" fill="#000000">id </text>
<text text-anchor="start" x="270.7798" y="-296.9" font-family="Arial" font-size="14.00" fill="#666666">[integer]</text>
<polygon fill="none" stroke="#000000" points="249,-255.5 249,-285.5 502,-285.5 502,-255.5 249,-255.5"/>
<text text-anchor="start" x="256" y="-266.9" font-family="Arial" font-size="14.00" fill="#000000">uuid </text>
<text text-anchor="start" x="286.345" y="-266.9" font-family="Arial" font-size="14.00" fill="#666666">[varchar]</text>
<polygon fill="none" stroke="#000000" points="249,-225.5 249,-255.5 502,-255.5 502,-225.5 249,-225.5"/>
<text text-anchor="start" x="256" y="-236.9" font-family="Arial" font-size="14.00" fill="#000000">password_hash </text>
<text text-anchor="start" x="357.9186" y="-236.9" font-family="Arial" font-size="14.00" fill="#666666">[varchar]</text>
<polygon fill="none" stroke="#000000" points="249,-195.5 249,-225.5 502,-225.5 502,-195.5 249,-195.5"/>
<text text-anchor="start" x="256" y="-206.9" font-family="Arial" font-size="14.00" fill="#000000">is_active </text>
<text text-anchor="start" x="314.3422" y="-206.9" font-family="Arial" font-size="14.00" fill="#666666">[boolean]</text>
<polygon fill="none" stroke="#000000" points="249,-165.5 249,-195.5 502,-195.5 502,-165.5 249,-165.5"/>
<text text-anchor="start" x="256" y="-176.9" font-family="Arial" font-size="14.00" fill="#000000">is_superuser </text>
<text text-anchor="start" x="340.014" y="-176.9" font-family="Arial" font-size="14.00" fill="#666666">[boolean]</text>
<polygon fill="none" stroke="#000000" points="249,-135.5 249,-165.5 502,-165.5 502,-135.5 249,-135.5"/>
<text text-anchor="start" x="256" y="-146.9" font-family="Arial" font-size="14.00" fill="#000000">last_login </text>
<text text-anchor="start" x="319.014" y="-146.9" font-family="Arial" font-size="14.00" fill="#666666">[timestamp with time zone]</text>
<polygon fill="none" stroke="#000000" points="249,-105.5 249,-135.5 502,-135.5 502,-105.5 249,-105.5"/>
<text text-anchor="start" x="256" y="-116.9" font-family="Arial" font-size="14.00" fill="#000000">created_at </text>
<text text-anchor="start" x="326.028" y="-116.9" font-family="Arial" font-size="14.00" fill="#666666">[timestamp with time zone]</text>
<polygon fill="none" stroke="#000000" points="249,-75.5 249,-105.5 502,-105.5 502,-75.5 249,-75.5"/>
<text text-anchor="start" x="255.6915" y="-86.9" font-family="Arial" font-size="14.00" fill="#000000">updated_at </text>
<text text-anchor="start" x="329.6241" y="-86.9" font-family="Arial" font-size="14.00" fill="#666666">[timestamp with time zone]</text>
<polygon fill="none" stroke="#000000" points="249,-45.5 249,-75.5 502,-75.5 502,-45.5 249,-45.5"/>
<text text-anchor="start" x="256" y="-56.9" font-family="Arial" font-size="14.00" fill="#000000">deleted_at </text>
<text text-anchor="start" x="325.2566" y="-56.9" font-family="Arial" font-size="14.00" fill="#666666">[timestamp with time zone]</text>
<polygon fill="none" stroke="#000000" stroke-width="3" points="247,-44.5 247,-442.5 503,-442.5 503,-44.5 247,-44.5"/>
</g>
<!-- public.user_roles -->
<g id="node2" class="node">
<title>public.user_roles</title>
<polygon fill="#efefef" stroke="transparent" points="237,-625.5 237,-660.5 514,-660.5 514,-625.5 237,-625.5"/>
<polygon fill="none" stroke="#000000" points="237,-625.5 237,-660.5 514,-660.5 514,-625.5 237,-625.5"/>
<text text-anchor="start" x="243.7066" y="-638.3" font-family="Arial Bold" font-size="18.00" fill="#000000">public.user_roles</text>
<text text-anchor="start" x="379.7254" y="-638.3" font-family="Arial" font-size="14.00" fill="#000000">    </text>
<text text-anchor="start" x="413.9302" y="-638.3" font-family="Arial" font-size="14.00" fill="#666666">[BASE TABLE]</text>
<polygon fill="none" stroke="#000000" points="237,-595.5 237,-625.5 514,-625.5 514,-595.5 237,-595.5"/>
<text text-anchor="start" x="244" y="-606.9" font-family="Arial" font-size="14.00" fill="#000000">user_id    </text>
<text text-anchor="start" x="324.1024" y="-606.9" font-family="Arial" font-size="14.00" fill="#666666">[integer]</text>
<polygon fill="none" stroke="#000000" points="237,-565.5 237,-595.5 514,-595.5 514,-565.5 237,-565.5"/>
<text text-anchor="start" x="244" y="-576.9" font-family="Arial" font-size="14.00" fill="#000000">role_id    </text>
<text text-anchor="start" x="320.209" y="-576.9" font-family="Arial" font-size="14.00" fill="#666666">[integer]</text>
</g>
<!-- public.user_roles&#45;&gt;public.users -->
<g id="edge1" class="edge">
<title>public.user_roles:user_id&#45;&gt;public.users:id</title>
<path fill="none" stroke="#000000" d="M227.1204,-608.183C169.4251,-579.815 183.5604,-300.5 249,-300.5"/>
<polygon fill="#000000" stroke="#000000" points="227.2642,-608.2166 235.9725,-614.8811 232.1321,-609.3583 237,-610.5 237,-610.5 237,-610.5 232.1321,-609.3583 238.0275,-606.1189 227.2642,-608.2166 227.2642,-608.2166"/>
<text text-anchor="start" x="7.3345" y="-620.5" font-family="Arial" font-size="10.00" fill="#000000">FOREIGN KEY (user_id) REFERENCES users(id)</text>
</g>
</g>
</svg>
