<?xml version="1.0" encoding="UTF-8" standalone="no"?>
<!DOCTYPE svg PUBLIC "-//W3C//DTD SVG 1.1//EN"
 "http://www.w3.org/Graphics/SVG/1.1/DTD/svg11.dtd">
<!-- Generated by graphviz version 2.40.1 (20161225.0304)
 -->
<!-- Title: public.permissions Pages: 1 -->
<svg width="512pt" height="442pt"
 viewBox="0.00 0.00 511.50 442.00" xmlns="http://www.w3.org/2000/svg" xmlns:xlink="http://www.w3.org/1999/xlink">
<g id="graph0" class="graph" transform="scale(1 1) rotate(0) translate(4 438)">
<title>public.permissions</title>
<polygon fill="#ffffff" stroke="transparent" points="-4,4 -4,-438 507.5,-438 507.5,4 -4,4"/>
<!-- public.permissions -->
<g id="node1" class="node">
<title>public.permissions</title>
<polygon fill="#efefef" stroke="transparent" points="63.5,-135.5 63.5,-170.5 352.5,-170.5 352.5,-135.5 63.5,-135.5"/>
<polygon fill="none" stroke="#000000" points="63.5,-135.5 63.5,-170.5 352.5,-170.5 352.5,-135.5 63.5,-135.5"/>
<text text-anchor="start" x="70.2126" y="-148.3" font-family="Arial Bold" font-size="18.00" fill="#000000">public.permissions</text>
<text text-anchor="start" x="218.2194" y="-148.3" font-family="Arial" font-size="14.00" fill="#000000">    </text>
<text text-anchor="start" x="252.4242" y="-148.3" font-family="Arial" font-size="14.00" fill="#666666">[BASE TABLE]</text>
<polygon fill="none" stroke="#000000" points="63.5,-105.5 63.5,-135.5 352.5,-135.5 352.5,-105.5 63.5,-105.5"/>
<text text-anchor="start" x="70.5" y="-116.9" font-family="Arial" font-size="14.00" fill="#000000">id </text>
<text text-anchor="start" x="85.2798" y="-116.9" font-family="Arial" font-size="14.00" fill="#666666">[integer]</text>
<polygon fill="none" stroke="#000000" points="63.5,-75.5 63.5,-105.5 352.5,-105.5 352.5,-75.5 63.5,-75.5"/>
<text text-anchor="start" x="70.5" y="-86.9" font-family="Arial" font-size="14.00" fill="#000000">name </text>
<text text-anchor="start" x="109.399" y="-86.9" font-family="Arial" font-size="14.00" fill="#666666">[varchar(256)]</text>
<polygon fill="none" stroke="#000000" points="63.5,-45.5 63.5,-75.5 352.5,-75.5 352.5,-45.5 63.5,-45.5"/>
<text text-anchor="start" x="70.5" y="-56.9" font-family="Arial" font-size="14.00" fill="#000000">description </text>
<text text-anchor="start" x="142.068" y="-56.9" font-family="Arial" font-size="14.00" fill="#666666">[varchar]</text>
<polygon fill="none" stroke="#000000" stroke-width="3" points="61.5,-44.5 61.5,-172.5 353.5,-172.5 353.5,-44.5 61.5,-44.5"/>
</g>
<!-- public.role_permissions -->
<g id="node2" class="node">
<title>public.role_permissions</title>
<polygon fill="#efefef" stroke="transparent" points="43.5,-355.5 43.5,-390.5 372.5,-390.5 372.5,-355.5 43.5,-355.5"/>
<polygon fill="none" stroke="#000000" points="43.5,-355.5 43.5,-390.5 372.5,-390.5 372.5,-355.5 43.5,-355.5"/>
<text text-anchor="start" x="50.2101" y="-368.3" font-family="Arial Bold" font-size="18.00" fill="#000000">public.role_permissions</text>
<text text-anchor="start" x="238.2219" y="-368.3" font-family="Arial" font-size="14.00" fill="#000000">    </text>
<text text-anchor="start" x="272.4267" y="-368.3" font-family="Arial" font-size="14.00" fill="#666666">[BASE TABLE]</text>
<polygon fill="none" stroke="#000000" points="43.5,-325.5 43.5,-355.5 372.5,-355.5 372.5,-325.5 43.5,-325.5"/>
<text text-anchor="start" x="50.5" y="-336.9" font-family="Arial" font-size="14.00" fill="#000000">role_id    </text>
<text text-anchor="start" x="126.709" y="-336.9" font-family="Arial" font-size="14.00" fill="#666666">[integer]</text>
<polygon fill="none" stroke="#000000" points="43.5,-295.5 43.5,-325.5 372.5,-325.5 372.5,-295.5 43.5,-295.5"/>
<text text-anchor="start" x="50.5" y="-306.9" font-family="Arial" font-size="14.00" fill="#000000">permission_id    </text>
<text text-anchor="start" x="171.0414" y="-306.9" font-family="Arial" font-size="14.00" fill="#666666">[integer]</text>
</g>
<!-- public.role_permissions&#45;&gt;public.permissions -->
<g id="edge1" class="edge">
<title>public.role_permissions:permission_id&#45;&gt;public.permissions:id</title>
<path fill="none" stroke="#000000" d="M207.6917,-285.3165C197.7632,-227.7704 99.1025,-276.7596 63.5,-217 41.5488,-180.1544 20.6111,-120.5 63.5,-120.5"/>
<polygon fill="#000000" stroke="#000000" points="207.7086,-285.5314 204.0141,-295.8561 208.1043,-290.5157 208.5,-295.5 208.5,-295.5 208.5,-295.5 208.1043,-290.5157 212.9859,-295.1439 207.7086,-285.5314 207.7086,-285.5314"/>
<text text-anchor="start" x="215.9495" y="-305.5" font-family="Arial" font-size="10.00" fill="#000000">FOREIGN KEY (permission_id) REFERENCES permissions(id)</text>
</g>
</g>
</svg>
