<?xml version="1.0" encoding="UTF-8" standalone="no"?>
<!DOCTYPE svg PUBLIC "-//W3C//DTD SVG 1.1//EN"
 "http://www.w3.org/Graphics/SVG/1.1/DTD/svg11.dtd">
<!-- Generated by graphviz version 2.40.1 (20161225.0304)
 -->
<!-- Title: public.role_permissions Pages: 1 -->
<svg width="863pt" height="442pt"
 viewBox="0.00 0.00 863.00 442.00" xmlns="http://www.w3.org/2000/svg" xmlns:xlink="http://www.w3.org/1999/xlink">
<g id="graph0" class="graph" transform="scale(1 1) rotate(0) translate(4 438)">
<title>public.role_permissions</title>
<polygon fill="#ffffff" stroke="transparent" points="-4,4 -4,-438 859,-438 859,4 -4,4"/>
<!-- public.role_permissions -->
<g id="node1" class="node">
<title>public.role_permissions</title>
<polygon fill="#efefef" stroke="transparent" points="231,-352.5 231,-387.5 560,-387.5 560,-352.5 231,-352.5"/>
<polygon fill="none" stroke="#000000" points="231,-352.5 231,-387.5 560,-387.5 560,-352.5 231,-352.5"/>
<text text-anchor="start" x="237.7101" y="-365.3" font-family="Arial Bold" font-size="18.00" fill="#000000">public.role_permissions</text>
<text text-anchor="start" x="425.7219" y="-365.3" font-family="Arial" font-size="14.00" fill="#000000">    </text>
<text text-anchor="start" x="459.9267" y="-365.3" font-family="Arial" font-size="14.00" fill="#666666">[BASE TABLE]</text>
<polygon fill="none" stroke="#000000" points="231,-322.5 231,-352.5 560,-352.5 560,-322.5 231,-322.5"/>
<text text-anchor="start" x="238" y="-333.9" font-family="Arial" font-size="14.00" fill="#000000">role_id </text>
<text text-anchor="start" x="283.8948" y="-333.9" font-family="Arial" font-size="14.00" fill="#666666">[integer]</text>
<polygon fill="none" stroke="#000000" points="231,-292.5 231,-322.5 560,-322.5 560,-292.5 231,-292.5"/>
<text text-anchor="start" x="238" y="-303.9" font-family="Arial" font-size="14.00" fill="#000000">permission_id </text>
<text text-anchor="start" x="328.2272" y="-303.9" font-family="Arial" font-size="14.00" fill="#666666">[integer]</text>
<polygon fill="none" stroke="#000000" stroke-width="3" points="229,-291.5 229,-389.5 561,-389.5 561,-291.5 229,-291.5"/>
</g>
<!-- public.roles -->
<g id="node2" class="node">
<title>public.roles</title>
<polygon fill="#efefef" stroke="transparent" points="97,-132.5 97,-167.5 329,-167.5 329,-132.5 97,-132.5"/>
<polygon fill="none" stroke="#000000" points="97,-132.5 97,-167.5 329,-167.5 329,-132.5 97,-132.5"/>
<text text-anchor="start" x="103.712" y="-145.3" font-family="Arial Bold" font-size="18.00" fill="#000000">public.roles</text>
<text text-anchor="start" x="194.72" y="-145.3" font-family="Arial" font-size="14.00" fill="#000000">    </text>
<text text-anchor="start" x="228.9248" y="-145.3" font-family="Arial" font-size="14.00" fill="#666666">[BASE TABLE]</text>
<polygon fill="none" stroke="#000000" points="97,-102.5 97,-132.5 329,-132.5 329,-102.5 97,-102.5"/>
<text text-anchor="start" x="104" y="-113.9" font-family="Arial" font-size="14.00" fill="#000000">id    </text>
<text text-anchor="start" x="149.094" y="-113.9" font-family="Arial" font-size="14.00" fill="#666666">[integer]</text>
<polygon fill="none" stroke="#000000" points="97,-72.5 97,-102.5 329,-102.5 329,-72.5 97,-72.5"/>
<text text-anchor="start" x="104" y="-83.9" font-family="Arial" font-size="14.00" fill="#000000">name    </text>
<text text-anchor="start" x="173.2132" y="-83.9" font-family="Arial" font-size="14.00" fill="#666666">[varchar(256)]</text>
<polygon fill="none" stroke="#000000" points="97,-42.5 97,-72.5 329,-72.5 329,-42.5 97,-42.5"/>
<text text-anchor="start" x="104" y="-53.9" font-family="Arial" font-size="14.00" fill="#000000">description    </text>
<text text-anchor="start" x="205.8822" y="-53.9" font-family="Arial" font-size="14.00" fill="#666666">[varchar]</text>
</g>
<!-- public.role_permissions&#45;&gt;public.roles -->
<g id="edge1" class="edge">
<title>public.role_permissions:role_id&#45;&gt;public.roles:id</title>
<path fill="none" stroke="#000000" d="M220.811,-335.9308C194.1928,-326.5001 210.2268,-276.7615 231,-247 257.5581,-208.9506 302.4419,-249.0494 329,-211 352.7846,-176.9242 370.5556,-117.5 329,-117.5"/>
<polygon fill="#000000" stroke="#000000" points="221.1165,-335.9778 230.315,-341.9476 226.0583,-336.7389 231,-337.5 231,-337.5 231,-337.5 226.0583,-336.7389 231.685,-333.0524 221.1165,-335.9778 221.1165,-335.9778"/>
<text text-anchor="start" x="7.1155" y="-347.5" font-family="Arial" font-size="10.00" fill="#000000">FOREIGN KEY (role_id) REFERENCES roles(id)</text>
</g>
<!-- public.permissions -->
<g id="node3" class="node">
<title>public.permissions</title>
<polygon fill="#efefef" stroke="transparent" points="434,-132.5 434,-167.5 723,-167.5 723,-132.5 434,-132.5"/>
<polygon fill="none" stroke="#000000" points="434,-132.5 434,-167.5 723,-167.5 723,-132.5 434,-132.5"/>
<text text-anchor="start" x="440.7126" y="-145.3" font-family="Arial Bold" font-size="18.00" fill="#000000">public.permissions</text>
<text text-anchor="start" x="588.7194" y="-145.3" font-family="Arial" font-size="14.00" fill="#000000">    </text>
<text text-anchor="start" x="622.9242" y="-145.3" font-family="Arial" font-size="14.00" fill="#666666">[BASE TABLE]</text>
<polygon fill="none" stroke="#000000" points="434,-102.5 434,-132.5 723,-132.5 723,-102.5 434,-102.5"/>
<text text-anchor="start" x="441" y="-113.9" font-family="Arial" font-size="14.00" fill="#000000">id    </text>
<text text-anchor="start" x="486.094" y="-113.9" font-family="Arial" font-size="14.00" fill="#666666">[integer]</text>
<polygon fill="none" stroke="#000000" points="434,-72.5 434,-102.5 723,-102.5 723,-72.5 434,-72.5"/>
<text text-anchor="start" x="441" y="-83.9" font-family="Arial" font-size="14.00" fill="#000000">name    </text>
<text text-anchor="start" x="510.2132" y="-83.9" font-family="Arial" font-size="14.00" fill="#666666">[varchar(256)]</text>
<polygon fill="none" stroke="#000000" points="434,-42.5 434,-72.5 723,-72.5 723,-42.5 434,-42.5"/>
<text text-anchor="start" x="441" y="-53.9" font-family="Arial" font-size="14.00" fill="#000000">description    </text>
<text text-anchor="start" x="542.8822" y="-53.9" font-family="Arial" font-size="14.00" fill="#666666">[varchar]</text>
</g>
<!-- public.role_permissions&#45;&gt;public.permissions -->
<g id="edge2" class="edge">
<title>public.role_permissions:permission_id&#45;&gt;public.permissions:id</title>
<path fill="none" stroke="#000000" d="M569.9737,-304.857C583.4121,-295.731 573.6623,-265.1125 560,-247 524.9276,-200.5035 469.0724,-257.4965 434,-211 408.9754,-177.8242 392.4444,-117.5 434,-117.5"/>
<polygon fill="#000000" stroke="#000000" points="569.6664,-304.9384 558.8473,-303.1501 564.8332,-306.2192 560,-307.5 560,-307.5 560,-307.5 564.8332,-306.2192 561.1527,-311.8499 569.6664,-304.9384 569.6664,-304.9384"/>
<text text-anchor="start" x="567.4495" y="-317.5" font-family="Arial" font-size="10.00" fill="#000000">FOREIGN KEY (permission_id) REFERENCES permissions(id)</text>
</g>
</g>
</svg>
