<?xml version="1.0" encoding="UTF-8" standalone="no"?>
<!DOCTYPE svg PUBLIC "-//W3C//DTD SVG 1.1//EN"
 "http://www.w3.org/Graphics/SVG/1.1/DTD/svg11.dtd">
<!-- Generated by graphviz version 2.40.1 (20161225.0304)
 -->
<!-- Title: public.roles Pages: 1 -->
<svg width="804pt" height="442pt"
 viewBox="0.00 0.00 804.00 442.00" xmlns="http://www.w3.org/2000/svg" xmlns:xlink="http://www.w3.org/1999/xlink">
<g id="graph0" class="graph" transform="scale(1 1) rotate(0) translate(4 438)">
<title>public.roles</title>
<polygon fill="#ffffff" stroke="transparent" points="-4,4 -4,-438 800,-438 800,4 -4,4"/>
<!-- public.roles -->
<g id="node1" class="node">
<title>public.roles</title>
<polygon fill="#efefef" stroke="transparent" points="295.5,-135.5 295.5,-170.5 527.5,-170.5 527.5,-135.5 295.5,-135.5"/>
<polygon fill="none" stroke="#000000" points="295.5,-135.5 295.5,-170.5 527.5,-170.5 527.5,-135.5 295.5,-135.5"/>
<text text-anchor="start" x="302.212" y="-148.3" font-family="Arial Bold" font-size="18.00" fill="#000000">public.roles</text>
<text text-anchor="start" x="393.22" y="-148.3" font-family="Arial" font-size="14.00" fill="#000000">    </text>
<text text-anchor="start" x="427.4248" y="-148.3" font-family="Arial" font-size="14.00" fill="#666666">[BASE TABLE]</text>
<polygon fill="none" stroke="#000000" points="295.5,-105.5 295.5,-135.5 527.5,-135.5 527.5,-105.5 295.5,-105.5"/>
<text text-anchor="start" x="302.5" y="-116.9" font-family="Arial" font-size="14.00" fill="#000000">id </text>
<text text-anchor="start" x="317.2798" y="-116.9" font-family="Arial" font-size="14.00" fill="#666666">[integer]</text>
<polygon fill="none" stroke="#000000" points="295.5,-75.5 295.5,-105.5 527.5,-105.5 527.5,-75.5 295.5,-75.5"/>
<text text-anchor="start" x="302.5" y="-86.9" font-family="Arial" font-size="14.00" fill="#000000">name </text>
<text text-anchor="start" x="341.399" y="-86.9" font-family="Arial" font-size="14.00" fill="#666666">[varchar(256)]</text>
<polygon fill="none" stroke="#000000" points="295.5,-45.5 295.5,-75.5 527.5,-75.5 527.5,-45.5 295.5,-45.5"/>
<text text-anchor="start" x="302.5" y="-56.9" font-family="Arial" font-size="14.00" fill="#000000">description </text>
<text text-anchor="start" x="374.068" y="-56.9" font-family="Arial" font-size="14.00" fill="#666666">[varchar]</text>
<polygon fill="none" stroke="#000000" stroke-width="3" points="294,-44.5 294,-172.5 529,-172.5 529,-44.5 294,-44.5"/>
</g>
<!-- public.role_permissions -->
<g id="node2" class="node">
<title>public.role_permissions</title>
<polygon fill="#efefef" stroke="transparent" points="43.5,-355.5 43.5,-390.5 372.5,-390.5 372.5,-355.5 43.5,-355.5"/>
<polygon fill="none" stroke="#000000" points="43.5,-355.5 43.5,-390.5 372.5,-390.5 372.5,-355.5 43.5,-355.5"/>
<text text-anchor="start" x="50.2101" y="-368.3" font-family="Arial Bold" font-size="18.00" fill="#000000">public.role_permissions</text>
<text text-anchor="start" x="238.2219" y="-368.3" font-family="Arial" font-size="14.00" fill="#000000">    </text>
<text text-anchor="start" x="272.4267" y="-368.3" font-family="Arial" font-size="14.00" fill="#666666">[BASE TABLE]</text>
<polygon fill="none" stroke="#000000" points="43.5,-325.5 43.5,-355.5 372.5,-355.5 372.5,-325.5 43.5,-325.5"/>
<text text-anchor="start" x="50.5" y="-336.9" font-family="Arial" font-size="14.00" fill="#000000">role_id    </text>
<text text-anchor="start" x="126.709" y="-336.9" font-family="Arial" font-size="14.00" fill="#666666">[integer]</text>
<polygon fill="none" stroke="#000000" points="43.5,-295.5 43.5,-325.5 372.5,-325.5 372.5,-295.5 43.5,-295.5"/>
<text text-anchor="start" x="50.5" y="-306.9" font-family="Arial" font-size="14.00" fill="#000000">permission_id    </text>
<text text-anchor="start" x="171.0414" y="-306.9" font-family="Arial" font-size="14.00" fill="#666666">[integer]</text>
</g>
<!-- public.role_permissions&#45;&gt;public.roles -->
<g id="edge1" class="edge">
<title>public.role_permissions:role_id&#45;&gt;public.roles:id</title>
<path fill="none" stroke="#000000" d="M382.6448,-338.8878C407.7009,-329.6166 391.258,-282.4769 372.5,-253 352.218,-221.1283 315.782,-248.8717 295.5,-217 272.474,-180.8163 252.6111,-120.5 295.5,-120.5"/>
<polygon fill="#000000" stroke="#000000" points="382.3761,-338.9304 371.7937,-336.0558 377.438,-339.7152 372.5,-340.5 372.5,-340.5 372.5,-340.5 377.438,-339.7152 373.2063,-344.9442 382.3761,-338.9304 382.3761,-338.9304"/>
<text text-anchor="start" x="379.6155" y="-350.5" font-family="Arial" font-size="10.00" fill="#000000">FOREIGN KEY (role_id) REFERENCES roles(id)</text>
</g>
<!-- public.user_roles -->
<g id="node3" class="node">
<title>public.user_roles</title>
<polygon fill="#efefef" stroke="transparent" points="476.5,-355.5 476.5,-390.5 753.5,-390.5 753.5,-355.5 476.5,-355.5"/>
<polygon fill="none" stroke="#000000" points="476.5,-355.5 476.5,-390.5 753.5,-390.5 753.5,-355.5 476.5,-355.5"/>
<text text-anchor="start" x="483.2066" y="-368.3" font-family="Arial Bold" font-size="18.00" fill="#000000">public.user_roles</text>
<text text-anchor="start" x="619.2254" y="-368.3" font-family="Arial" font-size="14.00" fill="#000000">    </text>
<text text-anchor="start" x="653.4302" y="-368.3" font-family="Arial" font-size="14.00" fill="#666666">[BASE TABLE]</text>
<polygon fill="none" stroke="#000000" points="476.5,-325.5 476.5,-355.5 753.5,-355.5 753.5,-325.5 476.5,-325.5"/>
<text text-anchor="start" x="483.5" y="-336.9" font-family="Arial" font-size="14.00" fill="#000000">user_id    </text>
<text text-anchor="start" x="563.6024" y="-336.9" font-family="Arial" font-size="14.00" fill="#666666">[integer]</text>
<polygon fill="none" stroke="#000000" points="476.5,-295.5 476.5,-325.5 753.5,-325.5 753.5,-295.5 476.5,-295.5"/>
<text text-anchor="start" x="483.5" y="-306.9" font-family="Arial" font-size="14.00" fill="#000000">role_id    </text>
<text text-anchor="start" x="559.709" y="-306.9" font-family="Arial" font-size="14.00" fill="#666666">[integer]</text>
</g>
<!-- public.user_roles&#45;&gt;public.roles -->
<g id="edge2" class="edge">
<title>public.user_roles:role_id&#45;&gt;public.roles:id</title>
<path fill="none" stroke="#000000" d="M466.6004,-307.6533C455.6273,-298.8922 466.7636,-271.7905 476.5,-253 489.2644,-228.3657 514.7356,-241.6343 527.5,-217 547.2316,-178.9196 570.3889,-120.5 527.5,-120.5"/>
<polygon fill="#000000" stroke="#000000" points="466.8894,-307.7364 475.2564,-314.8248 471.6947,-309.1182 476.5,-310.5 476.5,-310.5 476.5,-310.5 471.6947,-309.1182 477.7436,-306.1752 466.8894,-307.7364 466.8894,-307.7364"/>
<text text-anchor="start" x="425.8655" y="-294.5" font-family="Arial" font-size="10.00" fill="#000000">FOREIGN KEY (role_id) REFERENCES roles(id)</text>
</g>
</g>
</svg>
