<?xml version="1.0" encoding="UTF-8" standalone="no"?>
<!DOCTYPE svg PUBLIC "-//W3C//DTD SVG 1.1//EN"
 "http://www.w3.org/Graphics/SVG/1.1/DTD/svg11.dtd">
<!-- Generated by graphviz version 2.40.1 (20161225.0304)
 -->
<!-- Title: fawapp_db Pages: 1 -->
<svg width="1213pt" height="489pt"
 viewBox="0.00 0.00 1213.00 489.00" xmlns="http://www.w3.org/2000/svg" xmlns:xlink="http://www.w3.org/1999/xlink">
<g id="graph0" class="graph" transform="scale(1 1) rotate(0) translate(4 485)">
<title>fawapp_db</title>
<polygon fill="#ffffff" stroke="transparent" points="-4,4 -4,-485 1209,-485 1209,4 -4,4"/>
<!-- public.alembic_version -->
<g id="node1" class="node">
<title>public.alembic_version</title>
<polygon fill="#efefef" stroke="transparent" points="43.5,-237.5 43.5,-272.5 366.5,-272.5 366.5,-237.5 43.5,-237.5"/>
<polygon fill="none" stroke="#000000" points="43.5,-237.5 43.5,-272.5 366.5,-272.5 366.5,-237.5 43.5,-237.5"/>
<text text-anchor="start" x="50.2062" y="-250.3" font-family="Arial Bold" font-size="18.00" fill="#000000">public.alembic_version</text>
<text text-anchor="start" x="232.2258" y="-250.3" font-family="Arial" font-size="14.00" fill="#000000">    </text>
<text text-anchor="start" x="266.4306" y="-250.3" font-family="Arial" font-size="14.00" fill="#666666">[BASE TABLE]</text>
<polygon fill="none" stroke="#000000" points="43.5,-207.5 43.5,-237.5 366.5,-237.5 366.5,-207.5 43.5,-207.5"/>
<text text-anchor="start" x="50.5" y="-218.9" font-family="Arial" font-size="14.00" fill="#000000">version_num    </text>
<text text-anchor="start" x="164.8282" y="-218.9" font-family="Arial" font-size="14.00" fill="#666666">[varchar(32)]</text>
</g>
<!-- public.sample_items -->
<g id="node2" class="node">
<title>public.sample_items</title>
<polygon fill="#efefef" stroke="transparent" points="470.5,-327.5 470.5,-362.5 774.5,-362.5 774.5,-327.5 470.5,-327.5"/>
<polygon fill="none" stroke="#000000" points="470.5,-327.5 470.5,-362.5 774.5,-362.5 774.5,-327.5 470.5,-327.5"/>
<text text-anchor="start" x="477.2084" y="-340.3" font-family="Arial Bold" font-size="18.00" fill="#000000">public.sample_items</text>
<text text-anchor="start" x="640.2236" y="-340.3" font-family="Arial" font-size="14.00" fill="#000000">    </text>
<text text-anchor="start" x="674.4284" y="-340.3" font-family="Arial" font-size="14.00" fill="#666666">[BASE TABLE]</text>
<polygon fill="none" stroke="#000000" points="470.5,-297.5 470.5,-327.5 774.5,-327.5 774.5,-297.5 470.5,-297.5"/>
<text text-anchor="start" x="477.5" y="-308.9" font-family="Arial" font-size="14.00" fill="#000000">name    </text>
<text text-anchor="start" x="546.7132" y="-308.9" font-family="Arial" font-size="14.00" fill="#666666">[varchar(256)]</text>
<polygon fill="none" stroke="#000000" points="470.5,-267.5 470.5,-297.5 774.5,-297.5 774.5,-267.5 470.5,-267.5"/>
<text text-anchor="start" x="477.5" y="-278.9" font-family="Arial" font-size="14.00" fill="#000000">description    </text>
<text text-anchor="start" x="579.3822" y="-278.9" font-family="Arial" font-size="14.00" fill="#666666">[varchar]</text>
<polygon fill="none" stroke="#000000" points="470.5,-237.5 470.5,-267.5 774.5,-267.5 774.5,-237.5 470.5,-237.5"/>
<text text-anchor="start" x="477.5" y="-248.9" font-family="Arial" font-size="14.00" fill="#000000">id    </text>
<text text-anchor="start" x="522.594" y="-248.9" font-family="Arial" font-size="14.00" fill="#666666">[integer]</text>
<polygon fill="none" stroke="#000000" points="470.5,-207.5 470.5,-237.5 774.5,-237.5 774.5,-207.5 470.5,-207.5"/>
<text text-anchor="start" x="477.5" y="-218.9" font-family="Arial" font-size="14.00" fill="#000000">uuid    </text>
<text text-anchor="start" x="538.1592" y="-218.9" font-family="Arial" font-size="14.00" fill="#666666">[varchar]</text>
<polygon fill="none" stroke="#000000" points="470.5,-177.5 470.5,-207.5 774.5,-207.5 774.5,-177.5 470.5,-177.5"/>
<text text-anchor="start" x="477.5" y="-188.9" font-family="Arial" font-size="14.00" fill="#000000">created_at    </text>
<text text-anchor="start" x="577.8422" y="-188.9" font-family="Arial" font-size="14.00" fill="#666666">[timestamp with time zone]</text>
<polygon fill="none" stroke="#000000" points="470.5,-147.5 470.5,-177.5 774.5,-177.5 774.5,-147.5 470.5,-147.5"/>
<text text-anchor="start" x="477.5" y="-158.9" font-family="Arial" font-size="14.00" fill="#000000">updated_at    </text>
<text text-anchor="start" x="581.7468" y="-158.9" font-family="Arial" font-size="14.00" fill="#666666">[timestamp with time zone]</text>
<polygon fill="none" stroke="#000000" points="470.5,-117.5 470.5,-147.5 774.5,-147.5 774.5,-117.5 470.5,-117.5"/>
<text text-anchor="start" x="477.5" y="-128.9" font-family="Arial" font-size="14.00" fill="#000000">deleted_at    </text>
<text text-anchor="start" x="577.0708" y="-128.9" font-family="Arial" font-size="14.00" fill="#666666">[timestamp with time zone]</text>
</g>
<!-- public.users -->
<g id="node3" class="node">
<title>public.users</title>
<polygon fill="#efefef" stroke="transparent" points="879.5,-402.5 879.5,-437.5 1162.5,-437.5 1162.5,-402.5 879.5,-402.5"/>
<polygon fill="none" stroke="#000000" points="879.5,-402.5 879.5,-437.5 1162.5,-437.5 1162.5,-402.5 879.5,-402.5"/>
<text text-anchor="start" x="909.2091" y="-415.3" font-family="Arial Bold" font-size="18.00" fill="#000000">public.users</text>
<text text-anchor="start" x="1005.2229" y="-415.3" font-family="Arial" font-size="14.00" fill="#000000">    </text>
<text text-anchor="start" x="1039.4277" y="-415.3" font-family="Arial" font-size="14.00" fill="#666666">[BASE TABLE]</text>
<polygon fill="none" stroke="#000000" points="879.5,-372.5 879.5,-402.5 1162.5,-402.5 1162.5,-372.5 879.5,-372.5"/>
<text text-anchor="start" x="886.5" y="-383.9" font-family="Arial" font-size="14.00" fill="#000000">first_name    </text>
<text text-anchor="start" x="986.0442" y="-383.9" font-family="Arial" font-size="14.00" fill="#666666">[varchar(256)]</text>
<polygon fill="none" stroke="#000000" points="879.5,-342.5 879.5,-372.5 1162.5,-372.5 1162.5,-342.5 879.5,-342.5"/>
<text text-anchor="start" x="886.5" y="-353.9" font-family="Arial" font-size="14.00" fill="#000000">last_name    </text>
<text text-anchor="start" x="985.2756" y="-353.9" font-family="Arial" font-size="14.00" fill="#666666">[varchar(256)]</text>
<polygon fill="none" stroke="#000000" points="879.5,-312.5 879.5,-342.5 1162.5,-342.5 1162.5,-312.5 879.5,-312.5"/>
<text text-anchor="start" x="886.5" y="-323.9" font-family="Arial" font-size="14.00" fill="#000000">email    </text>
<text text-anchor="start" x="954.1438" y="-323.9" font-family="Arial" font-size="14.00" fill="#666666">[varchar]</text>
<polygon fill="none" stroke="#000000" points="879.5,-282.5 879.5,-312.5 1162.5,-312.5 1162.5,-282.5 879.5,-282.5"/>
<text text-anchor="start" x="886.5" y="-293.9" font-family="Arial" font-size="14.00" fill="#000000">id    </text>
<text text-anchor="start" x="931.594" y="-293.9" font-family="Arial" font-size="14.00" fill="#666666">[integer]</text>
<polygon fill="none" stroke="#000000" points="879.5,-252.5 879.5,-282.5 1162.5,-282.5 1162.5,-252.5 879.5,-252.5"/>
<text text-anchor="start" x="886.5" y="-263.9" font-family="Arial" font-size="14.00" fill="#000000">uuid    </text>
<text text-anchor="start" x="947.1592" y="-263.9" font-family="Arial" font-size="14.00" fill="#666666">[varchar]</text>
<polygon fill="none" stroke="#000000" points="879.5,-222.5 879.5,-252.5 1162.5,-252.5 1162.5,-222.5 879.5,-222.5"/>
<text text-anchor="start" x="886.5" y="-233.9" font-family="Arial" font-size="14.00" fill="#000000">password_hash    </text>
<text text-anchor="start" x="1018.7328" y="-233.9" font-family="Arial" font-size="14.00" fill="#666666">[varchar]</text>
<polygon fill="none" stroke="#000000" points="879.5,-192.5 879.5,-222.5 1162.5,-222.5 1162.5,-192.5 879.5,-192.5"/>
<text text-anchor="start" x="886.5" y="-203.9" font-family="Arial" font-size="14.00" fill="#000000">is_active    </text>
<text text-anchor="start" x="975.1564" y="-203.9" font-family="Arial" font-size="14.00" fill="#666666">[boolean]</text>
<polygon fill="none" stroke="#000000" points="879.5,-162.5 879.5,-192.5 1162.5,-192.5 1162.5,-162.5 879.5,-162.5"/>
<text text-anchor="start" x="886.5" y="-173.9" font-family="Arial" font-size="14.00" fill="#000000">is_superuser    </text>
<text text-anchor="start" x="1000.8282" y="-173.9" font-family="Arial" font-size="14.00" fill="#666666">[boolean]</text>
<polygon fill="none" stroke="#000000" points="879.5,-132.5 879.5,-162.5 1162.5,-162.5 1162.5,-132.5 879.5,-132.5"/>
<text text-anchor="start" x="886.5" y="-143.9" font-family="Arial" font-size="14.00" fill="#000000">last_login    </text>
<text text-anchor="start" x="979.8282" y="-143.9" font-family="Arial" font-size="14.00" fill="#666666">[timestamp with time zone]</text>
<polygon fill="none" stroke="#000000" points="879.5,-102.5 879.5,-132.5 1162.5,-132.5 1162.5,-102.5 879.5,-102.5"/>
<text text-anchor="start" x="886.5" y="-113.9" font-family="Arial" font-size="14.00" fill="#000000">created_at    </text>
<text text-anchor="start" x="986.8422" y="-113.9" font-family="Arial" font-size="14.00" fill="#666666">[timestamp with time zone]</text>
<polygon fill="none" stroke="#000000" points="879.5,-72.5 879.5,-102.5 1162.5,-102.5 1162.5,-72.5 879.5,-72.5"/>
<text text-anchor="start" x="886.0344" y="-83.9" font-family="Arial" font-size="14.00" fill="#000000">updated_at    </text>
<text text-anchor="start" x="990.2812" y="-83.9" font-family="Arial" font-size="14.00" fill="#666666">[timestamp with time zone]</text>
<polygon fill="none" stroke="#000000" points="879.5,-42.5 879.5,-72.5 1162.5,-72.5 1162.5,-42.5 879.5,-42.5"/>
<text text-anchor="start" x="886.5" y="-53.9" font-family="Arial" font-size="14.00" fill="#000000">deleted_at    </text>
<text text-anchor="start" x="986.0708" y="-53.9" font-family="Arial" font-size="14.00" fill="#666666">[timestamp with time zone]</text>
</g>
</g>
</svg>
