<?xml version="1.0" encoding="UTF-8" standalone="no"?>
<!DOCTYPE svg PUBLIC "-//W3C//DTD SVG 1.1//EN"
 "http://www.w3.org/Graphics/SVG/1.1/DTD/svg11.dtd">
<!-- Generated by graphviz version 2.40.1 (20161225.0304)
 -->
<!-- Title: fawapp_db Pages: 1 -->
<svg width="2215pt" height="856pt"
 viewBox="0.00 0.00 2214.50 856.00" xmlns="http://www.w3.org/2000/svg" xmlns:xlink="http://www.w3.org/1999/xlink">
<g id="graph0" class="graph" transform="scale(1 1) rotate(0) translate(4 852)">
<title>fawapp_db</title>
<polygon fill="#ffffff" stroke="transparent" points="-4,4 -4,-852 2210.5,-852 2210.5,4 -4,4"/>
<!-- public.alembic_version -->
<g id="node1" class="node">
<title>public.alembic_version</title>
<polygon fill="#efefef" stroke="transparent" points="43.5,-679.5 43.5,-714.5 366.5,-714.5 366.5,-679.5 43.5,-679.5"/>
<polygon fill="none" stroke="#000000" points="43.5,-679.5 43.5,-714.5 366.5,-714.5 366.5,-679.5 43.5,-679.5"/>
<text text-anchor="start" x="50.2062" y="-692.3" font-family="Arial Bold" font-size="18.00" fill="#000000">public.alembic_version</text>
<text text-anchor="start" x="232.2258" y="-692.3" font-family="Arial" font-size="14.00" fill="#000000">    </text>
<text text-anchor="start" x="266.4306" y="-692.3" font-family="Arial" font-size="14.00" fill="#666666">[BASE TABLE]</text>
<polygon fill="none" stroke="#000000" points="43.5,-649.5 43.5,-679.5 366.5,-679.5 366.5,-649.5 43.5,-649.5"/>
<text text-anchor="start" x="50.5" y="-660.9" font-family="Arial" font-size="14.00" fill="#000000">version_num    </text>
<text text-anchor="start" x="164.8282" y="-660.9" font-family="Arial" font-size="14.00" fill="#666666">[varchar(32)]</text>
</g>
<!-- public.login_sessions -->
<g id="node2" class="node">
<title>public.login_sessions</title>
<polygon fill="#efefef" stroke="transparent" points="470.5,-769.5 470.5,-804.5 781.5,-804.5 781.5,-769.5 470.5,-769.5"/>
<polygon fill="none" stroke="#000000" points="470.5,-769.5 470.5,-804.5 781.5,-804.5 781.5,-769.5 470.5,-769.5"/>
<text text-anchor="start" x="477.1984" y="-782.3" font-family="Arial Bold" font-size="18.00" fill="#000000">public.login_sessions</text>
<text text-anchor="start" x="647.2336" y="-782.3" font-family="Arial" font-size="14.00" fill="#000000">    </text>
<text text-anchor="start" x="681.4384" y="-782.3" font-family="Arial" font-size="14.00" fill="#666666">[BASE TABLE]</text>
<polygon fill="none" stroke="#000000" points="470.5,-739.5 470.5,-769.5 781.5,-769.5 781.5,-739.5 470.5,-739.5"/>
<text text-anchor="start" x="477.5" y="-750.9" font-family="Arial" font-size="14.00" fill="#000000">id    </text>
<text text-anchor="start" x="522.594" y="-750.9" font-family="Arial" font-size="14.00" fill="#666666">[varchar(128)]</text>
<polygon fill="none" stroke="#000000" points="470.5,-709.5 470.5,-739.5 781.5,-739.5 781.5,-709.5 470.5,-709.5"/>
<text text-anchor="start" x="477.5" y="-720.9" font-family="Arial" font-size="14.00" fill="#000000">user_id    </text>
<text text-anchor="start" x="557.6024" y="-720.9" font-family="Arial" font-size="14.00" fill="#666666">[integer]</text>
<polygon fill="none" stroke="#000000" points="470.5,-679.5 470.5,-709.5 781.5,-709.5 781.5,-679.5 470.5,-679.5"/>
<text text-anchor="start" x="477.5" y="-690.9" font-family="Arial" font-size="14.00" fill="#000000">user_uuid    </text>
<text text-anchor="start" x="573.1676" y="-690.9" font-family="Arial" font-size="14.00" fill="#666666">[varchar]</text>
<polygon fill="none" stroke="#000000" points="470.5,-649.5 470.5,-679.5 781.5,-679.5 781.5,-649.5 470.5,-649.5"/>
<text text-anchor="start" x="477.5" y="-660.9" font-family="Arial" font-size="14.00" fill="#000000">expires_at    </text>
<text text-anchor="start" x="576.2756" y="-660.9" font-family="Arial" font-size="14.00" fill="#666666">[timestamp with time zone]</text>
<polygon fill="none" stroke="#000000" points="470.5,-619.5 470.5,-649.5 781.5,-649.5 781.5,-619.5 470.5,-619.5"/>
<text text-anchor="start" x="477.5" y="-630.9" font-family="Arial" font-size="14.00" fill="#000000">created_at    </text>
<text text-anchor="start" x="577.8422" y="-630.9" font-family="Arial" font-size="14.00" fill="#666666">[timestamp with time zone]</text>
<polygon fill="none" stroke="#000000" points="470.5,-589.5 470.5,-619.5 781.5,-619.5 781.5,-589.5 470.5,-589.5"/>
<text text-anchor="start" x="477.5" y="-600.9" font-family="Arial" font-size="14.00" fill="#000000">updated_at    </text>
<text text-anchor="start" x="581.7468" y="-600.9" font-family="Arial" font-size="14.00" fill="#666666">[timestamp with time zone]</text>
<polygon fill="none" stroke="#000000" points="470.5,-559.5 470.5,-589.5 781.5,-589.5 781.5,-559.5 470.5,-559.5"/>
<text text-anchor="start" x="477.5" y="-570.9" font-family="Arial" font-size="14.00" fill="#000000">deleted_at    </text>
<text text-anchor="start" x="577.0708" y="-570.9" font-family="Arial" font-size="14.00" fill="#666666">[timestamp with time zone]</text>
</g>
<!-- public.permissions -->
<g id="node3" class="node">
<title>public.permissions</title>
<polygon fill="#efefef" stroke="transparent" points="825.5,-267.5 825.5,-302.5 1114.5,-302.5 1114.5,-267.5 825.5,-267.5"/>
<polygon fill="none" stroke="#000000" points="825.5,-267.5 825.5,-302.5 1114.5,-302.5 1114.5,-267.5 825.5,-267.5"/>
<text text-anchor="start" x="832.2126" y="-280.3" font-family="Arial Bold" font-size="18.00" fill="#000000">public.permissions</text>
<text text-anchor="start" x="980.2194" y="-280.3" font-family="Arial" font-size="14.00" fill="#000000">    </text>
<text text-anchor="start" x="1014.4242" y="-280.3" font-family="Arial" font-size="14.00" fill="#666666">[BASE TABLE]</text>
<polygon fill="none" stroke="#000000" points="825.5,-237.5 825.5,-267.5 1114.5,-267.5 1114.5,-237.5 825.5,-237.5"/>
<text text-anchor="start" x="832.5" y="-248.9" font-family="Arial" font-size="14.00" fill="#000000">id    </text>
<text text-anchor="start" x="877.594" y="-248.9" font-family="Arial" font-size="14.00" fill="#666666">[integer]</text>
<polygon fill="none" stroke="#000000" points="825.5,-207.5 825.5,-237.5 1114.5,-237.5 1114.5,-207.5 825.5,-207.5"/>
<text text-anchor="start" x="832.5" y="-218.9" font-family="Arial" font-size="14.00" fill="#000000">name    </text>
<text text-anchor="start" x="901.7132" y="-218.9" font-family="Arial" font-size="14.00" fill="#666666">[varchar(256)]</text>
<polygon fill="none" stroke="#000000" points="825.5,-177.5 825.5,-207.5 1114.5,-207.5 1114.5,-177.5 825.5,-177.5"/>
<text text-anchor="start" x="832.5" y="-188.9" font-family="Arial" font-size="14.00" fill="#000000">description    </text>
<text text-anchor="start" x="934.3822" y="-188.9" font-family="Arial" font-size="14.00" fill="#666666">[varchar]</text>
</g>
<!-- public.roles -->
<g id="node4" class="node">
<title>public.roles</title>
<polygon fill="#efefef" stroke="transparent" points="1218.5,-267.5 1218.5,-302.5 1450.5,-302.5 1450.5,-267.5 1218.5,-267.5"/>
<polygon fill="none" stroke="#000000" points="1218.5,-267.5 1218.5,-302.5 1450.5,-302.5 1450.5,-267.5 1218.5,-267.5"/>
<text text-anchor="start" x="1225.212" y="-280.3" font-family="Arial Bold" font-size="18.00" fill="#000000">public.roles</text>
<text text-anchor="start" x="1316.22" y="-280.3" font-family="Arial" font-size="14.00" fill="#000000">    </text>
<text text-anchor="start" x="1350.4248" y="-280.3" font-family="Arial" font-size="14.00" fill="#666666">[BASE TABLE]</text>
<polygon fill="none" stroke="#000000" points="1218.5,-237.5 1218.5,-267.5 1450.5,-267.5 1450.5,-237.5 1218.5,-237.5"/>
<text text-anchor="start" x="1225.5" y="-248.9" font-family="Arial" font-size="14.00" fill="#000000">id    </text>
<text text-anchor="start" x="1270.594" y="-248.9" font-family="Arial" font-size="14.00" fill="#666666">[integer]</text>
<polygon fill="none" stroke="#000000" points="1218.5,-207.5 1218.5,-237.5 1450.5,-237.5 1450.5,-207.5 1218.5,-207.5"/>
<text text-anchor="start" x="1225.5" y="-218.9" font-family="Arial" font-size="14.00" fill="#000000">name    </text>
<text text-anchor="start" x="1294.7132" y="-218.9" font-family="Arial" font-size="14.00" fill="#666666">[varchar(256)]</text>
<polygon fill="none" stroke="#000000" points="1218.5,-177.5 1218.5,-207.5 1450.5,-207.5 1450.5,-177.5 1218.5,-177.5"/>
<text text-anchor="start" x="1225.5" y="-188.9" font-family="Arial" font-size="14.00" fill="#000000">description    </text>
<text text-anchor="start" x="1327.3822" y="-188.9" font-family="Arial" font-size="14.00" fill="#666666">[varchar]</text>
</g>
<!-- public.sample_items -->
<g id="node5" class="node">
<title>public.sample_items</title>
<polygon fill="#efefef" stroke="transparent" points="1859.5,-769.5 1859.5,-804.5 2163.5,-804.5 2163.5,-769.5 1859.5,-769.5"/>
<polygon fill="none" stroke="#000000" points="1859.5,-769.5 1859.5,-804.5 2163.5,-804.5 2163.5,-769.5 1859.5,-769.5"/>
<text text-anchor="start" x="1866.2084" y="-782.3" font-family="Arial Bold" font-size="18.00" fill="#000000">public.sample_items</text>
<text text-anchor="start" x="2029.2236" y="-782.3" font-family="Arial" font-size="14.00" fill="#000000">    </text>
<text text-anchor="start" x="2063.4284" y="-782.3" font-family="Arial" font-size="14.00" fill="#666666">[BASE TABLE]</text>
<polygon fill="none" stroke="#000000" points="1859.5,-739.5 1859.5,-769.5 2163.5,-769.5 2163.5,-739.5 1859.5,-739.5"/>
<text text-anchor="start" x="1866.5" y="-750.9" font-family="Arial" font-size="14.00" fill="#000000">name    </text>
<text text-anchor="start" x="1935.7132" y="-750.9" font-family="Arial" font-size="14.00" fill="#666666">[varchar(256)]</text>
<polygon fill="none" stroke="#000000" points="1859.5,-709.5 1859.5,-739.5 2163.5,-739.5 2163.5,-709.5 1859.5,-709.5"/>
<text text-anchor="start" x="1866.5" y="-720.9" font-family="Arial" font-size="14.00" fill="#000000">description    </text>
<text text-anchor="start" x="1968.3822" y="-720.9" font-family="Arial" font-size="14.00" fill="#666666">[varchar]</text>
<polygon fill="none" stroke="#000000" points="1859.5,-679.5 1859.5,-709.5 2163.5,-709.5 2163.5,-679.5 1859.5,-679.5"/>
<text text-anchor="start" x="1866.5" y="-690.9" font-family="Arial" font-size="14.00" fill="#000000">id    </text>
<text text-anchor="start" x="1911.594" y="-690.9" font-family="Arial" font-size="14.00" fill="#666666">[integer]</text>
<polygon fill="none" stroke="#000000" points="1859.5,-649.5 1859.5,-679.5 2163.5,-679.5 2163.5,-649.5 1859.5,-649.5"/>
<text text-anchor="start" x="1866.5" y="-660.9" font-family="Arial" font-size="14.00" fill="#000000">uuid    </text>
<text text-anchor="start" x="1927.1592" y="-660.9" font-family="Arial" font-size="14.00" fill="#666666">[varchar]</text>
<polygon fill="none" stroke="#000000" points="1859.5,-619.5 1859.5,-649.5 2163.5,-649.5 2163.5,-619.5 1859.5,-619.5"/>
<text text-anchor="start" x="1866.5" y="-630.9" font-family="Arial" font-size="14.00" fill="#000000">created_at    </text>
<text text-anchor="start" x="1966.8422" y="-630.9" font-family="Arial" font-size="14.00" fill="#666666">[timestamp with time zone]</text>
<polygon fill="none" stroke="#000000" points="1859.5,-589.5 1859.5,-619.5 2163.5,-619.5 2163.5,-589.5 1859.5,-589.5"/>
<text text-anchor="start" x="1866.5" y="-600.9" font-family="Arial" font-size="14.00" fill="#000000">updated_at    </text>
<text text-anchor="start" x="1970.7468" y="-600.9" font-family="Arial" font-size="14.00" fill="#666666">[timestamp with time zone]</text>
<polygon fill="none" stroke="#000000" points="1859.5,-559.5 1859.5,-589.5 2163.5,-589.5 2163.5,-559.5 1859.5,-559.5"/>
<text text-anchor="start" x="1866.5" y="-570.9" font-family="Arial" font-size="14.00" fill="#000000">deleted_at    </text>
<text text-anchor="start" x="1966.0708" y="-570.9" font-family="Arial" font-size="14.00" fill="#666666">[timestamp with time zone]</text>
</g>
<!-- public.users -->
<g id="node6" class="node">
<title>public.users</title>
<polygon fill="#efefef" stroke="transparent" points="1555.5,-402.5 1555.5,-437.5 1838.5,-437.5 1838.5,-402.5 1555.5,-402.5"/>
<polygon fill="none" stroke="#000000" points="1555.5,-402.5 1555.5,-437.5 1838.5,-437.5 1838.5,-402.5 1555.5,-402.5"/>
<text text-anchor="start" x="1585.2091" y="-415.3" font-family="Arial Bold" font-size="18.00" fill="#000000">public.users</text>
<text text-anchor="start" x="1681.2229" y="-415.3" font-family="Arial" font-size="14.00" fill="#000000">    </text>
<text text-anchor="start" x="1715.4277" y="-415.3" font-family="Arial" font-size="14.00" fill="#666666">[BASE TABLE]</text>
<polygon fill="none" stroke="#000000" points="1555.5,-372.5 1555.5,-402.5 1838.5,-402.5 1838.5,-372.5 1555.5,-372.5"/>
<text text-anchor="start" x="1562.5" y="-383.9" font-family="Arial" font-size="14.00" fill="#000000">first_name    </text>
<text text-anchor="start" x="1662.0442" y="-383.9" font-family="Arial" font-size="14.00" fill="#666666">[varchar(256)]</text>
<polygon fill="none" stroke="#000000" points="1555.5,-342.5 1555.5,-372.5 1838.5,-372.5 1838.5,-342.5 1555.5,-342.5"/>
<text text-anchor="start" x="1562.5" y="-353.9" font-family="Arial" font-size="14.00" fill="#000000">last_name    </text>
<text text-anchor="start" x="1661.2756" y="-353.9" font-family="Arial" font-size="14.00" fill="#666666">[varchar(256)]</text>
<polygon fill="none" stroke="#000000" points="1555.5,-312.5 1555.5,-342.5 1838.5,-342.5 1838.5,-312.5 1555.5,-312.5"/>
<text text-anchor="start" x="1562.5" y="-323.9" font-family="Arial" font-size="14.00" fill="#000000">email    </text>
<text text-anchor="start" x="1630.1438" y="-323.9" font-family="Arial" font-size="14.00" fill="#666666">[varchar]</text>
<polygon fill="none" stroke="#000000" points="1555.5,-282.5 1555.5,-312.5 1838.5,-312.5 1838.5,-282.5 1555.5,-282.5"/>
<text text-anchor="start" x="1562.5" y="-293.9" font-family="Arial" font-size="14.00" fill="#000000">id    </text>
<text text-anchor="start" x="1607.594" y="-293.9" font-family="Arial" font-size="14.00" fill="#666666">[integer]</text>
<polygon fill="none" stroke="#000000" points="1555.5,-252.5 1555.5,-282.5 1838.5,-282.5 1838.5,-252.5 1555.5,-252.5"/>
<text text-anchor="start" x="1562.5" y="-263.9" font-family="Arial" font-size="14.00" fill="#000000">uuid    </text>
<text text-anchor="start" x="1623.1592" y="-263.9" font-family="Arial" font-size="14.00" fill="#666666">[varchar]</text>
<polygon fill="none" stroke="#000000" points="1555.5,-222.5 1555.5,-252.5 1838.5,-252.5 1838.5,-222.5 1555.5,-222.5"/>
<text text-anchor="start" x="1562.5" y="-233.9" font-family="Arial" font-size="14.00" fill="#000000">password_hash    </text>
<text text-anchor="start" x="1694.7328" y="-233.9" font-family="Arial" font-size="14.00" fill="#666666">[varchar]</text>
<polygon fill="none" stroke="#000000" points="1555.5,-192.5 1555.5,-222.5 1838.5,-222.5 1838.5,-192.5 1555.5,-192.5"/>
<text text-anchor="start" x="1562.5" y="-203.9" font-family="Arial" font-size="14.00" fill="#000000">is_active    </text>
<text text-anchor="start" x="1651.1564" y="-203.9" font-family="Arial" font-size="14.00" fill="#666666">[boolean]</text>
<polygon fill="none" stroke="#000000" points="1555.5,-162.5 1555.5,-192.5 1838.5,-192.5 1838.5,-162.5 1555.5,-162.5"/>
<text text-anchor="start" x="1562.5" y="-173.9" font-family="Arial" font-size="14.00" fill="#000000">is_superuser    </text>
<text text-anchor="start" x="1676.8282" y="-173.9" font-family="Arial" font-size="14.00" fill="#666666">[boolean]</text>
<polygon fill="none" stroke="#000000" points="1555.5,-132.5 1555.5,-162.5 1838.5,-162.5 1838.5,-132.5 1555.5,-132.5"/>
<text text-anchor="start" x="1562.5" y="-143.9" font-family="Arial" font-size="14.00" fill="#000000">last_login    </text>
<text text-anchor="start" x="1655.8282" y="-143.9" font-family="Arial" font-size="14.00" fill="#666666">[timestamp with time zone]</text>
<polygon fill="none" stroke="#000000" points="1555.5,-102.5 1555.5,-132.5 1838.5,-132.5 1838.5,-102.5 1555.5,-102.5"/>
<text text-anchor="start" x="1562.5" y="-113.9" font-family="Arial" font-size="14.00" fill="#000000">created_at    </text>
<text text-anchor="start" x="1662.8422" y="-113.9" font-family="Arial" font-size="14.00" fill="#666666">[timestamp with time zone]</text>
<polygon fill="none" stroke="#000000" points="1555.5,-72.5 1555.5,-102.5 1838.5,-102.5 1838.5,-72.5 1555.5,-72.5"/>
<text text-anchor="start" x="1562.0344" y="-83.9" font-family="Arial" font-size="14.00" fill="#000000">updated_at    </text>
<text text-anchor="start" x="1666.2812" y="-83.9" font-family="Arial" font-size="14.00" fill="#666666">[timestamp with time zone]</text>
<polygon fill="none" stroke="#000000" points="1555.5,-42.5 1555.5,-72.5 1838.5,-72.5 1838.5,-42.5 1555.5,-42.5"/>
<text text-anchor="start" x="1562.5" y="-53.9" font-family="Arial" font-size="14.00" fill="#000000">deleted_at    </text>
<text text-anchor="start" x="1662.0708" y="-53.9" font-family="Arial" font-size="14.00" fill="#666666">[timestamp with time zone]</text>
</g>
<!-- public.role_permissions -->
<g id="node7" class="node">
<title>public.role_permissions</title>
<polygon fill="#efefef" stroke="transparent" points="885.5,-694.5 885.5,-729.5 1214.5,-729.5 1214.5,-694.5 885.5,-694.5"/>
<polygon fill="none" stroke="#000000" points="885.5,-694.5 885.5,-729.5 1214.5,-729.5 1214.5,-694.5 885.5,-694.5"/>
<text text-anchor="start" x="892.2101" y="-707.3" font-family="Arial Bold" font-size="18.00" fill="#000000">public.role_permissions</text>
<text text-anchor="start" x="1080.2219" y="-707.3" font-family="Arial" font-size="14.00" fill="#000000">    </text>
<text text-anchor="start" x="1114.4267" y="-707.3" font-family="Arial" font-size="14.00" fill="#666666">[BASE TABLE]</text>
<polygon fill="none" stroke="#000000" points="885.5,-664.5 885.5,-694.5 1214.5,-694.5 1214.5,-664.5 885.5,-664.5"/>
<text text-anchor="start" x="892.5" y="-675.9" font-family="Arial" font-size="14.00" fill="#000000">role_id    </text>
<text text-anchor="start" x="968.709" y="-675.9" font-family="Arial" font-size="14.00" fill="#666666">[integer]</text>
<polygon fill="none" stroke="#000000" points="885.5,-634.5 885.5,-664.5 1214.5,-664.5 1214.5,-634.5 885.5,-634.5"/>
<text text-anchor="start" x="892.5" y="-645.9" font-family="Arial" font-size="14.00" fill="#000000">permission_id    </text>
<text text-anchor="start" x="1013.0414" y="-645.9" font-family="Arial" font-size="14.00" fill="#666666">[integer]</text>
</g>
<!-- public.role_permissions&#45;&gt;public.permissions -->
<g id="edge1" class="edge">
<title>public.role_permissions:permission_id&#45;&gt;public.permissions:id</title>
<path fill="none" stroke="#000000" d="M1051.0696,-624.3718C1061.0367,-527.4289 1197.462,-252.5 1114.5,-252.5"/>
<polygon fill="#000000" stroke="#000000" points="1051.0616,-624.5158 1046.0071,-634.2473 1050.7808,-629.5079 1050.5,-634.5 1050.5,-634.5 1050.5,-634.5 1050.7808,-629.5079 1054.9929,-634.7527 1051.0616,-624.5158 1051.0616,-624.5158"/>
<text text-anchor="start" x="1057.9495" y="-644.5" font-family="Arial" font-size="10.00" fill="#000000">FOREIGN KEY (permission_id) REFERENCES permissions(id)</text>
</g>
<!-- public.role_permissions&#45;&gt;public.roles -->
<g id="edge2" class="edge">
<title>public.role_permissions:role_id&#45;&gt;public.roles:id</title>
<path fill="none" stroke="#000000" d="M1224.3689,-677.5963C1295.3068,-646.7922 1127.3137,-252.5 1218.5,-252.5"/>
<polygon fill="#000000" stroke="#000000" points="1224.319,-677.6058 1213.6476,-675.0815 1219.4095,-678.5529 1214.5,-679.5 1214.5,-679.5 1214.5,-679.5 1219.4095,-678.5529 1215.3524,-683.9185 1224.319,-677.6058 1224.319,-677.6058"/>
<text text-anchor="start" x="1221.6155" y="-689.5" font-family="Arial" font-size="10.00" fill="#000000">FOREIGN KEY (role_id) REFERENCES roles(id)</text>
</g>
<!-- public.user_roles -->
<g id="node8" class="node">
<title>public.user_roles</title>
<polygon fill="#efefef" stroke="transparent" points="1478.5,-694.5 1478.5,-729.5 1755.5,-729.5 1755.5,-694.5 1478.5,-694.5"/>
<polygon fill="none" stroke="#000000" points="1478.5,-694.5 1478.5,-729.5 1755.5,-729.5 1755.5,-694.5 1478.5,-694.5"/>
<text text-anchor="start" x="1485.2066" y="-707.3" font-family="Arial Bold" font-size="18.00" fill="#000000">public.user_roles</text>
<text text-anchor="start" x="1621.2254" y="-707.3" font-family="Arial" font-size="14.00" fill="#000000">    </text>
<text text-anchor="start" x="1655.4302" y="-707.3" font-family="Arial" font-size="14.00" fill="#666666">[BASE TABLE]</text>
<polygon fill="none" stroke="#000000" points="1478.5,-664.5 1478.5,-694.5 1755.5,-694.5 1755.5,-664.5 1478.5,-664.5"/>
<text text-anchor="start" x="1485.5" y="-675.9" font-family="Arial" font-size="14.00" fill="#000000">user_id    </text>
<text text-anchor="start" x="1565.6024" y="-675.9" font-family="Arial" font-size="14.00" fill="#666666">[integer]</text>
<polygon fill="none" stroke="#000000" points="1478.5,-634.5 1478.5,-664.5 1755.5,-664.5 1755.5,-634.5 1478.5,-634.5"/>
<text text-anchor="start" x="1485.5" y="-645.9" font-family="Arial" font-size="14.00" fill="#000000">role_id    </text>
<text text-anchor="start" x="1561.709" y="-645.9" font-family="Arial" font-size="14.00" fill="#666666">[integer]</text>
</g>
<!-- public.user_roles&#45;&gt;public.roles -->
<g id="edge3" class="edge">
<title>public.user_roles:role_id&#45;&gt;public.roles:id</title>
<path fill="none" stroke="#000000" d="M1468.3762,-647.364C1402.4151,-616.1158 1535.1412,-252.5 1450.5,-252.5"/>
<polygon fill="#000000" stroke="#000000" points="1468.7154,-647.4355 1477.571,-653.9031 1473.6077,-648.4678 1478.5,-649.5 1478.5,-649.5 1478.5,-649.5 1473.6077,-648.4678 1479.429,-645.0969 1468.7154,-647.4355 1468.7154,-647.4355"/>
<text text-anchor="start" x="1254.6155" y="-659.5" font-family="Arial" font-size="10.00" fill="#000000">FOREIGN KEY (role_id) REFERENCES roles(id)</text>
</g>
<!-- public.user_roles&#45;&gt;public.users -->
<g id="edge4" class="edge">
<title>public.user_roles:user_id&#45;&gt;public.users:id</title>
<path fill="none" stroke="#000000" d="M1765.6129,-677.9074C1790.4911,-668.7451 1773.225,-622.1093 1755.5,-592 1703.9262,-504.3921 1607.0738,-568.6079 1555.5,-481 1514.126,-410.7184 1473.9444,-297.5 1555.5,-297.5"/>
<polygon fill="#000000" stroke="#000000" points="1765.3783,-677.9443 1754.7999,-675.0548 1760.4391,-678.7221 1755.5,-679.5 1755.5,-679.5 1755.5,-679.5 1760.4391,-678.7221 1756.2001,-683.9452 1765.3783,-677.9443 1765.3783,-677.9443"/>
<text text-anchor="start" x="1644.3345" y="-663.5" font-family="Arial" font-size="10.00" fill="#000000">FOREIGN KEY (user_id) REFERENCES users(id)</text>
</g>
</g>
</svg>
