<?xml version="1.0" encoding="UTF-8" standalone="no"?>
<!DOCTYPE svg PUBLIC "-//W3C//DTD SVG 1.1//EN"
 "http://www.w3.org/Graphics/SVG/1.1/DTD/svg11.dtd">
<!-- Generated by graphviz version 2.40.1 (20161225.0304)
 -->
<!-- Title: fawapp_db Pages: 1 -->
<svg width="826pt" height="339pt"
 viewBox="0.00 0.00 825.50 339.00" xmlns="http://www.w3.org/2000/svg" xmlns:xlink="http://www.w3.org/1999/xlink">
<g id="graph0" class="graph" transform="scale(1 1) rotate(0) translate(4 335)">
<title>fawapp_db</title>
<polygon fill="#ffffff" stroke="transparent" points="-4,4 -4,-335 821.5,-335 821.5,4 -4,4"/>
<!-- public.alembic_version -->
<g id="node1" class="node">
<title>public.alembic_version</title>
<polygon fill="#efefef" stroke="transparent" points="43.5,-162.5 43.5,-197.5 366.5,-197.5 366.5,-162.5 43.5,-162.5"/>
<polygon fill="none" stroke="#000000" points="43.5,-162.5 43.5,-197.5 366.5,-197.5 366.5,-162.5 43.5,-162.5"/>
<text text-anchor="start" x="50.2062" y="-175.3" font-family="Arial Bold" font-size="18.00" fill="#000000">public.alembic_version</text>
<text text-anchor="start" x="232.2258" y="-175.3" font-family="Arial" font-size="14.00" fill="#000000">    </text>
<text text-anchor="start" x="266.4306" y="-175.3" font-family="Arial" font-size="14.00" fill="#666666">[BASE TABLE]</text>
<polygon fill="none" stroke="#000000" points="43.5,-132.5 43.5,-162.5 366.5,-162.5 366.5,-132.5 43.5,-132.5"/>
<text text-anchor="start" x="50.5" y="-143.9" font-family="Arial" font-size="14.00" fill="#000000">version_num    </text>
<text text-anchor="start" x="164.8282" y="-143.9" font-family="Arial" font-size="14.00" fill="#666666">[varchar(32)]</text>
</g>
<!-- public.sample_items -->
<g id="node2" class="node">
<title>public.sample_items</title>
<polygon fill="#efefef" stroke="transparent" points="470.5,-252.5 470.5,-287.5 774.5,-287.5 774.5,-252.5 470.5,-252.5"/>
<polygon fill="none" stroke="#000000" points="470.5,-252.5 470.5,-287.5 774.5,-287.5 774.5,-252.5 470.5,-252.5"/>
<text text-anchor="start" x="477.2084" y="-265.3" font-family="Arial Bold" font-size="18.00" fill="#000000">public.sample_items</text>
<text text-anchor="start" x="640.2236" y="-265.3" font-family="Arial" font-size="14.00" fill="#000000">    </text>
<text text-anchor="start" x="674.4284" y="-265.3" font-family="Arial" font-size="14.00" fill="#666666">[BASE TABLE]</text>
<polygon fill="none" stroke="#000000" points="470.5,-222.5 470.5,-252.5 774.5,-252.5 774.5,-222.5 470.5,-222.5"/>
<text text-anchor="start" x="477.5" y="-233.9" font-family="Arial" font-size="14.00" fill="#000000">name    </text>
<text text-anchor="start" x="546.7132" y="-233.9" font-family="Arial" font-size="14.00" fill="#666666">[varchar(256)]</text>
<polygon fill="none" stroke="#000000" points="470.5,-192.5 470.5,-222.5 774.5,-222.5 774.5,-192.5 470.5,-192.5"/>
<text text-anchor="start" x="477.5" y="-203.9" font-family="Arial" font-size="14.00" fill="#000000">description    </text>
<text text-anchor="start" x="579.3822" y="-203.9" font-family="Arial" font-size="14.00" fill="#666666">[varchar]</text>
<polygon fill="none" stroke="#000000" points="470.5,-162.5 470.5,-192.5 774.5,-192.5 774.5,-162.5 470.5,-162.5"/>
<text text-anchor="start" x="477.5" y="-173.9" font-family="Arial" font-size="14.00" fill="#000000">id    </text>
<text text-anchor="start" x="522.594" y="-173.9" font-family="Arial" font-size="14.00" fill="#666666">[integer]</text>
<polygon fill="none" stroke="#000000" points="470.5,-132.5 470.5,-162.5 774.5,-162.5 774.5,-132.5 470.5,-132.5"/>
<text text-anchor="start" x="477.5" y="-143.9" font-family="Arial" font-size="14.00" fill="#000000">is_deleted    </text>
<text text-anchor="start" x="575.5042" y="-143.9" font-family="Arial" font-size="14.00" fill="#666666">[boolean]</text>
<polygon fill="none" stroke="#000000" points="470.5,-102.5 470.5,-132.5 774.5,-132.5 774.5,-102.5 470.5,-102.5"/>
<text text-anchor="start" x="477.5" y="-113.9" font-family="Arial" font-size="14.00" fill="#000000">created_at    </text>
<text text-anchor="start" x="577.8422" y="-113.9" font-family="Arial" font-size="14.00" fill="#666666">[timestamp with time zone]</text>
<polygon fill="none" stroke="#000000" points="470.5,-72.5 470.5,-102.5 774.5,-102.5 774.5,-72.5 470.5,-72.5"/>
<text text-anchor="start" x="477.5" y="-83.9" font-family="Arial" font-size="14.00" fill="#000000">updated_at    </text>
<text text-anchor="start" x="581.7468" y="-83.9" font-family="Arial" font-size="14.00" fill="#666666">[timestamp with time zone]</text>
<polygon fill="none" stroke="#000000" points="470.5,-42.5 470.5,-72.5 774.5,-72.5 774.5,-42.5 470.5,-42.5"/>
<text text-anchor="start" x="477.5" y="-53.9" font-family="Arial" font-size="14.00" fill="#000000">deleted_at    </text>
<text text-anchor="start" x="577.0708" y="-53.9" font-family="Arial" font-size="14.00" fill="#666666">[timestamp with time zone]</text>
</g>
</g>
</svg>
